<svg width="89" height="29" viewBox="0 0 89 29" fill="none" xmlns="http://www.w3.org/2000/svg">
<mask id="path-1-outside-1_989_232" maskUnits="userSpaceOnUse" x="66.5547" y="8.1582" width="19" height="21" fill="black">
<rect fill="white" x="66.5547" y="8.1582" width="19" height="21"/>
<path fill-rule="evenodd" clip-rule="evenodd" d="M82.482 9.1582H82.0986L76.0963 17.5459L70.1326 9.1582H67.7086L74.211 18.3924L67.5547 27.9344H69.9787L75.904 19.4697H76.2887L82.214 27.9344H84.638L84.4943 27.7272H82.482V24.8259L78.0201 18.3924L80.6269 14.6905H80.5248V11.4312H82.9219L82.9226 11.4303H82.482V9.1582Z"/>
</mask>
<path fill-rule="evenodd" clip-rule="evenodd" d="M82.482 9.1582H82.0986L76.0963 17.5459L70.1326 9.1582H67.7086L74.211 18.3924L67.5547 27.9344H69.9787L75.904 19.4697H76.2887L82.214 27.9344H84.638L84.4943 27.7272H82.482V24.8259L78.0201 18.3924L80.6269 14.6905H80.5248V11.4312H82.9219L82.9226 11.4303H82.482V9.1582Z" fill="white"/>
<path d="M82.0986 9.1582V8.80842H81.9188L81.8141 8.95465L82.0986 9.1582ZM82.482 9.1582H82.8318V8.80842H82.482V9.1582ZM76.0963 17.5459L75.8113 17.7486L76.0954 18.1483L76.3808 17.7495L76.0963 17.5459ZM70.1326 9.1582L70.4176 8.95552L70.3131 8.80842H70.1326V9.1582ZM67.7086 9.1582V8.80842H67.0345L67.4226 9.35959L67.7086 9.1582ZM74.211 18.3924L74.4979 18.5925L74.6382 18.3915L74.497 18.191L74.211 18.3924ZM67.5547 27.9344L67.2678 27.7343L66.8842 28.2842H67.5547V27.9344ZM69.9787 27.9344V28.2842H70.1608L70.2652 28.135L69.9787 27.9344ZM75.904 19.4697V19.12H75.7218L75.6174 19.2692L75.904 19.4697ZM76.2887 19.4697L76.5753 19.2692L76.4708 19.12H76.2887V19.4697ZM82.214 27.9344L81.9274 28.135L82.0319 28.2842H82.214V27.9344ZM84.638 27.9344V28.2842H85.3062L84.9254 27.7351L84.638 27.9344ZM84.4943 27.7272L84.7817 27.5279L84.6774 27.3774H84.4943V27.7272ZM82.482 27.7272H82.1323V28.077H82.482V27.7272ZM82.482 24.8259H82.8318V24.7164L82.7695 24.6265L82.482 24.8259ZM78.0201 18.3924L77.7341 18.191L77.5934 18.3909L77.7327 18.5918L78.0201 18.3924ZM80.6269 14.6905L80.9129 14.8919L81.301 14.3407H80.6269V14.6905ZM80.5248 14.6905H80.175V15.0403H80.5248V14.6905ZM80.5248 11.4312V11.0815H80.175V11.4312H80.5248ZM82.9219 11.4312V11.781H83.1035L83.208 11.6326L82.9219 11.4312ZM82.9226 11.4303L83.2087 11.6316L83.5966 11.0805H82.9226V11.4303ZM82.482 11.4303H82.1323V11.78H82.482V11.4303ZM82.0986 9.50798H82.482V8.80842H82.0986V9.50798ZM76.3808 17.7495L82.383 9.36176L81.8141 8.95465L75.8119 17.3424L76.3808 17.7495ZM69.8475 9.36089L75.8113 17.7486L76.3814 17.3433L70.4176 8.95552L69.8475 9.36089ZM67.7086 9.50798H70.1326V8.80842H67.7086V9.50798ZM74.497 18.191L67.9946 8.95682L67.4226 9.35959L73.925 18.5938L74.497 18.191ZM67.8416 28.1346L74.4979 18.5925L73.9241 18.1923L67.2678 27.7343L67.8416 28.1346ZM69.9787 27.5847H67.5547V28.2842H69.9787V27.5847ZM75.6174 19.2692L69.6921 27.7339L70.2652 28.135L76.1905 19.6703L75.6174 19.2692ZM76.2887 19.12H75.904V19.8195H76.2887V19.12ZM82.5006 27.7339L76.5753 19.2692L76.0022 19.6703L81.9274 28.135L82.5006 27.7339ZM84.638 27.5847H82.214V28.2842H84.638V27.5847ZM84.2069 27.9266L84.3506 28.1338L84.9254 27.7351L84.7817 27.5279L84.2069 27.9266ZM84.4943 27.3774H82.482V28.077H84.4943V27.3774ZM82.8318 27.7272V24.8259H82.1323V27.7272H82.8318ZM77.7327 18.5918L82.1946 25.0252L82.7695 24.6265L78.3075 18.1931L77.7327 18.5918ZM80.3409 14.4891L77.7341 18.191L78.3061 18.5938L80.9129 14.8919L80.3409 14.4891ZM80.5248 15.0403H80.6269V14.3407H80.5248V15.0403ZM80.175 11.4312V14.6905H80.8746V11.4312H80.175ZM82.9219 11.0815H80.5248V11.781H82.9219V11.0815ZM82.6366 11.2289L82.6359 11.2299L83.208 11.6326L83.2087 11.6316L82.6366 11.2289ZM82.482 11.78H82.9226V11.0805H82.482V11.78ZM82.1323 9.1582V11.4303H82.8318V9.1582H82.1323Z" fill="white" mask="url(#path-1-outside-1_989_232)"/>
<path d="M81.8301 12.7344H84.4375V15.3418H81.8301V12.7344Z" fill="#D9D9D9"/>
<path d="M83.7852 8.82227H86.3926V11.4297H83.7852V8.82227Z" fill="#D9D9D9"/>
<path d="M86.3926 12.0801H89V14.6875H86.3926V12.0801Z" fill="#D9D9D9"/>
<path d="M83.7852 23.8145H86.3926V26.4219H83.7852V23.8145Z" fill="#D9D9D9"/>
<path d="M58.5188 23.7317L58.5187 23.7317L58.5171 23.7372C58.3037 24.4548 58.1675 24.9993 58.0844 25.3659C58.071 25.4252 58.059 25.4797 58.0482 25.5296C58.0367 25.4788 58.0237 25.4231 58.0092 25.3626C57.921 24.995 57.7749 24.4499 57.5421 23.7319C57.5419 23.7315 57.5418 23.7311 57.5417 23.7307L52.9253 9.07364L52.8647 8.88125H52.663H49.7004H49.4994L49.4383 9.07275L49.7004 9.15625C49.4383 9.07275 49.4383 9.0728 49.4383 9.07291L49.4381 9.07339L49.4375 9.0753L49.4351 9.0829L49.4255 9.11294L49.3882 9.23014L49.2463 9.67543L48.7386 11.2683C48.3177 12.5885 47.755 14.3535 47.1875 16.133C46.0518 19.694 44.8986 23.3076 44.8224 23.5362L44.8223 23.5362L44.8211 23.5401C44.569 24.3353 44.4132 24.9288 44.3201 25.3255C44.3032 25.3979 44.2883 25.4637 44.2753 25.523C44.2622 25.4637 44.2474 25.3979 44.2304 25.3255C44.1373 24.9288 43.9815 24.3353 43.7294 23.5401L43.7292 23.5396L39.1121 9.07264L39.0511 8.88125H38.8502H36.5801H36.2035L36.3181 9.23999L42.3204 28.0162L42.3815 28.2075H42.5823H45.7373H45.9375L45.999 28.017L50.7316 13.3577L50.7316 13.3577L50.7335 13.3515C50.9475 12.6318 51.0745 12.0849 51.1483 11.7159C51.154 11.6878 51.1593 11.6606 51.1643 11.6345C51.1699 11.6617 51.1758 11.69 51.1821 11.7194C51.261 12.0893 51.398 12.6369 51.6316 13.3571C51.6317 13.3574 51.6318 13.3577 51.6319 13.358L56.287 28.0157L56.3479 28.2075H56.5491H59.7426H59.9434L60.0045 28.0162L66.0067 9.23999L66.1214 8.88125H65.7448H63.4747H63.274L63.2128 9.07239L58.5188 23.7317Z" fill="white" stroke="white" stroke-width="0.55"/>
<path d="M24.288 19.0089L24.288 19.0089L24.2913 19.0084C26.6984 18.5847 28.5074 18.2078 29.8138 17.8484C30.4671 17.6687 31.0003 17.4919 31.4224 17.3135C31.6121 17.2334 31.7825 17.1517 31.9332 17.0674V18.5451C31.9332 19.2143 31.8211 20.1553 31.7444 20.6934C31.4084 22.4782 30.445 24.244 28.6074 25.3099L28.6073 25.3098L28.6038 25.3119C27.6648 25.8754 26.8995 26.1583 26.1623 26.2766C25.4232 26.3952 24.6952 26.3513 23.8201 26.2373C22.1313 25.9847 20.6711 24.5485 20.6711 22.6621C20.6711 20.4731 22.4636 19.3068 24.288 19.0089ZM36.677 26.0095V25.7345H36.402H35.0554C34.784 25.7345 34.6378 25.5498 34.6378 25.3554V16.1212C34.6378 11.7251 31.3091 8.42031 26.4368 8.42031C21.5388 8.42031 18.1973 11.7517 18.1973 15.621V15.896H18.4723H20.5884H20.8634V15.621C20.8634 12.9938 23.1713 10.8172 26.3983 10.8172C29.4445 10.8172 31.3116 12.6298 31.6299 14.3625L31.6298 14.3625L31.6307 14.3667C31.688 14.6531 31.6545 14.8726 31.5696 15.0491C31.483 15.229 31.3315 15.3881 31.1145 15.5306C30.6715 15.8216 30.0159 16.006 29.3028 16.1602L29.3028 16.1601L29.2956 16.1618C28.5073 16.3545 27.5616 16.4909 26.5215 16.6409C26.4406 16.6526 26.3591 16.6644 26.2772 16.6762C25.1472 16.8397 23.9236 17.024 22.7169 17.316L22.716 17.3162C21.5899 17.5927 20.4221 18.1013 19.5331 18.9903C18.6373 19.8862 18.0434 21.15 18.0434 22.8929C18.0434 26.0088 20.5092 28.3081 23.1746 28.5914C25.5751 28.8666 27.6018 28.4342 29.3544 27.319C30.5617 26.5543 31.4256 25.3863 31.9842 24.4259C32.2408 23.9848 32.4356 23.5828 32.5717 23.2759C32.5531 23.3658 32.5341 23.4621 32.515 23.5637C32.398 24.1879 32.2794 25.024 32.2794 25.8556C32.2794 27.258 33.423 28.2083 34.7091 28.2083H36.402H36.677V27.9333V26.0095Z" fill="white" stroke="white" stroke-width="0.55"/>
<path d="M3.42965 1V0.725H3.15465H1H0.725V1V27.9331V28.2081H1H16.2749H16.5499V27.9331V25.9709V25.6959H16.2749H3.42965V1Z" fill="white" stroke="white" stroke-width="0.55"/>
</svg>
