<svg width="17" height="13" viewBox="0 0 17 13" fill="none" xmlns="http://www.w3.org/2000/svg">
<g clip-path="url(#clip0_1030_3)">
<path d="M0.910747 12.0182L5.46448 6.90852M15.4827 12.0182L10.929 6.90852M0 3.50209L6.58015 7.60394C7.16439 7.96817 7.45647 8.15033 7.77222 8.22102C8.05128 8.28361 8.34217 8.28361 8.62122 8.22102C8.93698 8.15033 9.22905 7.96817 9.8133 7.60394L16.3934 3.50209M2.91439 12.8698H13.4791C14.4992 12.8698 15.0093 12.8698 15.3989 12.6841C15.7416 12.5209 16.0203 12.2603 16.1949 11.9398C16.3934 11.5755 16.3934 11.0985 16.3934 10.1446V3.67241C16.3934 2.71852 16.3934 2.24157 16.1949 1.87724C16.0203 1.55675 15.7416 1.29619 15.3989 1.13291C15.0093 0.947266 14.4992 0.947266 13.4791 0.947266H2.91439C1.89426 0.947266 1.38419 0.947266 0.994554 1.13291C0.651813 1.29619 0.37316 1.55675 0.198534 1.87724C-6.78559e-08 2.24157 0 2.71852 0 3.67241V10.1446C0 11.0985 -6.78559e-08 11.5755 0.198534 11.9398C0.37316 12.2603 0.651813 12.5209 0.994554 12.6841C1.38419 12.8698 1.89425 12.8698 2.91439 12.8698Z" stroke="#A8463F" stroke-width="1.64924" stroke-linecap="round" stroke-linejoin="round"/>
</g>
<defs>
<clipPath id="clip0_1030_3">
<rect width="16.3934" height="11.9225" fill="white" transform="translate(0 0.947266)"/>
</clipPath>
</defs>
</svg>
