<svg width="16" height="16" viewBox="0 0 16 16" fill="none" xmlns="http://www.w3.org/2000/svg">
<path d="M0.806641 2.40111C0.806641 1.91798 0.977729 1.51942 1.3199 1.20543C1.66208 0.891367 2.10689 0.734375 2.65442 0.734375C3.19216 0.734375 3.62718 0.889003 3.95956 1.19818C4.30174 1.51705 4.47282 1.93249 4.47282 2.44466C4.47282 2.90846 4.30663 3.29495 3.97425 3.60412C3.63207 3.923 3.18237 4.08244 2.62505 4.08244H2.61044C2.0727 4.08244 1.63768 3.923 1.30522 3.60412C0.972833 3.28524 0.806641 2.88424 0.806641 2.40111ZM0.99731 15.0831V5.40134H4.25287V15.0831H0.99731ZM6.05667 15.0831H9.31222V9.67692C9.31222 9.33871 9.35139 9.0779 9.42955 8.89432C9.56645 8.56574 9.77417 8.28796 10.0528 8.06091C10.3314 7.83387 10.6809 7.72034 11.1013 7.72034C12.1963 7.72034 12.7438 8.44985 12.7438 9.90886V15.0831H15.9994V9.532C15.9994 8.10194 15.6572 7.01734 14.9729 6.27821C14.2885 5.539 13.3842 5.16939 12.2599 5.16939C10.9987 5.16939 10.0162 5.7057 9.31222 6.77822V6.80718H9.29754L9.31222 6.77822V5.40134H6.05667C6.07617 5.71051 6.08596 6.67196 6.08596 8.28551C6.08596 9.89915 6.07617 12.165 6.05667 15.0831Z" fill="#A8463F"/>
</svg>
