<svg xmlns:xlink="http://www.w3.org/1999/xlink" width="12" height="29" viewBox="0 0 10 24" fill="none" xmlns="http://www.w3.org/2000/svg">
<path d="M4.53773 22.1444L4.605 22.098C5.02727 22.7755 5.49955 23.4136 6.025 24H7.43045C6.65136 23.2784 5.97182 22.4493 5.39364 21.5395C6.42318 20.7633 6.77 19.1476 6.15682 17.8735L5.92955 17.4011L5.53591 17.6738C4.89182 18.12 4.50636 18.8896 4.42364 19.7127C4.26091 19.3407 4.11273 18.9605 3.98091 18.5711C5.14591 18.1435 5.83136 16.6882 5.51318 15.2645L5.39545 14.7376L4.95636 14.8789C4.23864 15.1096 3.70091 15.732 3.44318 16.5C3.36818 16.0931 3.30864 15.6802 3.26591 15.2624C4.48136 15.2078 5.45455 14.0171 5.45455 12.5455V12H5C4.26 12 3.60864 12.4309 3.19364 13.0882C3.20818 12.6709 3.24091 12.2569 3.28818 11.8456C4.47227 12.1675 5.66682 11.3198 5.98364 9.9L6.10136 9.37309L5.66227 9.23182C4.94818 9.00218 4.22727 9.216 3.685 9.72055C3.78864 9.324 3.90955 8.93509 4.04364 8.55273C5.11773 9.22964 6.45318 8.78236 7.06546 7.50982L7.29273 7.03745L6.89909 6.76473C6.25818 6.32073 5.51455 6.30327 4.88136 6.62345C5.06636 6.27273 5.26727 5.93291 5.48 5.60345C6.37136 6.59345 7.75955 6.57655 8.62636 5.53691L8.94773 5.15127L8.62636 4.76564C8.08818 4.11982 7.34773 3.87218 6.65 4.00909L6.50273 3.81818H6.81818C8.57545 3.81818 10 2.10873 10 0H9.54545C7.83636 0 6.44591 1.61836 6.37091 3.64745L6.05455 3.23836C6.05136 3.24164 6.04864 3.24545 6.04591 3.24873C6.15091 2.42073 5.94455 1.54636 5.41318 0.908727L5.09182 0.523091L4.77045 0.908727C3.88273 1.974 3.88273 3.70036 4.77045 4.76564L4.82773 4.83436C4.55864 5.24291 4.31 5.66891 4.08091 6.10855C4.005 5.27345 3.61682 4.49018 2.96409 4.038L2.57045 3.76527L2.34318 4.23764C1.71545 5.54182 2.08818 7.20982 3.175 7.96309L3.24727 8.01327C3.07545 8.49055 2.92682 8.97927 2.79909 9.47673C2.54636 8.69236 2.00136 8.05527 1.27273 7.82127L0.833636 7.68L0.715909 8.20691C0.390909 9.66164 1.11045 11.1573 2.32318 11.5473L2.40273 11.5729C2.33955 12.0851 2.30045 12.6022 2.28455 13.1231C1.87045 12.4451 1.20773 12 0.454545 12H0V12.5455C0 14.0515 1.01773 15.2727 2.27273 15.2727H2.35227C2.40136 15.7898 2.47409 16.2993 2.56864 16.8011C2.02364 16.2796 1.29091 16.0582 0.566364 16.2911L0.127273 16.4324L0.245 16.9593C0.57 18.414 1.81591 19.2775 3.02864 18.888L3.09909 18.8651C3.25727 19.3456 3.43773 19.8142 3.63909 20.2702C3.00136 19.9385 2.24773 19.9522 1.59955 20.4016L1.20591 20.6744L1.43318 21.1467C2.06091 22.4504 3.45091 22.8976 4.53773 22.1444V22.1444Z" fill="#F3F6FA"></path>
</svg>