<svg width="351" height="65" viewBox="0 0 351 65" fill="none" xmlns="http://www.w3.org/2000/svg">
<path d="M0 62.0699L5.39626 60.7208V3.16078L0 1.81171V0.462646H24.2832C33.3968 0.462646 40.0822 1.93163 44.3392 4.86959C48.6562 7.74759 50.8147 11.525 50.8147 16.2017C50.8147 19.4395 49.8854 22.0477 48.0267 24.0263C46.168 26.0049 43.7996 27.4739 40.9216 28.4332C37.8637 29.5125 34.566 30.0821 31.0285 30.1421V30.5917C35.4054 30.7716 39.2128 31.4312 42.4506 32.5704C45.7483 33.6496 48.4764 35.3285 50.6349 37.6069C52.8533 39.8853 53.9626 42.7933 53.9626 46.3308C53.9626 51.6671 51.7741 55.8642 47.3971 58.9221C43.0202 61.92 35.9151 63.419 26.0819 63.419H0V62.0699ZM24.2832 29.2427C26.2618 29.2427 28.0905 28.7031 29.7693 27.6238C31.5081 26.4846 32.8872 24.9257 33.9065 22.9471C34.9857 20.9085 35.5254 18.66 35.5254 16.2017C35.5254 13.5636 34.9857 11.2252 33.9065 9.1866C32.8872 7.14801 31.5081 5.55911 29.7693 4.4199C28.0905 3.28069 26.2618 2.71109 24.2832 2.71109H20.236V29.2427H24.2832ZM26.0819 61.1705C29.7993 61.1705 32.8272 59.8515 35.1656 57.2133C37.504 54.5751 38.6732 50.9476 38.6732 46.3308C38.6732 41.714 37.504 38.0866 35.1656 35.4484C32.8272 32.8102 29.7993 31.4911 26.0819 31.4911H20.236V61.1705H26.0819Z" fill="white"/>
<path d="M55.7332 62.0699L61.1295 60.7208V3.16078L55.7332 1.81171V0.462646H67.4251C72.8213 0.462646 75.5195 3.16078 75.5195 8.55703V60.7208L80.9157 62.0699V63.419H55.7332V62.0699Z" fill="white"/>
<path d="M105.635 64.768C98.1997 64.768 92.3537 62.6695 88.0967 58.4724C83.8996 54.2154 81.8011 48.3694 81.8011 40.9346C81.8011 33.4997 83.8996 27.6838 88.0967 23.4867C92.3537 19.2296 98.1997 17.1011 105.635 17.1011C113.069 17.1011 118.885 19.2296 123.082 23.4867C127.339 27.6838 129.468 33.4997 129.468 40.9346C129.468 48.3694 127.339 54.2154 123.082 58.4724C118.885 62.6695 113.069 64.768 105.635 64.768ZM105.635 62.9693C108.033 62.9693 110.041 61.2905 111.66 57.9328C113.339 54.5751 114.179 48.909 114.179 40.9346C114.179 32.9601 113.339 27.294 111.66 23.9364C110.041 20.5787 108.033 18.8999 105.635 18.8999C103.236 18.8999 101.198 20.5787 99.5188 23.9364C97.8999 27.294 97.0904 32.9601 97.0904 40.9346C97.0904 48.909 97.8999 54.5751 99.5188 57.9328C101.198 61.2905 103.236 62.9693 105.635 62.9693Z" fill="white"/>
<path d="M153.333 64.768C149.616 64.768 146.288 63.9586 143.35 62.3397C141.911 61.5603 140.742 60.7209 139.842 59.8215C138.883 61.1406 137.834 62.1598 136.695 62.8793C136.155 63.2391 135.555 63.5689 134.896 63.8687H132.647V48.5793H136.245C137.024 51.0975 138.164 53.4359 139.663 55.5944C142.84 60.2112 146.798 62.5196 151.534 62.5196C154.053 62.5196 155.941 61.92 157.2 60.7208C158.519 59.4617 159.179 57.663 159.179 55.3246C159.179 53.346 158.28 51.6971 156.481 50.378C154.742 48.999 151.984 47.3201 148.207 45.3415C144.969 43.7226 142.331 42.2836 140.292 41.0245C138.314 39.7054 136.605 38.0865 135.166 36.1679C133.787 34.1893 133.097 31.8809 133.097 29.2427C133.097 25.6452 134.626 22.7372 137.684 20.5187C140.802 18.2403 145.568 17.1011 151.984 17.1011C155.162 17.1011 158.1 17.9405 160.798 19.6194C162.117 20.3988 163.256 21.2083 164.216 22.0477C164.995 20.9684 166.044 19.9491 167.363 18.9898C168.383 18.3902 168.982 18.0604 169.162 18.0005H171.411V33.2899H167.813C166.914 30.7117 165.804 28.4033 164.485 26.3647C161.487 21.6879 157.92 19.3495 153.783 19.3495C152.164 19.3495 150.785 19.9491 149.646 21.1483C148.506 22.3475 147.937 23.8464 147.937 25.6452C147.937 27.9236 148.896 29.8423 150.815 31.4012C152.733 32.9001 155.641 34.6389 159.539 36.6176C162.717 38.2364 165.235 39.6754 167.094 40.9346C169.012 42.1337 170.631 43.6327 171.95 45.4315C173.329 47.2302 174.019 49.3288 174.019 51.7271C174.019 60.4211 167.124 64.768 153.333 64.768Z" fill="white"/>
<path d="M197.406 64.768C193.689 64.768 190.361 63.9586 187.423 62.3397C185.984 61.5603 184.815 60.7209 183.915 59.8215C182.956 61.1406 181.907 62.1598 180.768 62.8793C180.228 63.2391 179.628 63.5689 178.969 63.8687H176.72V48.5793H180.318C181.097 51.0975 182.237 53.4359 183.735 55.5944C186.913 60.2112 190.871 62.5196 195.607 62.5196C198.126 62.5196 200.014 61.92 201.273 60.7208C202.592 59.4617 203.252 57.663 203.252 55.3246C203.252 53.346 202.353 51.6971 200.554 50.378C198.815 48.999 196.057 47.3201 192.28 45.3415C189.042 43.7226 186.404 42.2836 184.365 41.0245C182.386 39.7054 180.678 38.0865 179.239 36.1679C177.86 34.1893 177.17 31.8809 177.17 29.2427C177.17 25.6452 178.699 22.7372 181.757 20.5187C184.875 18.2403 189.641 17.1011 196.057 17.1011C199.235 17.1011 202.173 17.9405 204.871 19.6194C206.19 20.3988 207.329 21.2083 208.288 22.0477C209.068 20.9684 210.117 19.9491 211.436 18.9898C212.456 18.3902 213.055 18.0604 213.235 18.0005H215.483V33.2899H211.886C210.987 30.7117 209.877 28.4033 208.558 26.3647C205.56 21.6879 201.993 19.3495 197.856 19.3495C196.237 19.3495 194.858 19.9491 193.719 21.1483C192.579 22.3475 192.01 23.8464 192.01 25.6452C192.01 27.9236 192.969 29.8423 194.888 31.4012C196.806 32.9001 199.714 34.6389 203.612 36.6176C206.79 38.2364 209.308 39.6754 211.166 40.9346C213.085 42.1337 214.704 43.6327 216.023 45.4315C217.402 47.2302 218.092 49.3288 218.092 51.7271C218.092 60.4211 211.196 64.768 197.406 64.768Z" fill="white"/>
<path d="M244.177 64.768C236.742 64.768 230.896 62.6695 226.639 58.4724C222.442 54.2154 220.344 48.3694 220.344 40.9346C220.344 33.4997 222.442 27.6838 226.639 23.4867C230.896 19.2296 236.742 17.1011 244.177 17.1011C251.612 17.1011 257.428 19.2296 261.625 23.4867C265.882 27.6838 268.011 33.4997 268.011 40.9346C268.011 48.3694 265.882 54.2154 261.625 58.4724C257.428 62.6695 251.612 64.768 244.177 64.768ZM244.177 62.9693C246.575 62.9693 248.584 61.2905 250.203 57.9328C251.882 54.5751 252.721 48.909 252.721 40.9346C252.721 32.9601 251.882 27.294 250.203 23.9364C248.584 20.5787 246.575 18.8999 244.177 18.8999C241.779 18.8999 239.74 20.5787 238.061 23.9364C236.442 27.294 235.633 32.9601 235.633 40.9346C235.633 48.909 236.442 54.5751 238.061 57.9328C239.74 61.2905 241.779 62.9693 244.177 62.9693Z" fill="white"/>
<path d="M270.74 62.0699L276.137 60.7208V21.1483L270.74 19.7992V18.4502H278.835C282.372 18.4502 285.16 19.5894 287.199 21.8678C287.978 22.7672 288.638 23.8764 289.177 25.1955C290.077 23.5167 291.036 22.1676 292.055 21.1483C294.754 18.4502 297.841 17.1011 301.319 17.1011C304.797 17.1011 307.855 17.8806 310.493 19.4395C313.131 20.9384 315.169 23.007 316.608 25.6452C317.508 23.9064 318.467 22.4974 319.486 21.4181C322.245 18.5401 325.332 17.1011 328.75 17.1011C331.928 17.1011 334.776 17.7606 337.294 19.0797C339.872 20.3988 341.851 22.1976 343.23 24.476C344.669 26.7544 345.388 29.2427 345.388 31.9408V60.7208L350.785 62.0699V63.419H339.093C333.697 63.419 330.998 60.7208 330.998 55.3246V31.9408C330.998 28.0435 330.399 25.1355 329.2 23.2169C328.001 21.2382 326.651 20.2489 325.153 20.2489C323.414 20.2489 321.645 21.4481 319.846 23.8464C319.127 24.9856 318.497 26.1848 317.958 27.4439V60.7208L323.354 62.0699V63.419H298.171V62.0699L303.567 60.7208V31.9408C303.567 28.0435 302.968 25.1355 301.769 23.2169C300.57 21.2382 299.221 20.2489 297.722 20.2489C295.983 20.2489 294.214 21.4481 292.415 23.8464C291.696 24.9856 291.066 26.1848 290.527 27.4439V60.7208L295.923 62.0699V63.419H270.74V62.0699Z" fill="white"/>
</svg>
