<svg width="95" height="10" viewBox="0 0 95 10" fill="none" xmlns="http://www.w3.org/2000/svg">
<path d="M88.7097 9V2.616H90.1497L90.2097 3.828H90.2817C90.4657 3.388 90.7457 3.056 91.1217 2.832C91.4977 2.608 91.9177 2.496 92.3817 2.496C92.8137 2.496 93.2017 2.584 93.5457 2.76C93.8897 2.936 94.1577 3.22 94.3497 3.612C94.5497 4.004 94.6497 4.524 94.6497 5.172V9H93.1497V5.496C93.1497 4.896 93.0417 4.452 92.8257 4.164C92.6177 3.876 92.2777 3.732 91.8057 3.732C91.3017 3.732 90.9097 3.904 90.6297 4.248C90.3497 4.592 90.2097 5.004 90.2097 5.484V9H88.7097Z" fill="white"/>
<path d="M84.3567 9.108C83.7247 9.108 83.1687 8.976 82.6887 8.712C82.2167 8.448 81.8487 8.068 81.5847 7.572C81.3207 7.076 81.1887 6.488 81.1887 5.808C81.1887 5.152 81.3127 4.576 81.5607 4.08C81.8167 3.584 82.1807 3.196 82.6527 2.916C83.1327 2.636 83.7007 2.496 84.3567 2.496C84.9887 2.496 85.5367 2.632 86.0007 2.904C86.4727 3.168 86.8407 3.548 87.1047 4.044C87.3687 4.532 87.5007 5.12 87.5007 5.808C87.5007 6.464 87.3727 7.04 87.1167 7.536C86.8687 8.032 86.5087 8.42 86.0367 8.7C85.5727 8.972 85.0127 9.108 84.3567 9.108ZM84.3447 7.872C84.8407 7.872 85.2367 7.7 85.5327 7.356C85.8367 7.004 85.9887 6.488 85.9887 5.808C85.9887 5.128 85.8407 4.612 85.5447 4.26C85.2487 3.908 84.8527 3.732 84.3567 3.732C83.8607 3.732 83.4607 3.908 83.1567 4.26C82.8527 4.604 82.7007 5.12 82.7007 5.808C82.7007 6.48 82.8487 6.992 83.1447 7.344C83.4407 7.696 83.8407 7.872 84.3447 7.872Z" fill="white"/>
<path d="M79.2756 9C78.6836 9 78.2836 8.872 78.0756 8.616C77.8676 8.36 77.7636 8.004 77.7636 7.548V3.828H76.5876V2.616H77.7636V0.816004L79.2516 0.660004V2.616H80.6076V3.828H79.2516V7.272C79.2516 7.472 79.2956 7.608 79.3836 7.68C79.4716 7.744 79.6076 7.776 79.7916 7.776H80.6076V9H79.2756Z" fill="white"/>
<path d="M73.2172 9.12C72.3132 9.12 71.6132 8.924 71.1172 8.532C70.6292 8.14 70.3892 7.628 70.3972 6.996H71.8732C71.8812 7.38 72.0132 7.66 72.2692 7.836C72.5332 8.004 72.8612 8.088 73.2532 8.088C73.6612 8.088 73.9692 8.016 74.1772 7.872C74.3932 7.728 74.5012 7.528 74.5012 7.272C74.5012 6.944 74.3852 6.728 74.1532 6.624C73.9292 6.52 73.5692 6.432 73.0732 6.36C72.5932 6.288 72.1652 6.192 71.7892 6.072C71.4132 5.952 71.1132 5.768 70.8892 5.52C70.6732 5.264 70.5652 4.912 70.5652 4.464C70.5652 3.824 70.8132 3.336 71.3092 3C71.8052 2.664 72.4532 2.496 73.2532 2.496C74.0612 2.496 74.6972 2.672 75.1612 3.024C75.6332 3.376 75.8732 3.868 75.8812 4.5H74.4172C74.4092 4.172 74.2972 3.928 74.0812 3.768C73.8652 3.608 73.5772 3.528 73.2172 3.528C72.8412 3.528 72.5532 3.6 72.3532 3.744C72.1612 3.888 72.0652 4.076 72.0652 4.308C72.0652 4.58 72.1812 4.776 72.4132 4.896C72.6532 5.016 73.0252 5.108 73.5292 5.172C73.9772 5.228 74.3892 5.316 74.7652 5.436C75.1412 5.548 75.4412 5.732 75.6652 5.988C75.8972 6.244 76.0132 6.624 76.0132 7.128C76.0132 7.808 75.7612 8.312 75.2572 8.64C74.7612 8.96 74.0812 9.12 73.2172 9.12Z" fill="white"/>
<path d="M66.5668 9.108C65.9188 9.108 65.3588 8.972 64.8868 8.7C64.4228 8.428 64.0628 8.048 63.8068 7.56C63.5588 7.072 63.4348 6.5 63.4348 5.844C63.4348 5.164 63.5588 4.576 63.8068 4.08C64.0628 3.576 64.4188 3.188 64.8748 2.916C65.3388 2.636 65.8828 2.496 66.5068 2.496C67.2348 2.496 67.8308 2.656 68.2948 2.976C68.7588 3.288 69.0908 3.72 69.2908 4.272C69.4988 4.816 69.5668 5.436 69.4948 6.132H64.9108C64.9108 6.716 65.0628 7.168 65.3668 7.488C65.6708 7.8 66.0708 7.956 66.5668 7.956C66.9508 7.956 67.2748 7.872 67.5388 7.704C67.8028 7.528 67.9708 7.296 68.0428 7.008H69.4708C69.4148 7.424 69.2548 7.792 68.9908 8.112C68.7268 8.424 68.3868 8.668 67.9708 8.844C67.5548 9.02 67.0868 9.108 66.5668 9.108ZM66.5068 3.648C66.0588 3.648 65.6948 3.78 65.4148 4.044C65.1348 4.308 64.9708 4.668 64.9228 5.124H68.0308C68.0068 4.62 67.8508 4.248 67.5628 4.008C67.2748 3.768 66.9228 3.648 66.5068 3.648Z" fill="white"/>
<path d="M53.6751 9.00001L51.7791 0.252014H53.5311L54.4311 4.87201L54.8631 7.26001H54.9471L56.5551 0.252014H58.5231L60.1551 7.28401H60.2391L60.6471 4.88401L61.5231 0.252014H63.2751L61.3791 9.00001H59.1831L57.5751 2.35201H57.4911L55.8591 9.00001H53.6751Z" fill="white"/>
<path d="M45.7953 9.12C44.8913 9.12 44.1913 8.924 43.6953 8.532C43.2073 8.14 42.9673 7.628 42.9753 6.996H44.4513C44.4593 7.38 44.5913 7.66 44.8473 7.836C45.1113 8.004 45.4393 8.088 45.8313 8.088C46.2393 8.088 46.5473 8.016 46.7553 7.872C46.9713 7.728 47.0793 7.528 47.0793 7.272C47.0793 6.944 46.9633 6.728 46.7313 6.624C46.5073 6.52 46.1473 6.432 45.6513 6.36C45.1713 6.288 44.7433 6.192 44.3673 6.072C43.9913 5.952 43.6913 5.768 43.4673 5.52C43.2513 5.264 43.1433 4.912 43.1433 4.464C43.1433 3.824 43.3913 3.336 43.8873 3C44.3833 2.664 45.0313 2.496 45.8313 2.496C46.6393 2.496 47.2753 2.672 47.7393 3.024C48.2113 3.376 48.4513 3.868 48.4593 4.5H46.9953C46.9873 4.172 46.8753 3.928 46.6593 3.768C46.4433 3.608 46.1553 3.528 45.7953 3.528C45.4193 3.528 45.1313 3.6 44.9313 3.744C44.7393 3.888 44.6433 4.076 44.6433 4.308C44.6433 4.58 44.7593 4.776 44.9913 4.896C45.2313 5.016 45.6033 5.108 46.1073 5.172C46.5553 5.228 46.9673 5.316 47.3433 5.436C47.7193 5.548 48.0193 5.732 48.2433 5.988C48.4753 6.244 48.5913 6.624 48.5913 7.128C48.5913 7.808 48.3393 8.312 47.8353 8.64C47.3393 8.96 46.6593 9.12 45.7953 9.12Z" fill="white"/>
<path d="M38.0067 9.108C37.2387 9.108 36.6187 8.828 36.1467 8.268C35.6747 7.708 35.4387 6.888 35.4387 5.808C35.4387 4.72 35.6747 3.896 36.1467 3.336C36.6187 2.776 37.2387 2.496 38.0067 2.496C38.5267 2.496 38.9707 2.616 39.3387 2.856C39.7067 3.088 39.9667 3.4 40.1187 3.792H40.2027L40.2627 2.616H41.7027V9H40.2027V7.812H40.1187C39.9667 8.204 39.7067 8.52 39.3387 8.76C38.9707 8.992 38.5267 9.108 38.0067 9.108ZM38.5707 7.884C38.9307 7.884 39.2267 7.8 39.4587 7.632C39.6987 7.464 39.8787 7.248 39.9987 6.984C40.1187 6.712 40.1787 6.428 40.1787 6.132V5.472C40.1787 5.168 40.1187 4.884 39.9987 4.62C39.8787 4.348 39.6987 4.132 39.4587 3.972C39.2267 3.804 38.9307 3.72 38.5707 3.72C38.0907 3.72 37.7027 3.892 37.4067 4.236C37.1107 4.58 36.9627 5.104 36.9627 5.808C36.9627 6.504 37.1107 7.024 37.4067 7.368C37.7027 7.712 38.0907 7.884 38.5707 7.884Z" fill="white"/>
<path d="M31.5512 9.108C30.9032 9.108 30.3432 8.972 29.8712 8.7C29.4072 8.428 29.0472 8.048 28.7912 7.56C28.5432 7.072 28.4192 6.5 28.4192 5.844C28.4192 5.164 28.5432 4.576 28.7912 4.08C29.0472 3.576 29.4032 3.188 29.8592 2.916C30.3232 2.636 30.8672 2.496 31.4912 2.496C32.2192 2.496 32.8152 2.656 33.2792 2.976C33.7432 3.288 34.0752 3.72 34.2752 4.272C34.4832 4.816 34.5512 5.436 34.4792 6.132H29.8952C29.8952 6.716 30.0472 7.168 30.3512 7.488C30.6552 7.8 31.0552 7.956 31.5512 7.956C31.9352 7.956 32.2592 7.872 32.5232 7.704C32.7872 7.528 32.9552 7.296 33.0272 7.008H34.4552C34.3992 7.424 34.2392 7.792 33.9752 8.112C33.7112 8.424 33.3712 8.668 32.9552 8.844C32.5392 9.02 32.0712 9.108 31.5512 9.108ZM31.4912 3.648C31.0432 3.648 30.6792 3.78 30.3992 4.044C30.1192 4.308 29.9552 4.668 29.9072 5.124H33.0152C32.9912 4.62 32.8352 4.248 32.5472 4.008C32.2592 3.768 31.9072 3.648 31.4912 3.648Z" fill="white"/>
<path d="M24.3269 9.00001V2.61601H25.6829L25.7549 3.68401H25.8029C25.9469 3.27601 26.1789 2.98401 26.4989 2.80801C26.8269 2.62401 27.1989 2.53201 27.6149 2.53201H27.9869V3.94801C27.9389 3.94801 27.8789 3.94801 27.8069 3.94801C27.7429 3.94001 27.6709 3.93601 27.5909 3.93601C27.0069 3.93601 26.5709 4.07601 26.2829 4.35601C26.0029 4.62801 25.8509 5.01201 25.8269 5.50801V9.00001H24.3269Z" fill="white"/>
<path d="M19.0223 9.10801C18.2543 9.10801 17.6343 8.82801 17.1623 8.26801C16.6903 7.70801 16.4543 6.88801 16.4543 5.80801C16.4543 4.72001 16.6903 3.89601 17.1623 3.33601C17.6343 2.77601 18.2543 2.49601 19.0223 2.49601C19.5423 2.49601 19.9863 2.61601 20.3543 2.85601C20.7223 3.08801 20.9823 3.40001 21.1343 3.79201H21.2183V0.252014H22.7183L22.7063 9.00001H21.2663L21.2183 7.81201H21.1343C20.9823 8.20401 20.7223 8.52001 20.3543 8.76001C19.9863 8.99201 19.5423 9.10801 19.0223 9.10801ZM19.5863 7.88401C19.9463 7.88401 20.2423 7.80001 20.4743 7.63201C20.7143 7.46401 20.8943 7.24801 21.0143 6.98401C21.1343 6.71201 21.1943 6.42801 21.1943 6.13201V5.47201C21.1943 5.16801 21.1343 4.88401 21.0143 4.62001C20.8943 4.34801 20.7143 4.13201 20.4743 3.97201C20.2423 3.80401 19.9463 3.72001 19.5863 3.72001C19.1063 3.72001 18.7183 3.89201 18.4223 4.23601C18.1263 4.58001 17.9783 5.10401 17.9783 5.80801C17.9783 6.50401 18.1263 7.02401 18.4223 7.36801C18.7183 7.71201 19.1063 7.88401 19.5863 7.88401Z" fill="white"/>
<path d="M9.36206 9V2.616H10.8021L10.8621 3.828H10.9341C11.1181 3.388 11.3981 3.056 11.7741 2.832C12.1501 2.608 12.5701 2.496 13.0341 2.496C13.4661 2.496 13.8541 2.584 14.1981 2.76C14.5421 2.936 14.8101 3.22 15.0021 3.612C15.2021 4.004 15.3021 4.524 15.3021 5.172V9H13.8021V5.496C13.8021 4.896 13.6941 4.452 13.4781 4.164C13.2701 3.876 12.9301 3.732 12.4581 3.732C11.9541 3.732 11.5621 3.904 11.2821 4.248C11.0021 4.592 10.8621 5.004 10.8621 5.484V9H9.36206Z" fill="white"/>
<path d="M0.273468 9.00001L3.28547 0.252014H5.51747L8.52947 9.00001H6.88547L6.22547 7.08001H2.57747L1.92947 9.00001H0.273468ZM2.96147 5.85601H5.85347L4.98947 3.39601L4.43747 1.70401H4.37747L3.81347 3.39601L2.96147 5.85601Z" fill="white"/>
</svg>
