<svg width="327" height="80" viewBox="0 0 327 80" fill="none" xmlns="http://www.w3.org/2000/svg">
<path d="M248.167 0V77.9999H259.583V0H248.167Z" fill="white"/>
<path fill-rule="evenodd" clip-rule="evenodd" d="M144.942 79.259C140.437 79.259 136.674 78.2097 133.652 76.1113C133.322 75.8817 133 75.643 132.687 75.3953V77.9999H122.614V1.25908H134.114V34.1348C136.935 32.3209 140.349 31.4139 144.355 31.4139C148.691 31.4139 152.469 32.4492 155.686 34.5196C158.904 36.5901 161.394 39.4301 163.157 43.0395C164.948 46.6208 165.843 50.7198 165.843 55.3365C165.843 59.8692 164.962 63.9401 163.199 67.5495C161.464 71.1589 159.03 74.0128 155.896 76.1113C152.762 78.2097 149.111 79.259 144.942 79.259ZM133.694 48.1178C133.023 50.1882 132.687 52.5945 132.687 55.3365C132.687 58.0785 133.023 60.4847 133.694 62.5552C134.366 64.6257 135.457 66.2345 136.968 67.3816C138.507 68.5288 140.549 69.1024 143.096 69.1024C145.558 69.1024 147.572 68.4868 149.139 67.2557C150.706 66.0246 151.867 64.3738 152.623 62.3033C153.378 60.2049 153.756 57.8826 153.756 55.3365C153.756 52.8183 153.364 50.524 152.581 48.4535C151.797 46.355 150.58 44.6902 148.929 43.4591C147.306 42.2001 145.222 41.5705 142.676 41.5705C140.298 41.5705 138.367 42.1441 136.884 43.2913C135.429 44.4384 134.366 46.0473 133.694 48.1178Z" fill="white"/>
<path d="M104.566 51.2235V77.9999H115.982V48.2017C115.982 43.2493 114.653 39.2482 111.995 36.1984C109.365 33.1207 105.462 31.5818 100.285 31.5818C97.2635 31.5818 94.5076 32.2533 92.0174 33.5963C89.7375 34.814 87.8775 36.4874 86.4372 38.6167C85.3632 36.6843 83.8797 35.0948 81.9867 33.8481C79.7203 32.3372 76.8105 31.5818 73.257 31.5818C70.1513 31.5818 67.3393 32.2673 64.8212 33.6383C62.9182 34.686 61.3094 36.0196 59.9947 37.6391V32.673H49.922V77.9999H61.4216V50.552C61.4216 47.9499 62.1351 45.8374 63.5621 44.2146C65.017 42.5638 66.9336 41.7384 69.3119 41.7384C71.8021 41.7384 73.7467 42.5778 75.1457 44.2566C76.5726 45.9074 77.2861 48.2297 77.2861 51.2235V77.9999H88.7018V50.552C88.7018 48.8172 89.0236 47.2924 89.6671 45.9773C90.3386 44.6343 91.2619 43.599 92.4371 42.8716C93.6122 42.1161 94.9972 41.7384 96.592 41.7384C99.0822 41.7384 101.027 42.5778 102.426 44.2566C103.853 45.9074 104.566 48.2297 104.566 51.2235Z" fill="white"/>
<path d="M9.02343 77.5382C11.2618 78.7413 14.1577 79.3429 17.7111 79.3429C22.1599 79.3429 25.8392 78.3776 28.7491 76.447C30.13 75.5396 31.3471 74.4992 32.4004 73.3259V77.9999H42.4731V32.673H30.9735V55.6722C30.9735 58.4702 30.6517 60.7365 30.0082 62.4712C29.3926 64.178 28.5952 65.479 27.6159 66.3744C26.6366 67.2417 25.5874 67.8293 24.4682 68.1371C23.349 68.4449 22.2998 68.5987 21.3205 68.5987C18.8863 68.5987 16.9976 68.0532 15.6546 66.9619C14.3396 65.8707 13.3883 64.5137 12.8007 62.8909C12.2131 61.2681 11.8634 59.6593 11.7514 58.0645C11.6395 56.4417 11.5836 55.1127 11.5836 54.0774V32.673H0V58.1064C0 58.8619 0.0559616 60.065 0.167877 61.7158C0.279793 63.3666 0.601562 65.1992 1.13318 67.2138C1.66479 69.2003 2.54615 71.1169 3.77725 72.9636C5.03634 74.8102 6.78506 76.3351 9.02343 77.5382Z" fill="white"/>
<path d="M170.881 32.673V77.9999H182.381V54.8329C182.381 53.0981 182.619 51.5453 183.094 50.1743C183.57 48.7753 184.27 47.5722 185.193 46.5649C186.116 45.5296 187.249 44.7042 188.592 44.0887C189.935 43.4452 191.432 43.0674 193.083 42.9555C194.762 42.8156 196.231 42.9415 197.49 43.3332V32.673C196.119 32.5051 194.748 32.4771 193.377 32.5891C192.006 32.673 190.677 32.9108 189.39 33.3025C188.103 33.6663 186.914 34.1839 185.822 34.8554C184.395 35.6948 183.192 36.758 182.213 38.0451C181.749 38.6544 181.33 39.295 180.954 39.967V32.673H170.881Z" fill="white"/>
<path fill-rule="evenodd" clip-rule="evenodd" d="M221.525 79.259C216.881 79.259 212.782 78.2657 209.228 76.2791C205.703 74.2646 202.933 71.5086 200.918 68.0112C198.932 64.4857 197.938 60.4568 197.938 55.9241C197.938 50.9717 198.918 46.6628 200.876 42.9975C202.835 39.3321 205.535 36.4922 208.976 34.4777C212.418 32.4352 216.377 31.4139 220.854 31.4139C225.61 31.4139 229.653 32.5331 232.983 34.7715C236.312 37.0098 238.775 40.1575 240.37 44.2146C241.964 48.2716 242.524 53.0421 242.048 58.5261H210.221C210.578 61.2465 211.422 63.4569 212.754 65.1573C214.6 67.4516 217.3 68.5987 220.854 68.5987C223.092 68.5987 225.009 68.1091 226.604 67.1298C228.198 66.1505 229.416 64.7376 230.255 62.8909L241.671 66.1645C239.964 70.3055 237.264 73.5231 233.57 75.8175C229.905 78.1118 225.89 79.259 221.525 79.259ZM228.534 44.3825C229.51 45.7079 230.165 47.5965 230.498 50.0484H210.522C210.967 47.9548 211.711 46.2341 212.754 44.8861C214.6 42.5078 217.468 41.3187 221.357 41.3187C224.687 41.3187 227.079 42.34 228.534 44.3825Z" fill="white"/>
<path d="M268.808 77.9999V0H280.223V77.9999H268.808Z" fill="white"/>
<path fill-rule="evenodd" clip-rule="evenodd" d="M292.932 77.4123C295.198 78.6434 297.954 79.259 301.2 79.259C305.117 79.259 308.348 78.5875 310.895 77.2444C312.924 76.1634 314.841 74.5605 316.644 72.4358V77.9999H326.633V50.3002C326.633 48.2297 326.549 46.355 326.381 44.6763C326.213 42.9975 325.682 41.3187 324.787 39.6399C323.192 36.6181 320.841 34.4917 317.736 33.2606C314.63 32.0295 311.077 31.4139 307.075 31.4139C301.619 31.4139 297.311 32.5891 294.149 34.9394C290.987 37.2896 288.833 40.3394 287.686 44.0887L298.01 47.3623C298.737 45.2918 300.011 43.8509 301.829 43.0395C303.648 42.228 305.397 41.8223 307.075 41.8223C310.097 41.8223 312.252 42.4519 313.539 43.711C314.549 44.6997 315.163 46.1284 315.38 47.9971C313.448 48.2897 311.617 48.5677 309.887 48.8312C306.949 49.2509 304.319 49.6986 301.997 50.1743C299.675 50.6499 297.674 51.1955 295.995 51.8111C293.561 52.7064 291.617 53.8256 290.162 55.1686C288.735 56.4837 287.699 58.0085 287.056 59.7432C286.412 61.478 286.091 63.3945 286.091 65.493C286.091 68.0112 286.664 70.3195 287.811 72.418C288.987 74.4884 290.693 76.1532 292.932 77.4123ZM308.922 69.1863C307.495 69.9138 305.732 70.2775 303.634 70.2775C302.319 70.2775 301.186 70.0817 300.234 69.6899C299.283 69.2982 298.542 68.7386 298.01 68.0112C297.506 67.2557 297.255 66.3604 297.255 65.3251C297.255 64.5697 297.408 63.8842 297.716 63.2686C298.052 62.6531 298.556 62.0935 299.227 61.5899C299.927 61.0583 300.836 60.5686 301.955 60.1209C302.934 59.7572 304.068 59.4215 305.355 59.1137C306.642 58.8059 308.334 58.4702 310.433 58.1064C311.781 57.8547 313.396 57.5683 315.276 57.2473C315.249 58.0453 315.202 58.9473 315.134 59.9531C315.05 61.5759 314.714 63.0028 314.126 64.2339C313.819 64.8775 313.231 65.6749 312.364 66.6262C311.524 67.5775 310.377 68.4309 308.922 69.1863Z" fill="white"/>
</svg>
