<?xml version="1.0" encoding="UTF-8" standalone="no"?>
<!-- Created with Inkscape (http://www.inkscape.org/) -->

<svg
   width="210mm"
   height="297mm"
   viewBox="0 0 210 297"
   version="1.1"
   id="svg1"
   inkscape:version="1.4.2 (ebf0e940, 2025-05-08)"
   sodipodi:docname="logo-White.svg"
   xmlns:inkscape="http://www.inkscape.org/namespaces/inkscape"
   xmlns:sodipodi="http://sodipodi.sourceforge.net/DTD/sodipodi-0.dtd"
   xmlns="http://www.w3.org/2000/svg"
   xmlns:svg="http://www.w3.org/2000/svg">
  <sodipodi:namedview
     id="namedview1"
     pagecolor="#505050"
     bordercolor="#eeeeee"
     borderopacity="1"
     inkscape:showpageshadow="0"
     inkscape:pageopacity="0"
     inkscape:pagecheckerboard="0"
     inkscape:deskcolor="#505050"
     inkscape:document-units="mm"
     inkscape:zoom="1.1048906"
     inkscape:cx="412.25802"
     inkscape:cy="643.95518"
     inkscape:window-width="888"
     inkscape:window-height="776"
     inkscape:window-x="552"
     inkscape:window-y="31"
     inkscape:window-maximized="0"
     inkscape:current-layer="layer1" />
  <defs
     id="defs1" />
  <g
     inkscape:label="Layer 1"
     inkscape:groupmode="layer"
     id="layer1">
    <path
       style="display:inline;fill:#ffffff;fill-opacity:1;stroke:none;stroke-width:0.156608"
       d="M 88.91977,151.96751 V 133.3502 h 22.55213 22.55193 v 18.61731 18.61752 H 111.4719 88.91977 Z"
       id="path37-0"
       inkscape:label="b11wbg" />
    <g
       id="g4"
       transform="translate(2.6933512,3.7288697)">
      <text
         xml:space="preserve"
         style="font-size:9.38213px;line-height:1.25;font-family:Futura;-inkscape-font-specification:Futura;white-space:pre;inline-size:0;fill:#000000;fill-opacity:1;stroke:#000000;stroke-width:0.592599;stroke-dasharray:none;stroke-opacity:1"
         x="40.820496"
         y="58.135365"
         id="text41-3"
         transform="matrix(1.2764348,0,0,0.78988687,55.870653,104.54415)"
         inkscape:label="b11w11"
         inkscape:transform-center-x="-2.7633047"
         inkscape:transform-center-y="0.63994804"><tspan
           id="tspan41-3"
           style="fill:#000000;fill-opacity:1;stroke:#000000;stroke-width:0.592599;stroke-dasharray:none;stroke-opacity:1"
           x="40.820496"
           y="58.135365">II</tspan></text>
      <g
         id="g3"
         transform="matrix(0.94736752,0,0,1,5.8980236,0)">
        <path
           style="fill:#000000;fill-opacity:1;stroke:none;stroke-width:0.0655603"
           d="m 103.46796,145.81785 v -1.17499 l 1.45126,0.0225 c 1.28307,0.0199 1.48296,0.037 1.72363,0.14786 0.48599,0.22387 0.72604,0.76374 0.58511,1.31628 -0.0836,0.32612 -0.25967,0.53407 -0.58811,0.69283 -0.24304,0.11751 -0.41061,0.13216 -1.72063,0.15041 l -1.45126,0.0202 z"
           id="path44-7"
           inkscape:label="b11Bwt" />
        <path
           style="fill:#000000;fill-opacity:1;stroke:none;stroke-width:0.0607455"
           d="m 103.46796,149.51017 v -1.17515 h 1.33883 c 1.39932,0 1.65839,0.0326 2.00444,0.24939 0.3268,0.20467 0.46101,0.46882 0.45663,0.89856 0,0.44851 -0.21079,0.82044 -0.57026,1.02821 -0.22812,0.13184 -0.29204,0.13756 -1.73327,0.15534 l -1.49637,0.0185 z"
           id="path45-0"
           inkscape:label="b11Bwb" />
      </g>
    </g>
  </g>
</svg>
