<svg xmlns="http://www.w3.org/2000/svg" xmlns:xlink="http://www.w3.org/1999/xlink" width="32" height="32" viewBox="0 0 32 32"><defs><clipPath id="b"><rect width="32" height="32"/></clipPath></defs><g id="a" clip-path="url(#b)"><rect width="32" height="32" rx="16" fill="#302f2d"/><path d="M15.371,2.284l-.087-.044-.011.022A11.226,11.226,0,0,0,12.915,2a10.934,10.934,0,1,0,2.456.284ZM21,9.641H12.282L15.24,4.51A8.759,8.759,0,0,1,21,9.641ZM14.116,4.27,9.772,11.824,6.8,6.693A8.637,8.637,0,0,1,14.116,4.27ZM6.039,7.556l3.1,5.359L10.394,15.1H4.467a9,9,0,0,1-.284-2.183A8.689,8.689,0,0,1,6.039,7.556ZM4.827,16.19h8.71l-2.958,5.13A8.768,8.768,0,0,1,4.827,16.19Zm6.887,5.359,4.355-7.542,2.969,5.13a8.731,8.731,0,0,1-6.123,2.51A8.621,8.621,0,0,1,11.714,21.549Zm8.077-3.275-4.366-7.542h5.927a8.495,8.495,0,0,1,.295,2.183A8.689,8.689,0,0,1,19.792,18.274Z" transform="translate(3.085 3.085)" fill="#f6f4de"/></g></svg>