<svg xmlns="http://www.w3.org/2000/svg" xmlns:xlink="http://www.w3.org/1999/xlink" width="140" height="26" viewBox="0 0 140 26"><defs><clipPath id="b"><rect width="140" height="26"/></clipPath></defs><g id="a" clip-path="url(#b)"><path d="M2.48-4.5.72-3.28A6.909,6.909,0,0,0,1.96-1.5,6,6,0,0,0,3.79-.19,5.348,5.348,0,0,0,6.08.3,5.207,5.207,0,0,0,7.81.01,4.985,4.985,0,0,0,9.3-.81a3.78,3.78,0,0,0,1.04-1.31,3.967,3.967,0,0,0,.38-1.76,3.827,3.827,0,0,0-.31-1.6,3.939,3.939,0,0,0-.83-1.19,5.085,5.085,0,0,0-1.15-.85,8.907,8.907,0,0,0-1.25-.56,13.217,13.217,0,0,1-1.82-.78,3.206,3.206,0,0,1-1.03-.81A1.552,1.552,0,0,1,4-10.64a1.424,1.424,0,0,1,.46-1.05,1.994,1.994,0,0,1,1.44-.45,2.674,2.674,0,0,1,1.23.27,3.144,3.144,0,0,1,.93.72,4.456,4.456,0,0,1,.66.97l1.92-1.08a5.884,5.884,0,0,0-.99-1.42A5.061,5.061,0,0,0,8.1-13.8a4.957,4.957,0,0,0-2.16-.44,5.184,5.184,0,0,0-2.25.47,3.861,3.861,0,0,0-1.57,1.32,3.41,3.41,0,0,0-.58,1.97,3.416,3.416,0,0,0,.38,1.67,3.887,3.887,0,0,0,.96,1.16,6.293,6.293,0,0,0,1.22.78,10.817,10.817,0,0,0,1.16.49,15.581,15.581,0,0,1,1.55.65,3.061,3.061,0,0,1,1.05.8,1.929,1.929,0,0,1,.38,1.25,1.692,1.692,0,0,1-.6,1.34,2.3,2.3,0,0,1-1.56.52,3.1,3.1,0,0,1-1.44-.33,3.954,3.954,0,0,1-1.17-.94A8.926,8.926,0,0,1,2.48-4.5ZM14.8-15.6H12.64V0H14.8Zm3.76,10V0h2.18V-5.9a4.75,4.75,0,0,0-.36-1.97,2.522,2.522,0,0,0-1.07-1.19,3.476,3.476,0,0,0-1.73-.4,2.971,2.971,0,0,0-1.77.52,3.437,3.437,0,0,0-1.13,1.38,4.6,4.6,0,0,0-.4,1.96h.52a2.158,2.158,0,0,1,.26-1.08,1.868,1.868,0,0,1,.72-.72,2.117,2.117,0,0,1,1.06-.26,1.567,1.567,0,0,1,1.31.52A2.453,2.453,0,0,1,18.56-5.6Zm6.82,2V-9.2H23.16v5.84a3.84,3.84,0,0,0,.83,2.6A2.963,2.963,0,0,0,26.36.2a3.172,3.172,0,0,0,1.65-.41,3.106,3.106,0,0,0,1.13-1.21V0H31.3V-9.2H29.14v5.6a2.215,2.215,0,0,1-.26,1.09,1.783,1.783,0,0,1-.72.72,2.228,2.228,0,0,1-1.08.25,1.521,1.521,0,0,1-1.28-.54A2.425,2.425,0,0,1,25.38-3.6Zm7.08-5.6v1.9l5.22-.02V-9.2ZM34-12.4V0h2.12l.02-12.4Zm3.56,3.2v1.9l5.22-.02V-9.2Zm1.54-3.2V0h2.12l.02-12.4ZM47.94.2a5.659,5.659,0,0,0,2.74-.62,4.793,4.793,0,0,0,1.86-1.86l-1.86-.76a2.9,2.9,0,0,1-1.1,1.1,3.166,3.166,0,0,1-1.54.36,2.7,2.7,0,0,1-1.43-.36,2.233,2.233,0,0,1-.89-1.05,4.235,4.235,0,0,1-.3-1.69,4.383,4.383,0,0,1,.32-1.68,2.259,2.259,0,0,1,.88-1.04,2.6,2.6,0,0,1,1.4-.36,2.3,2.3,0,0,1,1.19.3,2.112,2.112,0,0,1,.8.84,2.668,2.668,0,0,1,.29,1.28,1.152,1.152,0,0,1-.07.35,2.619,2.619,0,0,1-.13.33l.66-.92H44.52V-4.1H52.6a1.548,1.548,0,0,0,.03-.26q.01-.18.01-.34a5.391,5.391,0,0,0-.55-2.53,3.811,3.811,0,0,0-1.57-1.61,5.088,5.088,0,0,0-2.48-.56,5.218,5.218,0,0,0-2.54.59,4.111,4.111,0,0,0-1.67,1.67,5.218,5.218,0,0,0-.59,2.54,5.247,5.247,0,0,0,.58,2.52A4.128,4.128,0,0,0,45.47-.4,4.964,4.964,0,0,0,47.94.2Zm8.58-9.4H54.38V0h2.14Zm2.74,2.3L60.3-8.72a1.576,1.576,0,0,0-.74-.53,2.894,2.894,0,0,0-.94-.15,2.188,2.188,0,0,0-1.35.5,3.684,3.684,0,0,0-1.06,1.35A4.435,4.435,0,0,0,55.8-5.6l.72.42a3.944,3.944,0,0,1,.15-1.15,1.557,1.557,0,0,1,.49-.77,1.339,1.339,0,0,1,.88-.28,1.579,1.579,0,0,1,.66.12A2.789,2.789,0,0,1,59.26-6.9Zm3.3,2.4L60.8-3.28A6.909,6.909,0,0,0,62.04-1.5,6,6,0,0,0,63.87-.19,5.348,5.348,0,0,0,66.16.3,5.207,5.207,0,0,0,67.89.01a4.985,4.985,0,0,0,1.49-.82,3.78,3.78,0,0,0,1.04-1.31,3.967,3.967,0,0,0,.38-1.76,3.827,3.827,0,0,0-.31-1.6,3.939,3.939,0,0,0-.83-1.19,5.085,5.085,0,0,0-1.15-.85,8.907,8.907,0,0,0-1.25-.56,13.217,13.217,0,0,1-1.82-.78,3.206,3.206,0,0,1-1.03-.81,1.553,1.553,0,0,1-.33-.97,1.424,1.424,0,0,1,.46-1.05,1.994,1.994,0,0,1,1.44-.45,2.674,2.674,0,0,1,1.23.27,3.145,3.145,0,0,1,.93.72,4.456,4.456,0,0,1,.66.97l1.92-1.08a5.884,5.884,0,0,0-.99-1.42,5.061,5.061,0,0,0-1.55-1.12,4.957,4.957,0,0,0-2.16-.44,5.184,5.184,0,0,0-2.25.47,3.861,3.861,0,0,0-1.57,1.32,3.41,3.41,0,0,0-.58,1.97A3.416,3.416,0,0,0,62-8.81a3.887,3.887,0,0,0,.96,1.16,6.293,6.293,0,0,0,1.22.78,10.817,10.817,0,0,0,1.16.49,15.58,15.58,0,0,1,1.55.65,3.061,3.061,0,0,1,1.05.8,1.929,1.929,0,0,1,.38,1.25,1.692,1.692,0,0,1-.6,1.34,2.3,2.3,0,0,1-1.56.52,3.1,3.1,0,0,1-1.44-.33,3.954,3.954,0,0,1-1.17-.94A8.926,8.926,0,0,1,62.56-4.5ZM74.88-15.6H72.72V0h2.16Zm3.76,10V0h2.18V-5.9a4.75,4.75,0,0,0-.36-1.97,2.522,2.522,0,0,0-1.07-1.19,3.476,3.476,0,0,0-1.73-.4,2.971,2.971,0,0,0-1.77.52,3.437,3.437,0,0,0-1.13,1.38,4.6,4.6,0,0,0-.4,1.96h.52a2.158,2.158,0,0,1,.26-1.08,1.868,1.868,0,0,1,.72-.72,2.117,2.117,0,0,1,1.06-.26,1.567,1.567,0,0,1,1.31.52A2.453,2.453,0,0,1,78.64-5.6Zm3.9,1a4.767,4.767,0,0,0,.65,2.49,4.567,4.567,0,0,0,1.77,1.7A5.223,5.223,0,0,0,87.5.2a5.166,5.166,0,0,0,2.53-.61,4.66,4.66,0,0,0,1.77-1.7,4.712,4.712,0,0,0,.66-2.49,4.7,4.7,0,0,0-.66-2.5,4.683,4.683,0,0,0-1.77-1.69A5.166,5.166,0,0,0,87.5-9.4a5.223,5.223,0,0,0-2.54.61A4.589,4.589,0,0,0,83.19-7.1,4.753,4.753,0,0,0,82.54-4.6Zm2.22,0a3.123,3.123,0,0,1,.36-1.52,2.58,2.58,0,0,1,.98-1.02,2.737,2.737,0,0,1,1.4-.36,2.752,2.752,0,0,1,1.39.36,2.559,2.559,0,0,1,.99,1.02,3.124,3.124,0,0,1,.36,1.52,3.066,3.066,0,0,1-.36,1.51,2.647,2.647,0,0,1-.99,1.02,2.694,2.694,0,0,1-1.39.37,2.679,2.679,0,0,1-1.4-.37,2.67,2.67,0,0,1-.98-1.02A3.066,3.066,0,0,1,84.76-4.6Zm11.52,9V-9.2H94.1V4.4Zm7.62-9a5.183,5.183,0,0,0-.62-2.62,4.286,4.286,0,0,0-1.64-1.65,4.475,4.475,0,0,0-2.22-.57,3.564,3.564,0,0,0-2.05.59,3.779,3.779,0,0,0-1.34,1.67,6.438,6.438,0,0,0-.47,2.58,6.455,6.455,0,0,0,.47,2.57A3.772,3.772,0,0,0,97.37-.35a3.564,3.564,0,0,0,2.05.59,4.475,4.475,0,0,0,2.22-.57,4.268,4.268,0,0,0,1.64-1.66A5.2,5.2,0,0,0,103.9-4.6Zm-2.24,0a3.06,3.06,0,0,1-.38,1.57,2.5,2.5,0,0,1-1.01.98,2.95,2.95,0,0,1-1.39.33,2.505,2.505,0,0,1-1.22-.33,2.652,2.652,0,0,1-.99-.97,2.985,2.985,0,0,1-.39-1.58,2.985,2.985,0,0,1,.39-1.58,2.652,2.652,0,0,1,.99-.97,2.505,2.505,0,0,1,1.22-.33,2.95,2.95,0,0,1,1.39.33,2.5,2.5,0,0,1,1.01.98A3.06,3.06,0,0,1,101.66-4.6ZM113.08-14,110.4-9.26,107.78-14h-2.86l4.14,6.72L104.42,0h2.86l3.1-5.38,3,5.38h2.88l-4.54-7.28L115.96-14Z" transform="translate(23 20)" fill="#333"/><path d="M14.25,2.26l-.08-.04-.01.02A10.285,10.285,0,0,0,12,2a10.018,10.018,0,1,0,2.25.26ZM19.41,9H11.42l2.71-4.7A8.025,8.025,0,0,1,19.41,9ZM13.1,4.08,9.12,11,6.4,6.3a7.913,7.913,0,0,1,6.7-2.22ZM5.7,7.09,8.54,12l1.15,2H4.26A8.242,8.242,0,0,1,4,12,7.961,7.961,0,0,1,5.7,7.09ZM4.59,15h7.98L9.86,19.7A8.033,8.033,0,0,1,4.59,15Zm6.31,4.91L14.89,13l2.72,4.7A8,8,0,0,1,12,20,7.9,7.9,0,0,1,10.9,19.91Zm7.4-3L14.3,10h5.43A7.783,7.783,0,0,1,20,12,7.961,7.961,0,0,1,18.3,16.91Z" transform="translate(-2 1)" fill="#333"/></g></svg>