<svg xmlns="http://www.w3.org/2000/svg" xmlns:xlink="http://www.w3.org/1999/xlink" width="256" height="256" viewBox="0 0 256 256"><defs><clipPath id="b"><rect width="256" height="256"/></clipPath></defs><g id="a" clip-path="url(#b)"><rect width="256" height="256" rx="16" fill="#302f2d"/><path d="M108.967,4.27l-.7-.349-.087.175A89.807,89.807,0,0,0,89.32,2a87.474,87.474,0,1,0,19.647,2.27Zm45.057,58.854H84.256L107.92,22.084A70.071,70.071,0,0,1,154.025,63.124Zm-55.1-42.962L64.172,80.588,40.421,39.548a69.092,69.092,0,0,1,58.5-19.385ZM34.309,46.446l24.8,42.874,10.042,17.464H21.734a71.968,71.968,0,0,1-2.27-17.464A69.513,69.513,0,0,1,34.309,46.446Zm-9.693,69.07H94.3L70.634,156.557A70.145,70.145,0,0,1,24.616,115.516Zm55.1,42.874,34.841-60.338,23.751,41.041A69.851,69.851,0,0,1,89.32,159.177,68.971,68.971,0,0,1,79.715,158.391Zm64.617-26.2L109.4,71.856h47.415a67.96,67.96,0,0,1,2.358,17.464A69.513,69.513,0,0,1,144.332,132.195Z" transform="translate(38.68 38.68)" fill="#f6f4de"/></g></svg>