<svg width="24" height="24" viewBox="0 0 24 24" fill="none" xmlns="http://www.w3.org/2000/svg">
<path fill-rule="evenodd" clip-rule="evenodd" d="M12.4575 1.6574C12.1849 1.442 11.8001 1.442 11.5275 1.6574L0.75 10.0649L1.68 11.2499L3 10.2149V19.4999C3 20.3283 3.67157 20.9999 4.5 20.9999H19.5C20.3284 20.9999 21 20.3283 21 19.4999V10.2224L22.32 11.2499L23.25 10.0724L12.4575 1.6574ZM13.5 19.4999H10.5V13.4999H13.5V19.4999ZM15 19.4999V13.4999C15 12.6715 14.3284 11.9999 13.5 11.9999H10.5C9.67157 11.9999 9 12.6715 9 13.4999V19.4999H4.5V9.0449L12 3.2024L19.5 9.0524V19.4999H15Z" fill="#F2F2F2"/>
</svg>
