<svg width="182" height="47" viewBox="0 0 182 47" fill="none" xmlns="http://www.w3.org/2000/svg">
<path d="M24.0141 27.7952C22.6661 33.7689 19.5208 36.8298 15.4767 36.8298C9.38575 36.8298 5.79107 28.6838 5.79107 16.9832C5.79107 8.09664 8.78664 2.81407 13.8292 2.81407C17.8732 2.81407 21.3181 6.17122 23.1654 11.8981L24.2637 11.6019L23.0655 0L21.9671 0.0987382C21.6676 1.18487 20.9686 1.6292 19.8203 1.6292C18.7219 1.6292 17.1243 1.08613 14.9276 1.08613C6.58989 1.08613 0.548828 9.03466 0.548828 20.0441C0.548828 31.8435 5.19196 38.6565 14.7778 38.6565C17.3739 38.6565 21.0185 38.2616 23.9143 36.7805L25.1125 27.9926L24.0141 27.7952Z" fill="#0F172A"/>
<path d="M38.2715 10.9601C31.182 10.9601 26.6387 16.7363 26.6387 25.5242C26.6387 33.6208 30.3832 38.6071 37.6225 38.6071C44.6122 38.6071 49.2553 32.8309 49.2553 24.0924C49.2553 15.9464 45.361 10.9601 38.2715 10.9601ZM38.4712 37.3235C33.7782 37.3235 31.881 30.4611 31.881 22.9569C31.881 15.4527 33.928 12.2437 37.273 12.2437C42.1658 12.2437 44.1628 19.2048 44.1628 26.5116C44.1628 34.1145 41.6665 37.3235 38.4712 37.3235Z" fill="#0F172A"/>
<path d="M62.6967 37.1754C59.152 36.8298 58.9523 36.7805 58.9523 31.5966V20.9821C58.9523 16.3908 61.8979 13.7248 64.4941 13.7248C66.6409 13.7248 68.9375 15.2059 68.9375 21.6239V31.5966C68.9375 36.7805 68.7877 36.8792 65.243 37.1754V38.1134H77.7744V37.1754C73.7304 36.8298 73.5307 36.7805 73.5307 31.5966V20.9821C73.5307 16.3908 76.4763 13.7248 79.0725 13.7248C81.2193 13.7248 83.5159 15.2059 83.5159 21.6239V31.5966C83.5159 36.7805 83.3661 36.8792 79.8214 37.1754V38.1134H92.3528V37.1754C88.3088 36.8298 88.1091 36.7805 88.1091 31.5966V19.3036C88.1091 13.6754 86.3617 10.9601 82.2678 10.9601C79.422 10.9601 77.6746 12.2437 73.1812 15.5021C72.4822 12.4412 70.7348 10.9601 67.6893 10.9601C64.8935 10.9601 63.196 12.1943 58.9523 15.2552V11.2069L58.5529 10.9601C55.8568 13.2805 53.5602 14.416 49.666 14.416V15.354C53.1608 15.354 54.3591 15.6996 54.3591 18.9086V31.5966C54.3591 36.7805 54.2093 36.8792 50.1653 37.1754V38.1134H62.6967V37.1754Z" fill="#0F172A"/>
<path d="M104.047 46.062C100.003 45.7164 99.8035 45.667 99.8035 40.4832V36.7311C101.152 37.4223 102.749 38.6071 105.345 38.6071C111.287 38.6071 116.728 32.5347 116.728 23.5987C116.728 15.8971 113.084 10.9601 107.941 10.9601C105.146 10.9601 102.649 12.8855 99.8035 15.354V10.9601L99.4041 10.7132C96.7081 13.0336 94.4115 14.1691 90.5173 14.1691V15.1071C94.0121 15.1071 95.2103 15.4527 95.2103 18.6618V40.4832C95.2103 45.667 95.0606 45.7658 91.5158 46.062V47H104.047V46.062ZM105.745 37.3729C102.899 37.3729 100.403 35.0525 99.8035 31.646V21.9695C99.8035 18.0693 101.851 13.5767 105.895 13.5767C109.489 13.5767 111.636 17.4769 111.636 25.9191C111.636 33.5221 109.439 37.3729 105.745 37.3729Z" fill="#0F172A"/>
<path d="M130.329 10.9601C123.239 10.9601 118.696 16.7363 118.696 25.5242C118.696 33.6208 122.44 38.6071 129.68 38.6071C136.669 38.6071 141.312 32.8309 141.312 24.0924C141.312 15.9464 137.418 10.9601 130.329 10.9601ZM130.528 37.3235C125.835 37.3235 123.938 30.4611 123.938 22.9569C123.938 15.4527 125.985 12.2437 129.33 12.2437C134.223 12.2437 136.22 19.2048 136.22 26.5116C136.22 34.1145 133.724 37.3235 130.528 37.3235Z" fill="#0F172A"/>
<path d="M151.359 38.6071C154.904 38.6071 159.247 35.8424 159.247 31.0042C159.247 22.9076 147.714 21.8214 147.714 15.9958C147.714 13.626 149.562 12.2437 151.609 12.2437C154.305 12.2437 155.852 14.5641 157.25 18.7111L158.299 18.6124L157.55 9.97269H156.651C156.352 11.1082 156.002 11.5031 155.403 11.5031C154.404 11.5031 153.506 10.9601 151.708 10.9601C146.366 10.9601 143.87 14.2679 143.87 17.9706C143.87 25.8204 155.453 26.2647 155.453 32.979C155.453 36.0399 153.256 37.3235 151.009 37.3235C147.415 37.3235 146.117 33.8676 144.719 29.375L143.57 29.4737L144.569 39.1008H145.567C145.767 38.1628 146.217 37.8666 146.866 37.8666C147.914 37.8666 149.412 38.6071 151.359 38.6071Z" fill="#0F172A"/>
<path d="M171.352 38.6071C175.896 38.6071 179.091 35.4475 181.238 32.8803L180.639 32.0903C178.542 34.2626 175.946 35.7931 173.549 35.7931C168.756 35.7931 166.06 29.5725 166.01 22.6113L180.539 21.1303C180.539 13.2805 175.946 10.9601 171.951 10.9601C165.211 10.9601 161.118 17.23 161.118 25.4254C161.118 34.1639 165.91 38.6071 171.352 38.6071ZM171.302 12.3918C172.8 12.3918 175.496 13.1817 175.796 20.291H166.11C166.51 15.6502 168.257 12.3918 171.302 12.3918Z" fill="#0F172A"/>
</svg>
