<svg width="256" height="256" viewBox="0 0 256 256" fill="none" xmlns="http://www.w3.org/2000/svg">
<rect width="256" height="256" fill="#2E4343"/>
<path d="M80.3516 172.559H108.492C108.492 175.521 108.245 179.964 108.245 183.667C108.245 201.687 116.638 210.079 128.239 210.079C137.619 210.079 147.987 203.415 147.987 184.161C147.987 164.66 133.67 149.109 118.612 133.311C101.827 116.278 84.0542 98.5057 84.0542 75.0555C84.0542 50.8647 105.777 37.5352 128.486 37.5352C152.924 37.5352 171.684 54.8143 171.684 77.2771H145.272C145.272 74.5618 145.518 70.8591 145.518 67.6502C145.518 49.3837 139.101 40.991 127.499 40.991C118.366 40.991 109.479 46.4215 109.479 65.4286C109.479 83.9419 123.302 99.2462 137.866 114.797C154.652 132.57 172.918 150.59 172.918 173.3C172.918 198.478 150.949 213.535 126.758 213.535C100.593 213.535 80.3516 196.009 80.3516 172.559Z" fill="white"/>
</svg>
