<svg width="32" height="32" viewBox="0 0 32 32" fill="none" xmlns="http://www.w3.org/2000/svg">
<g id="arrow_right_alt_24dp_5F6368_FILL0_wght200_GRAD0_opsz24 2">
<path id="Vector" d="M10.154 29.3333C9.54022 29.3333 9.02778 29.1278 8.61667 28.7167C8.20556 28.3055 8 27.7931 8 27.1793V4.82066C8 4.20688 8.20556 3.69443 8.61667 3.28332C9.02778 2.87221 9.54022 2.66666 10.154 2.66666H21.846C22.4598 2.66666 22.9722 2.87221 23.3833 3.28332C23.7944 3.69443 24 4.20688 24 4.82066V27.1793C24 27.7931 23.7944 28.3055 23.3833 28.7167C22.9722 29.1278 22.4598 29.3333 21.846 29.3333H10.154ZM9.33333 23.3847V27.1793C9.33333 27.3847 9.41878 27.5728 9.58967 27.7437C9.76056 27.9145 9.94867 28 10.154 28H21.846C22.0513 28 22.2394 27.9145 22.4103 27.7437C22.5812 27.5728 22.6667 27.3847 22.6667 27.1793V23.3847H9.33333ZM16 26.718C16.2751 26.718 16.5149 26.6159 16.7193 26.4117C16.9236 26.2072 17.0257 25.9674 17.0257 25.6923C17.0257 25.417 16.9236 25.1772 16.7193 24.973C16.5149 24.7688 16.2751 24.6667 16 24.6667C15.7249 24.6667 15.4851 24.7688 15.2807 24.973C15.0764 25.1772 14.9743 25.417 14.9743 25.6923C14.9743 25.9674 15.0764 26.2072 15.2807 26.4117C15.4851 26.6159 15.7249 26.718 16 26.718ZM9.33333 22.0513H22.6667V7.33332H9.33333V22.0513ZM9.33333 5.99999H22.6667V4.82066C22.6667 4.61532 22.5812 4.42721 22.4103 4.25632C22.2394 4.08543 22.0513 3.99999 21.846 3.99999H10.154C9.94867 3.99999 9.76056 4.08543 9.58967 4.25632C9.41878 4.42721 9.33333 4.61532 9.33333 4.82066V5.99999Z" fill="#2F5B3C"/>
</g>
</svg>
