<svg width="32" height="32" viewBox="0 0 32 32" fill="none" xmlns="http://www.w3.org/2000/svg">
<g id="arrow_right_alt_24dp_5F6368_FILL0_wght200_GRAD0_opsz24 2">
<path id="Vector" d="M6.154 25.3334C5.54022 25.3334 5.02778 25.1278 4.61667 24.7167C4.20556 24.3056 4 23.7931 4 23.1794V8.82069C4 8.20691 4.20556 7.69446 4.61667 7.28335C5.02778 6.87224 5.54022 6.66669 6.154 6.66669H25.846C26.4598 6.66669 26.9722 6.87224 27.3833 7.28335C27.7944 7.69446 28 8.20691 28 8.82069V23.1794C28 23.7931 27.7944 24.3056 27.3833 24.7167C26.9722 25.1278 26.4598 25.3334 25.846 25.3334H6.154ZM16 16.154L5.33333 9.17935V23.1794C5.33333 23.4187 5.41022 23.6154 5.564 23.7694C5.718 23.9231 5.91467 24 6.154 24H25.846C26.0853 24 26.282 23.9231 26.436 23.7694C26.5898 23.6154 26.6667 23.4187 26.6667 23.1794V9.17935L16 16.154ZM16 14.6667L26.2563 8.00002H5.74367L16 14.6667ZM5.33333 9.17935V8.00002V23.1794C5.33333 23.4187 5.41022 23.6154 5.564 23.7694C5.718 23.9231 5.91467 24 6.154 24H5.33333V9.17935Z" fill="#2F5B3C"/>
</g>
</svg>
