<svg width="32" height="32" viewBox="0 0 32 32" fill="none" xmlns="http://www.w3.org/2000/svg">
<g id="arrow_right_alt_24dp_5F6368_FILL0_wght200_GRAD0_opsz24 2">
<path id="Vector" d="M16 22.6333C18.1829 20.7189 19.8398 18.8624 20.9707 17.064C22.1013 15.2658 22.6667 13.5847 22.6667 12.0207C22.6667 10.0547 22.0444 8.44867 20.8 7.20267C19.5556 5.95645 17.9556 5.33333 16 5.33333C14.0444 5.33333 12.4444 5.95645 11.2 7.20267C9.95556 8.44867 9.33333 10.0547 9.33333 12.0207C9.33333 13.5847 9.89867 15.2658 11.0293 17.064C12.1602 18.8624 13.8171 20.7189 16 22.6333ZM16 24.3333C13.3624 22.176 11.3697 20.0554 10.0217 17.9717C8.67389 15.8879 8 13.9042 8 12.0207C8 9.67022 8.747 7.74578 10.241 6.24733C11.735 4.74911 13.6547 4 16 4C18.3453 4 20.265 4.74911 21.759 6.24733C23.253 7.74578 24 9.67022 24 12.0207C24 13.9042 23.3261 15.8837 21.9783 17.959C20.6303 20.0341 18.6376 22.1589 16 24.3333ZM16 14.154C16.5967 14.154 17.1048 13.9441 17.5243 13.5243C17.9441 13.1048 18.154 12.5967 18.154 12C18.154 11.4033 17.9441 10.8952 17.5243 10.4757C17.1048 10.0559 16.5967 9.846 16 9.846C15.4033 9.846 14.8952 10.0559 14.4757 10.4757C14.0559 10.8952 13.846 11.4033 13.846 12C13.846 12.5967 14.0559 13.1048 14.4757 13.5243C14.8952 13.9441 15.4033 14.154 16 14.154ZM8 28V26.6667H24V28H8Z" fill="#2F5B3C"/>
</g>
</svg>
