<svg width="32" height="32" viewBox="0 0 32 32" fill="none" xmlns="http://www.w3.org/2000/svg">
<g id="arrow_right_alt_24dp_5F6368_FILL0_wght200_GRAD0_opsz24 2">
<path id="Vector" d="M7.48798 26.6667C6.87421 26.6667 6.36176 26.4611 5.95065 26.05C5.53954 25.6389 5.33398 25.1265 5.33398 24.5127V7.48734C5.33398 6.87357 5.53954 6.36112 5.95065 5.95001C6.36176 5.5389 6.87421 5.33334 7.48798 5.33334H14.975V6.66668H7.48798C7.28265 6.66668 7.09454 6.75212 6.92365 6.92301C6.75276 7.0939 6.66732 7.28201 6.66732 7.48734V24.5127C6.66732 24.718 6.75276 24.9061 6.92365 25.077C7.09454 25.2479 7.28265 25.3333 7.48798 25.3333H24.5133C24.7187 25.3333 24.9068 25.2479 25.0777 25.077C25.2485 24.9061 25.334 24.718 25.334 24.5127V17.0257H26.6673V24.5127C26.6673 25.1265 26.4618 25.6389 26.0506 26.05C25.6395 26.4611 25.1271 26.6667 24.5133 26.6667H7.48798ZM12.9853 19.959L12.0417 19.0153L24.3903 6.66668H18.6673V5.33334H26.6673V13.3333H25.334V7.61034L12.9853 19.959Z" fill="#262626"/>
</g>
</svg>
