<svg width="48" height="48" viewBox="0 0 48 48" fill="none" xmlns="http://www.w3.org/2000/svg">
<g id="schedule_24dp_5F6368_FILL0_wght200_GRAD0_opsz24 1">
<path id="Vector" d="M31.2925 32.7075L32.7075 31.2925L25 23.5835V14H23V24.4155L31.2925 32.7075ZM24.0065 42C21.5175 42 19.1773 41.5277 16.986 40.583C14.795 39.6383 12.889 38.3563 11.268 36.737C9.647 35.1177 8.36383 33.2133 7.4185 31.024C6.47283 28.835 6 26.4958 6 24.0065C6 21.5175 6.47233 19.1773 7.417 16.986C8.36167 14.795 9.64367 12.889 11.263 11.268C12.8823 9.647 14.7867 8.36383 16.976 7.4185C19.165 6.47283 21.5042 6 23.9935 6C26.4825 6 28.8227 6.47233 31.014 7.417C33.205 8.36167 35.111 9.64367 36.732 11.263C38.353 12.8823 39.6362 14.7867 40.5815 16.976C41.5272 19.165 42 21.5042 42 23.9935C42 26.4825 41.5277 28.8227 40.583 31.014C39.6383 33.205 38.3563 35.111 36.737 36.732C35.1177 38.353 33.2133 39.6362 31.024 40.5815C28.835 41.5272 26.4958 42 24.0065 42ZM24 40C28.4333 40 32.2083 38.4417 35.325 35.325C38.4417 32.2083 40 28.4333 40 24C40 19.5667 38.4417 15.7917 35.325 12.675C32.2083 9.55833 28.4333 8 24 8C19.5667 8 15.7917 9.55833 12.675 12.675C9.55833 15.7917 8 19.5667 8 24C8 28.4333 9.55833 32.2083 12.675 35.325C15.7917 38.4417 19.5667 40 24 40Z" fill="#2F5B3C"/>
</g>
</svg>
