<svg width="24" height="24" viewBox="0 0 24 24" fill="none" xmlns="http://www.w3.org/2000/svg">
<g id="Tiktok">
<path id="Vector" fill-rule="evenodd" clip-rule="evenodd" d="M12 1C5.9225 1 1 5.9225 1 12C1 18.0775 5.9225 23 12 23C18.0775 23 23 18.0775 23 12C23 5.9225 18.0775 1 12 1ZM14.5575 9.03V9.3875V14.145C14.5575 15.2817 14.1083 16.3542 13.3108 17.1608C12.5042 17.9675 11.4317 18.4075 10.295 18.4075C9.15833 18.4075 8.08583 17.9583 7.27917 17.1608C6.4725 16.3542 6.0325 15.2817 6.0325 14.145C6.0325 13.0083 6.48167 11.9358 7.27917 11.1292C8.08583 10.3225 9.15833 9.8825 10.295 9.8825H11.0833V12.1283H10.295C9.75417 12.1283 9.25 12.3392 8.865 12.7242C8.48 13.1092 8.26917 13.6133 8.26917 14.1542C8.26917 14.695 8.48 15.1992 8.865 15.5842C9.25 15.9692 9.75417 16.18 10.295 16.18C10.8358 16.18 11.34 15.9692 11.725 15.5842C12.11 15.1992 12.3208 14.695 12.3208 14.1542V5.5925H14.5575L14.6675 5.80333C15.0158 6.445 15.4833 7.05917 16.0608 7.50833C16.51 7.85667 17.0233 8.10417 17.5825 8.205L17.9767 8.27833L17.5458 10.4417L17.1608 10.3775C16.7025 10.295 16.2625 10.1575 15.8408 9.965C15.3642 9.73583 14.915 9.43333 14.5483 9.04833L14.5575 9.03Z" fill="#183321"/>
</g>
</svg>
