<svg width="226" height="43" viewBox="0 0 226 43" fill="none" xmlns="http://www.w3.org/2000/svg">
<g clip-path="url(#clip0_995_7)">
<path d="M21.4943 0C17.2425 0.00113427 13.0864 1.26291 9.55167 3.62579C6.01689 5.98868 3.26207 9.34658 1.6355 13.275C0.00892914 17.2033 -0.416359 21.5258 0.413406 25.6958C1.24317 29.8659 3.29073 33.6963 6.29721 36.7028C9.30369 39.7093 13.1341 41.7568 17.3042 42.5866C21.4742 43.4164 25.7967 42.9911 29.725 41.3645C33.6534 39.7379 37.0113 36.9831 39.3742 33.4483C41.7371 29.9135 42.9989 25.7575 43 21.5057C43 15.8021 40.7342 10.332 36.7011 6.29888C32.668 2.26578 27.1979 0 21.4943 0ZM36.5483 35.8357C33.9412 38.5763 30.6356 40.5535 26.9878 41.5542C23.34 42.5549 19.4883 42.5412 15.8477 41.5145C12.2071 40.4878 8.91575 38.4871 6.32826 35.728C3.74076 32.9689 1.95527 29.556 1.16419 25.8571L12.1751 18.6383L21.4943 26.5237L36.5483 10.7529V35.8357Z" fill="white"/>
<path d="M66.935 32.345C58.58 32.345 53.765 28.355 53.765 21.32V21.2C53.765 14.15 58.58 10.175 66.965 10.175C74.555 10.175 79.445 13.4 79.79 19.535H73.37C73.1 16.925 71.15 15.095 67.01 15.095C62.135 15.095 60.32 17.615 60.32 21.185V21.305C60.32 24.92 62.165 27.41 66.95 27.41C71.24 27.41 73.175 25.505 73.385 22.805H79.805C79.595 29.18 74.54 32.345 66.935 32.345ZM91.1291 17H93.1991V21.74H90.5141C87.8141 21.74 86.8541 23.195 86.8541 24.935V32H80.9591V17H86.6291L86.6591 19.61C87.5141 17.855 89.1191 17 91.1291 17ZM112.461 24.38V25.535H98.9464C99.0664 27.35 100.056 28.595 103.026 28.595C105.501 28.595 106.416 27.755 106.656 26.75H112.461C112.041 30.29 108.666 32.345 102.891 32.345C96.5614 32.345 92.9914 29.69 92.9914 24.56V24.47C92.9914 19.31 96.6364 16.655 102.876 16.655C108.651 16.655 112.461 19.115 112.461 24.38ZM102.861 20.225C100.356 20.225 99.2764 21.065 99.0064 22.625H106.536C106.296 21.05 105.231 20.225 102.861 20.225ZM122.315 32.345C116.21 32.345 112.805 30.815 112.595 26.75H117.98C118.13 28.4 119.84 28.925 122.45 28.925C124.85 28.925 125.69 28.49 125.69 27.695C125.69 27.065 125.15 26.81 123.62 26.6C121.88 26.36 119.075 26.18 116.705 25.685C114.41 25.175 113.045 24.095 113.045 21.665V21.65C113.045 18.425 116.09 16.655 121.535 16.655C127.52 16.655 130.64 18.335 130.85 21.89H125.465C125.285 20.525 123.95 20.045 121.565 20.045C119.6 20.045 118.76 20.39 118.76 21.11C118.76 21.71 119.255 21.965 120.815 22.175C122.555 22.415 125.42 22.595 127.73 23.075C130.025 23.57 131.405 24.665 131.405 27.095V27.11C131.405 30.665 127.895 32.345 122.315 32.345ZM141.786 32H138.246C135.081 32 133.251 30.815 133.251 27.635V21.335H130.851V17H133.251V14.105L139.101 10.415V17H141.786V21.335H139.101V26.6C139.101 27.335 139.326 27.665 140.211 27.665H141.786V32ZM142.959 10.52H164.034V15.5H149.319V19.01H163.314V23.885H149.319V32H142.959V10.52ZM177.387 17H183.282V32H177.612L177.582 29.78C176.442 31.34 174.462 32.345 171.792 32.345C167.472 32.345 164.832 29.87 164.832 26.015V17H170.727V25.28C170.727 26.765 171.582 27.935 173.802 27.935C176.232 27.935 177.387 26.495 177.387 24.905V17ZM196.547 16.655C200.897 16.655 203.477 19.115 203.477 22.82V32H197.582V23.57C197.582 22.13 196.727 21.065 194.537 21.065C192.092 21.065 190.907 22.46 190.907 24.05V32H185.012V17H190.697L190.727 19.295C191.882 17.69 193.847 16.655 196.547 16.655ZM218.497 10.52H224.392V32H218.737L218.707 29.795C217.477 31.355 215.437 32.345 212.587 32.345C207.682 32.345 204.502 29.435 204.502 24.635V24.47C204.502 19.595 207.697 16.655 212.767 16.655C215.287 16.655 217.207 17.36 218.497 18.53V10.52ZM218.557 24.53V24.41C218.557 22.115 217.162 20.765 214.492 20.765C211.762 20.765 210.562 22.115 210.562 24.44V24.515C210.562 26.825 211.762 28.19 214.477 28.19C217.162 28.19 218.557 26.825 218.557 24.53Z" fill="white"/>
</g>
<defs>
<clipPath id="clip0_995_7">
<rect width="226" height="43" fill="white"/>
</clipPath>
</defs>
</svg>
