<svg width="83" height="32" viewBox="0 0 83 32" fill="none" xmlns="http://www.w3.org/2000/svg">
<g clip-path="url(#clip0_1029_20)">
<mask id="mask0_1029_20" style="mask-type:luminance" maskUnits="userSpaceOnUse" x="0" y="0" width="83" height="32">
<path d="M82.5806 0H0V32H82.5806V0Z" fill="white"/>
</mask>
<g mask="url(#mask0_1029_20)">
<path d="M38.8684 6.23438C33.4284 6.23438 29 10.6628 29 16.1028C29 21.5428 33.4284 25.9711 38.8684 25.9711C44.3084 25.9711 48.7368 21.5428 48.7368 16.1028C48.7368 10.6524 44.3084 6.23438 38.8684 6.23438ZM38.569 18.064C37.3716 19.055 35.369 19.2511 34.2129 18.384C33.5832 17.9092 33.3665 17.2176 33.2839 16.9286C32.4477 13.8628 34.2542 10.704 37.32 9.86793C40.3858 9.0318 43.5445 10.8382 44.3806 13.904C44.5458 14.5234 44.5458 14.8228 44.4116 14.9466C43.8852 15.4215 42.7084 14.4718 41.4181 14.8434C39.9832 15.2563 40.1794 16.7221 38.569 18.064Z" fill="#F1F0EA"/>
<path d="M63.5974 20.2404C63.5974 21.9849 62.7613 23.3887 61.1716 24.3074C59.9226 25.03 58.24 25.4223 56.4232 25.4223C54.7923 25.4223 53.0684 25.0404 51.8297 24.4107C50.3226 23.6468 49.5277 22.5629 49.5277 21.2933V19.7242C49.5277 19.4765 49.7342 19.27 49.9819 19.27H52.7794C53.0271 19.27 53.2335 19.4765 53.2335 19.7242V20.3333C53.2335 20.8081 53.5432 21.221 54.1213 21.5307C54.7097 21.8404 55.5355 22.0055 56.4645 22.0055C58.1884 22.0055 59.2619 21.3758 59.2619 20.3642C59.2619 19.2287 58.1884 18.7849 56.2787 18.1139C56.0103 18.021 55.7523 17.9281 55.4839 17.8249C52.8929 16.9268 50.1265 15.7087 50.1265 12.55C50.1265 10.8984 50.911 9.57712 52.3974 8.71003C53.5639 8.02874 55.1329 7.65712 56.8361 7.65712C59.3032 7.65712 62.9781 8.6068 62.9781 11.2287V12.9939C62.9781 13.2416 62.7716 13.4481 62.5239 13.4481H59.6955C59.4477 13.4481 59.2413 13.2416 59.2413 12.9939V12.4158C59.2413 11.621 58.2916 11.1049 56.8361 11.1049C55.6903 11.1049 54.4619 11.4868 54.4619 12.55C54.4619 13.8507 55.969 14.3978 57.9406 14.9862C60.9135 15.9462 63.5871 17.061 63.5974 20.2404ZM82.5806 8.8339V10.4649C82.5806 11.27 81.8374 11.332 81.8271 11.332C81.4039 11.332 81.1664 11.5487 81.1664 11.9204V23.9358C81.1664 26.6197 80.1652 28.7771 78.2761 30.181C76.7277 31.3268 74.5806 31.9668 72.2168 31.9668C70.3071 31.9668 68.2219 31.492 66.4981 30.6662C66.2813 30.5629 66.1884 30.3049 66.2813 30.0881L67.2723 27.6933C67.3239 27.5797 67.4064 27.4868 67.52 27.4455C67.6335 27.4042 67.7574 27.4042 67.871 27.4558C68.5006 27.7345 70.1832 28.3952 72.1445 28.3952C75.1587 28.3952 76.8206 26.9191 76.8206 24.2455V23.1926C76.8206 22.9345 76.8516 22.6455 76.8619 22.4597C75.7884 23.9978 74.3019 24.71 72.1961 24.71C69.8839 24.71 67.9226 23.8326 66.5497 22.1604C65.28 20.6223 64.5781 18.4752 64.5781 16.1216C64.5781 13.7681 65.2594 11.652 66.4981 10.1552C67.8503 8.52422 69.7806 7.66745 72.1032 7.66745C73.8581 7.66745 76.2116 8.29712 77.2645 10.0416C77.2542 9.94874 77.2439 9.84551 77.2439 9.72164C77.2439 8.68938 77.9871 8.07003 79.2258 8.07003H81.7755C82.2297 8.04938 82.5806 8.40035 82.5806 8.8339ZM72.8465 11.3629C70.4103 11.3629 68.9548 13.0868 68.9548 15.9771C68.9548 17.4842 69.3471 18.7539 70.0903 19.652C70.8335 20.55 71.8761 21.0145 73.1045 21.0145C74.3329 21.0145 75.2826 20.5913 75.9329 19.7655C76.5935 18.9294 76.9239 17.7113 76.9239 16.132C76.9342 12.9216 75.5923 11.3629 72.8465 11.3629ZM28.5832 21.7578H26.6323V8.5139C26.6323 8.26616 26.4258 8.05971 26.1781 8.05971H20.1497C19.9019 8.05971 19.6955 8.26616 19.6955 8.5139V10.8881C19.6955 11.1358 19.9019 11.3423 20.1497 11.3423H22.3071V21.7578H20.3148C20.191 21.7578 20.0774 21.8094 19.9948 21.892C19.9123 21.9745 19.8606 22.0881 19.8606 22.212V24.5862C19.8606 24.8339 20.0671 25.0404 20.3148 25.0404H28.5935C28.8413 25.0404 29.0477 24.8339 29.0477 24.5862V22.212C29.0374 21.9539 28.831 21.7578 28.5832 21.7578ZM24.4439 5.67519C26.0026 5.67519 27.2619 4.41583 27.2619 2.85712C27.2619 1.29841 26.0026 0.0390625 24.4439 0.0390625C22.8852 0.0390625 21.6258 1.29841 21.6258 2.85712C21.6258 4.41583 22.8852 5.67519 24.4439 5.67519ZM17.9923 8.84422V10.4752C17.9923 11.2804 17.249 11.3423 17.2387 11.3423C16.8155 11.3423 16.5781 11.5591 16.5781 11.9307V23.9462C16.5781 26.63 15.5768 28.7874 13.6877 30.1913C12.1394 31.3371 9.99226 31.9771 7.62839 31.9771C5.71871 31.9771 3.63355 31.5023 1.90968 30.6765C1.6929 30.5733 1.6 30.3152 1.6929 30.0984L2.68387 27.7036C2.73548 27.59 2.81806 27.4971 2.93161 27.4558C3.04516 27.4145 3.16903 27.4145 3.28258 27.4662C3.91226 27.7449 5.59484 28.4055 7.55613 28.4055C10.5703 28.4055 12.2323 26.9294 12.2323 24.2558V23.2029C12.2323 22.9449 12.2632 22.6558 12.2735 22.47C11.2 24.0081 9.71355 24.7204 7.61806 24.7204C5.30581 24.7204 3.34452 23.8429 1.97161 22.1707C0.701935 20.612 0 18.4649 0 16.1113C0 13.7578 0.68129 11.6416 1.92 10.1449C3.27226 8.5139 5.20258 7.65712 7.52516 7.65712C9.28 7.65712 11.6335 8.2868 12.6865 10.0313C12.6761 9.93841 12.6658 9.83519 12.6658 9.71132C12.6658 8.67906 13.409 8.05971 14.6477 8.05971H17.1974C17.6413 8.05971 17.9923 8.41067 17.9923 8.84422ZM8.25806 11.3629C5.82194 11.3629 4.36645 13.0868 4.36645 15.9771C4.36645 17.4842 4.75871 18.7539 5.50194 19.652C6.23484 20.55 7.28774 21.0145 8.51613 21.0145C9.74452 21.0145 10.6942 20.5913 11.3445 19.7655C12.0052 18.9294 12.3355 17.7113 12.3355 16.132C12.3458 12.932 11.0039 11.3629 8.25806 11.3629Z" fill="#F1F0EA"/>
<path d="M12.1302 14.2028L12.729 13.6041C12.9973 13.3357 12.9973 12.9125 12.729 12.6441C12.4709 12.386 12.0477 12.3757 11.7793 12.6338L11.5625 12.8505C11.8102 13.2325 11.996 13.6763 12.1302 14.2028Z" fill="#F1F0EA"/>
<path d="M12.3446 16.141C12.3446 16.8429 12.2826 17.4726 12.1484 18.03L13.7588 16.4197L16.5768 13.6016V12.6519C16.3188 12.3939 15.8955 12.3835 15.6271 12.6416L14.6568 13.6119L12.3446 15.9242C12.3342 15.9861 12.3446 16.0687 12.3446 16.141Z" fill="#F1F0EA"/>
<path d="M2.21684 16.4221L4.64265 13.986C4.77684 13.5628 4.95233 13.1912 5.17943 12.8712C5.14846 12.7886 5.09684 12.706 5.02459 12.6441C4.76652 12.386 4.3433 12.3757 4.07491 12.6338L3.10459 13.6041L0.0078125 16.7009C0.0387802 17.2892 0.111038 17.857 0.224587 18.4041L2.21684 16.4221Z" fill="#F1F0EA"/>
<path d="M16.5737 19.3713L16.1917 19.7531C15.9233 20.0215 15.5001 20.0215 15.2317 19.7531C14.9633 19.4847 14.9633 19.0615 15.2317 18.7931L16.5737 17.4513V15.5312L12.3414 19.7635C12.073 20.0318 11.6498 20.0318 11.3814 19.7635L11.3711 19.7531C11.3608 19.7635 11.3608 19.7738 11.3504 19.7841C10.7001 20.6099 9.74012 21.0331 8.52206 21.0331C7.28335 21.0331 6.24077 20.5584 5.50786 19.6707C5.39431 19.5365 5.29109 19.3815 5.19819 19.237L4.66141 19.7738C4.39302 20.0422 3.9698 20.0422 3.70141 19.7738C3.43302 19.5054 3.43302 19.0823 3.70141 18.8139L4.62012 17.8951C4.4756 17.3789 4.40335 16.8112 4.3827 16.2125L0.800766 19.7531C0.759476 19.7944 0.707863 19.8357 0.65625 19.8667C0.986573 20.7235 1.42012 21.4874 1.96722 22.1481C3.35044 23.8203 5.30141 24.6978 7.61367 24.6978C9.71948 24.6978 11.1956 23.9854 12.2692 22.4473C12.2485 22.6228 12.2279 22.9223 12.2279 23.1803V24.2332C12.2279 26.9068 10.5659 28.3828 7.55173 28.3828C5.59044 28.3828 3.91819 27.7222 3.27819 27.4436C3.16464 27.3919 3.04077 27.3918 2.92722 27.4331C2.81367 27.4744 2.72077 27.5674 2.67948 27.681L1.68851 30.0758C1.5956 30.3029 1.68851 30.5507 1.90528 30.6539C3.62915 31.4797 5.71431 31.9544 7.62399 31.9544C9.97754 31.9544 12.135 31.3247 13.6833 30.1686C15.5724 28.7647 16.5737 26.6073 16.5737 23.9235V19.3713Z" fill="#F1F0EA"/>
<path d="M1.18264 12.6453C1.0278 12.4905 0.821351 12.4286 0.614899 12.4492C0.356835 13.1512 0.181351 13.9046 0.078125 14.6994L1.18264 13.5949C1.45103 13.3472 1.45103 12.9137 1.18264 12.6453Z" fill="#F1F0EA"/>
<path d="M24.4775 12.6465C24.2091 12.3782 23.7858 12.3782 23.5175 12.6465L22.5575 13.6065L22.2891 13.8749V15.7949L24.4775 13.6065C24.7458 13.3485 24.7458 12.9149 24.4775 12.6465Z" fill="#F1F0EA"/>
<path d="M29.0077 22.0435C28.9458 21.8783 28.7806 21.7544 28.5845 21.7544H26.6335V17.2228L24.1045 19.7519C23.8361 20.0202 23.4129 20.0202 23.1445 19.7519C22.8761 19.4835 22.8761 19.0602 23.1445 18.7919L25.5187 16.4177L26.6335 15.3028V13.3828L26.427 13.5893L26.4064 13.6099L26.3135 13.7028L22.298 17.708V21.7544H20.3058C20.1819 21.7544 20.0683 21.8061 19.9858 21.8886C19.9032 21.9712 19.8516 22.0848 19.8516 22.2086V24.5828C19.8516 24.8306 20.058 25.037 20.3058 25.037H28.5845C28.7806 25.037 28.9458 24.9131 29.0077 24.748V22.0435Z" fill="#F1F0EA"/>
<path d="M62.2413 17.0734C62.0348 16.8876 61.8077 16.7121 61.5703 16.5469C61.6632 16.8463 61.9213 17.063 62.2413 17.0734Z" fill="#F1F0EA"/>
<path d="M54.7006 17.0703C54.4735 17.0703 54.2773 17.1736 54.1328 17.3284C54.5664 17.5039 55.0102 17.669 55.4541 17.8239C55.4541 17.4007 55.1135 17.0703 54.7006 17.0703Z" fill="#F1F0EA"/>
<path d="M56.8191 7.65625C55.1262 7.65625 53.5468 8.02787 52.3803 8.70916C50.8939 9.57625 50.1094 10.8975 50.1094 12.5491C50.1094 13.8807 50.6049 14.8717 51.3687 15.6356C51.4616 15.5943 51.5649 15.5736 51.6784 15.5736C52.0913 15.5736 52.432 15.9143 52.432 16.3272C52.432 16.3788 52.4423 16.4304 52.4526 16.482C52.7726 16.6782 53.1029 16.864 53.4539 17.0291C53.7326 16.9259 53.9391 16.6472 53.9391 16.3272C53.9391 15.9143 54.2797 15.5736 54.6926 15.5736C55.1055 15.5736 55.4461 15.9143 55.4461 16.3272C55.4461 16.7401 55.7868 17.0807 56.1997 17.0807C56.6126 17.0807 56.9532 16.7401 56.9532 16.3272C56.9532 15.9143 57.2939 15.5736 57.7068 15.5736C58.1197 15.5736 58.4603 15.9143 58.4603 16.3272C58.4603 16.7401 58.801 17.0807 59.2139 17.0807C59.6268 17.0807 59.9674 16.7401 59.9674 16.3272C59.9674 16.1311 60.05 15.9453 60.1739 15.8111C59.472 15.5014 58.7081 15.2433 57.9236 14.9853C55.952 14.3969 54.4449 13.8498 54.4449 12.5491C54.4449 11.4859 55.6732 11.104 56.8191 11.104C58.2745 11.104 59.2242 11.6201 59.2242 12.4149V12.993C59.2242 13.2407 59.4307 13.4472 59.6784 13.4472H62.5068C62.7545 13.4472 62.961 13.2407 62.961 12.993V11.2278C62.9713 8.60593 59.2965 7.65625 56.8191 7.65625Z" fill="#F1F0EA"/>
<path d="M62.277 20.0774C62.6932 20.0774 63.0305 19.74 63.0305 19.3239C63.0305 18.9077 62.6932 18.5703 62.277 18.5703C61.8608 18.5703 61.5234 18.9077 61.5234 19.3239C61.5234 19.74 61.8608 20.0774 62.277 20.0774Z" fill="#F1F0EA"/>
<path d="M61.4837 17.8239C61.4837 17.411 61.143 17.0703 60.7301 17.0703C60.3172 17.0703 59.9766 17.411 59.9766 17.8239C59.9766 18.2368 60.3172 18.5774 60.7301 18.5774C61.143 18.5774 61.4837 18.2368 61.4837 17.8239Z" fill="#F1F0EA"/>
<path d="M59.9241 19.3239C59.9241 18.911 59.5836 18.5703 59.1707 18.5703C58.8507 18.5703 58.572 18.7768 58.4688 19.0658C58.892 19.3445 59.15 19.6542 59.2326 20.0774C59.6249 20.0464 59.9241 19.7161 59.9241 19.3239Z" fill="#F1F0EA"/>
<path d="M57.7145 18.5774C58.1307 18.5774 58.468 18.2401 58.468 17.8239C58.468 17.4077 58.1307 17.0703 57.7145 17.0703C57.2983 17.0703 56.9609 17.4077 56.9609 17.8239C56.9609 18.2401 57.2983 18.5774 57.7145 18.5774Z" fill="#F1F0EA"/>
<path d="M81.7965 8.05102H79.2468C78.0081 8.05102 77.2649 8.67037 77.2649 9.70263C77.2649 9.8265 77.2752 9.92973 77.2855 10.0226C76.2326 8.27811 73.8687 7.64844 72.1242 7.64844C69.8016 7.64844 67.8713 8.50521 66.5191 10.1362C65.3629 11.5297 64.692 13.46 64.6094 15.6071C64.6816 15.5762 64.7642 15.5658 64.8571 15.5658C65.27 15.5658 65.6107 15.9065 65.6107 16.3194C65.6107 16.7323 65.9513 17.0729 66.3642 17.0729C66.7771 17.0729 67.1178 16.7323 67.1178 16.3194C67.1178 15.9065 67.4584 15.5658 67.8713 15.5658C68.2842 15.5658 68.6249 15.9065 68.6249 16.3194C68.6249 16.6084 68.79 16.8665 69.0378 16.9904C68.9965 16.6704 68.9758 16.3297 68.9758 15.9684C68.9758 13.0781 70.4313 11.3542 72.8674 11.3542C75.4687 11.3542 76.8003 12.7478 76.9449 15.6071C77.2339 15.7104 77.4403 15.9891 77.4403 16.3091C77.4403 16.722 77.781 17.0626 78.1939 17.0626C78.6068 17.0626 78.9474 16.722 78.9474 16.3091C78.9474 15.8962 79.2881 15.5555 79.701 15.5555C80.1139 15.5555 80.4545 15.8962 80.4545 16.3091C80.4545 16.722 80.7849 17.0523 81.1978 17.0626V11.9013C81.1978 11.5297 81.4352 11.3129 81.8584 11.3129C81.8687 11.3129 82.612 11.251 82.612 10.4458V8.81489C82.5707 8.40198 82.2197 8.05102 81.7965 8.05102Z" fill="#F1F0EA"/>
<path d="M67.8472 17.0703C67.4343 17.0703 67.0938 17.4109 67.0938 17.8238C67.0938 18.2367 67.4343 18.5774 67.8472 18.5774C68.2601 18.5774 68.6007 18.2367 68.6007 17.8238C68.6007 17.4109 68.2704 17.0703 67.8472 17.0703Z" fill="#F1F0EA"/>
<path d="M68.6016 19.3216C68.6016 19.7345 68.9422 20.0751 69.3551 20.0751C69.6648 20.0751 69.9332 19.8893 70.0467 19.6209C69.799 19.3113 69.5925 18.9603 69.4274 18.5784C69.4067 18.5784 69.3758 18.5784 69.3551 18.5784C68.9422 18.568 68.6016 18.8984 68.6016 19.3216Z" fill="#F1F0EA"/>
<path d="M76.6529 18.5777C77.0658 18.5777 77.4064 18.2371 77.4064 17.8242C77.4064 17.4835 77.1897 17.2048 76.88 17.1016C76.8284 17.6487 76.7252 18.1339 76.5703 18.5674C76.6013 18.5777 76.6219 18.5777 76.6529 18.5777Z" fill="#F1F0EA"/>
<path d="M78.1599 20.0774C78.5761 20.0774 78.9134 19.74 78.9134 19.3239C78.9134 18.9077 78.5761 18.5703 78.1599 18.5703C77.7437 18.5703 77.4062 18.9077 77.4062 19.3239C77.4062 19.74 77.7437 20.0774 78.1599 20.0774Z" fill="#F1F0EA"/>
<path d="M81.1573 18.5703C80.7444 18.5806 80.4141 18.911 80.4141 19.3239C80.4141 19.7368 80.7444 20.0671 81.1573 20.0774V18.5703Z" fill="#F1F0EA"/>
<path d="M80.4212 17.8238C80.4212 17.4109 80.0805 17.0703 79.6676 17.0703C79.2547 17.0703 78.9141 17.4109 78.9141 17.8238C78.9141 18.2367 79.2547 18.5774 79.6676 18.5774C80.0805 18.5774 80.4212 18.2367 80.4212 17.8238Z" fill="#F1F0EA"/>
<path d="M64.834 17.0703C64.7617 17.0703 64.6894 17.0806 64.6172 17.1013C64.6585 17.6071 64.7411 18.1025 64.8443 18.5774C65.2469 18.5671 65.5772 18.2367 65.5772 17.8238C65.5875 17.4006 65.2572 17.0703 64.834 17.0703Z" fill="#F1F0EA"/>
<path d="M66.3472 18.5703C65.9343 18.5703 65.5938 18.911 65.5938 19.3239C65.5938 19.7368 65.9343 20.0774 66.3472 20.0774C66.7601 20.0774 67.1007 19.7368 67.1007 19.3239C67.1007 18.911 66.7704 18.5703 66.3472 18.5703Z" fill="#F1F0EA"/>
</g>
</g>
<defs>
<clipPath id="clip0_1029_20">
<rect width="82.5806" height="32" fill="white"/>
</clipPath>
</defs>
</svg>
