<svg width="24" height="24" viewBox="0 0 24 24" fill="none" xmlns="http://www.w3.org/2000/svg">
<path fill-rule="evenodd" clip-rule="evenodd" d="M19.44 12C19.013 11.999 18.5882 12.0647 18.18 12.195L16.4808 8.6625C16.4353 8.57395 16.3742 8.49508 16.3008 8.43L17.0784 6H18.72V4.5H13.68V6H15.5592L14.8392 8.25H7.47356L7.91996 6.1575C7.96629 5.9331 7.91143 5.69896 7.77105 5.52203C7.63068 5.3451 7.42026 5.24487 7.19996 5.25H3.59996V6.75H6.30716L5.22716 12H5.03996C2.81248 11.9959 0.947212 13.7568 0.732508 16.0662C0.517803 18.3757 2.02406 20.4767 4.2109 20.9179C6.39774 21.3591 8.54813 19.996 9.17678 17.77C9.80543 15.544 8.70621 13.1851 6.63836 12.3225L7.09916 10.0725L12.1824 16.6875C12.4554 17.0428 12.8686 17.2497 13.3056 17.25H15.1848C15.5669 19.6049 17.6486 21.2387 19.927 20.9718C22.2055 20.705 23.8869 18.6304 23.7575 16.2459C23.628 13.8614 21.7328 11.9976 19.44 12ZM7.91996 16.5C7.91854 18.1399 6.65322 19.4748 5.07904 19.497C3.50486 19.5193 2.20524 18.2207 2.1611 16.5814C2.11696 14.9421 3.34466 13.5697 4.91756 13.5L4.31996 16.3425C4.31655 16.3949 4.31655 16.4476 4.31996 16.5C4.31996 16.9142 4.64232 17.25 5.03996 17.25C5.38534 17.258 5.6875 17.0094 5.75996 16.6575L6.34316 13.83C7.30885 14.3404 7.91805 15.372 7.91996 16.5ZM8.69756 9.75H14.4L12.7296 14.955L8.69756 9.75ZM15.1776 15.75H13.9536L15.6744 10.3575L16.884 12.87C15.9826 13.5662 15.3739 14.5979 15.1848 15.75H15.1776ZM19.44 19.5C18.2456 19.492 17.1799 18.7169 16.7612 17.5517C16.3425 16.3864 16.6577 15.0729 17.5536 14.25L18.7992 16.8375C18.9504 17.1451 19.284 17.3052 19.6067 17.2252C19.9295 17.1451 20.158 16.8456 20.16 16.5C20.1567 16.3853 20.1297 16.2728 20.0808 16.17L18.8352 13.575C19.0335 13.527 19.2363 13.5018 19.44 13.5C21.0305 13.5 22.32 14.8431 22.32 16.5C22.32 18.1569 21.0305 19.5 19.44 19.5V19.5Z" fill="#FFA947"/>
</svg>
