<svg width="24" height="24" viewBox="0 0 24 24" fill="none" xmlns="http://www.w3.org/2000/svg">
<path fill-rule="evenodd" clip-rule="evenodd" d="M4.5 1.5H19.5C20.3284 1.5 21 2.17157 21 3V21C21 21.8284 20.3284 22.5 19.5 22.5H4.5C3.67157 22.5 3 21.8284 3 21V3C3 2.17157 3.67157 1.5 4.5 1.5ZM19.5 3V21H4.5V3H19.5ZM17.25 5.75H6.75V8H17.25V5.75ZM6.75 10.25H8.25V11.75H6.75V10.25ZM6.75 14H8.25V15.5H6.75V14ZM8.25 17.75H6.75V19.25H8.25V17.75ZM17.25 17.75H15.75V19.25H17.25V17.75ZM17.25 14H15.75V15.5H17.25V14ZM12.75 17.75H11.25V19.25H12.75V17.75ZM11.25 14H12.75V15.5H11.25V14ZM12.75 10.25H11.25V11.75H12.75V10.25ZM15.75 10.25H17.25V11.75H15.75V10.25Z" fill="#FFA947"/>
</svg>
