<svg width="24" height="24" viewBox="0 0 24 24" fill="none" xmlns="http://www.w3.org/2000/svg">
<path fill-rule="evenodd" clip-rule="evenodd" d="M19.5002 10.5C20.3286 10.5 21.0002 9.82843 21.0002 9V4.5C21.0002 3.67157 20.3286 3 19.5002 3H15.0002C14.1718 3 13.5002 3.67157 13.5002 4.5V9C13.5002 9.82843 14.1718 10.5 15.0002 10.5H16.5002V13.575C15.027 13.8755 13.8757 15.0268 13.5752 16.5H10.5002V15C10.5002 14.1716 9.82864 13.5 9.00021 13.5H7.50021V10.425C9.38644 10.04 10.6747 8.28923 10.4812 6.37386C10.2877 4.45849 8.67533 3.00077 6.75021 3.00077C4.8251 3.00077 3.21269 4.45849 3.0192 6.37386C2.82571 8.28923 4.11399 10.04 6.00021 10.425V13.5H4.50021C3.67179 13.5 3.00021 14.1716 3.00021 15V19.5C3.00021 20.3284 3.67179 21 4.50021 21H9.00021C9.82864 21 10.5002 20.3284 10.5002 19.5V18H13.5752C13.9511 19.8388 15.6285 21.1166 17.5011 20.9906C19.3737 20.8645 20.8647 19.3735 20.9908 17.5009C21.1168 15.6283 19.839 13.9509 18.0002 13.575V10.5H19.5002ZM4.50021 6.75C4.50021 5.50736 5.50757 4.5 6.75021 4.5C7.99285 4.5 9.00021 5.50736 9.00021 6.75C9.00021 7.99264 7.99285 9 6.75021 9C5.50757 9 4.50021 7.99264 4.50021 6.75V6.75ZM9.00021 19.5H4.50021V15H9.00021V19.5ZM19.5002 17.25C19.5002 18.4926 18.4929 19.5 17.2502 19.5C16.0076 19.5 15.0002 18.4926 15.0002 17.25C15.0002 16.0074 16.0076 15 17.2502 15C18.4929 15 19.5002 16.0074 19.5002 17.25ZM15.0002 4.5H19.5002V9H15.0002V4.5Z" fill="#FFA947"/>
</svg>
