<svg width="24" height="24" viewBox="0 0 24 24" fill="none" xmlns="http://www.w3.org/2000/svg">
<path fill-rule="evenodd" clip-rule="evenodd" d="M22.75 8.5V10H19.75V14.5H22.75V16H19.75V18.25C19.75 19.0784 19.0784 19.75 18.25 19.75H16V22.75H14.5V19.75H10V22.75H8.5V19.75H6.25C5.42157 19.75 4.75 19.0784 4.75 18.25V16H1.75V14.5H4.75V10H1.75V8.5H4.75V6.25C4.75 5.42157 5.42157 4.75 6.25 4.75H8.5V1.75H10V4.75H14.5V1.75H16V4.75H18.25C19.0784 4.75 19.75 5.42157 19.75 6.25V8.5H22.75ZM6.25 18.25H18.25V6.25H6.25V18.25ZM8.5 8.55V16.05H16V8.55H8.5ZM10 14.5H14.5V10H10V14.5Z" fill="#FFA947"/>
</svg>
