<svg width="24" height="24" viewBox="0 0 24 24" fill="none" xmlns="http://www.w3.org/2000/svg">
<path fill-rule="evenodd" clip-rule="evenodd" d="M7.50001 10.5C8.32843 10.5 9.00001 9.82844 9.00001 9.00001C9.00001 8.17158 8.32843 7.50001 7.50001 7.50001C6.67158 7.50001 6.00001 8.17158 6.00001 9.00001C6.00001 9.82844 6.67158 10.5 7.50001 10.5ZM12 8.25001C12.8284 8.25001 13.5 7.57844 13.5 6.75001C13.5 5.92158 12.8284 5.25001 12 5.25001C11.1716 5.25001 10.5 5.92158 10.5 6.75001C10.5 7.57844 11.1716 8.25001 12 8.25001ZM16.5 10.5C17.3284 10.5 18 9.82844 18 9.00001C18 8.17158 17.3284 7.50001 16.5 7.50001C15.6716 7.50001 15 8.17158 15 9.00001C15 9.82844 15.6716 10.5 16.5 10.5ZM17.25 15C18.0784 15 18.75 14.3284 18.75 13.5C18.75 12.6716 18.0784 12 17.25 12C16.4216 12 15.75 12.6716 15.75 13.5C15.75 14.3284 16.4216 15 17.25 15ZM14.25 18.75C15.0784 18.75 15.75 18.0784 15.75 17.25C15.75 16.4216 15.0784 15.75 14.25 15.75C13.4216 15.75 12.75 16.4216 12.75 17.25C12.75 18.0784 13.4216 18.75 14.25 18.75ZM4.71716 4.42845C6.77478 2.44725 9.55074 1.38983 12.405 1.50001C17.8841 1.72565 22.2744 6.11588 22.5 11.595C22.6102 14.4493 21.5528 17.2252 19.5716 19.2829C17.5904 21.3405 14.8564 22.5021 12 22.5C10.7574 22.5 9.75 21.4927 9.75 20.25V17.43C9.75138 16.7279 9.42491 16.0654 8.86729 15.6387C8.30968 15.212 7.58485 15.0701 6.9075 15.255L6.0675 15.4875C4.98035 15.7845 3.8169 15.5574 2.92117 14.8735C2.02545 14.1895 1.49993 13.127 1.5 12C1.49788 9.14363 2.65954 6.40965 4.71716 4.42845ZM12 21C14.4502 21.0047 16.7952 20.0044 18.4875 18.2325V18.24C20.1956 16.4813 21.1043 14.097 21 11.6475C20.7567 6.97612 17.0239 3.24331 12.3525 3.00001C9.90508 2.90408 7.52428 3.80977 5.75942 5.50811C3.99457 7.20644 2.99812 9.55071 3 12C2.99857 12.6584 3.3038 13.2798 3.82569 13.6812C4.34757 14.0825 5.02659 14.2179 5.6625 14.0475L6.5025 13.815C6.82755 13.726 7.16299 13.6806 7.5 13.68C9.57107 13.68 11.25 15.3589 11.25 17.43V20.25C11.25 20.6642 11.5858 21 12 21Z" fill="#FFA947"/>
</svg>
