<svg width="24" height="24" viewBox="0 0 24 24" fill="none" xmlns="http://www.w3.org/2000/svg">
<path fill-rule="evenodd" clip-rule="evenodd" d="M1.5 20.25H22.5V21.75H1.5V20.25ZM19.0575 6.74999C19.3392 6.46864 19.4974 6.08686 19.4974 5.68874C19.4974 5.29063 19.3392 4.90885 19.0575 4.62749L16.3725 1.94249C16.0911 1.66083 15.7094 1.50256 15.3112 1.50256C14.9131 1.50256 14.5314 1.66083 14.25 1.94249L3 13.1925V18H7.8075L19.0575 6.74999ZM15.3075 2.99999L18 5.69249L15.75 7.94249L13.0575 5.24999L15.3075 2.99999ZM4.5 16.5V13.8075L12 6.30749L14.6925 8.99999L7.1925 16.5H4.5Z" fill="#FFA947"/>
</svg>
