<svg width="25" height="24" viewBox="0 0 25 24" fill="none" xmlns="http://www.w3.org/2000/svg">
<path fill-rule="evenodd" clip-rule="evenodd" d="M4.25 9.5332C4.31172 5.03763 8.00438 1.44232 12.5 1.5007C16.9956 1.44232 20.6883 5.03763 20.75 9.5332C20.7481 11.2789 20.1679 12.9747 19.1 14.3557L12.5 24.0007L5.9 14.3557C4.83213 12.9747 4.2519 11.2789 4.25 9.5332ZM19.25 9.5332C19.1802 5.86957 16.1639 2.95052 12.5 3.0007C8.83605 2.95052 5.81981 5.86957 5.75 9.5332C5.74891 10.9748 6.23821 12.374 7.1375 13.5007L12.5 21.3457L17.9075 13.4407C18.7779 12.3242 19.2504 10.9489 19.25 9.5332ZM12.5 7.5C13.7426 7.5 14.75 8.50736 14.75 9.75C14.75 10.9926 13.7426 12 12.5 12C11.2574 12 10.25 10.9926 10.25 9.75C10.25 8.50736 11.2574 7.5 12.5 7.5ZM8.75 9.75C8.75 7.67893 10.4289 6 12.5 6C14.5711 6 16.25 7.67893 16.25 9.75C16.25 11.8211 14.5711 13.5 12.5 13.5C10.4289 13.5 8.75 11.8211 8.75 9.75Z" fill="#FFA947"/>
</svg>
