<svg width="24" height="24" viewBox="0 0 24 24" fill="none" xmlns="http://www.w3.org/2000/svg">
<path fill-rule="evenodd" clip-rule="evenodd" d="M21.6229 17.3775L17.2504 12.9975V9.74995C17.2516 9.5506 17.1733 9.35899 17.0329 9.21745L9.53294 1.71745C9.39212 1.57547 9.20042 1.49561 9.00044 1.49561C8.80046 1.49561 8.60877 1.57547 8.46794 1.71745L1.71794 8.46745C1.57596 8.60828 1.49609 8.79998 1.49609 8.99995C1.49609 9.19993 1.57596 9.39163 1.71794 9.53245L9.21794 17.0325C9.35948 17.1728 9.55109 17.2511 9.75044 17.25H13.0054L17.3779 21.63C18.5502 22.8022 20.4507 22.8022 21.6229 21.63C22.7952 20.4577 22.7952 18.5572 21.6229 17.385V17.3775ZM4.50044 7.80745L6.21794 9.53245L7.28294 8.46745L5.55794 6.74995L6.75044 5.55745L9.96794 8.78245L11.0329 7.71745L7.80794 4.49995L9.00044 3.30745L13.9429 8.24995L8.25044 13.9425L3.30794 8.99995L4.50044 7.80745ZM20.5579 20.5575C19.9729 21.139 19.028 21.139 18.4429 20.5575L13.8454 15.9675C13.6856 15.8575 13.504 15.7834 13.3129 15.75H10.0579L9.30794 15L15.0004 9.30745L15.7504 10.0575V13.3125C15.7513 13.5092 15.8294 13.6978 15.9679 13.8375L20.5579 18.4425C21.1395 19.0275 21.1395 19.9724 20.5579 20.5575Z" fill="#FFA947"/>
</svg>
