<svg width="24" height="24" viewBox="0 0 24 24" fill="none" xmlns="http://www.w3.org/2000/svg">
<path fill-rule="evenodd" clip-rule="evenodd" d="M6 6.75C4.34315 6.75 3 5.40685 3 3.75C3 2.09315 4.34315 0.75 6 0.75C7.65685 0.75 9 2.09315 9 3.75C9 4.54565 8.68393 5.30871 8.12132 5.87132C7.55871 6.43393 6.79565 6.75 6 6.75ZM6 2.25C5.17157 2.25 4.5 2.92157 4.5 3.75C4.5 4.57843 5.17157 5.25 6 5.25C6.82843 5.25 7.5 4.57843 7.5 3.75C7.5 2.92157 6.82843 2.25 6 2.25V2.25ZM18 6.75C16.3431 6.75 15 5.40685 15 3.75C15 2.09315 16.3431 0.75 18 0.75C19.6569 0.75 21 2.09315 21 3.75C21 4.54565 20.6839 5.30871 20.1213 5.87132C19.5587 6.43393 18.7956 6.75 18 6.75ZM18 2.25C17.1716 2.25 16.5 2.92157 16.5 3.75C16.5 4.57843 17.1716 5.25 18 5.25C18.8284 5.25 19.5 4.57843 19.5 3.75C19.5 2.92157 18.8284 2.25 18 2.25V2.25ZM19.5 22.5H16.5C15.6716 22.5 15 21.8284 15 21V15.75H16.5V21H19.5V14.25H21V9.75C21 9.33579 20.6642 9 20.25 9H15.435L12 15L8.565 9H3.75C3.33579 9 3 9.33579 3 9.75V14.25H4.5V21H7.5V15.75H9V21C9 21.8284 8.32843 22.5 7.5 22.5H4.5C3.67157 22.5 3 21.8284 3 21V15.75C2.17157 15.75 1.5 15.0784 1.5 14.25V9.75C1.5 8.50736 2.50736 7.5 3.75 7.5H9.435L12 12L14.565 7.5H20.25C21.4926 7.5 22.5 8.50736 22.5 9.75V14.25C22.5 15.0784 21.8284 15.75 21 15.75V21C21 21.8284 20.3284 22.5 19.5 22.5Z" fill="#FFA947"/>
</svg>
