<svg width="24" height="24" viewBox="0 0 24 24" fill="none" xmlns="http://www.w3.org/2000/svg">
<path fill-rule="evenodd" clip-rule="evenodd" d="M17.2503 15C16.1131 15.0057 15.04 15.5271 14.3328 16.4175L8.85026 12.99C9.05007 12.3451 9.05007 11.6549 8.85026 11.01L14.3328 7.58252C15.4817 9.00524 17.4894 9.39172 19.0844 8.49724C20.6794 7.60276 21.3967 5.68821 20.782 3.9659C20.1673 2.24358 18.3999 1.21583 16.5989 1.53342C14.798 1.85102 13.4888 3.42133 13.5003 5.25002C13.5038 5.58541 13.5543 5.91864 13.6503 6.24002L8.16776 9.66752C7.1757 8.41864 5.50222 7.93393 3.99627 8.45928C2.49032 8.98463 1.48145 10.4051 1.48145 12C1.48145 13.595 2.49032 15.0154 3.99627 15.5408C5.50222 16.0661 7.1757 15.5814 8.16776 14.3325L13.6503 17.76C13.5543 18.0814 13.5038 18.4146 13.5003 18.75C13.5003 20.8211 15.1792 22.5 17.2503 22.5C19.3213 22.5 21.0003 20.8211 21.0003 18.75C21.0003 16.679 19.3213 15 17.2503 15ZM17.2503 3.00002C18.4929 3.00002 19.5003 4.00738 19.5003 5.25002C19.5003 6.49266 18.4929 7.50002 17.2503 7.50002C16.0076 7.50002 15.0003 6.49266 15.0003 5.25002C15.0003 4.00738 16.0076 3.00002 17.2503 3.00002ZM5.25026 14.25C4.00762 14.25 3.00026 13.2427 3.00026 12C3.00026 10.7574 4.00762 9.75002 5.25026 9.75002C6.4929 9.75002 7.50026 10.7574 7.50026 12C7.50026 13.2427 6.4929 14.25 5.25026 14.25V14.25ZM17.2503 21C16.0076 21 15.0003 19.9927 15.0003 18.75C15.0003 17.5074 16.0076 16.5 17.2503 16.5C18.4929 16.5 19.5003 17.5074 19.5003 18.75C19.5003 19.9927 18.4929 21 17.2503 21V21Z" fill="#FFA947"/>
</svg>
