<svg width="24" height="24" viewBox="0 0 24 24" fill="none" xmlns="http://www.w3.org/2000/svg">
<path fill-rule="evenodd" clip-rule="evenodd" d="M10.5 15.135L7.8075 12.4425L6.75 13.5L10.5 17.25L17.25 10.5L16.1925 9.435L10.5 15.135ZM18.75 3.75H16.5V3C16.5 2.17157 15.8284 1.5 15 1.5H9C8.17157 1.5 7.5 2.17157 7.5 3V3.75H5.25C4.42157 3.75 3.75 4.42157 3.75 5.25V21C3.75 21.8284 4.42157 22.5 5.25 22.5H18.75C19.5784 22.5 20.25 21.8284 20.25 21V5.25C20.25 4.42157 19.5784 3.75 18.75 3.75ZM9 3H15V6H9V3ZM5.25 21H18.75V5.25H16.5V7.5H7.5V5.25H5.25V21Z" fill="#FFA947"/>
</svg>
