<svg width="24" height="24" viewBox="0 0 24 24" fill="none" xmlns="http://www.w3.org/2000/svg">
<path fill-rule="evenodd" clip-rule="evenodd" d="M20.8875 21.75H22.5L18 10.5H16.2375L11.7375 21.75H13.35L14.55 18.75H19.6875L20.8875 21.75ZM15.15 17.25L17.115 12.33L19.0875 17.25H15.15ZM13.5 5.25V3.75H8.25V1.5H6.75V3.75H1.5V5.25H9.555C9.13945 6.96403 8.31902 8.55345 7.1625 9.885C6.4086 8.95013 5.82704 7.88859 5.445 6.75H3.87C4.34211 8.27746 5.10624 9.69875 6.12 10.935C4.99958 12.0218 3.68742 12.8915 2.25 13.5L2.8125 14.895C4.42768 14.213 5.89872 13.2306 7.1475 12C8.37362 13.2475 9.8444 14.228 11.4675 14.88L12 13.5C10.5543 12.9412 9.24497 12.0794 8.16 10.9725C9.59593 9.33597 10.6058 7.37035 11.1 5.25H13.5Z" fill="#FFA947"/>
</svg>
