<svg width="117" height="31" viewBox="0 0 117 31" fill="none" xmlns="http://www.w3.org/2000/svg">
<path d="M18.4972 0.90909H24.6477V19.8011C24.6477 21.9223 24.1411 23.7784 23.1278 25.3693C22.1241 26.9602 20.7178 28.2008 18.9091 29.0909C17.1004 29.9716 14.9934 30.4119 12.5881 30.4119C10.1733 30.4119 8.06155 29.9716 6.25284 29.0909C4.44413 28.2008 3.03788 26.9602 2.03409 25.3693C1.0303 23.7784 0.528409 21.9223 0.528409 19.8011V0.90909H6.67898V19.2756C6.67898 20.3835 6.92045 21.3684 7.40341 22.2301C7.89583 23.0919 8.58712 23.7689 9.47727 24.2614C10.3674 24.7538 11.4044 25 12.5881 25C13.7813 25 14.8182 24.7538 15.6989 24.2614C16.589 23.7689 17.2756 23.0919 17.7585 22.2301C18.2509 21.3684 18.4972 20.3835 18.4972 19.2756V0.90909ZM28.2081 0.90909H35.7933L43.8047 20.4545H44.1456L52.157 0.90909H59.7422V30H53.7763V11.0653H53.5348L46.0064 29.858H41.9439L34.4155 10.9943H34.174V30H28.2081V0.90909ZM68.3239 30H61.733L71.7756 0.90909H79.7017L89.7301 30H83.1392L75.8523 7.55682H75.625L68.3239 30ZM67.9119 18.5653H83.4801V23.3665H67.9119V18.5653ZM109.654 10.3125C109.455 9.62121 109.176 9.01042 108.816 8.48011C108.456 7.94034 108.016 7.4858 107.495 7.11648C106.984 6.73769 106.397 6.44886 105.734 6.25C105.08 6.05114 104.356 5.9517 103.56 5.9517C102.074 5.9517 100.767 6.32102 99.6399 7.05966C98.5225 7.79829 97.6513 8.87311 97.0263 10.2841C96.4013 11.6856 96.0888 13.3996 96.0888 15.4261C96.0888 17.4527 96.3965 19.1761 97.0121 20.5966C97.6276 22.017 98.4988 23.1013 99.6257 23.8494C100.753 24.5881 102.083 24.9574 103.617 24.9574C105.009 24.9574 106.198 24.7112 107.183 24.2188C108.177 23.7169 108.934 23.0114 109.455 22.1023C109.986 21.1932 110.251 20.1184 110.251 18.8778L111.501 19.0625H104.001V14.4318H116.174V18.0966C116.174 20.6534 115.634 22.8504 114.555 24.6875C113.475 26.5152 111.988 27.9261 110.094 28.9205C108.201 29.9053 106.032 30.3977 103.589 30.3977C100.862 30.3977 98.4657 29.7964 96.4013 28.5938C94.3369 27.3816 92.727 25.6629 91.5717 23.4375C90.4259 21.2027 89.853 18.5511 89.853 15.483C89.853 13.125 90.1939 11.0227 90.8757 9.17614C91.567 7.32008 92.5329 5.74811 93.7734 4.46023C95.014 3.17235 96.4581 2.19223 98.1058 1.51989C99.7536 0.847537 101.539 0.511363 103.461 0.511363C105.109 0.511363 106.643 0.75284 108.063 1.2358C109.484 1.70928 110.743 2.38163 111.842 3.25284C112.95 4.12405 113.854 5.16098 114.555 6.36364C115.255 7.55682 115.705 8.87311 115.904 10.3125H109.654Z" fill="white"/>
</svg>
