<svg width="121" height="40" viewBox="0 0 121 40" fill="none" xmlns="http://www.w3.org/2000/svg">
<path d="M20.4972 5.90909H26.6477V24.8011C26.6477 26.9223 26.1411 28.7784 25.1278 30.3693C24.1241 31.9602 22.7178 33.2008 20.9091 34.0909C19.1004 34.9716 16.9934 35.4119 14.5881 35.4119C12.1733 35.4119 10.0616 34.9716 8.25284 34.0909C6.44413 33.2008 5.03788 31.9602 4.03409 30.3693C3.0303 28.7784 2.52841 26.9223 2.52841 24.8011V5.90909H8.67898V24.2756C8.67898 25.3835 8.92045 26.3684 9.40341 27.2301C9.89583 28.0919 10.5871 28.7689 11.4773 29.2614C12.3674 29.7538 13.4044 30 14.5881 30C15.7813 30 16.8182 29.7538 17.6989 29.2614C18.589 28.7689 19.2756 28.0919 19.7585 27.2301C20.2509 26.3684 20.4972 25.3835 20.4972 24.2756V5.90909ZM30.2081 5.90909H37.7933L45.8047 25.4545H46.1456L54.157 5.90909H61.7422V35H55.7763V16.0653H55.5348L48.0064 34.858H43.9439L36.4155 15.9943H36.174V35H30.2081V5.90909ZM70.3239 35H63.733L73.7756 5.90909H81.7017L91.7301 35H85.1392L77.8523 12.5568H77.625L70.3239 35ZM69.9119 23.5653H85.4801V28.3665H69.9119V23.5653ZM111.654 15.3125C111.455 14.6212 111.176 14.0104 110.816 13.4801C110.456 12.9403 110.016 12.4858 109.495 12.1165C108.984 11.7377 108.397 11.4489 107.734 11.25C107.08 11.0511 106.356 10.9517 105.56 10.9517C104.074 10.9517 102.767 11.321 101.64 12.0597C100.522 12.7983 99.6513 13.8731 99.0263 15.2841C98.4013 16.6856 98.0888 18.3996 98.0888 20.4261C98.0888 22.4527 98.3965 24.1761 99.0121 25.5966C99.6276 27.017 100.499 28.1013 101.626 28.8494C102.753 29.5881 104.083 29.9574 105.617 29.9574C107.009 29.9574 108.198 29.7112 109.183 29.2188C110.177 28.7169 110.934 28.0114 111.455 27.1023C111.986 26.1932 112.251 25.1184 112.251 23.8778L113.501 24.0625H106.001V19.4318H118.174V23.0966C118.174 25.6534 117.634 27.8504 116.555 29.6875C115.475 31.5152 113.988 32.9261 112.094 33.9205C110.201 34.9053 108.032 35.3977 105.589 35.3977C102.862 35.3977 100.466 34.7964 98.4013 33.5938C96.3369 32.3816 94.727 30.6629 93.5717 28.4375C92.4259 26.2027 91.853 23.5511 91.853 20.483C91.853 18.125 92.1939 16.0227 92.8757 14.1761C93.567 12.3201 94.5329 10.7481 95.7734 9.46023C97.014 8.17235 98.4581 7.19223 100.106 6.51989C101.754 5.84754 103.539 5.51136 105.461 5.51136C107.109 5.51136 108.643 5.75284 110.063 6.2358C111.484 6.70928 112.743 7.38163 113.842 8.25284C114.95 9.12405 115.854 10.161 116.555 11.3636C117.255 12.5568 117.705 13.8731 117.904 15.3125H111.654Z" fill="black"/>
</svg>
