<svg width="320" height="320" viewBox="0 0 320 320" fill="none" xmlns="http://www.w3.org/2000/svg">
<path d="M152.236 5.33195C154.971 -1.77732 165.029 -1.77732 167.764 5.33195C170.22 11.7172 178.905 12.5726 182.56 6.78921C186.629 0.350047 196.494 2.31232 197.789 9.8185C198.952 16.5603 207.303 19.0936 212.016 14.1343C217.263 8.61267 226.556 12.4618 226.362 20.0764C226.187 26.9156 233.884 31.0295 239.474 27.0849C245.697 22.693 254.06 28.2811 252.384 35.7116C250.879 42.3853 257.625 47.9216 263.877 45.1433C270.838 42.05 277.95 49.1623 274.857 56.123C272.078 62.3749 277.615 69.1209 284.288 67.6157C291.719 65.9398 297.307 74.3029 292.915 80.5264C288.971 86.1161 293.084 93.8126 299.924 93.6383C307.538 93.4442 311.387 102.737 305.866 107.984C300.906 112.697 303.44 121.048 310.182 122.211C317.688 123.506 319.65 133.371 313.211 137.44C307.427 141.095 308.283 149.78 314.668 152.236C321.777 154.971 321.777 165.029 314.668 167.764C308.283 170.22 307.427 178.905 313.211 182.56C319.65 186.629 317.688 196.494 310.182 197.789C303.44 198.952 300.906 207.303 305.866 212.016C311.387 217.263 307.538 226.556 299.924 226.362C293.084 226.187 288.971 233.884 292.915 239.474C297.307 245.697 291.719 254.06 284.288 252.384C277.615 250.879 272.078 257.625 274.857 263.877C277.95 270.838 270.838 277.95 263.877 274.857C257.625 272.078 250.879 277.615 252.384 284.288C254.06 291.719 245.697 297.307 239.474 292.915C233.884 288.971 226.187 293.084 226.362 299.924C226.556 307.538 217.263 311.387 212.016 305.866C207.303 300.906 198.952 303.44 197.789 310.182C196.494 317.688 186.629 319.65 182.56 313.211C178.905 307.427 170.22 308.283 167.764 314.668C165.029 321.777 154.971 321.777 152.236 314.668C149.78 308.283 141.095 307.427 137.44 313.211C133.371 319.65 123.506 317.688 122.211 310.182C121.048 303.44 112.697 300.906 107.984 305.866C102.737 311.387 93.4442 307.538 93.6383 299.924C93.8126 293.084 86.1161 288.971 80.5264 292.915C74.3029 297.307 65.9398 291.719 67.6157 284.288C69.1209 277.615 62.3749 272.078 56.123 274.857C49.1623 277.95 42.05 270.838 45.1433 263.877C47.9216 257.625 42.3853 250.879 35.7116 252.384C28.2811 254.06 22.693 245.697 27.0849 239.474C31.0295 233.884 26.9156 226.187 20.0764 226.362C12.4618 226.556 8.61267 217.263 14.1343 212.016C19.0936 207.303 16.5603 198.952 9.8185 197.789C2.31232 196.494 0.350047 186.629 6.78921 182.56C12.5726 178.905 11.7172 170.22 5.33195 167.764C-1.77732 165.029 -1.77732 154.971 5.33195 152.236C11.7172 149.78 12.5726 141.095 6.78921 137.44C0.350044 133.371 2.31232 123.506 9.8185 122.211C16.5603 121.048 19.0936 112.697 14.1343 107.984C8.61267 102.737 12.4618 93.4442 20.0764 93.6383C26.9156 93.8126 31.0295 86.1161 27.0849 80.5264C22.693 74.3029 28.2811 65.9397 35.7116 67.6157C42.3853 69.1209 47.9216 62.3749 45.1433 56.123C42.05 49.1623 49.1623 42.05 56.123 45.1433C62.3749 47.9216 69.1209 42.3853 67.6157 35.7116C65.9397 28.2811 74.3029 22.693 80.5264 27.0849C86.1161 31.0295 93.8126 26.9156 93.6383 20.0764C93.4442 12.4618 102.737 8.61267 107.984 14.1343C112.697 19.0936 121.048 16.5603 122.211 9.8185C123.506 2.31232 133.371 0.350046 137.44 6.78921C141.095 12.5726 149.78 11.7172 152.236 5.33195Z" fill="#018CCC"/>
</svg>
