<svg width="46" height="46" viewBox="0 0 46 46" fill="none" xmlns="http://www.w3.org/2000/svg">
<circle cx="23" cy="23" r="23" fill="#16B364" fill-opacity="0.1"/>
<path d="M19.0607 21.518C22.203 20.0152 24.6622 17.4649 26.074 14.277C25.1632 13.3207 23.9791 12.6376 22.704 12.2277L22.0209 12C21.9753 12.0911 21.9298 12.2277 21.9298 12.3188C20.8368 15.4156 18.6053 17.9203 15.5996 19.3321C13.5047 20.334 11.9564 22.1556 11.2277 24.3416L11 25.0247C11.0911 25.0702 11.2277 25.1157 11.3188 25.1157C12.1841 25.4345 13.0493 25.8444 13.8691 26.3453C15.0076 24.296 16.8292 22.5655 19.0607 21.518Z" fill="#087443"/>
<path d="M32.2674 21.7C30.5824 24.2502 28.2598 26.2996 25.3907 27.6658C23.0682 28.7588 21.2921 30.8081 20.4723 33.2673L20.2446 34.0415C21.1099 34.8157 22.1573 35.4077 23.2959 35.7721L23.979 35.9998C24.0245 35.9087 24.0701 35.7721 24.0701 35.681C25.163 32.5842 27.3945 30.0795 30.4002 28.6677C32.4951 27.6658 34.089 25.8442 34.7721 23.6582L34.9998 22.9751C34.0435 22.7019 33.1327 22.2464 32.2674 21.7Z" fill="#16B364"/>
<path d="M18.4228 31.6736C19.5614 28.9412 21.6562 26.7097 24.3431 25.4345C26.8023 24.2505 28.8517 22.4288 30.2634 20.1973C29.216 19.1954 28.3507 18.0569 27.7132 16.6907C26.0282 19.7874 23.3868 22.2922 20.1534 23.8406C18.2862 24.7059 16.7834 26.2087 15.8726 28.0303C16.8745 28.9867 17.6942 30.1707 18.3318 31.4914C18.3318 31.4914 18.3773 31.5825 18.4228 31.6736Z" fill="#099250"/>
</svg>
