<svg width="24" height="24" viewBox="0 0 24 24" fill="none" xmlns="http://www.w3.org/2000/svg">
<g clip-path="url(#clip0_4032_14567)">
<path fill-rule="evenodd" clip-rule="evenodd" d="M6.75 11.25H14.6895L11.598 8.16C11.3055 7.8675 11.3055 7.38747 11.598 7.09497C11.8912 6.80247 12.366 6.80247 12.6592 7.09497L16.902 11.34C17.0813 11.52 17.1375 11.7675 17.0963 12C17.1375 12.2325 17.0813 12.48 16.902 12.66L12.6592 16.905C12.366 17.1975 11.8912 17.1975 11.598 16.905C11.3055 16.605 11.3055 16.1325 11.598 15.84L14.6895 12.75H6.75C6.336 12.75 6 12.4125 6 12C6 11.5875 6.336 11.25 6.75 11.25ZM12 24C18.627 24 24 18.63 24 12C24 5.37 18.627 0 12 0C5.373 0 0 5.37 0 12C0 18.63 5.373 24 12 24Z" fill="#220B13"/>
</g>
<defs>
<clipPath id="clip0_4032_14567">
<rect width="24" height="24" fill="white" transform="matrix(-1 0 0 -1 24 24)"/>
</clipPath>
</defs>
</svg>
