<svg width="20" height="20" viewBox="0 0 20 20" fill="none" xmlns="http://www.w3.org/2000/svg">
<path opacity="0.3" d="M6.73243 8.97993L8.35743 4.43076C8.38662 4.35032 8.43988 4.28082 8.50995 4.23171C8.58003 4.1826 8.66352 4.15625 8.74909 4.15625C8.83467 4.15625 8.91816 4.1826 8.98824 4.23171C9.05831 4.28082 9.11157 4.35032 9.14076 4.43076L10.7658 8.97993C10.7865 9.0381 10.8199 9.09093 10.8636 9.1346C10.9073 9.17827 10.9601 9.21168 11.0183 9.23243L15.5666 10.8574C15.647 10.8866 15.7165 10.9399 15.7656 11.01C15.8148 11.08 15.8411 11.1635 15.8411 11.2491C15.8411 11.3347 15.8148 11.4182 15.7656 11.4882C15.7165 11.5583 15.647 11.6116 15.5666 11.6408L11.0183 13.2658C10.9601 13.2865 10.9073 13.3199 10.8636 13.3636C10.8199 13.4073 10.7865 13.4601 10.7658 13.5183L9.14076 18.0674C9.11157 18.1479 9.05831 18.2174 8.98824 18.2665C8.91816 18.3156 8.83467 18.3419 8.74909 18.3419C8.66352 18.3419 8.58003 18.3156 8.50995 18.2665C8.43988 18.2174 8.38662 18.1479 8.35743 18.0674L6.73243 13.5183C6.71168 13.4601 6.67827 13.4073 6.6346 13.3636C6.59093 13.3199 6.5381 13.2865 6.47993 13.2658L1.93076 11.6408C1.85032 11.6116 1.78082 11.5583 1.73171 11.4882C1.6826 11.4182 1.65625 11.3347 1.65625 11.2491C1.65625 11.1635 1.6826 11.08 1.73171 11.01C1.78082 10.9399 1.85032 10.8866 1.93076 10.8574L6.47993 9.23243C6.5381 9.21168 6.59093 9.17827 6.6346 9.1346C6.67827 9.09093 6.71168 9.0381 6.73243 8.97993Z" fill="white"/>
<path fill-rule="evenodd" clip-rule="evenodd" d="M13.7508 0.625C13.9166 0.625 14.0756 0.690848 14.1928 0.808058C14.31 0.925269 14.3758 1.08424 14.3758 1.25V2.70833H15.8342C15.9999 2.70833 16.1589 2.77418 16.2761 2.89139C16.3933 3.0086 16.4592 3.16757 16.4592 3.33333C16.4592 3.49909 16.3933 3.65807 16.2761 3.77528C16.1589 3.89249 15.9999 3.95833 15.8342 3.95833H14.3758V5.41667C14.3758 5.58243 14.31 5.7414 14.1928 5.85861C14.0756 5.97582 13.9166 6.04167 13.7508 6.04167C13.5851 6.04167 13.4261 5.97582 13.3089 5.85861C13.1917 5.7414 13.1258 5.58243 13.1258 5.41667V3.95833H11.6675C11.5017 3.95833 11.3428 3.89249 11.2256 3.77528C11.1083 3.65807 11.0425 3.49909 11.0425 3.33333C11.0425 3.16757 11.1083 3.0086 11.2256 2.89139C11.3428 2.77418 11.5017 2.70833 11.6675 2.70833H13.1258V1.25C13.1258 1.08424 13.1917 0.925269 13.3089 0.808058C13.4261 0.690848 13.5851 0.625 13.7508 0.625ZM17.7092 5.41667C17.7092 5.25091 17.6433 5.09194 17.5261 4.97473C17.4089 4.85752 17.2499 4.79167 17.0842 4.79167C16.9184 4.79167 16.7594 4.85752 16.6422 4.97473C16.525 5.09194 16.4592 5.25091 16.4592 5.41667V6.04167H15.8342C15.6684 6.04167 15.5094 6.10752 15.3922 6.22473C15.275 6.34194 15.2092 6.50091 15.2092 6.66667C15.2092 6.83243 15.275 6.9914 15.3922 7.10861C15.5094 7.22582 15.6684 7.29167 15.8342 7.29167H16.4592V7.91667C16.4592 8.08243 16.525 8.2414 16.6422 8.35861C16.7594 8.47582 16.9184 8.54167 17.0842 8.54167C17.2499 8.54167 17.4089 8.47582 17.5261 8.35861C17.6433 8.2414 17.7092 8.08243 17.7092 7.91667V7.29167H18.3342C18.4999 7.29167 18.6589 7.22582 18.7761 7.10861C18.8933 6.9914 18.9592 6.83243 18.9592 6.66667C18.9592 6.50091 18.8933 6.34194 18.7761 6.22473C18.6589 6.10752 18.4999 6.04167 18.3342 6.04167H17.7092V5.41667ZM7.3225 9.19167L8.75083 5.19167L10.1792 9.19167C10.2842 9.485 10.5158 9.71667 10.81 9.82167L14.81 11.25L10.81 12.6783C10.6647 12.7302 10.5327 12.8137 10.4236 12.9228C10.3145 13.0319 10.231 13.1639 10.1792 13.3092L8.75083 17.3092L7.3225 13.3092C7.27063 13.1639 7.18713 13.0319 7.07803 12.9228C6.96894 12.8137 6.83697 12.7302 6.69167 12.6783L2.6925 11.25L6.6925 9.82167C6.8378 9.7698 6.96977 9.6863 7.07887 9.5772C7.18796 9.46811 7.27146 9.33614 7.32333 9.19083L7.3225 9.19167ZM9.73167 4.22167C9.4025 3.3 8.09833 3.3 7.77 4.22167L6.17833 8.6775L1.7225 10.2692C0.800833 10.5983 0.800833 11.9025 1.7225 12.2308L6.17833 13.8225L7.77 18.2783C8.09917 19.2 9.40333 19.2 9.73167 18.2783L11.3233 13.8225L15.7792 12.2308C16.7008 11.9017 16.7008 10.5975 15.7792 10.2692L11.3233 8.6775L9.73167 4.22167Z" fill="white"/>
</svg>
