<svg width="81" height="78" viewBox="0 0 81 78" fill="none" xmlns="http://www.w3.org/2000/svg">
<path d="M46.1529 11.2431C44.6109 10.3528 42.7676 10.1451 41.0662 10.67L21.7401 16.6323C18.54 17.6196 16.6421 20.9068 17.3872 24.1718L21.8867 43.8898C22.2829 45.6258 23.3843 47.1182 24.9263 48.0085L53.7309 64.6389C56.792 66.4062 60.7062 65.3574 62.4735 62.2963L77.3 36.6159C79.0673 33.5549 78.0185 29.6407 74.9575 27.8734L46.1529 11.2431Z" fill="#FF196E"/>
<g filter="url(#filter0_b_4032_15251)">
<path d="M42.9531 38.2881C42.9531 36.5075 42.2113 34.8074 40.906 33.5963L26.0794 19.8406C23.6245 17.5629 19.8287 17.5629 17.3737 19.8406L2.54711 33.5963C1.24179 34.8074 0.5 36.5075 0.5 38.2881V71.5487C0.5 75.0833 3.36538 77.9487 6.9 77.9487H36.5531C40.0877 77.9487 42.9531 75.0833 42.9531 71.5487V38.2881Z" fill="#FF759F" fill-opacity="0.2"/>
</g>
<g filter="url(#filter1_b_4032_15251)">
<path fill-rule="evenodd" clip-rule="evenodd" d="M40.7972 33.7136L25.9706 19.9579C23.577 17.7371 19.8761 17.7371 17.4825 19.9579L2.65594 33.7136C1.38325 34.8944 0.66 36.552 0.66 38.2881V71.5487C0.66 74.995 3.45374 77.7887 6.9 77.7887H36.5531C39.9994 77.7887 42.7931 74.995 42.7931 71.5487V38.2881C42.7931 36.552 42.0699 34.8944 40.7972 33.7136ZM40.906 33.5963C42.2113 34.8074 42.9531 36.5075 42.9531 38.2881V71.5487C42.9531 75.0833 40.0877 77.9487 36.5531 77.9487H6.9C3.36538 77.9487 0.5 75.0833 0.5 71.5487V38.2881C0.5 36.5075 1.24179 34.8074 2.54711 33.5963L17.3737 19.8406C19.8287 17.5629 23.6245 17.5629 26.0794 19.8406L40.906 33.5963Z" fill="white"/>
</g>
<path d="M13.951 47.2266C13.951 46.2002 14.2605 45.3851 14.8794 44.7813C15.4982 44.1625 16.2907 43.853 17.2567 43.853C18.2228 43.853 19.0152 44.1625 19.6341 44.7813C20.253 45.3851 20.5624 46.2002 20.5624 47.2266C20.5624 48.2682 20.253 49.0983 19.6341 49.7172C19.0152 50.321 18.2228 50.6229 17.2567 50.6229C16.2907 50.6229 15.4982 50.321 14.8794 49.7172C14.2605 49.0983 13.951 48.2682 13.951 47.2266ZM25.6436 44.1021C26.3228 44.1021 26.7467 44.8381 26.4058 45.4256L18.2586 59.467C18.101 59.7387 17.8105 59.906 17.4964 59.906C16.8171 59.906 16.3932 59.1699 16.7341 58.5824L24.8813 44.5411C25.039 44.2693 25.3294 44.1021 25.6436 44.1021ZM17.2567 45.121C16.7435 45.121 16.336 45.3021 16.0341 45.6644C15.7473 46.0115 15.6039 46.5323 15.6039 47.2266C15.6039 47.921 15.7473 48.4493 16.0341 48.8116C16.336 49.1738 16.7435 49.355 17.2567 49.355C17.7699 49.355 18.1775 49.1738 18.4794 48.8116C18.7813 48.4342 18.9322 47.9059 18.9322 47.2266C18.9322 46.5323 18.7813 46.0115 18.4794 45.6644C18.1775 45.3021 17.7699 45.121 17.2567 45.121ZM22.6228 56.7814C22.6228 55.7399 22.9322 54.9173 23.5511 54.3135C24.17 53.6946 24.9624 53.3852 25.9285 53.3852C26.8945 53.3852 27.6794 53.6946 28.2832 54.3135C28.9021 54.9173 29.2115 55.7399 29.2115 56.7814C29.2115 57.8078 28.9021 58.6305 28.2832 59.2494C27.6794 59.8682 26.8945 60.1777 25.9285 60.1777C24.9624 60.1777 24.17 59.8758 23.5511 59.272C22.9322 58.6531 22.6228 57.8229 22.6228 56.7814ZM25.9058 54.6757C25.3926 54.6757 24.9851 54.8569 24.6832 55.2191C24.3813 55.5663 24.2304 56.0871 24.2304 56.7814C24.2304 57.4607 24.3813 57.9814 24.6832 58.3437C24.9851 58.6909 25.3926 58.8645 25.9058 58.8645C26.4191 58.8645 26.8266 58.6909 27.1285 58.3437C27.4304 57.9814 27.5813 57.4607 27.5813 56.7814C27.5813 56.0871 27.4304 55.5663 27.1285 55.2191C26.8266 54.8569 26.4191 54.6757 25.9058 54.6757Z" fill="white"/>
<circle cx="21.7265" cy="22.6417" r="2.12266" fill="white"/>
<defs>
<filter id="filter0_b_4032_15251" x="-9.1" y="8.53232" width="61.6531" height="79.0164" filterUnits="userSpaceOnUse" color-interpolation-filters="sRGB">
<feFlood flood-opacity="0" result="BackgroundImageFix"/>
<feGaussianBlur in="BackgroundImageFix" stdDeviation="4.8"/>
<feComposite in2="SourceAlpha" operator="in" result="effect1_backgroundBlur_4032_15251"/>
<feBlend mode="normal" in="SourceGraphic" in2="effect1_backgroundBlur_4032_15251" result="shape"/>
</filter>
<filter id="filter1_b_4032_15251" x="-29.5" y="-11.8677" width="102.453" height="119.816" filterUnits="userSpaceOnUse" color-interpolation-filters="sRGB">
<feFlood flood-opacity="0" result="BackgroundImageFix"/>
<feGaussianBlur in="BackgroundImageFix" stdDeviation="15"/>
<feComposite in2="SourceAlpha" operator="in" result="effect1_backgroundBlur_4032_15251"/>
<feBlend mode="normal" in="SourceGraphic" in2="effect1_backgroundBlur_4032_15251" result="shape"/>
</filter>
</defs>
</svg>
