<svg width="32" height="32" viewBox="0 0 32 32" fill="none" xmlns="http://www.w3.org/2000/svg">
<g id="Favicon">
<rect width="32" height="32" fill="#220B13"/>
<g id="Clip path group">
<mask id="mask0_4316_3355" style="mask-type:luminance" maskUnits="userSpaceOnUse" x="6" y="6" width="20" height="20">
<g id="clip0">
<path id="Vector" d="M26 6H6V26H26V6Z" fill="white"/>
</g>
</mask>
<g mask="url(#mask0_4316_3355)">
<g id="Group">
<path id="Union" fill-rule="evenodd" clip-rule="evenodd" d="M15.9999 9.86368C15.3096 9.86368 14.7499 9.30399 14.7499 8.61368V7.25C14.7499 6.55965 15.3096 6 15.9999 6C16.6903 6 17.2499 6.55965 17.2499 7.25V8.61368C17.2499 9.30399 16.6903 9.86368 15.9999 9.86368ZM15.9999 22.1363C15.3096 22.1363 14.7499 22.696 14.7499 23.3863V24.75C14.7499 25.4404 15.3096 26 15.9999 26C16.6903 26 17.2499 25.4404 17.2499 24.75V23.3863C17.2499 22.696 16.6903 22.1363 15.9999 22.1363ZM12.818 20.7729V19.4093C12.818 18.719 12.2584 18.1592 11.568 18.1592C10.8777 18.1592 10.318 18.7189 10.318 19.4092V20.7729C10.318 21.4633 10.8776 22.0229 11.568 22.0229C12.2584 22.0229 12.818 21.4633 12.818 20.7729ZM12.818 15.6877V11.2275C12.818 10.5371 12.2584 9.97746 11.568 9.97746C10.8777 9.97746 10.318 10.5371 10.318 11.2275L10.3184 15.6877C10.3335 16.3649 10.8872 16.9093 11.568 16.9093C12.2489 16.9093 12.803 16.3649 12.818 15.6877ZM8.4999 15.318V16.6817C8.4999 17.3721 7.94025 17.9317 7.2499 17.9317C6.55955 17.9317 5.9999 17.3721 5.9999 16.6817V15.318C5.9999 14.6277 6.55955 14.068 7.2499 14.068C7.94025 14.068 8.4999 14.6277 8.4999 15.318ZM23.5005 15.3536C23.5001 15.3418 23.5 15.3299 23.4999 15.318C23.4999 14.6277 24.0596 14.068 24.7499 14.068C25.4403 14.068 25.9999 14.6277 25.9999 15.318C25.9999 15.3299 25.9998 15.3418 25.9994 15.3536L25.9999 16.7172C25.9811 17.3912 25.4284 17.9317 24.7499 17.9317C24.0715 17.9317 23.5192 17.3912 23.5005 16.7172V15.3536ZM19.1819 12.5911C19.1819 13.2814 19.7415 13.8411 20.4319 13.8411C21.1222 13.8411 21.6819 13.2814 21.6819 12.5911V11.2275C21.6819 10.5371 21.1222 9.97746 20.4319 9.97746C19.7415 9.97746 19.1819 10.5371 19.1819 11.2275V12.5911ZM19.1819 16.341C19.1819 15.6506 19.7415 15.091 20.4319 15.091C21.1222 15.091 21.6819 15.6506 21.6819 16.341V20.7728C21.6819 21.4632 21.1222 22.0228 20.4319 22.0228C19.7415 22.0228 19.1819 21.4632 19.1819 20.7728V16.341ZM17.2499 19.6362V12.3635C17.2499 11.6731 16.6903 11.1135 15.9999 11.1135C15.3096 11.1135 14.7499 11.6731 14.7499 12.3635V19.6362C14.7499 20.3266 15.3096 20.8862 15.9999 20.8862C16.6903 20.8862 17.2499 20.3266 17.2499 19.6362Z" fill="#FF196E"/>
</g>
</g>
</g>
</g>
</svg>
