<svg width="181" height="40" viewBox="0 0 181 40" fill="none" xmlns="http://www.w3.org/2000/svg">
<g clip-path="url(#clip0_4158_11225)">
<mask id="mask0_4158_11225" style="mask-type:luminance" maskUnits="userSpaceOnUse" x="0" y="-1" width="41" height="41">
<path d="M40.0005 -0.000976562H0.000488281V39.999H40.0005V-0.000976562Z" fill="white"/>
</mask>
<g mask="url(#mask0_4158_11225)">
<path fill-rule="evenodd" clip-rule="evenodd" d="M20.0004 7.72637C18.6198 7.72637 17.5004 6.607 17.5004 5.22637V2.49902C17.5004 1.11832 18.6198 -0.000976562 20.0004 -0.000976562C21.3812 -0.000976562 22.5004 1.11832 22.5004 2.49902V5.22637C22.5004 6.607 21.3812 7.72637 20.0004 7.72637ZM20.0004 32.2716C18.6198 32.2716 17.5004 33.391 17.5004 34.7716V37.499C17.5004 38.8798 18.6198 39.999 20.0004 39.999C21.3812 39.999 22.5004 38.8798 22.5004 37.499V34.7716C22.5004 33.391 21.3812 32.2716 20.0004 32.2716ZM13.6367 29.545V26.8178C13.6367 25.4372 12.5173 24.3177 11.1367 24.3177C9.75596 24.3177 8.63666 25.437 8.63666 26.8177V29.545C8.63666 30.9258 9.75587 32.045 11.1367 32.045C12.5174 32.045 13.6367 30.9258 13.6367 29.545ZM13.6367 19.3745V10.4541C13.6367 9.07339 12.5173 7.9541 11.1367 7.9541C9.75596 7.9541 8.63666 9.07339 8.63666 10.4541L8.63736 19.3745C8.66752 20.729 9.77493 21.8178 11.1367 21.8178C12.4984 21.8178 13.6066 20.729 13.6367 19.3745ZM5.00048 18.6353V21.3626C5.00048 22.7434 3.8812 23.8626 2.50048 23.8626C1.11979 23.8626 0.000488281 22.7434 0.000488281 21.3626V18.6353C0.000488281 17.2546 1.11979 16.1353 2.50048 16.1353C3.8812 16.1353 5.00048 17.2546 5.00048 18.6353ZM35.0016 18.7064C35.0008 18.6828 35.0006 18.659 35.0004 18.6353C35.0004 17.2546 36.1198 16.1353 37.5004 16.1353C38.8812 16.1353 40.0004 17.2546 40.0004 18.6353C40.0004 18.659 40.0002 18.6828 39.9994 18.7064L40.0004 21.4336C39.9629 22.7815 38.8574 23.8626 37.5004 23.8626C36.1436 23.8626 35.0391 22.7815 35.0016 21.4336V18.7064ZM26.3643 13.1814C26.3643 14.562 27.4836 15.6814 28.8643 15.6814C30.2451 15.6814 31.3643 14.562 31.3643 13.1814V10.4541C31.3643 9.0734 30.2451 7.9541 28.8643 7.9541C27.4836 7.9541 26.3643 9.0734 26.3643 10.4541V13.1814ZM26.3643 20.6812C26.3643 19.3004 27.4836 18.1812 28.8643 18.1812C30.2451 18.1812 31.3643 19.3004 31.3643 20.6812V29.5448C31.3643 30.9255 30.2451 32.0448 28.8643 32.0448C27.4836 32.0448 26.3643 30.9255 26.3643 29.5448V20.6812ZM22.5004 27.2713V12.7261C22.5004 11.3453 21.3812 10.2261 20.0004 10.2261C18.6198 10.2261 17.5004 11.3453 17.5004 12.7261V27.2713C17.5004 28.6522 18.6198 29.7713 20.0004 29.7713C21.3812 29.7713 22.5004 28.6522 22.5004 27.2713Z" fill="#FF759F"/>
</g>
</g>
<path d="M53.4461 20.2615C53.4461 18.1692 53.9281 16.2923 54.8922 14.6308C55.8768 12.9692 57.1999 11.6769 58.8615 10.7538C60.5435 9.81025 62.3794 9.33846 64.3692 9.33846C66.6461 9.33846 68.6666 9.90256 70.4307 11.0308C72.2153 12.1385 73.5076 13.7179 74.3076 15.7692H70.0922C69.5384 14.641 68.7692 13.8 67.7845 13.2462C66.7999 12.6923 65.6615 12.4154 64.3692 12.4154C62.9538 12.4154 61.6922 12.7333 60.5845 13.3692C59.4768 14.0051 58.6051 14.9179 57.9692 16.1077C57.3538 17.2974 57.0461 18.6821 57.0461 20.2615C57.0461 21.841 57.3538 23.2256 57.9692 24.4154C58.6051 25.6051 59.4768 26.5282 60.5845 27.1846C61.6922 27.8205 62.9538 28.1385 64.3692 28.1385C65.6615 28.1385 66.7999 27.8615 67.7845 27.3077C68.7692 26.7538 69.5384 25.9128 70.0922 24.7846H74.3076C73.5076 26.8359 72.2153 28.4154 70.4307 29.5231C68.6666 30.6308 66.6461 31.1846 64.3692 31.1846C62.3589 31.1846 60.523 30.7231 58.8615 29.8C57.1999 28.8564 55.8768 27.5538 54.8922 25.8923C53.9281 24.2308 53.4461 22.3538 53.4461 20.2615ZM77.2442 22.4462C77.2442 20.7436 77.5929 19.2359 78.2903 17.9231C79.0083 16.6103 79.9724 15.5949 81.1826 14.8769C82.4134 14.1385 83.7672 13.7692 85.2442 13.7692C86.5775 13.7692 87.7365 14.0359 88.7211 14.5692C89.7262 15.0821 90.5262 15.7282 91.1211 16.5077V14.0462H94.6595V31H91.1211V28.4769C90.5262 29.2769 89.716 29.9436 88.6903 30.4769C87.6647 31.0103 86.4954 31.2769 85.1826 31.2769C83.7262 31.2769 82.3929 30.9077 81.1826 30.1692C79.9724 29.4103 79.0083 28.3641 78.2903 27.0308C77.5929 25.6769 77.2442 24.1487 77.2442 22.4462ZM91.1211 22.5077C91.1211 21.3385 90.8749 20.3231 90.3826 19.4615C89.9108 18.6 89.2852 17.9436 88.5057 17.4923C87.7262 17.041 86.8852 16.8154 85.9826 16.8154C85.0801 16.8154 84.239 17.041 83.4595 17.4923C82.6801 17.9231 82.0442 18.5692 81.5518 19.4308C81.0801 20.2718 80.8442 21.2769 80.8442 22.4462C80.8442 23.6154 81.0801 24.641 81.5518 25.5231C82.0442 26.4051 82.6801 27.0821 83.4595 27.5538C84.2595 28.0051 85.1006 28.2308 85.9826 28.2308C86.8852 28.2308 87.7262 28.0051 88.5057 27.5538C89.2852 27.1026 89.9108 26.4462 90.3826 25.5846C90.8749 24.7026 91.1211 23.6769 91.1211 22.5077ZM105.421 31.2769C104.087 31.2769 102.887 31.041 101.821 30.5692C100.774 30.0769 99.9437 29.4205 99.3283 28.6C98.7129 27.759 98.3847 26.8256 98.3437 25.8H101.974C102.036 26.5179 102.374 27.1231 102.99 27.6154C103.626 28.0872 104.415 28.3231 105.359 28.3231C106.344 28.3231 107.103 28.1385 107.636 27.7692C108.19 27.3795 108.467 26.8872 108.467 26.2923C108.467 25.6564 108.159 25.1846 107.544 24.8769C106.949 24.5692 105.995 24.2308 104.682 23.8615C103.41 23.5128 102.374 23.1744 101.574 22.8462C100.774 22.5179 100.077 22.0154 99.4821 21.3385C98.9078 20.6615 98.6206 19.7692 98.6206 18.6615C98.6206 17.759 98.8873 16.9385 99.4206 16.2C99.9539 15.441 100.713 14.8462 101.698 14.4154C102.703 13.9846 103.851 13.7692 105.144 13.7692C107.072 13.7692 108.621 14.2615 109.79 15.2462C110.98 16.2103 111.615 17.5333 111.698 19.2154H108.19C108.128 18.4564 107.821 17.8513 107.267 17.4C106.713 16.9487 105.964 16.7231 105.021 16.7231C104.098 16.7231 103.39 16.8974 102.898 17.2462C102.405 17.5949 102.159 18.0564 102.159 18.6308C102.159 19.0821 102.323 19.4615 102.651 19.7692C102.98 20.0769 103.38 20.3231 103.851 20.5077C104.323 20.6718 105.021 20.8872 105.944 21.1538C107.174 21.4821 108.18 21.8205 108.959 22.1692C109.759 22.4974 110.446 22.9897 111.021 23.6462C111.595 24.3026 111.892 25.1744 111.913 26.2615C111.913 27.2256 111.646 28.0872 111.113 28.8462C110.58 29.6051 109.821 30.2 108.836 30.6308C107.872 31.0615 106.733 31.2769 105.421 31.2769ZM119.795 16.9077V26.2923C119.795 26.9282 119.939 27.3897 120.226 27.6769C120.534 27.9436 121.047 28.0769 121.765 28.0769H123.918V31H121.149C119.57 31 118.359 30.6308 117.518 29.8923C116.677 29.1538 116.257 27.9538 116.257 26.2923V16.9077H114.257V14.0462H116.257V9.83077H119.795V14.0462H123.918V16.9077H119.795ZM128.936 11.8C128.3 11.8 127.767 11.5846 127.336 11.1538C126.905 10.7231 126.69 10.1897 126.69 9.55384C126.69 8.91795 126.905 8.38461 127.336 7.95384C127.767 7.52308 128.3 7.30769 128.936 7.30769C129.551 7.30769 130.074 7.52308 130.505 7.95384C130.936 8.38461 131.151 8.91795 131.151 9.55384C131.151 10.1897 130.936 10.7231 130.505 11.1538C130.074 11.5846 129.551 11.8 128.936 11.8ZM130.659 14.0462V31H127.151V14.0462H130.659ZM142.372 16.9077H139.234V31H135.695V16.9077H133.695V14.0462H135.695V12.8462C135.695 10.8974 136.208 9.48205 137.234 8.6C138.28 7.69743 139.911 7.24615 142.126 7.24615V10.1692C141.059 10.1692 140.311 10.3744 139.88 10.7846C139.449 11.1744 139.234 11.8615 139.234 12.8462V14.0462H142.372V16.9077ZM160.742 14.0462L150.342 38.9692H146.711L150.158 30.7231L143.481 14.0462H147.388L152.158 26.9692L157.111 14.0462H160.742ZM178.928 22.1077C178.928 22.7436 178.887 23.3179 178.805 23.8308H165.851C165.953 25.1846 166.456 26.2718 167.359 27.0923C168.261 27.9128 169.369 28.3231 170.682 28.3231C172.569 28.3231 173.902 27.5333 174.682 25.9538H178.466C177.953 27.5128 177.02 28.7949 175.666 29.8C174.333 30.7846 172.671 31.2769 170.682 31.2769C169.061 31.2769 167.605 30.9179 166.312 30.2C165.041 29.4615 164.036 28.4359 163.297 27.1231C162.579 25.7897 162.22 24.2513 162.22 22.5077C162.22 20.7641 162.569 19.2359 163.266 17.9231C163.984 16.5897 164.979 15.5641 166.251 14.8462C167.543 14.1282 169.02 13.7692 170.682 13.7692C172.282 13.7692 173.707 14.1179 174.959 14.8154C176.21 15.5128 177.184 16.4974 177.882 17.7692C178.579 19.0205 178.928 20.4667 178.928 22.1077ZM175.266 21C175.246 19.7077 174.784 18.6718 173.882 17.8923C172.979 17.1128 171.861 16.7231 170.528 16.7231C169.318 16.7231 168.282 17.1128 167.42 17.8923C166.559 18.6513 166.046 19.6872 165.882 21H175.266Z" fill="#220B13"/>
<defs>
<clipPath id="clip0_4158_11225">
<rect width="40" height="40" fill="white"/>
</clipPath>
</defs>
</svg>
