<svg width="40" height="40" viewBox="0 0 40 40" fill="none" xmlns="http://www.w3.org/2000/svg">
<g id="Social Media / Google Podcast">
<rect width="40" height="40" rx="20" fill="white" fill-opacity="0.04"/>
<g id="Group">
<path id="Vector" d="M10.8913 18.7881V20.3675C10.8913 21.1649 10.2431 21.8131 9.44566 21.8131C8.64823 21.8131 8 21.1649 8 20.3623V18.783C8 17.9856 8.64823 17.3374 9.44566 17.3374C10.2431 17.3374 10.8913 17.9856 10.8913 18.7881Z" fill="#0066D9"/>
<path id="Vector_2" d="M28.2588 18.8293C28.2588 18.8138 28.2588 18.8036 28.2588 18.7881C28.2588 17.9907 28.907 17.3425 29.7045 17.3425C30.5019 17.3425 31.1501 17.9907 31.1501 18.7881C31.1501 18.8036 31.1501 18.8138 31.1501 18.8293V20.4086C31.1295 21.1906 30.4916 21.8131 29.7045 21.8131C28.9173 21.8131 28.2794 21.1854 28.2588 20.4086V18.8293Z" fill="#4285F4"/>
<path id="Vector_3" d="M15.8911 23.5208V25.1001C15.8911 25.8975 15.2429 26.5457 14.4454 26.5457C13.648 26.5457 12.9998 25.8975 12.9998 25.1001V23.5208C12.9998 22.7234 13.648 22.0752 14.4454 22.0752C15.2429 22.0752 15.8911 22.7234 15.8911 23.5208ZM15.8911 14.0498V19.2149C15.8756 19.9968 15.2326 20.6296 14.4454 20.6296C13.6583 20.6296 13.0152 20.002 12.9998 19.2149V14.0498C12.9998 13.2524 13.648 12.6042 14.4454 12.6042C15.2429 12.6042 15.8911 13.2524 15.8911 14.0498Z" fill="#EA4335"/>
<path id="Vector_4" d="M23.2604 15.6292C23.2604 16.4266 23.9086 17.0748 24.706 17.0748C25.5035 17.0748 26.1517 16.4266 26.1517 15.6292V14.0498C26.1517 13.2524 25.5035 12.6042 24.706 12.6042C23.9086 12.6042 23.2604 13.2524 23.2604 14.0498V15.6292Z" fill="#34A853"/>
<path id="Vector_5" d="M18.1301 11.0249C18.1301 11.8223 18.7784 12.4705 19.5758 12.4705C20.3732 12.4705 21.0215 11.8223 21.0215 11.0249V9.44559C21.0215 8.6482 20.3732 8 19.5758 8C18.7784 8 18.1301 8.6482 18.1301 9.44559V11.0249ZM18.1301 28.1251C18.1301 27.3277 18.7784 26.6795 19.5758 26.6795C20.3732 26.6795 21.0215 27.3277 21.0215 28.1251V29.7044C21.0215 30.5018 20.3732 31.15 19.5758 31.15C18.7784 31.15 18.1301 30.5018 18.1301 29.7044V28.1251Z" fill="#FAB908"/>
<path id="Vector_6" d="M23.2604 19.9712C23.2604 19.1738 23.9086 18.5256 24.706 18.5256C25.5035 18.5256 26.1517 19.1738 26.1517 19.9712V25.1002C26.1517 25.8976 25.5035 26.5458 24.706 26.5458C23.9086 26.5458 23.2604 25.8976 23.2604 25.1002V19.9712Z" fill="#34A853"/>
<path id="Vector_7" d="M21.0215 15.3675V23.7838C21.0215 24.5812 20.3732 25.2294 19.5758 25.2294C18.7784 25.2294 18.1301 24.5812 18.1301 23.7838V15.3675C18.1301 14.5701 18.7784 13.9219 19.5758 13.9219C20.3732 13.9219 21.0215 14.5649 21.0215 15.3675Z" fill="#FAB908"/>
</g>
</g>
</svg>
