<svg width="46" height="46" viewBox="0 0 46 46" fill="none" xmlns="http://www.w3.org/2000/svg">
<circle cx="23" cy="23" r="23" fill="#FF257A" fill-opacity="0.1"/>
<circle cx="23" cy="23.1362" r="11.1818" stroke="#FF257A" stroke-width="1.63636"/>
<path d="M27.4354 27.572C25.1776 29.8299 22.6197 31.3038 20.3416 31.8896C18.043 32.4806 16.1903 32.1404 15.0932 31.0433C13.9961 29.9461 13.6558 28.0934 14.2469 25.7948C14.8327 23.5168 16.3066 20.9589 18.5645 18.701C20.8223 16.4432 23.3802 14.9692 25.6582 14.3835C27.9568 13.7924 29.8095 14.1326 30.9067 15.2298C32.0038 16.3269 32.3441 18.1796 31.753 20.4782C31.1672 22.7562 29.6933 25.3142 27.4354 27.572Z" stroke="#FF257A" stroke-width="1.63636"/>
<path d="M27.4358 18.701C29.6936 20.9589 31.1676 23.5168 31.7533 25.7948C32.3444 28.0934 32.0042 29.9461 30.907 31.0433C29.8099 32.1404 27.9572 32.4807 25.6586 31.8896C23.3806 31.3038 20.8227 29.8299 18.5648 27.572C16.3069 25.3142 14.833 22.7562 14.2472 20.4782C13.6562 18.1796 13.9964 16.3269 15.0935 15.2298C16.1907 14.1327 18.0434 13.7924 20.342 14.3835C22.62 14.9693 25.1779 16.4432 27.4358 18.701Z" stroke="#FF257A" stroke-width="1.63636"/>
</svg>
