<svg width="41" height="41" viewBox="0 0 41 41" fill="none" xmlns="http://www.w3.org/2000/svg">
<g clip-path="url(#clip0_4032_15076)">
<mask id="mask0_4032_15076" style="mask-type:luminance" maskUnits="userSpaceOnUse" x="0" y="0" width="41" height="41">
<path d="M40.0801 0.882812L0.0800781 0.882812L0.0800782 40.8828L40.0801 40.8828L40.0801 0.882812Z" fill="white"/>
</mask>
<g mask="url(#mask0_4032_15076)">
<path fill-rule="evenodd" clip-rule="evenodd" d="M20.08 8.61016C18.6994 8.61016 17.58 7.49079 17.58 6.11016L17.58 3.38281C17.58 2.00211 18.6994 0.882812 20.08 0.882812C21.4608 0.882812 22.58 2.00211 22.58 3.38281L22.58 6.11016C22.58 7.49079 21.4608 8.61016 20.08 8.61016ZM20.08 33.1554C18.6994 33.1554 17.58 34.2748 17.58 35.6554L17.58 38.3828C17.58 39.7636 18.6994 40.8828 20.08 40.8828C21.4608 40.8828 22.58 39.7636 22.58 38.3828L22.58 35.6554C22.58 34.2748 21.4608 33.1554 20.08 33.1554ZM13.7163 30.4288L13.7163 27.7016C13.7163 26.321 12.5969 25.2015 11.2162 25.2015C9.83555 25.2015 8.71625 26.3208 8.71625 27.7015L8.71625 30.4288C8.71625 31.8096 9.83546 32.9288 11.2162 32.9288C12.597 32.9288 13.7163 31.8096 13.7163 30.4288ZM13.7163 20.2583L13.7163 11.3379C13.7163 9.95718 12.5969 8.83789 11.2162 8.83789C9.83555 8.83789 8.71625 9.95718 8.71625 11.3379L8.71695 20.2583C8.74711 21.6128 9.85452 22.7016 11.2162 22.7016C12.578 22.7016 13.6861 21.6128 13.7163 20.2583ZM5.08007 19.519L5.08007 22.2464C5.08007 23.6272 3.96079 24.7464 2.58007 24.7464C1.19938 24.7464 0.0800781 23.6272 0.0800781 22.2464L0.0800781 19.519C0.0800781 18.1384 1.19938 17.019 2.58007 17.019C3.96079 17.019 5.08007 18.1384 5.08007 19.519ZM35.0811 19.5902C35.0804 19.5665 35.0801 19.5428 35.08 19.519C35.08 18.1384 36.1994 17.019 37.58 17.019C38.9608 17.019 40.08 18.1384 40.08 19.519C40.08 19.5428 40.0798 19.5665 40.079 19.5902L40.08 22.3174C40.0425 23.6653 38.937 24.7464 37.58 24.7464C36.2231 24.7464 35.1186 23.6653 35.0811 22.3174L35.0811 19.5902ZM26.4439 14.0652C26.4439 15.4458 27.5632 16.5652 28.9439 16.5652C30.3247 16.5652 31.4439 15.4458 31.4439 14.0652L31.4439 11.3379C31.4439 9.95719 30.3247 8.83789 28.9439 8.83789C27.5632 8.83789 26.4439 9.95719 26.4439 11.3379L26.4439 14.0652ZM26.4439 21.5649C26.4439 20.1842 27.5632 19.0649 28.9439 19.0649C30.3247 19.0649 31.4439 20.1842 31.4439 21.5649L31.4439 30.4286C31.4439 31.8093 30.3247 32.9286 28.9439 32.9286C27.5632 32.9286 26.4439 31.8093 26.4439 30.4286L26.4439 21.5649ZM22.58 28.1551L22.58 13.6099C22.58 12.2291 21.4608 11.1099 20.08 11.1099C18.6994 11.1099 17.58 12.2291 17.58 13.6099L17.58 28.1551C17.58 29.536 18.6994 30.6551 20.08 30.6551C21.4608 30.6551 22.58 29.536 22.58 28.1551Z" fill="white"/>
</g>
</g>
<defs>
<clipPath id="clip0_4032_15076">
<rect width="40" height="40" fill="white" transform="translate(0.0795898 0.883789)"/>
</clipPath>
</defs>
</svg>
