<svg width="81" height="74" viewBox="0 0 81 74" fill="none" xmlns="http://www.w3.org/2000/svg">
<path d="M16.907 6.10033C16.907 2.73121 19.6382 0 23.0073 0H74.3997C77.7688 0 80.5 2.73121 80.5 6.10033V35.8711C80.5 39.2402 77.7688 41.9714 74.3997 41.9714H23.0073C19.6382 41.9714 16.907 39.2402 16.907 35.8711V6.10033Z" fill="#FF196E"/>
<g filter="url(#filter0_b_4032_15256)">
<path d="M1.54222 26.7673L25.1741 6.10034L49.8482 27.6787L71.9932 8.31209C72.9794 7.44964 74.5223 8.15 74.5223 9.4601V50.546C74.5223 51.4258 74.1424 52.2628 73.4801 52.842L49.8482 73.5089L25.1741 51.9306L3.02905 71.2972C2.04288 72.1596 0.5 71.4593 0.5 70.1492V29.0633C0.5 28.1835 0.879926 27.3465 1.54222 26.7673Z" fill="#FF759F" fill-opacity="0.3"/>
</g>
<g filter="url(#filter1_b_4032_15256)">
<path fill-rule="evenodd" clip-rule="evenodd" d="M25.1741 5.97363L49.8482 27.552L71.9305 8.24026C72.9783 7.32391 74.6176 8.06803 74.6176 9.46001V50.5459C74.6176 51.4532 74.2258 52.3164 73.5428 52.9137L49.8482 73.6355L25.1741 52.0571L3.09178 71.3689C2.04397 72.2852 0.404663 71.5411 0.404663 70.1491V29.0632C0.404663 28.1559 0.796462 27.2927 1.47945 26.6954L25.1741 5.97363ZM25.2694 51.8872L49.7529 73.2989V27.7219L25.2694 6.31024V51.8872ZM25.0788 6.31024V51.8872L2.96628 71.2254C2.04174 72.0339 0.595298 71.3773 0.595298 70.1491V29.0632C0.595298 28.2109 0.963352 27.4 1.60495 26.8389L25.0788 6.31024ZM49.9435 27.7219V73.2989L73.4173 52.7702C74.0589 52.2091 74.4269 51.3983 74.4269 50.5459V9.46001C74.4269 8.23179 72.9805 7.57521 72.056 8.38376L49.9435 27.7219Z" fill="white"/>
</g>
<rect x="55.0979" y="34.3745" width="17.991" height="1.42786" rx="0.71393" transform="rotate(-41 55.0979 34.3745)" fill="white"/>
<rect x="55.2239" y="40.8962" width="17.991" height="1.42786" rx="0.71393" transform="rotate(-41 55.2239 40.8962)" fill="white"/>
<defs>
<filter id="filter0_b_4032_15256" x="-10.9381" y="-5.33777" width="96.8985" height="90.2849" filterUnits="userSpaceOnUse" color-interpolation-filters="sRGB">
<feFlood flood-opacity="0" result="BackgroundImageFix"/>
<feGaussianBlur in="BackgroundImageFix" stdDeviation="5.71906"/>
<feComposite in2="SourceAlpha" operator="in" result="effect1_backgroundBlur_4032_15256"/>
<feBlend mode="normal" in="SourceGraphic" in2="effect1_backgroundBlur_4032_15256" result="shape"/>
</filter>
<filter id="filter1_b_4032_15256" x="-29.5953" y="-24.0264" width="134.213" height="127.662" filterUnits="userSpaceOnUse" color-interpolation-filters="sRGB">
<feFlood flood-opacity="0" result="BackgroundImageFix"/>
<feGaussianBlur in="BackgroundImageFix" stdDeviation="15"/>
<feComposite in2="SourceAlpha" operator="in" result="effect1_backgroundBlur_4032_15256"/>
<feBlend mode="normal" in="SourceGraphic" in2="effect1_backgroundBlur_4032_15256" result="shape"/>
</filter>
</defs>
</svg>
