<svg width="46" height="46" viewBox="0 0 46 46" fill="none" xmlns="http://www.w3.org/2000/svg">
<circle cx="23" cy="23" r="23" fill="#155EEF" fill-opacity="0.1"/>
<path d="M25.0726 30.4294C23.1635 29.7203 21.1998 29.6112 19.3998 30.1021C18.1453 30.4294 16.9453 31.0839 15.8544 31.9021L15.0907 32.5567L14.8726 32.7749L15.3635 33.2112C15.418 33.2112 15.418 33.2658 15.4726 33.3203C15.5817 33.4294 15.6908 33.4839 15.8544 33.593L16.1816 33.8112L16.5089 33.5385C16.5635 33.4839 16.6726 33.3749 16.7816 33.3203C17.7635 32.5021 18.8544 31.9567 19.9998 31.6839C21.4726 31.3021 23.0544 31.3567 24.6362 31.9567C25.9453 32.4476 28.618 33.0476 31.8362 31.6839L31.9453 31.6294L32.1089 31.4658C32.1089 31.4112 32.1635 31.4112 32.218 31.3567C32.4907 31.0294 32.7635 30.7021 32.9817 30.3203L34.0726 28.6294L32.3271 29.6112C29.7635 31.0294 27.418 31.3021 25.0726 30.4294Z" fill="#155EEF"/>
<path d="M17.6 24.5387C19.0727 24.1569 20.6545 24.2115 22.2363 24.8115C23.9818 25.466 28.4545 26.3933 33.4727 21.866L34.2909 21.0478L34.3454 20.9933L34.5636 20.7751L34.4545 20.5024C34.4 20.2842 34.2909 20.0115 34.1818 19.7387L33.9091 18.9751L33.3636 19.5206C33.3091 19.6296 33.2 19.6842 33.0909 19.7933C30.6909 22.2478 26.9818 24.7569 22.7272 23.2297C20.8182 22.5206 18.8545 22.4115 17.0545 22.9024C15.3091 23.3933 13.7818 24.3206 12.3636 25.6296V25.5751L11.5454 26.4478C11.5454 26.5024 11.4909 26.5024 11.4364 26.5569L11.2727 26.7206L11.3273 26.9387C11.3818 27.2115 11.4909 27.4842 11.5454 27.7569L11.8727 28.6297L12.4182 27.9206C12.4727 27.8115 12.5818 27.7569 12.6363 27.6478C13.7818 26.6115 15.3636 25.1387 17.6 24.5387Z" fill="#155EEF"/>
<path d="M12.3091 23.5567C13.5636 22.2476 14.9818 21.4294 16.5091 20.993C17.9818 20.6112 19.5636 20.6657 21.1455 21.2657C26.0545 23.0657 30.3091 20.1203 32.1636 18.5385L32.8727 17.8294L33.1455 17.6112L32.9273 17.2839C32.7636 17.1203 32.6546 16.9021 32.4909 16.6839L32.1636 16.2476L31.7818 16.6294C31.7273 16.6839 31.6182 16.793 31.5636 16.8476C29.2727 19.0294 25.7273 21.2658 21.6909 19.7385C19.7818 19.0294 17.8182 18.9203 16.0182 19.4112C14.8727 19.7385 13.7818 20.2839 12.6909 20.993L11.5455 21.9203C11.4364 22.0294 11.3818 22.0839 11.2727 22.193L11.1636 22.3021V22.4658C11.1091 22.8476 11.1091 23.2294 11.0545 23.5567L11 24.9203L11.9273 23.9385C12.0364 23.8294 12.1455 23.6658 12.3091 23.5567Z" fill="#155EEF"/>
<path d="M26.6541 34.1386L26.545 34.4659L26.6541 34.1386C26.4904 34.084 26.3814 34.0295 26.2177 33.9749C24.3086 33.2658 22.345 33.1568 20.545 33.6477C20.1632 33.7568 19.7814 33.8659 19.3995 34.0295L18.0904 34.6295L17.7632 34.7931L18.8541 35.1749C19.1814 35.284 19.5086 35.3931 19.8359 35.5022L19.9995 35.5568L20.1632 35.5022C20.3268 35.4477 20.4904 35.3386 20.6541 35.3386C20.7632 35.3386 20.8723 35.284 20.9814 35.2295C22.2905 34.9022 23.7086 34.9022 25.2359 35.3931C25.3995 35.4477 25.5086 35.5022 25.6723 35.5568L25.945 35.6659L26.1086 35.6113C26.4904 35.5022 26.9268 35.3931 27.2541 35.2295L28.7814 34.684L27.1995 34.3022C27.0359 34.2477 26.8177 34.1931 26.6541 34.1386Z" fill="#155EEF"/>
<path d="M35 22.8477L34.1819 23.6658C34.0728 23.7749 33.9637 23.884 33.8546 23.9931C31.6182 26.1204 28.0182 28.4113 23.9819 26.884C22.0728 26.1749 20.1091 26.0658 18.3091 26.5568C16.6182 27.0477 15.0909 27.9204 13.7273 29.2295L13.0182 29.9931L12.8 30.2658L13.0182 30.5931C13.1819 30.8113 13.291 30.9749 13.4001 31.1931L13.7273 31.684L14.1091 31.1931C14.1637 31.1386 14.2728 31.0295 14.3273 30.9749C15.6364 29.5567 17.0546 28.684 18.691 28.2477C20.1637 27.8658 21.7455 27.9204 23.3273 28.5204C24.691 29.0113 26.1091 29.1749 27.5273 29.0113C30.0364 28.7386 32.5455 27.3204 34.4001 25.7386C34.5091 25.6295 34.6182 25.5749 34.7273 25.4658L34.891 25.3022V25.1386C34.891 24.8113 34.9455 24.4295 34.9455 24.1022L35 22.8477Z" fill="#155EEF"/>
<path d="M14.2729 17.8298L14.1093 17.5025L14.2729 17.8298C14.6002 17.6661 14.982 17.557 15.3093 17.4479C16.782 17.0661 18.3639 17.1207 19.9457 17.7207C20.982 18.1025 22.0184 18.2661 23.1639 18.2661C25.4548 18.2661 27.7457 17.4479 29.8729 15.8661L30.6911 15.2116L30.9638 14.9934L30.4729 14.6116C30.3093 14.4479 30.0911 14.2843 29.8729 14.1752L29.5457 13.957L29.2729 14.1752C29.1638 14.2298 29.1093 14.3388 29.0002 14.3934C26.1093 16.5752 23.2184 17.1752 20.4911 16.1388C18.5275 15.4298 16.5639 15.2661 14.6002 15.8661C14.4366 15.9207 14.2729 15.9752 14.0548 16.0298L13.9457 16.0843L13.782 16.2479C13.782 16.3025 13.7275 16.3025 13.673 16.357C13.4548 16.6843 13.182 16.957 12.9639 17.2843L11.9275 18.8661L13.6184 17.9934C13.8911 17.9934 14.1093 17.8843 14.2729 17.8298Z" fill="#155EEF"/>
<path d="M18.7455 14.1204L18.9091 14.175C19.6182 14.4477 20.7091 14.7204 22.0727 14.7204C23.4909 14.7204 24.8546 14.3932 26.2182 13.8477L27.9091 13.0295L26.7637 12.6477C26.4364 12.5386 26.1091 12.4295 25.7273 12.375H25.5636L25.4 12.4295C25.2364 12.4841 25.0727 12.5932 24.9091 12.6477C23.2727 13.2477 21.6364 13.3568 20.0545 12.9205C19.8909 12.8659 19.7273 12.8114 19.5636 12.7568L19.4 12.7023L19.2364 12.7568C18.9091 12.8659 18.5818 12.975 18.2546 13.1386L17 13.6841L18.3091 14.0659C18.4182 14.0114 18.5818 14.0659 18.7455 14.1204Z" fill="#155EEF"/>
</svg>
