<svg width="40" height="40" viewBox="0 0 40 40" fill="none" xmlns="http://www.w3.org/2000/svg">
<rect width="40" height="40" rx="20" fill="white" fill-opacity="0.04"/>
<path fill-rule="evenodd" clip-rule="evenodd" d="M19.9961 10C14.4983 10 10 14.5022 10 20.005C10 25.5078 14.4983 30.01 19.9961 30.01C25.494 30.01 29.9922 25.5078 29.9922 20.005C29.9922 14.5022 25.544 10 19.9961 10ZM24.5943 24.4572C24.3944 24.7574 24.0445 24.8574 23.7447 24.6573C21.3956 23.2066 18.4467 22.9065 14.9481 23.7069C14.5982 23.8069 14.2983 23.5568 14.1984 23.2566C14.0984 22.9065 14.3483 22.6063 14.6482 22.5063C18.4467 21.6558 21.7454 22.006 24.3444 23.6068C24.6943 23.7569 24.7443 24.1571 24.5943 24.4572ZM25.7939 21.7058C25.544 22.056 25.0941 22.2061 24.7443 21.956C22.0453 20.3052 17.9469 19.8049 14.7981 20.8054C14.3983 20.9055 13.9485 20.7053 13.8485 20.3052C13.7485 19.905 13.9485 19.4547 14.3483 19.3547C17.9969 18.2541 22.4951 18.8044 25.5939 20.7054C25.8938 20.8554 26.0438 21.3557 25.7939 21.7058ZM25.8938 18.9045C22.6951 17.0035 17.3471 16.8034 14.2983 17.7539C13.7985 17.9039 13.2987 17.6038 13.1488 17.1536C12.9988 16.6533 13.2987 16.1531 13.7485 16.003C17.2972 14.9525 23.1449 15.1526 26.8435 17.3537C27.2933 17.6038 27.4432 18.2041 27.1933 18.6543C26.9434 19.0045 26.3436 19.1546 25.8938 18.9045Z" fill="#10BC4C"/>
</svg>
