<svg width="46" height="46" viewBox="0 0 46 46" fill="none" xmlns="http://www.w3.org/2000/svg">
<circle cx="23" cy="23" r="23" fill="#6927DA" fill-opacity="0.1"/>
<path d="M17.416 12.3593L20.2301 22.8615V11.3152C20.4532 11.2631 20.6787 11.2173 20.9065 11.1778V22.8625L24.0716 11.0503C24.2996 11.0709 24.5259 11.098 24.7501 11.1312L21.5595 23.0386L27.9016 12.0538C28.1082 12.1468 28.3117 12.2454 28.5119 12.3495L22.1462 23.3752L31.2341 14.2873C31.3979 14.4423 31.5574 14.6018 31.7123 14.7656L22.6231 23.8548L33.6502 17.4884C33.7542 17.6886 33.8528 17.8921 33.9458 18.0987L22.9637 24.4392L34.8679 21.2495C34.9011 21.4738 34.9281 21.7 34.9487 21.9281L23.1366 25.0931L34.821 25.0931C34.7816 25.3209 34.7357 25.5464 34.6836 25.7695L23.1348 25.7695L33.639 28.5841C33.5311 28.7907 33.4174 28.9937 33.2981 29.193L22.9627 26.4237L31.5952 31.4076C31.4317 31.5757 31.2635 31.739 31.0905 31.8973L22.6253 27.0099L29.0308 33.4154C28.8282 33.5338 28.6218 33.6464 28.4119 33.753L22.1463 27.4875L26.2516 34.598C26.0268 34.6615 25.7994 34.7187 25.5694 34.7693L21.56 27.8246L23.4931 35.0392C23.3208 35.0465 23.1475 35.0502 22.9734 35.0502C22.914 35.0502 22.8547 35.0498 22.7955 35.0489L20.9065 27.9991V34.8733C20.6787 34.8338 20.4532 34.7879 20.2301 34.7359V28.0003L18.5645 34.2162C18.3521 34.1325 18.1426 34.0428 17.9363 33.9475L19.5765 27.8261L16.4974 33.1592C16.3068 33.0371 16.1199 32.9098 15.9368 32.7775L18.9916 27.4864L14.7135 31.7644C14.5497 31.6095 14.3902 31.45 14.2352 31.2862L18.512 27.0094L13.2224 30.0634C13.09 29.8803 12.9627 29.6934 12.8406 29.5028L18.1762 26.4223L12.0517 28.0633C11.9564 27.857 11.8667 27.6475 11.783 27.4351L17.9989 25.7695L11.2632 25.7695C11.2112 25.5464 11.1653 25.3209 11.1258 25.0931L17.9971 25.0931L10.95 23.2049C10.9492 23.1452 10.9487 23.0854 10.9487 23.0255C10.9487 22.8519 10.9524 22.6791 10.9597 22.5072L18.1752 24.4406L11.2295 20.4305C11.28 20.2006 11.3372 19.9731 11.4007 19.7483L18.5141 23.8553L12.2459 17.5871C12.3526 17.3772 12.4652 17.1708 12.5836 16.9682L18.9917 23.3763L14.1024 14.9077C14.2607 14.7348 14.424 14.5665 14.5921 14.4031L19.5769 23.0371L16.8071 12.7001C17.0064 12.5808 17.2095 12.4672 17.416 12.3593Z" fill="#6927DA"/>
</svg>
