<svg width="80" height="56" viewBox="0 0 80 56" fill="none" xmlns="http://www.w3.org/2000/svg">
<path d="M37.423 39.2504C37.423 29.7303 45.1405 22.0127 54.6606 22.0127H62.7623C72.2824 22.0127 80 29.7303 80 39.2504C80 42.1064 77.6847 44.4217 74.8287 44.4217H42.5943C39.7382 44.4217 37.423 42.1064 37.423 39.2504Z" fill="#FF196E"/>
<path d="M67.675 9.46359C67.675 14.414 63.6619 18.4272 58.7114 18.4272C53.761 18.4272 49.7479 14.414 49.7479 9.46359C49.7479 4.51313 53.761 0.5 58.7114 0.5C63.6619 0.5 67.675 4.51313 67.675 9.46359Z" fill="#FF196E"/>
<g filter="url(#filter0_b_4032_15262)">
<path d="M56.0224 20.1918C56.0224 14.8856 51.7208 10.584 46.4146 10.584H9.60784C4.30158 10.584 0 14.8856 0 20.1918V38.4981C0 43.8044 4.30158 48.106 9.60784 48.106H16.8119C19.3888 48.106 21.8578 49.1412 23.6641 50.979L26.0534 53.41C27.1292 54.5045 28.8933 54.5045 29.969 53.41L32.3583 50.979C34.1646 49.1412 36.6336 48.106 39.2105 48.106H46.4146C51.7208 48.106 56.0224 43.8044 56.0224 38.4981V20.1918Z" fill="#FF759F" fill-opacity="0.3"/>
</g>
<g filter="url(#filter1_b_4032_15262)">
<path fill-rule="evenodd" clip-rule="evenodd" d="M46.4146 10.8585H9.60784C4.45319 10.8585 0.27451 15.0372 0.27451 20.1918V38.4981C0.27451 43.6528 4.45318 47.8315 9.60784 47.8315H16.8119C19.4625 47.8315 22.002 48.8962 23.8599 50.7866L26.2492 53.2176C27.2174 54.2026 28.805 54.2026 29.7732 53.2176L32.1625 50.7866C34.0205 48.8962 36.5599 47.8315 39.2105 47.8315H46.4146C51.5692 47.8315 55.7479 43.6528 55.7479 38.4981V20.1918C55.7479 15.0372 51.5692 10.8585 46.4146 10.8585ZM46.4146 10.584C51.7208 10.584 56.0224 14.8856 56.0224 20.1918V38.4981C56.0224 43.8044 51.7208 48.106 46.4146 48.106H39.2105C36.6336 48.106 34.1646 49.1412 32.3583 50.979L29.969 53.41C28.8933 54.5045 27.1292 54.5045 26.0534 53.41L23.6641 50.979C21.8578 49.1412 19.3888 48.106 16.8119 48.106H9.60784C4.30158 48.106 0 43.8044 0 38.4981V20.1918C0 14.8856 4.30158 10.584 9.60784 10.584H46.4146Z" fill="white"/>
</g>
<path d="M23.594 26.2144C23.594 28.5349 21.7235 30.4161 19.416 30.4161C17.1086 30.4161 15.2381 28.5349 15.2381 26.2144C15.2381 23.8939 17.1086 22.0127 19.416 22.0127C21.7235 22.0127 23.594 23.8939 23.594 26.2144Z" fill="white"/>
<path d="M30.2787 26.2144C30.2787 28.5349 28.4082 30.4161 26.1007 30.4161C23.7933 30.4161 21.9228 28.5349 21.9228 26.2144C21.9228 23.8939 23.7933 22.0127 26.1007 22.0127C28.4082 22.0127 30.2787 23.8939 30.2787 26.2144Z" fill="white"/>
<path d="M22.7584 35.4581L16.2456 28.9455L29.2712 28.9455L22.7584 35.4581Z" fill="white"/>
<path d="M25.2652 28.5253C25.2652 29.3375 24.3299 29.9959 23.1762 29.9959C22.0225 29.9959 21.0872 29.3375 21.0872 28.5253C21.0872 27.7131 22.0225 27.0547 23.1762 27.0547C24.3299 27.0547 25.2652 27.7131 25.2652 28.5253Z" fill="white"/>
<path d="M40.5602 22.0127V35.4581H38.9515V23.7196H38.8737L35.6302 25.8992V24.2448L38.9515 22.0127H40.5602Z" fill="white"/>
<defs>
<filter id="filter0_b_4032_15262" x="-8.23529" y="2.34869" width="72.493" height="60.1176" filterUnits="userSpaceOnUse" color-interpolation-filters="sRGB">
<feFlood flood-opacity="0" result="BackgroundImageFix"/>
<feGaussianBlur in="BackgroundImageFix" stdDeviation="4.11765"/>
<feComposite in2="SourceAlpha" operator="in" result="effect1_backgroundBlur_4032_15262"/>
<feBlend mode="normal" in="SourceGraphic" in2="effect1_backgroundBlur_4032_15262" result="shape"/>
</filter>
<filter id="filter1_b_4032_15262" x="-30" y="-19.416" width="116.022" height="103.647" filterUnits="userSpaceOnUse" color-interpolation-filters="sRGB">
<feFlood flood-opacity="0" result="BackgroundImageFix"/>
<feGaussianBlur in="BackgroundImageFix" stdDeviation="15"/>
<feComposite in2="SourceAlpha" operator="in" result="effect1_backgroundBlur_4032_15262"/>
<feBlend mode="normal" in="SourceGraphic" in2="effect1_backgroundBlur_4032_15262" result="shape"/>
</filter>
</defs>
</svg>
