<svg width="256" height="256" viewBox="0 0 256 256" fill="none" xmlns="http://www.w3.org/2000/svg">
<rect width="256" height="256" fill="#220B13"/>
<mask id="mask0_4316_3369" style="mask-type:luminance" maskUnits="userSpaceOnUse" x="48" y="48" width="160" height="160">
<path d="M208 48H48V208H208V48Z" fill="white"/>
</mask>
<g mask="url(#mask0_4316_3369)">
<path fill-rule="evenodd" clip-rule="evenodd" d="M127.999 78.9094C122.477 78.9094 117.999 74.4319 117.999 68.9094V58C117.999 52.4772 122.477 48 127.999 48C133.522 48 137.999 52.4772 137.999 58V68.9094C137.999 74.4319 133.522 78.9094 127.999 78.9094ZM127.999 177.09C122.477 177.09 117.999 181.568 117.999 187.09V198C117.999 203.523 122.477 208 127.999 208C133.522 208 137.999 203.523 137.999 198V187.09C137.999 181.568 133.522 177.09 127.999 177.09ZM102.544 166.183V155.274C102.544 149.752 98.067 145.274 92.5444 145.274C87.0216 145.274 82.5444 149.751 82.5444 155.274V166.183C82.5444 171.706 87.0212 176.183 92.5444 176.183C98.0675 176.183 102.544 171.706 102.544 166.183ZM102.544 125.501V89.8197C102.544 84.2968 98.067 79.8197 92.5444 79.8197C87.0216 79.8197 82.5444 84.2968 82.5444 89.8197L82.5472 125.501C82.6678 130.919 87.0975 135.274 92.5444 135.274C97.9912 135.274 102.424 130.919 102.544 125.501ZM67.9993 122.544V133.454C67.9993 138.977 63.5221 143.454 57.9993 143.454C52.4765 143.454 47.9993 138.977 47.9993 133.454V122.544C47.9993 117.022 52.4765 112.544 57.9993 112.544C63.5221 112.544 67.9993 117.022 67.9993 122.544ZM188.004 122.829C188.001 122.734 188 122.639 187.999 122.544C187.999 117.022 192.477 112.544 197.999 112.544C203.522 112.544 207.999 117.022 207.999 122.544C207.999 122.639 207.998 122.734 207.995 122.829L207.999 133.738C207.849 139.129 203.427 143.454 197.999 143.454C192.572 143.454 188.154 139.129 188.004 133.738V122.829ZM153.455 100.729C153.455 106.251 157.932 110.729 163.455 110.729C168.978 110.729 173.455 106.251 173.455 100.729V89.8197C173.455 84.2969 168.978 79.8197 163.455 79.8197C157.932 79.8197 153.455 84.2969 153.455 89.8197V100.729ZM153.455 130.728C153.455 125.205 157.932 120.728 163.455 120.728C168.978 120.728 173.455 125.205 173.455 130.728V166.182C173.455 171.705 168.978 176.182 163.455 176.182C157.932 176.182 153.455 171.705 153.455 166.182V130.728ZM137.999 157.089V98.9083C137.999 93.3851 133.522 88.9082 127.999 88.9082C122.477 88.9082 117.999 93.3851 117.999 98.9083V157.089C117.999 162.613 122.477 167.089 127.999 167.089C133.522 167.089 137.999 162.613 137.999 157.089Z" fill="#FF196E"/>
</g>
</svg>
