<svg width="64" height="64" viewBox="0 0 64 64" fill="none" xmlns="http://www.w3.org/2000/svg">
<rect y="-0.00146484" width="64" height="64" rx="32" fill="#F5F5F7"/>
<path d="M20.5 46.9985C19.5283 46.9985 18.702 46.6582 18.021 45.9775C17.3403 45.2965 17 44.4702 17 43.4985V36.691C17 35.719 17.3403 34.8927 18.021 34.212C18.702 33.5314 19.5283 33.191 20.5 33.191C21.4717 33.191 22.298 33.5314 22.979 34.212C23.6597 34.8927 24 35.719 24 36.691V43.4985C24 44.4702 23.6597 45.2965 22.979 45.9775C22.298 46.6582 21.4717 46.9985 20.5 46.9985ZM32 46.9985C31.0283 46.9985 30.202 46.6582 29.521 45.9775C28.8403 45.2965 28.5 44.4702 28.5 43.4985V20.4985C28.5 19.5269 28.8403 18.7005 29.521 18.0195C30.202 17.3389 31.0283 16.9985 32 16.9985C32.9717 16.9985 33.798 17.3389 34.479 18.0195C35.1597 18.7005 35.5 19.5269 35.5 20.4985V43.4985C35.5 44.4702 35.1597 45.2965 34.479 45.9775C33.798 46.6582 32.9717 46.9985 32 46.9985ZM43.5 46.9985C42.5283 46.9985 41.702 46.6582 41.021 45.9775C40.3403 45.2965 40 44.4702 40 43.4985V30.306C40 29.3344 40.3403 28.5082 41.021 27.8275C41.702 27.1469 42.5283 26.8065 43.5 26.8065C44.4717 26.8065 45.298 27.1469 45.979 27.8275C46.6597 28.5082 47 29.3344 47 30.306V43.4985C47 44.4702 46.6597 45.2965 45.979 45.9775C45.298 46.6582 44.4717 46.9985 43.5 46.9985Z" fill="#1A1C1F"/>
</svg>
