<svg width="64" height="64" viewBox="0 0 64 64" fill="none" xmlns="http://www.w3.org/2000/svg">
<rect y="-0.00146484" width="64" height="64" rx="32" fill="#F5F5F7"/>
<path d="M30.5 48.4372V35.6062L21.854 44.2527C21.577 44.5293 21.2289 44.671 20.8095 44.6777C20.3905 44.684 20.036 44.5423 19.746 44.2527C19.4564 43.9627 19.3115 43.6113 19.3115 43.1987C19.3115 42.786 19.4564 42.4347 19.746 42.1447L29.8925 31.9987L19.746 21.8527C19.4694 21.5757 19.3277 21.2275 19.321 20.8082C19.3147 20.3892 19.4564 20.0347 19.746 19.7447C20.036 19.455 20.3874 19.3102 20.8 19.3102C21.2127 19.3102 21.564 19.455 21.854 19.7447L30.5 28.3912V15.5602C30.5 15.0115 30.684 14.568 31.052 14.2297C31.42 13.891 31.8385 13.7217 32.3075 13.7217C32.5359 13.7217 32.757 13.7653 32.971 13.8527C33.1854 13.9397 33.386 14.0768 33.573 14.2642L41.4425 22.1332C41.6295 22.3205 41.7615 22.518 41.8385 22.7257C41.9155 22.9333 41.954 23.1577 41.954 23.3987C41.954 23.6397 41.9155 23.864 41.8385 24.0717C41.7615 24.2793 41.6295 24.4768 41.4425 24.6642L34.1075 31.9987L41.4425 39.3332C41.6295 39.5205 41.7615 39.718 41.8385 39.9257C41.9155 40.1333 41.954 40.3577 41.954 40.5987C41.954 40.8397 41.9155 41.064 41.8385 41.2717C41.7615 41.4793 41.6295 41.6768 41.4425 41.8642L33.573 49.7332C33.386 49.9205 33.1854 50.0577 32.971 50.1447C32.757 50.232 32.5359 50.2757 32.3075 50.2757C31.8385 50.2757 31.42 50.1063 31.052 49.7677C30.684 49.4293 30.5 48.9858 30.5 48.4372ZM33.5 28.3912L38.4925 23.3987L33.5 18.4677V28.3912ZM33.5 45.5297L38.4925 40.5987L33.5 35.6062V45.5297Z" fill="#1A1C1F"/>
</svg>
