<svg width="64" height="64" viewBox="0 0 64 64" fill="none" xmlns="http://www.w3.org/2000/svg">
<rect y="-0.00146484" width="64" height="64" rx="32" fill="#F5F5F7"/>
<path d="M16.6155 46.9985C15.6212 46.9985 14.77 46.6445 14.062 45.9365C13.354 45.2285 13 44.3774 13 43.383V16.614C13 15.6197 13.354 14.7685 14.062 14.0605C14.77 13.3525 15.6212 12.9985 16.6155 12.9985H33.6155C34.6095 12.9985 35.4605 13.3525 36.1685 14.0605C36.8765 14.7685 37.2305 15.6197 37.2305 16.614V23.8675C36.7102 23.9342 36.1992 24.0334 35.6975 24.165C35.1962 24.2964 34.7073 24.4575 34.231 24.6485V16.614C34.231 16.4344 34.1732 16.2869 34.0575 16.1715C33.9422 16.0562 33.7948 15.9985 33.6155 15.9985H16.6155C16.4358 15.9985 16.2883 16.0562 16.173 16.1715C16.0577 16.2869 16 16.4344 16 16.614V43.383C16 43.5627 16.0577 43.7102 16.173 43.8255C16.2883 43.9409 16.4358 43.9985 16.6155 43.9985H23.846V46.9985H16.6155ZM23.846 41.487V39.729C23.846 39.5037 23.8512 39.2832 23.8615 39.0675C23.8718 38.8522 23.8975 38.6317 23.9385 38.406C23.2025 38.1627 22.5993 37.723 22.129 37.087C21.6583 36.451 21.423 35.7292 21.423 34.9215C21.423 33.8959 21.782 33.024 22.5 32.306C23.218 31.588 24.0898 31.229 25.1155 31.229C25.2822 31.229 25.4392 31.2425 25.5865 31.2695C25.7338 31.2965 25.8908 31.3369 26.0575 31.3905C26.3268 30.9445 26.6165 30.5105 26.9265 30.0885C27.2362 29.6662 27.5645 29.2632 27.9115 28.8795C27.5012 28.6692 27.0605 28.5082 26.5895 28.3965C26.1182 28.2852 25.6268 28.2295 25.1155 28.2295C23.2672 28.2295 21.6897 28.8827 20.383 30.189C19.0763 31.4957 18.423 33.0732 18.423 34.9215C18.423 36.5805 18.9403 38.0132 19.975 39.2195C21.0097 40.4259 22.3 41.1817 23.846 41.487ZM25.1175 24.9985C25.8982 24.9985 26.561 24.7254 27.106 24.179C27.6507 23.6327 27.923 22.9692 27.923 22.1885C27.923 21.4082 27.6498 20.7455 27.1035 20.2005C26.5572 19.6555 25.8937 19.383 25.113 19.383C24.3327 19.383 23.67 19.6562 23.125 20.2025C22.58 20.7492 22.3075 21.4127 22.3075 22.193C22.3075 22.9737 22.5808 23.6364 23.1275 24.181C23.6738 24.726 24.3372 24.9985 25.1175 24.9985ZM33.192 50.9985H31.846C30.852 50.9985 30.001 50.6445 29.293 49.9365C28.585 49.2285 28.231 48.3774 28.231 47.383V39.46C28.231 36.2977 29.3382 33.6097 31.5525 31.396C33.7672 29.1824 36.4563 28.0755 39.62 28.0755C42.7837 28.0755 45.4712 29.1824 47.6825 31.396C49.8942 33.6097 51 36.2977 51 39.46V47.383C51 48.3774 50.646 49.2285 49.938 49.9365C49.23 50.6445 48.3788 50.9985 47.3845 50.9985H46.0385C45.5262 50.9985 45.0968 50.8252 44.7505 50.4785C44.4042 50.1322 44.231 49.7029 44.231 49.1905V43.4215C44.231 42.9095 44.4042 42.4802 44.7505 42.1335C45.0968 41.7872 45.5262 41.614 46.0385 41.614H48.6155V39.46C48.6155 36.96 47.7405 34.835 45.9905 33.085C44.2405 31.335 42.1155 30.46 39.6155 30.46C37.1155 30.46 34.9905 31.335 33.2405 33.085C31.4905 34.835 30.6155 36.96 30.6155 39.46V41.614H33.192C33.7043 41.614 34.1337 41.7872 34.48 42.1335C34.8267 42.4802 35 42.9095 35 43.4215V49.1905C35 49.7029 34.8267 50.1322 34.48 50.4785C34.1337 50.8252 33.7043 50.9985 33.192 50.9985Z" fill="#1A1C1F"/>
</svg>
