<svg width="64" height="64" viewBox="0 0 64 64" fill="none" xmlns="http://www.w3.org/2000/svg">
<rect y="-0.00146484" width="64" height="64" rx="32" fill="#F5F5F7"/>
<path d="M32.0035 50.9985C29.3755 50.9985 26.9053 50.4999 24.593 49.5025C22.2807 48.5052 20.2693 47.1517 18.559 45.442C16.8487 43.7324 15.4945 41.7219 14.4965 39.4105C13.4988 37.0992 13 34.6297 13 32.002C13 29.374 13.4987 26.9039 14.496 24.5915C15.4933 22.2792 16.8468 20.2679 18.5565 18.5575C20.2662 16.8472 22.2767 15.493 24.588 14.495C26.8993 13.4974 29.3688 12.9985 31.9965 12.9985C34.6245 12.9985 37.0947 13.4972 39.407 14.4945C41.7193 15.4919 43.7307 16.8454 45.441 18.555C47.1513 20.2647 48.5055 22.2752 49.5035 24.5865C50.5012 26.8979 51 29.3674 51 31.995C51 34.623 50.5013 37.0932 49.504 39.4055C48.5067 41.7179 47.1532 43.7292 45.4435 45.4395C43.7338 47.1499 41.7233 48.504 39.412 49.502C37.1007 50.4997 34.6312 50.9985 32.0035 50.9985ZM32 47.9985C36.4667 47.9985 40.25 46.4485 43.35 43.3485C46.45 40.2485 48 36.4652 48 31.9985C48 27.5319 46.45 23.7485 43.35 20.6485C40.25 17.5485 36.4667 15.9985 32 15.9985C27.5333 15.9985 23.75 17.5485 20.65 20.6485C17.55 23.7485 16 27.5319 16 31.9985C16 36.4652 17.55 40.2485 20.65 43.3485C23.75 46.4485 27.5333 47.9985 32 47.9985ZM33.95 43.4985C32.7397 43.4985 31.6628 43.1274 30.7195 42.385C29.7758 41.6427 29.0898 40.6895 28.6615 39.5255C28.5358 39.2202 28.4115 38.9297 28.2885 38.654C28.1655 38.3787 27.9912 38.1282 27.7655 37.9025L25.246 35.3525C24.418 34.5242 23.7533 33.5735 23.252 32.5005C22.7507 31.4272 22.5 30.2909 22.5 29.0915C22.5 26.7245 23.3272 24.7005 24.9815 23.0195C26.6358 21.3389 28.6445 20.4985 31.0075 20.4985C32.6462 20.4985 34.1498 20.931 35.5185 21.796C36.8875 22.6607 37.9338 23.832 38.6575 25.31C38.9142 25.81 38.8965 26.2997 38.6045 26.779C38.3128 27.2587 37.8752 27.4985 37.2915 27.4985C36.9868 27.4985 36.7168 27.4162 36.4815 27.2515C36.2458 27.0869 36.0662 26.8654 35.9425 26.587C35.4662 25.631 34.7883 24.8772 33.909 24.3255C33.0297 23.7742 32.0588 23.4985 30.9965 23.4985C29.4578 23.4985 28.157 24.0295 27.094 25.0915C26.0313 26.1532 25.5 27.453 25.5 28.991C25.5 29.76 25.6378 30.4934 25.9135 31.191C26.1892 31.8887 26.6027 32.513 27.154 33.064L29.904 35.7445C30.332 36.1729 30.6782 36.6524 30.9425 37.183C31.2065 37.714 31.432 38.2602 31.619 38.8215C31.8113 39.3242 32.1223 39.7294 32.552 40.037C32.9813 40.3447 33.4665 40.4985 34.0075 40.4985C34.4652 40.4985 34.8917 40.3834 35.287 40.153C35.6823 39.9227 35.9842 39.5982 36.1925 39.1795C36.3205 38.9562 36.4957 38.7869 36.718 38.6715C36.9403 38.5562 37.1873 38.4985 37.459 38.4985C38.0273 38.4985 38.4635 38.735 38.7675 39.208C39.0712 39.681 39.0845 40.1675 38.8075 40.6675C38.3128 41.5575 37.631 42.2519 36.762 42.7505C35.8933 43.2492 34.956 43.4985 33.95 43.4985ZM34.9975 35.4985C35.6915 35.4985 36.282 35.2557 36.769 34.77C37.2563 34.2844 37.5 33.6947 37.5 33.001C37.5 32.307 37.2572 31.7165 36.7715 31.2295C36.2858 30.7422 35.6962 30.4985 35.0025 30.4985C34.3085 30.4985 33.718 30.7414 33.231 31.227C32.7437 31.7127 32.5 32.3024 32.5 32.996C32.5 33.69 32.7428 34.2805 33.2285 34.7675C33.7142 35.2549 34.3038 35.4985 34.9975 35.4985Z" fill="#1A1C1F"/>
</svg>
