<svg width="64" height="32" viewBox="0 0 64 32" fill="none" xmlns="http://www.w3.org/2000/svg">
<g id="Roon">
<path id="Vector" fill-rule="evenodd" clip-rule="evenodd" d="M2.1333 6.29999V24H5.7813V17.076H8.4573C9.2493 17.076 9.8253 17.268 10.1853 17.652C10.5453 18.028 10.7253 18.564 10.7253 19.26V20.736V22.2C10.7253 22.592 10.7573 22.952 10.8213 23.28C10.8853 23.6 10.9693 23.84 11.0733 24H14.8053C14.6853 23.856 14.5933 23.62 14.5293 23.292C14.4733 22.956 14.4453 22.592 14.4453 22.2V20.508V18.828C14.4453 18.06 14.3053 17.448 14.0253 16.992C13.7453 16.536 13.3853 16.204 12.9453 15.996C12.5133 15.78 12.0533 15.656 11.5653 15.624C12.0373 15.584 12.5253 15.388 13.0293 15.036C13.5413 14.684 13.9693 14.188 14.3133 13.548C14.6653 12.9 14.8413 12.12 14.8413 11.208C14.8413 9.62399 14.3813 8.41199 13.4613 7.57199C12.5493 6.72399 11.1653 6.29999 9.3093 6.29999H2.1333ZM5.7813 14.196H8.5053C8.9853 14.196 9.4133 14.088 9.7893 13.872C10.1653 13.656 10.4613 13.348 10.6773 12.948C10.9013 12.548 11.0133 12.08 11.0133 11.544C11.0133 10.792 10.7853 10.208 10.3293 9.79199C9.8813 9.37599 9.2493 9.16799 8.4333 9.16799H5.7813V14.196ZM47.1462 24H50.7822V9.54066L56.0382 24H61.8582V6.29999H58.2342V20.9343L52.9302 6.29999H47.1462V24ZM34.6827 23.424C35.7307 23.992 36.9427 24.276 38.3187 24.276C39.6947 24.276 40.9067 23.992 41.9547 23.424C43.0027 22.856 43.8187 22.076 44.4027 21.084C44.9947 20.084 45.2907 18.932 45.2907 17.628C45.2907 16.332 44.9947 15.188 44.4027 14.196C43.8187 13.196 43.0027 12.42 41.9547 11.868C40.9067 11.308 39.6947 11.028 38.3187 11.028C36.9427 11.028 35.7307 11.308 34.6827 11.868C33.6347 12.42 32.8147 13.196 32.2227 14.196C31.6387 15.188 31.3467 16.332 31.3467 17.628C31.3467 18.932 31.6387 20.084 32.2227 21.084C32.8147 22.076 33.6347 22.856 34.6827 23.424ZM40.0107 20.868C39.5307 21.172 38.9667 21.324 38.3187 21.324C37.6787 21.324 37.1147 21.172 36.6267 20.868C36.1467 20.564 35.7747 20.136 35.5107 19.584C35.2467 19.024 35.1147 18.372 35.1147 17.628C35.1147 16.884 35.2467 16.24 35.5107 15.696C35.7747 15.144 36.1467 14.72 36.6267 14.424C37.1147 14.128 37.6787 13.98 38.3187 13.98C38.9667 13.98 39.5307 14.128 40.0107 14.424C40.4907 14.72 40.8627 15.144 41.1267 15.696C41.3907 16.24 41.5227 16.884 41.5227 17.628C41.5227 18.372 41.3907 19.024 41.1267 19.584C40.8627 20.136 40.4907 20.564 40.0107 20.868ZM23.119 24.276C21.743 24.276 20.531 23.992 19.483 23.424C18.435 22.856 17.615 22.076 17.023 21.084C16.439 20.084 16.147 18.932 16.147 17.628C16.147 16.332 16.439 15.188 17.023 14.196C17.615 13.196 18.435 12.42 19.483 11.868C20.531 11.308 21.743 11.028 23.119 11.028C24.495 11.028 25.707 11.308 26.755 11.868C27.803 12.42 28.619 13.196 29.203 14.196C29.795 15.188 30.091 16.332 30.091 17.628C30.091 18.932 29.795 20.084 29.203 21.084C28.619 22.076 27.803 22.856 26.755 23.424C25.707 23.992 24.495 24.276 23.119 24.276ZM23.119 21.324C23.767 21.324 24.331 21.172 24.811 20.868C25.291 20.564 25.663 20.136 25.927 19.584C26.191 19.024 26.323 18.372 26.323 17.628C26.323 16.884 26.191 16.24 25.927 15.696C25.663 15.144 25.291 14.72 24.811 14.424C24.331 14.128 23.767 13.98 23.119 13.98C22.479 13.98 21.915 14.128 21.427 14.424C20.947 14.72 20.575 15.144 20.311 15.696C20.047 16.24 19.915 16.884 19.915 17.628C19.915 18.372 20.047 19.024 20.311 19.584C20.575 20.136 20.947 20.564 21.427 20.868C21.915 21.172 22.479 21.324 23.119 21.324Z" fill="white"/>
</g>
</svg>
