<svg width="14" height="14" viewBox="0 0 14 14" fill="none" xmlns="http://www.w3.org/2000/svg">
<path d="M7.00021 0.599609C5.26206 0.599609 5.04392 0.607209 4.36125 0.638276C3.67991 0.669477 3.21484 0.777345 2.8079 0.935613C2.38696 1.09908 2.02989 1.31775 1.67415 1.67362C1.31815 2.02936 1.09948 2.38643 0.935479 2.80723C0.776811 3.2143 0.66881 3.67951 0.638143 4.36058C0.607609 5.04326 0.599609 5.26152 0.599609 6.99968C0.599609 8.73783 0.607343 8.9553 0.638276 9.63797C0.66961 10.3193 0.777478 10.7844 0.935613 11.1913C1.09921 11.6123 1.31788 11.9693 1.67375 12.3251C2.02936 12.6811 2.38643 12.9003 2.8071 13.0637C3.2143 13.222 3.67951 13.3299 4.36071 13.3611C5.04339 13.3921 5.26139 13.3997 6.99941 13.3997C8.73769 13.3997 8.95516 13.3921 9.63784 13.3611C10.3192 13.3299 10.7848 13.222 11.192 13.0637C11.6128 12.9003 11.9693 12.6811 12.3249 12.3251C12.6809 11.9693 12.8996 11.6123 13.0636 11.1915C13.2209 10.7844 13.3289 10.3192 13.3609 9.6381C13.3916 8.95543 13.3996 8.73783 13.3996 6.99968C13.3996 5.26152 13.3916 5.04339 13.3609 4.36071C13.3289 3.67937 13.2209 3.2143 13.0636 2.80737C12.8996 2.38643 12.6809 2.02936 12.3249 1.67362C11.9689 1.31762 11.6129 1.09895 11.1916 0.935613C10.7836 0.777345 10.3182 0.669477 9.6369 0.638276C8.95423 0.607209 8.73689 0.599609 6.99821 0.599609H7.00021Z" fill="#171D2F"/>
<path fill-rule="evenodd" clip-rule="evenodd" d="M7.03339 2.00154H7.03341L7.24672 2.0016C8.95554 2.0016 9.15807 2.00773 9.83288 2.0384C10.4569 2.06693 10.7956 2.1712 11.0212 2.2588C11.3198 2.3748 11.5328 2.51347 11.7566 2.73747C11.9806 2.96148 12.1193 3.17481 12.2356 3.47348C12.3232 3.69882 12.4276 4.03749 12.456 4.66149C12.4866 5.33617 12.4933 5.53884 12.4933 7.24685C12.4933 8.95487 12.4866 9.15754 12.456 9.83221C12.4274 10.4562 12.3232 10.7949 12.2356 11.0202C12.1196 11.3189 11.9806 11.5316 11.7566 11.7554C11.5326 11.9794 11.32 12.1181 11.0212 12.2341C10.7958 12.3221 10.4569 12.4261 9.83288 12.4546C9.15821 12.4853 8.95554 12.492 7.24672 12.492C5.53777 12.492 5.33523 12.4853 4.66056 12.4546C4.03655 12.4258 3.69788 12.3216 3.47215 12.234C3.17348 12.118 2.96014 11.9793 2.73614 11.7553C2.51214 11.5313 2.37347 11.3185 2.2572 11.0197C2.1696 10.7944 2.0652 10.4557 2.0368 9.83168C2.00613 9.15701 2 8.95434 2 7.24525C2 5.53617 2.00613 5.33457 2.0368 4.65989C2.06533 4.03589 2.1696 3.69722 2.2572 3.47162C2.3732 3.17295 2.51214 2.95961 2.73614 2.73561C2.96014 2.51161 3.17348 2.37294 3.47215 2.25667C3.69775 2.16867 4.03655 2.06467 4.66056 2.036C5.25097 2.00933 5.47977 2.00133 6.67258 2V2.0016C6.78406 2.00143 6.90398 2.00148 7.03339 2.00154ZM10.4169 2.81667C9.99293 2.81667 9.64893 3.16028 9.64893 3.58441C9.64893 4.00842 9.99293 4.35242 10.4169 4.35242C10.8409 4.35242 11.1849 4.00842 11.1849 3.58441C11.1849 3.16041 10.8409 2.81641 10.4169 2.81641V2.81667ZM3.71387 6.99959C3.71387 5.18455 5.18541 3.71296 7.00043 3.71289C8.81552 3.71289 10.2867 5.18451 10.2867 6.99959C10.2867 8.81468 8.81565 10.2856 7.00057 10.2856C5.18548 10.2856 3.71387 8.81468 3.71387 6.99959Z" fill="#EDF0F6"/>
<path d="M7.00054 4.86719C8.17869 4.86719 9.1339 5.82226 9.1339 7.00054C9.1339 8.17869 8.17869 9.1339 7.00054 9.1339C5.82226 9.1339 4.86719 8.17869 4.86719 7.00054C4.86719 5.82226 5.82226 4.86719 7.00054 4.86719Z" fill="#EDF0F6"/>
</svg>
