<svg width="60" height="38" viewBox="0 0 60 38" fill="none" xmlns="http://www.w3.org/2000/svg">
<path d="M11.4313 3.00009C11.1606 2.50588 10.793 2.07131 10.3506 1.72231C9.90819 1.37331 9.39997 1.11706 8.85631 0.968847C6.37333 0.319043 3.81668 -0.00657876 1.25009 0.000100704L0.856338 0.000100704C0.742541 0.000913349 0.630029 0.0242379 0.525287 0.0687303C0.420545 0.113223 0.325643 0.178003 0.246051 0.259339C0.166458 0.340674 0.103748 0.436957 0.0615345 0.542638C0.019321 0.648319 -0.00156127 0.76131 9.091e-05 0.875098L9.091e-05 22.0563C9.091e-05 22.2867 0.0916193 22.5076 0.254541 22.6706C0.417463 22.8335 0.638432 22.925 0.868838 22.925H3.58133C4.4985 22.9285 5.39219 22.6351 6.1289 22.0888C6.8656 21.5424 7.40581 20.7724 7.66882 19.8938L11.7813 6.31883C11.9485 5.77044 12.0036 5.19404 11.9435 4.6239C11.8834 4.05376 11.7092 3.50154 11.4313 3.00009Z" fill="#171D2F"/>
<path d="M46.0131 9.78751C45.7914 9.18718 45.6771 8.55248 45.6756 7.91252C45.6298 7.91542 45.5839 7.91542 45.5381 7.91252L32.7631 2.80628C32.0269 2.50695 31.214 2.45218 30.4444 2.65003C28.3944 3.18753 24.4506 4.90628 21.0694 10.4313C21.0694 10.4688 19.2944 13.3625 20.9569 14.875C21.0194 14.925 22.5131 16.1687 25.4131 14.3187C25.8444 13.8687 28.4881 11.225 31.6194 10.9375C31.7055 10.9303 31.7921 10.941 31.8739 10.969C31.9557 10.9969 32.0307 11.0416 32.0944 11.1L47.4506 25.1562C47.5121 25.2178 47.5705 25.2825 47.6256 25.35C49.3443 25.0812 50.4818 23.5125 50.8505 22.925L46.0131 9.78751Z" fill="#171D2F"/>
<path d="M31.4616 12.2125C28.7117 12.6187 26.2992 15.2 26.2742 15.225C26.2389 15.2631 26.199 15.2967 26.1554 15.325C22.3554 17.7937 20.2054 15.875 20.1117 15.7937C17.6804 13.5875 19.9117 9.93123 20.0054 9.77499C20.9814 8.15679 22.1573 6.66799 23.5054 5.34375L13.1992 5.34375C13.1803 5.79722 13.1047 6.24654 12.9742 6.68125L8.94922 20C8.99181 20.0219 9.02995 20.0516 9.06172 20.0875C15.9742 27.8624 25.1242 34.7749 28.7492 37.3874C29.0187 37.5817 29.3367 37.6979 29.668 37.7232C29.9994 37.7485 30.3313 37.6818 30.6272 37.5306C30.9231 37.3795 31.1716 37.1496 31.3453 36.8662C31.519 36.5829 31.6111 36.2572 31.6116 35.9249C31.6049 35.456 31.4168 35.008 31.0866 34.6749L26.0867 29.6749C26.0281 29.6168 25.9816 29.5477 25.9499 29.4715C25.9181 29.3954 25.9018 29.3137 25.9018 29.2312C25.9018 29.1487 25.9181 29.067 25.9499 28.9908C25.9816 28.9146 26.0281 28.8455 26.0867 28.7874C26.2038 28.671 26.3622 28.6057 26.5273 28.6057C26.6924 28.6057 26.8508 28.671 26.9679 28.7874L29.6179 31.4374L31.9554 33.7499L33.1241 34.9562C33.5452 35.3089 34.0826 35.4919 34.6314 35.4693C35.1802 35.4468 35.7008 35.2204 36.0915 34.8344C36.4823 34.4484 36.7149 33.9305 36.7441 33.382C36.7732 32.8335 36.5967 32.2939 36.2491 31.8687L30.7929 26.2437C30.6765 26.1266 30.6111 25.9682 30.6111 25.8031C30.6111 25.6379 30.6765 25.4795 30.7929 25.3624C30.851 25.3039 30.9201 25.2574 30.9963 25.2256C31.0724 25.1939 31.1541 25.1776 31.2366 25.1776C31.3191 25.1776 31.4008 25.1939 31.477 25.2256C31.5532 25.2574 31.6223 25.3039 31.6804 25.3624L32.6054 26.2499L37.1929 30.9937L38.4429 32.2437C38.8531 32.6678 39.4117 32.9164 40.0014 32.9374C40.5911 32.9584 41.166 32.7501 41.6054 32.3562C41.8398 32.1474 42.0287 31.8925 42.1601 31.6074C42.2915 31.3223 42.3627 31.0132 42.3691 30.6993C42.3756 30.3854 42.3172 30.0736 42.1976 29.7833C42.078 29.4931 41.8998 29.2306 41.6741 29.0124L39.0429 26.4624L34.8929 22.4437C34.7886 22.3256 34.7327 22.1725 34.7364 22.015C34.7402 21.8575 34.8033 21.7072 34.9131 21.5942C35.0229 21.4812 35.1713 21.4139 35.3287 21.4057C35.486 21.3975 35.6406 21.449 35.7616 21.5499L38.4554 24.1562L39.9116 25.5687L43.6616 29.2062C43.8607 29.4292 44.1039 29.6086 44.3758 29.7329C44.6477 29.8572 44.9424 29.9238 45.2413 29.9284C45.5403 29.933 45.8369 29.8757 46.1125 29.7598C46.3882 29.644 46.6368 29.4723 46.8427 29.2556C47.0486 29.0388 47.2074 28.7817 47.3089 28.5005C47.4104 28.2193 47.4525 27.9201 47.4326 27.6218C47.4126 27.3235 47.331 27.0326 47.1929 26.7674C47.0549 26.5022 46.8633 26.2686 46.6303 26.0812L31.4616 12.2125Z" fill="#171D2F"/>
<path d="M59.1568 2.82504H58.4131C55.6197 2.80753 52.834 3.11799 50.1131 3.75004C49.5409 3.88928 49.0051 4.14925 48.5416 4.51252C48.078 4.87578 47.6975 5.33394 47.4256 5.85628C47.1384 6.39229 46.9686 6.98333 46.9277 7.59006C46.8867 8.19679 46.9755 8.80528 47.1881 9.37502L52.1881 22.9687C52.4921 23.7868 53.0386 24.4926 53.7545 24.9918C54.4704 25.491 55.3216 25.7599 56.1943 25.7625L59.1256 25.7625C59.2418 25.7633 59.357 25.7409 59.4643 25.6964C59.5717 25.652 59.6691 25.5864 59.7506 25.5037C59.8322 25.4209 59.8964 25.3226 59.9393 25.2146C59.9822 25.1067 60.0031 24.9911 60.0005 24.875V3.69379C60.0022 3.46717 59.9147 3.24899 59.7568 3.08643C59.5989 2.92386 59.3834 2.82996 59.1568 2.82504Z" fill="#171D2F"/>
</svg>
