<svg width="50" height="52" viewBox="0 0 50 52" fill="none" xmlns="http://www.w3.org/2000/svg">
<path fill-rule="evenodd" clip-rule="evenodd" d="M27.5871 33.9249L19.5871 27.6499L12.5871 36.7499L9.63711 34.4499L18.9371 22.3499L26.9371 28.6499L33.7871 19.7999L36.7621 22.0999L27.5871 33.9249ZM32.3871 6.99994C32.3871 6.49994 32.4121 5.99994 32.4871 5.52494L0.537109 5.52494L0.537109 51.0499L46.0621 51.0499L46.0621 17.6999C45.2371 17.9249 44.3371 18.0249 43.4371 18.0249C37.3371 18.0249 32.3871 13.0749 32.3871 6.99994Z" fill="#171D2F"/>
<path fill-rule="evenodd" clip-rule="evenodd" d="M43.4371 0.949951C40.6121 0.949951 38.2371 2.89995 37.5871 5.52495C37.4621 5.99995 37.3871 6.49995 37.3871 6.99995C37.3871 10.325 40.1121 13.025 43.4371 13.025C44.3621 13.025 45.2621 12.8 46.0621 12.425C48.0621 11.45 49.4621 9.37495 49.4621 6.99995C49.4621 3.64995 46.7621 0.949951 43.4371 0.949951Z" fill="#171D2F"/>
</svg>
