<svg width="43" height="43" viewBox="0 0 43 43" fill="none" xmlns="http://www.w3.org/2000/svg">
<path d="M37.3514 14.4174C37.511 17.5681 37.1989 20.725 36.4257 23.7827C35.4311 27.538 33.6272 31.0279 31.1415 34.0056C28.6558 36.9833 25.549 39.376 22.041 41.0145C21.8638 41.0902 21.6733 41.1292 21.4807 41.1292C21.2882 41.1292 21.0976 41.0902 20.9204 41.0145C12.5466 36.8182 7.47361 30.1322 5.93282 20.8281C5.73668 19.5344 5.63491 18.228 5.62832 16.9193C5.58569 14.1177 5.62832 11.3161 5.62832 8.52058C5.58894 8.26143 5.64187 7.99664 5.77779 7.77284C5.9137 7.54904 6.12388 7.38058 6.3713 7.29716C11.1743 5.25814 15.9733 3.19057 20.7682 1.09445C20.9888 0.98856 21.2301 0.933594 21.4746 0.933594C21.7191 0.933594 21.9605 0.98856 22.1811 1.09445C26.9313 3.13348 31.6897 5.17251 36.4561 7.21153C36.7543 7.30515 37.0104 7.50094 37.1795 7.76477C37.3487 8.0286 37.4203 8.34372 37.3818 8.65515C37.3209 10.4108 37.3514 12.1174 37.3514 14.4174ZM34.55 15.3839C34.55 13.2919 34.55 11.8911 34.55 10.4903C34.5745 10.2548 34.5168 10.0181 34.3869 9.82066C34.2569 9.62318 34.0627 9.47715 33.8374 9.40756C29.9357 7.69886 26.0381 5.97792 22.1445 4.24475C21.9353 4.14069 21.705 4.08655 21.4716 4.08655C21.2381 4.08655 21.0078 4.14069 20.7986 4.24475C17.1446 5.87801 13.4906 7.54184 9.83654 9.07111C8.66725 9.55436 8.25313 10.1538 8.32012 11.4201C8.49064 14.5275 8.23486 17.684 8.64898 20.7486C9.69647 28.4745 13.8255 34.1573 20.6829 37.8336C20.9187 37.9779 21.1894 38.0542 21.4655 38.0542C21.7416 38.0542 22.0123 37.9779 22.2481 37.8336C25.0372 36.4188 27.4996 34.4317 29.4761 32.0007C31.4525 29.5698 32.8989 26.7493 33.7217 23.7215C34.439 21.0045 34.7187 18.1897 34.55 15.3839Z" fill="#252525"/>
<path d="M34.5449 15.3844C34.7143 18.1793 34.4388 20.9836 33.7288 23.6914C32.9067 26.7202 31.4607 29.542 29.4842 31.974C27.5078 34.406 25.045 36.3941 22.2552 37.8096C22.0194 37.9538 21.7486 38.0301 21.4726 38.0301C21.1965 38.0301 20.9258 37.9538 20.69 37.8096C13.8326 34.1393 9.72793 28.4504 8.65608 20.7246C8.24196 17.666 8.49774 14.5035 8.32722 11.396C8.26023 10.1298 8.67435 9.53032 9.84364 9.04707C13.4977 7.51781 17.1517 5.85395 20.8057 4.22069C21.0149 4.11663 21.2452 4.0625 21.4787 4.0625C21.7121 4.0625 21.9424 4.11663 22.1516 4.22069C26.0452 5.95386 29.9428 7.6748 33.8445 9.38351C34.0698 9.4531 34.264 9.59912 34.394 9.79661C34.5239 9.99409 34.5816 10.2308 34.5571 10.4662C34.5205 11.8915 34.5449 13.2923 34.5449 15.3844ZM33.065 15.678C33.065 13.8429 33.065 12.5277 33.065 11.2431C33.089 11.079 33.0545 10.9116 32.9676 10.7706C32.8806 10.6296 32.7469 10.524 32.59 10.4723C28.9908 8.90637 25.4037 7.31593 21.8106 5.74384C21.6188 5.6577 21.4023 5.64465 21.2016 5.70714C17.5232 7.31389 13.8509 8.94511 10.1847 10.6008C10.0966 10.6506 10.0211 10.72 9.96406 10.8038C9.90702 10.8877 9.86999 10.9835 9.85582 11.0841C9.91672 14.2894 9.72184 17.5253 10.1481 20.6818C11.0799 27.6369 14.8009 32.8119 20.8849 36.2681C21.0583 36.3833 21.2616 36.4447 21.4695 36.4447C21.6775 36.4447 21.8808 36.3833 22.0542 36.2681C26.8808 33.655 30.4919 29.2414 32.1089 23.9789C32.9113 21.29 33.235 18.4799 33.065 15.678Z" fill="white"/>
<path d="M33.0712 15.6793C33.2369 18.469 32.9132 21.2663 32.1151 23.9435C30.4937 29.2092 26.8757 33.6233 22.0421 36.2327C21.8687 36.3479 21.6654 36.4094 21.4575 36.4094C21.2496 36.4094 21.0462 36.3479 20.8728 36.2327C14.7828 32.7765 11.0678 27.6015 10.1361 20.6464C9.70977 17.49 9.90465 14.254 9.84375 11.0487C9.85792 10.9482 9.89495 10.8523 9.95199 10.7685C10.009 10.6847 10.0845 10.6152 10.1726 10.5654C13.8266 8.9342 17.4989 7.30298 21.1895 5.67176C21.3902 5.60927 21.6067 5.62232 21.7985 5.70846C25.3916 7.28055 28.9787 8.87099 32.5779 10.437C32.7348 10.4886 32.8686 10.5942 32.9555 10.7352C33.0424 10.8763 33.0769 11.0436 33.0529 11.2077C33.059 12.529 33.0712 13.8197 33.0712 15.6793ZM24.6669 22.6772H26.8472C27.0495 22.703 27.2551 22.6827 27.4485 22.6178C27.642 22.5528 27.8184 22.445 27.9647 22.3022C28.1109 22.1594 28.2233 21.9853 28.2934 21.7929C28.3635 21.6005 28.3896 21.3947 28.3697 21.1908C28.3697 20.0856 28.3697 18.9784 28.3697 17.8692C28.3894 17.6594 28.3628 17.4479 28.2918 17.2496C28.2207 17.0513 28.107 16.8712 27.9586 16.7222C27.8103 16.5732 27.631 16.459 27.4336 16.3876C27.2362 16.3162 27.0256 16.2895 26.8167 16.3094C26.1285 16.3094 25.4343 16.3094 24.8192 16.3094C24.7339 16.2237 24.7035 16.2115 24.7035 16.1931C24.7035 15.5203 24.7035 14.8413 24.6669 14.1623C24.6856 13.9518 24.6589 13.7398 24.5889 13.5406C24.5188 13.3414 24.4069 13.1596 24.2608 13.0076C24.1147 12.8556 23.9377 12.737 23.742 12.6597C23.5462 12.5824 23.3362 12.5482 23.1261 12.5596C22.0299 12.5596 20.9215 12.5596 19.8253 12.5596C19.616 12.5376 19.4044 12.5634 19.2065 12.6352C19.0085 12.7069 18.8293 12.8228 18.6822 12.974C18.5352 13.1253 18.4241 13.308 18.3573 13.5085C18.2906 13.709 18.2699 13.922 18.2967 14.1317C18.2967 14.829 18.2967 15.5264 18.2967 16.187C18.181 16.2421 18.1384 16.2727 18.1019 16.2727C17.4259 16.2727 16.756 16.2727 16.08 16.2727C15.8773 16.258 15.674 16.2874 15.4837 16.3588C15.2934 16.4303 15.1207 16.5421 14.9774 16.6867C14.834 16.8312 14.7234 17.0051 14.653 17.1966C14.5827 17.388 14.5542 17.5924 14.5696 17.7958C14.5696 18.903 14.5696 20.0102 14.5696 21.1174C14.5448 21.3207 14.5659 21.5271 14.6313 21.7211C14.6967 21.9152 14.8048 22.0919 14.9476 22.2382C15.0904 22.3846 15.2641 22.4967 15.4559 22.5664C15.6477 22.636 15.8527 22.6614 16.0556 22.6405H18.2967C18.2967 23.4052 18.2967 24.1209 18.2967 24.8427C18.2745 25.0581 18.3006 25.2758 18.3731 25.4798C18.4456 25.6837 18.5626 25.8688 18.7157 26.0213C18.8687 26.1739 19.0539 26.2901 19.2575 26.3613C19.4611 26.4326 19.678 26.4571 19.8923 26.4331C20.9276 26.4331 21.9629 26.4331 22.9983 26.4331C23.2238 26.4596 23.4523 26.4344 23.6667 26.3596C23.8812 26.2847 24.076 26.162 24.2365 26.0008C24.397 25.8395 24.5192 25.6439 24.5937 25.4285C24.6682 25.2131 24.6933 24.9835 24.6669 24.757C24.6791 24.1209 24.6669 23.4419 24.6669 22.6772Z" fill="#252525"/>
<path d="M24.6621 22.6759C24.6621 23.4406 24.6621 24.1196 24.6621 24.7924C24.6884 25.0189 24.6634 25.2485 24.5889 25.4639C24.5143 25.6793 24.3922 25.8749 24.2317 26.0362C24.0711 26.1974 23.8763 26.3201 23.6619 26.395C23.4475 26.4699 23.2189 26.495 22.9934 26.4685C21.9581 26.4685 20.9228 26.4685 19.8875 26.4685C19.6732 26.4925 19.4563 26.468 19.2527 26.3967C19.049 26.3255 18.8639 26.2093 18.7109 26.0568C18.5578 25.9042 18.4407 25.7191 18.3682 25.5152C18.2957 25.3112 18.2696 25.0935 18.2919 24.8781C18.2919 24.1563 18.2919 23.4406 18.2919 22.6759H16.0508C15.8479 22.6968 15.6429 22.6714 15.4511 22.6018C15.2593 22.5321 15.0855 22.42 14.9428 22.2736C14.8 22.1273 14.6919 21.9506 14.6265 21.7565C14.561 21.5625 14.54 21.3561 14.5648 21.1528C14.5648 20.0456 14.5648 18.9384 14.5648 17.8312C14.5494 17.6278 14.5778 17.4234 14.6482 17.232C14.7186 17.0405 14.8292 16.8666 14.9725 16.7221C15.1159 16.5775 15.2886 16.4657 15.4789 16.3943C15.6691 16.3228 15.8725 16.2934 16.0751 16.3081C16.7511 16.3081 17.421 16.3081 18.097 16.3081C18.1336 16.3081 18.1762 16.2775 18.2919 16.2224C18.2919 15.5618 18.2919 14.8644 18.2919 14.1671C18.265 13.9574 18.2857 13.7443 18.3525 13.5439C18.4193 13.3434 18.5303 13.1607 18.6774 13.0094C18.8244 12.8582 19.0037 12.7423 19.2016 12.6706C19.3996 12.5988 19.6112 12.573 19.8205 12.595C20.9167 12.5522 22.0251 12.5461 23.1213 12.595C23.3314 12.5836 23.5414 12.6178 23.7371 12.6951C23.9329 12.7724 24.1098 12.891 24.256 13.043C24.4021 13.195 24.514 13.3768 24.584 13.576C24.6541 13.7752 24.6807 13.9872 24.6621 14.1977C24.6621 14.8767 24.6621 15.5557 24.6986 16.2285C24.6986 16.2285 24.6986 16.2591 24.8143 16.3448C25.4233 16.3448 26.1237 16.3448 26.8119 16.3448C27.0207 16.3249 27.2314 16.3516 27.4288 16.423C27.6262 16.4944 27.8054 16.6086 27.9538 16.7576C28.1021 16.9066 28.2159 17.0867 28.2869 17.285C28.358 17.4833 28.3846 17.6948 28.3648 17.9046C28.3648 19.0138 28.3648 20.121 28.3648 21.2262C28.3848 21.4301 28.3587 21.6359 28.2886 21.8283C28.2185 22.0207 28.1061 22.1948 27.9598 22.3376C27.8136 22.4804 27.6371 22.5882 27.4437 22.6532C27.2502 22.7181 27.0447 22.7384 26.8423 22.7126L24.6621 22.6759ZM26.8545 17.8863C26.7814 17.8496 26.7449 17.8129 26.7023 17.8129C25.8314 17.8129 24.9544 17.8129 24.0774 17.8129C23.9543 17.8343 23.8279 17.8257 23.7087 17.7878C23.5896 17.7499 23.4813 17.6838 23.393 17.5951C23.3046 17.5063 23.2388 17.3975 23.201 17.2779C23.1633 17.1582 23.1548 17.0312 23.1761 16.9075C23.1761 16.1429 23.1761 15.3722 23.1761 14.6075C23.1761 14.2038 23.0543 14.0325 22.6341 14.0447C21.8485 14.0447 21.0629 14.0447 20.2773 14.0447C19.8327 14.0447 19.7474 14.2405 19.7535 14.6197C19.7535 15.366 19.7535 16.1062 19.7535 16.8525C19.7535 17.5988 19.5099 17.8129 18.7669 17.819C17.8778 17.819 16.9825 17.819 16.069 17.819V21.2262C16.9582 21.2262 17.8108 21.2262 18.6573 21.2262C19.5038 21.2262 19.7474 21.4525 19.7535 22.2967C19.7596 23.1408 19.7535 24.0523 19.7535 24.9454H23.17C23.17 24.0523 23.17 23.2204 23.17 22.3823C23.17 21.4158 23.3466 21.2323 24.2967 21.2262C25.1432 21.2262 25.9897 21.2262 26.8423 21.2262L26.8545 17.8863Z" fill="white"/>
<path d="M26.8592 17.8854V21.2009C26.0066 21.2009 25.1601 21.2009 24.3136 21.2009C23.3635 21.2009 23.1869 21.3905 23.1869 22.357C23.1869 23.195 23.1869 24.027 23.1869 24.9201H19.7704C19.7704 24.027 19.7704 23.1522 19.7704 22.2714C19.7704 21.3905 19.5329 21.207 18.6742 21.2009C17.8155 21.1948 16.9751 21.2009 16.0859 21.2009V17.7937C16.9994 17.7937 17.913 17.7937 18.7838 17.7937C19.5268 17.7937 19.7521 17.5735 19.7704 16.8272C19.7887 16.0809 19.7704 15.3407 19.7704 14.5944C19.7704 14.2152 19.8496 13.9827 20.2942 14.0194C21.0798 14.05 21.8654 14.0194 22.651 14.0194C23.0712 14.0194 23.1991 14.1785 23.193 14.5822C23.193 15.3468 23.193 16.1176 23.193 16.8822C23.1717 17.0059 23.1802 17.1329 23.2179 17.2526C23.2557 17.3722 23.3215 17.481 23.4099 17.5697C23.4982 17.6585 23.6065 17.7246 23.7257 17.7625C23.8448 17.8004 23.9712 17.809 24.0944 17.7875C24.9713 17.7875 25.8483 17.7875 26.7192 17.7875C26.7496 17.812 26.7862 17.8487 26.8592 17.8854Z" fill="#FEE180"/>
</svg>
