<svg width="43" height="43" viewBox="0 0 43 43" fill="none" xmlns="http://www.w3.org/2000/svg">
<path d="M11.8416 9.92345C11.5582 9.15813 11.2388 8.45424 11.0243 7.72105C10.6152 6.31891 10.5198 4.89316 11.0394 3.49576C11.7169 1.67034 13.5102 0.654649 15.4414 0.929595C16.6146 1.09895 17.7342 1.5318 18.7162 2.19567C18.8456 2.28165 18.9798 2.36291 19.1329 2.46022C19.5212 2.13804 19.8944 1.79884 20.295 1.50216C21.6726 0.471353 23.1824 -0.165464 24.9483 0.0376752C25.8455 0.141431 26.6991 0.481497 27.4219 1.02313C30.7845 3.50804 30.931 7.13336 29.0413 10.2182C28.8788 10.4847 28.6861 10.7322 28.4858 11.0185C28.5935 11.113 28.6823 11.1905 28.7777 11.2623C29.2927 11.6515 29.8255 12.0181 30.3206 12.4301C31.6887 13.5696 32.3993 15.0189 32.2689 16.8226C32.2415 17.2072 32.3634 17.4358 32.66 17.6919C34.3286 19.1204 35.52 20.8712 35.9981 23.0396C36.3534 24.6458 35.6145 26.1481 34.1085 26.8095C33.268 27.1625 32.3987 27.4426 31.5102 27.6466C29.6621 28.0982 28.7012 29.3095 28.3233 31.1009C28.0181 32.5342 28.2496 33.9496 28.3667 35.3763C28.4735 36.6745 28.6228 37.9868 28.5396 39.2794C28.4036 41.3722 27.2792 42.9425 24.7216 42.9916C21.7293 43.0502 18.7691 42.8168 16.0055 41.512C15.0984 41.084 14.2774 40.5445 13.6434 39.7527C13.5622 39.6516 13.4308 39.5279 13.3184 39.5241C11.1812 39.4419 10.3393 37.8064 10.3119 36.0943C10.277 33.9704 10.276 31.8426 10.2836 29.7233C10.2952 29.4144 10.1975 29.1113 10.0077 28.8673C7.63144 25.6549 7.14674 22.1278 8.38636 18.3551C8.52431 17.9337 8.51864 17.6134 8.30794 17.2109C7.65979 15.977 7.26863 14.6816 7.5927 13.2587C7.79837 12.3972 8.26526 11.6204 8.92945 11.0345C9.59364 10.4486 10.4227 10.0824 11.3031 9.98581C11.4845 9.96691 11.6649 9.94329 11.8416 9.92345ZM32.0109 18.8993C31.9164 19.1535 31.8607 19.2952 31.8125 19.4407C30.7609 22.6173 27.7734 24.9623 24.4428 25.2288C22.4993 25.3837 21.3476 24.0137 21.7973 22.1108C22.0534 21.0262 22.6939 20.1834 23.412 19.3793C23.926 18.8039 24.4598 18.2455 24.9493 17.6503C25.9328 16.456 26.5101 15.138 26.3334 13.5242C26.2031 12.3262 26.5876 11.2235 27.3208 10.2541C27.5354 9.98176 27.7351 9.69789 27.9189 9.40379C29.3125 7.07383 29.3153 4.46421 27.1309 2.51691C24.9965 0.614967 22.1809 1.23289 20.2667 3.4334L20.6711 3.88786C21.6272 4.9593 22.3519 6.16396 22.7658 7.54436C23.0908 8.62903 23.2608 9.73354 22.9859 10.8513C22.4558 13.0055 20.4623 14.3557 18.0841 14.1903C16.2823 14.0646 14.8329 13.1982 13.5385 12.0049C13.3108 11.7952 13.0661 11.5703 12.7827 11.4579C11.3777 10.8995 9.46819 11.8263 8.99578 13.2644C8.66131 14.2782 8.85972 15.2551 9.33214 16.1404C9.8152 17.0384 10.3764 17.892 11.0092 18.6915C12.1109 20.0861 13.2891 21.4192 14.4352 22.7779C15.1088 23.5763 15.569 23.65 16.4902 23.1634C16.9326 22.9224 17.3939 22.7179 17.8696 22.5521C18.9836 22.1817 20.0106 22.6466 20.4698 23.7303C20.9422 24.8414 20.8893 25.9865 20.5123 27.1014C19.662 29.6071 17.1034 31.3626 14.353 31.3409C13.9609 31.3409 13.8305 31.4354 13.8522 31.836C13.9391 33.4422 14.0204 35.0427 14.0657 36.648C14.1139 38.3156 14.8877 39.4504 16.3938 40.1656C19.1537 41.477 22.077 41.7048 25.0608 41.5602C26.0925 41.5111 26.7227 40.9791 27.0052 39.9927C27.3917 38.6416 27.2197 37.2754 27.0591 35.9158C26.855 34.1792 26.615 32.4454 27.0005 30.7022C27.4682 28.5895 28.6067 27.0731 30.7552 26.4429C31.4346 26.2435 32.1205 26.065 32.7999 25.8675C34.2077 25.4593 34.8785 24.6307 34.6527 23.3864C34.3343 21.6224 33.3082 20.2391 32.0081 18.8993H32.0109ZM12.0722 5.87579C12.2451 8.19913 13.3581 10.411 15.6691 11.934C16.5364 12.5229 17.5612 12.836 18.6094 12.8326C19.9454 12.8241 21.2654 11.9511 21.563 10.7426C21.7267 10.0873 21.7431 9.40388 21.6112 8.74146C20.9914 5.89468 19.3247 3.85385 16.6546 2.65864C16.38 2.53987 16.0928 2.4527 15.7986 2.39881C13.5357 1.95474 12.0722 3.16601 12.0722 5.87579ZM9.66094 19.2083L9.50693 19.2792C9.13199 20.5116 9.00829 21.8067 9.14317 23.0878C9.36804 25.2354 10.1324 27.1421 11.6715 28.6897C12.6305 29.6534 13.7738 30.2014 15.1674 29.9284C16.5374 29.6619 17.7251 29.0317 18.5613 27.8838C19.2859 26.8898 19.6147 25.7815 19.2812 24.5476C19.0922 23.837 18.7965 23.666 18.104 23.924C17.6504 24.094 17.2243 24.3387 16.7878 24.5551C15.8005 25.0455 14.8452 24.9689 14.0138 24.2622C13.5291 23.8503 13.1464 23.3174 12.7298 22.8289C11.7043 21.6252 10.6814 20.4183 9.66094 19.2083ZM27.6534 13.9418C27.5107 14.6741 27.5938 15.4517 27.3794 16.1622C26.974 17.5086 26.0349 18.5243 25.1307 19.5532C24.5921 20.1664 24.012 20.7607 23.5859 21.4476C23.3024 21.9001 23.1796 22.4954 23.138 23.0387C23.0955 23.5989 23.48 23.8966 24.0422 23.8748C24.4193 23.8694 24.7948 23.825 25.1628 23.7426C28.2193 22.9782 30.1184 21.0526 30.7609 17.9706C31.016 16.7489 31.1256 15.446 30.2573 14.3991C29.6734 13.6971 28.9043 13.1463 28.2089 12.5397C27.968 12.3299 27.7885 12.4339 27.7516 12.7287C27.6997 13.1274 27.6845 13.5355 27.6534 13.9418ZM12.7931 37.9963C12.7099 37.4048 12.5956 36.8625 12.5663 36.3249C12.4784 34.6913 12.401 33.0567 12.3707 31.4221C12.3613 30.8912 12.1175 30.6663 11.6423 30.5274C11.6182 30.604 11.602 30.6828 11.5941 30.7627C11.6281 32.6523 11.6602 34.5344 11.7093 36.4203C11.7276 36.6718 11.7873 36.9186 11.886 37.1507C12.0391 37.5532 12.2772 37.8839 12.7931 37.9963Z" fill="#252525"/>
<path d="M32.0062 18.9024C33.3035 20.2422 34.3296 21.6254 34.6518 23.3932C34.8766 24.6375 34.2067 25.4661 32.799 25.8743C32.1196 26.0718 31.4337 26.2522 30.7543 26.4497C28.6048 27.0799 27.471 28.5964 26.9986 30.709C26.6131 32.4522 26.8531 34.186 27.0572 35.9226C27.2178 37.2822 27.3898 38.6484 27.0033 39.9995C26.7199 40.9859 26.0906 41.5179 25.0589 41.567C22.0751 41.7116 19.1518 41.4839 16.3919 40.1724C14.8859 39.4572 14.1121 38.3225 14.0639 36.6548C14.0185 35.0486 13.9373 33.4424 13.8503 31.8428C13.8286 31.4431 13.959 31.3439 14.3511 31.3477C17.1015 31.3694 19.663 29.614 20.5105 27.1083C20.8884 25.9934 20.9375 24.8482 20.468 23.7371C20.0069 22.6543 18.9817 22.1885 17.8678 22.5551C17.3934 22.7209 16.9333 22.925 16.4921 23.1655C15.5681 23.6521 15.1108 23.5784 14.4371 22.78C13.291 21.4213 12.1128 20.0882 11.0111 18.6936C10.3783 17.8941 9.81711 17.0405 9.33405 16.1425C8.86164 15.2572 8.65944 14.2803 8.99297 13.2674C9.46538 11.8294 11.3749 10.9053 12.7799 11.4609C13.0633 11.5733 13.3061 11.7982 13.5357 12.008C14.8301 13.2013 16.2757 14.0677 18.0813 14.1934C20.4594 14.3587 22.453 13.0085 22.9831 10.8543C23.258 9.73847 23.088 8.63396 22.7629 7.54741C22.3491 6.16701 21.6244 4.96235 20.6683 3.89091L20.2639 3.43644C22.1781 1.23593 24.9937 0.618012 27.1281 2.51996C29.3125 4.46726 29.3097 7.07688 27.9161 9.40684C27.7323 9.70093 27.5326 9.9848 27.318 10.2572C26.5848 11.2266 26.2002 12.3292 26.3306 13.5272C26.5073 15.141 25.93 16.4562 24.9465 17.6533C24.457 18.2486 23.9232 18.807 23.4092 19.3824C22.6911 20.1864 22.0505 21.0292 21.7945 22.1139C21.3438 24.0149 22.4956 25.3849 24.44 25.2318C27.7743 24.9654 30.7619 22.6203 31.8097 19.4438C31.8588 19.2983 31.9118 19.1537 32.0062 18.9024Z" fill="white"/>
<path d="M12.0781 5.87502C12.0781 3.16524 13.5388 1.95491 15.8045 2.39804C16.0988 2.45193 16.386 2.5391 16.6606 2.65786C19.3307 3.85308 20.9973 5.89391 21.6171 8.74069C21.7491 9.40311 21.7326 10.0865 21.569 10.7418C21.2713 11.9503 19.9514 12.8205 18.6154 12.8318C17.5672 12.8353 16.5423 12.5221 15.6751 11.9333C13.3669 10.4083 12.2539 8.19836 12.0781 5.87502Z" fill="#252525"/>
<path d="M9.66351 19.2109C10.6864 20.4184 11.71 21.6253 12.7342 22.8315C13.1509 23.32 13.5335 23.8529 14.0182 24.2648C14.8497 24.9716 15.8049 25.0481 16.7923 24.5577C17.2288 24.3414 17.6549 24.0967 18.1084 23.9266C18.801 23.6687 19.0939 23.8397 19.2857 24.5502C19.6192 25.7841 19.2904 26.8924 18.5657 27.8864C17.7295 29.0344 16.5419 29.6646 15.1719 29.931C13.7801 30.2012 12.6369 29.6561 11.676 28.6923C10.1369 27.1447 9.3725 25.238 9.14763 23.0904C9.01152 21.8096 9.13393 20.5145 9.50761 19.2818L9.66351 19.2109Z" fill="#252525"/>
<path d="M27.6549 13.9433C27.6861 13.537 27.7012 13.1288 27.7494 12.7263C27.7862 12.4353 27.9657 12.3314 28.2067 12.5374C28.9021 13.144 29.6712 13.6948 30.2551 14.3968C31.1234 15.4437 31.0109 16.7466 30.7587 17.9683C30.1162 21.0503 28.2171 22.9759 25.1605 23.7403C24.7926 23.8227 24.417 23.8671 24.04 23.8725C23.4778 23.8943 23.0951 23.5966 23.1358 23.0364C23.1773 22.4931 23.3021 21.9026 23.5836 21.4453C24.0097 20.7584 24.5899 20.1641 25.1284 19.5509C26.0326 18.5201 26.9718 17.5063 27.3771 16.1599C27.5916 15.4494 27.5122 14.6755 27.6549 13.9433Z" fill="#252525"/>
<path d="M12.7849 37.9932C12.2691 37.8807 12.0291 37.55 11.8779 37.1428C11.7792 36.9107 11.7195 36.664 11.7012 36.4124C11.6521 34.5228 11.62 32.6407 11.5859 30.7548C11.5939 30.6749 11.61 30.5961 11.6341 30.5195C12.1065 30.6613 12.3531 30.8833 12.3626 31.4143C12.3928 33.0488 12.4703 34.6834 12.5582 36.317C12.5875 36.8641 12.7018 37.4017 12.7849 37.9932Z" fill="#252525"/>
</svg>
