<svg width="43" height="43" viewBox="0 0 43 43" fill="none" xmlns="http://www.w3.org/2000/svg">
<g clip-path="url(#clip0_9964_35166)">
<path d="M21.3484 1.86942C22.0989 2.03809 22.8842 2.11386 23.588 2.40597C24.0939 2.63463 24.526 3.00501 24.8341 3.47418C25.1106 3.89462 25.368 4.16106 25.854 4.27594C26.2955 4.37288 26.7099 4.57011 27.0666 4.853C27.4232 5.1359 27.7129 5.49718 27.914 5.91003C28.3018 6.69835 28.6526 7.55267 28.7842 8.41555C29.002 9.92106 29.1319 11.4385 29.1733 12.9597C29.2247 14.4007 28.7531 15.6681 27.659 16.6618C27.4196 16.8781 27.2736 17.2215 27.1407 17.532C26.5087 19.0133 25.6756 20.332 24.4163 21.333C22.2821 23.0209 19.9359 23.0026 17.8328 21.2854C16.6047 20.2795 15.7823 18.9778 15.1383 17.5307C14.9636 17.1384 14.6715 16.7974 14.3998 16.4564C13.3943 15.2037 12.8269 13.8507 13.2518 12.1787C13.3787 11.6801 13.3344 11.1301 13.3321 10.6045C13.3225 8.60988 13.8288 6.79246 15.0079 5.17793C16.4143 3.25785 19.2441 1.8462 21.3484 1.86942ZM27.0067 12.4684C27.0001 12.3463 27.0001 12.2238 27.0067 12.1017C27.2317 10.1462 25.2112 8.04522 22.9919 8.67955C21.7291 9.04621 20.4291 8.93988 19.1411 8.66121C17.9884 8.41677 16.9937 8.68688 16.1773 9.63898C15.5333 10.387 15.185 11.1948 15.2676 12.1934C15.3203 12.8216 15.3107 13.4571 15.3981 14.0792C15.7129 16.3208 16.4191 18.3961 18.0554 20.0167C19.9707 21.9124 22.1504 21.9405 24.1267 20.1194C24.3785 19.8881 24.6115 19.6364 24.8233 19.3665C26.3974 17.3486 26.9301 14.9825 27.0067 12.4684Z" fill="#454545"/>
<path d="M28.2232 26.3962C26.946 26.9401 26.2601 27.9851 25.9596 29.2867C25.5239 31.1665 25.1828 33.0756 24.7985 34.9627C24.6657 35.6129 24.856 36.147 25.397 36.499C25.8759 36.8119 26.3834 37.1333 26.922 37.3044C27.1842 37.3887 27.651 37.2286 27.8378 37.0111C28.0005 36.8204 28.0341 36.2875 27.8868 36.1018C27.6905 35.8573 27.238 35.6349 26.9424 35.6874C25.9285 35.8671 25.7023 35.7082 25.9189 34.662C26.2888 32.8715 26.6647 31.0797 27.116 29.3088C27.2714 28.7874 27.5407 28.3089 27.9036 27.9093C28.556 27.1564 29.504 27.1308 30.154 27.8873C30.5742 28.3721 30.8811 28.948 31.0517 29.5715C31.4886 31.3254 31.825 33.1049 32.1817 34.8771C32.3397 35.6642 31.9866 35.9685 31.2241 35.7229C30.7369 35.5664 30.3467 35.663 30.1204 36.1482C29.9086 36.6016 30.0295 37.0196 30.4544 37.2482C30.6987 37.3668 30.9777 37.3874 31.2361 37.3056C31.6783 37.1239 32.1037 36.9022 32.5073 36.6432C33.1704 36.2496 33.4326 35.6581 33.2734 34.8942C32.8712 32.9644 32.4857 31.0296 32.0333 29.112C31.746 27.8898 31.1056 26.912 29.8966 26.4231C29.3149 26.1872 29.7218 25.6898 29.5064 25.1545L28.3656 24.6094C28.7247 24.8281 28.605 26.2349 28.2232 26.3962Z" fill="#FCC300"/>
<path d="M12.6179 32.7345C12.6179 32.9044 12.3976 33.1293 12.2241 33.2332C10.9971 33.9665 10.7757 35.5554 11.768 36.5637C12.3976 37.2029 13.1637 37.2701 13.9346 37.0184C14.727 36.7593 15.1496 36.0956 15.2298 35.2669C15.31 34.4383 15.0011 33.7343 14.2925 33.3615C13.7598 33.0816 13.694 32.7333 13.694 32.2041C13.7156 29.9015 13.7156 27.5988 13.694 25.2962C13.694 24.8721 13.8137 24.6338 14.1932 24.4492L12.637 25.2021C12.6359 27.8469 12.643 30.2901 12.6179 32.7345Z" fill="#FCC300"/>
<path d="M36.0938 30.331C35.7587 28.3608 35.2081 26.5788 33.1588 25.6365C30.8809 24.5866 28.6832 23.3351 26.4519 22.1667C26.0497 21.9552 25.8055 22.0677 25.6727 22.4857C25.5925 22.7362 25.5254 22.9917 25.4632 23.2483C24.976 25.254 24.2662 27.1692 23.2116 28.9389C23.1063 29.1149 22.9806 29.2787 22.7963 29.55C22.6203 28.9206 22.4743 28.4378 22.357 27.9489C22.327 27.8267 22.3845 27.68 22.4084 27.5456C22.5042 26.9993 22.679 26.4529 22.6778 25.9078C22.6778 25.2967 22.2552 24.8812 21.6759 24.7797C21.0486 24.6697 20.3843 24.616 19.9031 25.2039C19.685 25.4624 19.5477 25.7816 19.5086 26.1205C19.4696 26.4594 19.5307 26.8024 19.6841 27.1056C20.1629 27.9929 19.6505 28.6456 19.5356 29.3972L19.3776 29.4192C19.2579 29.2151 19.1191 29.0147 19.0006 28.8081C17.981 27.0088 17.2317 25.0633 16.7777 23.0369C16.5156 21.8966 16.36 21.8538 15.4012 22.4502C14.6195 22.9391 13.8247 23.4072 13.0071 23.8215C11.6701 24.4999 10.3127 25.1366 8.95527 25.771C7.64693 26.3821 6.86648 27.4038 6.52773 28.8265C5.74608 32.0959 5.60244 35.4264 5.60963 38.7703C5.60963 40.1147 6.7791 41.1365 8.09102 41.1365H34.2385C34.882 41.1331 35.4988 40.8728 35.9569 40.4112C36.415 39.9497 36.6781 39.3235 36.69 38.6664C36.7127 35.8713 36.5643 33.0871 36.0938 30.331ZM33.9285 40.0964C28.1621 40.0964 22.3965 40.0932 16.6317 40.0866C13.8977 40.0866 11.1641 40.0895 8.43097 40.0952C7.23397 40.0952 6.63546 39.4841 6.66419 38.2619C6.72045 35.287 6.85332 32.322 7.47337 29.396C7.75586 28.0687 8.43097 27.1594 9.64833 26.6228C10.6059 26.1987 11.5492 25.7282 12.6409 25.21L14.197 24.4571C14.7165 24.2065 15.2024 23.8814 15.7531 23.5551C15.9195 24.1002 16.0727 24.6196 16.2319 25.1366C17.1117 27.9269 18.4655 30.4398 20.4358 32.5921C21.0606 33.2741 21.2378 33.2741 21.8722 32.5762C24.1046 30.111 25.529 27.2083 26.3957 24C26.4304 23.868 26.4723 23.7372 26.525 23.5575C27.1665 23.9242 27.783 24.242 28.3695 24.6111L29.5067 25.1562C31.1334 25.9152 32.686 26.4102 33.9249 27.4857C34.284 27.801 34.5437 28.3669 34.6359 28.8595C34.9675 30.6353 35.2715 32.421 35.4654 34.2164C35.6138 35.5889 35.5971 36.9822 35.6222 38.3719C35.6426 39.4951 35.0417 40.0964 33.9285 40.0964Z" fill="#454545"/>
<path d="M12.6366 25.2056C12.6366 27.8505 12.6438 30.2937 12.6187 32.7381C12.6187 32.908 12.3972 33.1329 12.2248 33.2367C10.9979 33.9701 10.7765 35.5589 11.7688 36.5673C12.3984 37.2065 13.1645 37.2737 13.9354 37.0219C14.7278 36.7628 15.1503 36.0991 15.2305 35.2705C15.3107 34.4418 15.0019 33.7379 14.2933 33.3651C13.7606 33.0852 13.6948 32.7369 13.6948 32.2077C13.7163 29.905 13.7163 27.6024 13.6948 25.2998C13.6948 24.8757 13.8145 24.6373 14.1939 24.4528C14.7134 24.2022 15.1994 23.8771 15.75 23.5508C15.9164 24.0959 16.0696 24.6153 16.2288 25.1323C17.1086 27.9226 18.4624 30.4355 20.4327 32.5878C21.0576 33.2697 21.2347 33.2697 21.8691 32.5719C24.1004 30.1116 25.5248 27.2088 26.3914 24.0006C26.4261 23.8686 26.468 23.7378 26.5207 23.5581C27.1623 23.9248 27.7788 24.2425 28.3653 24.6117C28.716 24.8317 28.6047 26.2384 28.2205 26.3997C26.9433 26.9436 26.2574 27.9886 25.9569 29.2903C25.5212 31.17 25.1801 33.0791 24.7958 34.9662C24.663 35.6164 24.8533 36.1505 25.3943 36.5025C25.8731 36.8154 26.3795 37.1368 26.9193 37.3079C27.1815 37.3922 27.6483 37.2321 27.835 37.0146C27.9978 36.8239 28.0313 36.291 27.8841 36.1053C27.6878 35.8608 27.2353 35.6384 26.9397 35.6909C25.9258 35.8706 25.6996 35.7117 25.9162 34.6655C26.2861 32.875 26.662 31.0832 27.1132 29.3122C27.2685 28.7905 27.5378 28.3116 27.9009 27.9116C28.5532 27.1587 29.5013 27.1331 30.1512 27.8896C30.5714 28.3744 30.8784 28.9503 31.049 29.5738C31.4859 31.3277 31.8223 33.1072 32.179 34.8794C32.337 35.6665 31.9839 35.9708 31.2214 35.7252C30.7342 35.5687 30.344 35.6653 30.1177 36.1505C29.9059 36.6039 30.0267 37.0219 30.4517 37.2505C30.6959 37.3691 30.975 37.3896 31.2333 37.3079C31.6756 37.1262 32.101 36.9045 32.5046 36.6455C33.1677 36.2519 33.4298 35.6604 33.2706 34.8965C32.8684 32.9666 32.483 31.0319 32.0305 29.1143C31.7433 27.892 31.1029 26.9143 29.8939 26.4254C29.3121 26.1895 29.7191 25.6921 29.5037 25.1568C31.1304 25.9157 32.6829 26.4107 33.9218 27.4863C34.2809 27.8016 34.5407 28.3675 34.6328 28.86C34.9644 30.6359 35.2684 32.4215 35.4624 34.217C35.6108 35.5895 35.594 36.9828 35.6192 38.3725C35.6395 39.5018 35.0386 40.1031 33.9254 40.1031C28.159 40.1031 22.3934 40.0998 16.6286 40.0933C13.8947 40.0933 11.1611 40.0962 8.42793 40.1019C7.23092 40.1019 6.63242 39.4908 6.66114 38.2686C6.7174 35.2937 6.85027 32.3287 7.47032 29.4027C7.75282 28.0754 8.42793 27.1661 9.64528 26.6295C10.6041 26.2005 11.5449 25.7239 12.6366 25.2056Z" fill="#454545"/>
</g>
<defs>
<clipPath id="clip0_9964_35166">
<rect width="31.0815" height="39.2609" fill="white" transform="translate(5.60938 1.86914)"/>
</clipPath>
</defs>
</svg>
