<svg width="43" height="43" viewBox="0 0 43 43" fill="none" xmlns="http://www.w3.org/2000/svg">
<path d="M36.7379 31.6574L37.558 34.5997C39.9685 34.7814 40.0585 34.7514 40.2252 37.3385C40.572 37.3385 40.937 37.2868 41.2754 37.3585C41.4722 37.3985 41.6272 37.6369 41.8022 37.7869C41.6366 37.9728 41.4516 38.1404 41.2504 38.287C41.1254 38.3604 40.9254 38.307 40.7587 38.307H3.08466C2.94802 38.3323 2.8079 38.3323 2.67125 38.307C2.39453 38.1904 2.13615 38.0303 1.87109 37.8886C2.10114 37.7053 2.32785 37.5186 2.56289 37.3452C2.65349 37.3026 2.74935 37.2724 2.84795 37.2552V32.3542C2.84795 24.4644 2.85962 16.5745 2.82961 8.68294C2.82961 7.87445 3.05466 7.63941 3.85648 7.65774C6.04357 7.70775 8.23233 7.67441 10.3828 7.67441C10.4461 7.55106 10.4894 7.50771 10.4911 7.4577C10.5528 6.03076 10.3111 5.98742 12.0631 6.00742C12.4165 6.00742 12.7716 6.00742 13.1116 6.00742C13.2783 4.67383 13.2783 4.67383 14.6019 4.67383H17.6858C19.0411 4.67383 19.0411 4.67383 19.2478 6.00742C19.7296 6.00742 20.2263 6.04576 20.7164 5.99909C21.5349 5.92074 21.9417 6.20579 21.825 7.07263C21.8213 7.27498 21.8336 7.47732 21.8617 7.67775H24.7572C25.6457 7.67775 26.5376 7.64274 27.4244 7.67775C27.9929 7.70609 28.3746 7.55439 28.5913 7.01095C28.8747 6.28748 29.3131 6.23747 29.9532 6.65421C30.8134 7.21432 31.7202 7.70109 32.6204 8.19952C33.0788 8.45457 33.1822 8.76629 32.9088 9.21971C32.5937 9.74148 32.2987 10.2766 31.9886 10.8034C31.9186 10.9217 31.8369 11.1151 31.7453 11.1251C30.6284 11.2501 30.63 12.3437 30.0116 13.0021C31.3768 13.8056 30.0516 14.4907 29.9332 15.3259C34.8842 15.1192 38.6016 16.9646 40.0919 21.8655C41.2938 25.8029 39.8735 29.0836 36.7379 31.6574ZM25.194 23.3658C26.0675 23.7242 26.0558 24.2226 25.6007 24.8861C25.1773 25.5012 24.8322 26.1714 24.4688 26.8265C24.2204 27.2749 23.9237 27.3983 23.4536 27.1215C21.6333 26.0569 19.8074 25.0011 17.9759 23.9543C17.4908 23.6792 17.3658 23.3691 17.6742 22.8757C18.0659 22.2702 18.427 21.6454 18.7561 21.0037C19.1028 20.2935 19.5029 19.8868 20.2897 20.5186C20.4564 20.2619 20.5914 20.0585 20.7148 19.8518C22.2684 17.1613 23.837 14.4774 25.3607 11.7702C25.7174 11.1384 26.0558 10.7 27.0027 11.2534L27.8945 8.35621H21.8567C21.765 9.62479 21.765 9.62479 20.5231 9.62479H12.0214C10.6345 9.62479 10.6345 9.62479 10.3961 8.35955H3.54475V37.2818H13.1333C13.1433 37.1152 13.1566 36.9768 13.1583 36.8451C13.19 34.9831 13.51 34.6647 15.3521 34.663H22.1367C22.2417 34.0879 22.3384 33.5628 22.4468 32.966C20.5847 32.966 18.8111 32.9493 17.0357 32.966C16.3873 32.976 16.1272 32.7293 16.1589 32.0825C16.1906 31.4357 16.1589 30.7489 16.1589 30.0821C16.1589 29.0286 16.1956 28.9852 17.2258 28.9852C19.7262 28.9852 22.2267 28.9852 24.7272 28.9852C24.9738 29.0086 25.2226 28.9854 25.4607 28.9169C26.5526 28.4635 27.6278 27.9784 28.753 27.4866V21.097C27.146 20.5703 26.1258 21.1104 25.5991 22.6157C25.4834 22.8757 25.348 23.1265 25.194 23.3658ZM36.2195 30.6572C39.5534 28.5818 40.4986 23.4275 38.1515 19.9168C36.3511 17.2229 32.5837 15.6593 29.5482 16.3494C29.4183 16.372 29.3003 16.4392 29.2148 16.5395C28.5796 17.6214 27.9628 18.7066 27.2744 19.9168C28.8797 19.9168 30.2933 19.8885 31.7052 19.9168C34.0107 19.9735 35.8994 21.9522 35.8944 24.251C35.8944 26.0947 34.9809 27.3883 33.4773 28.2618L36.2195 30.6572ZM23.3086 34.553H36.3011C36.3011 31.4474 33.3756 28.7469 29.9799 28.6718C26.4242 28.5985 23.4236 31.214 23.3086 34.553ZM26.7576 35.6549C22.8735 35.6549 18.9894 35.6549 15.1053 35.6549C14.5252 35.6549 14.1668 35.7399 14.1602 36.46C14.1518 37.2085 14.5036 37.3219 15.1337 37.3185C20.5447 37.3035 25.9541 37.3102 31.3652 37.3102C33.6673 37.3102 35.9694 37.3102 38.2732 37.3102C38.8133 37.3102 39.1634 37.2285 39.1767 36.55C39.1934 35.8382 38.9117 35.6482 38.2432 35.6515C34.4124 35.6665 30.5917 35.6549 26.7576 35.6549ZM26.3425 12.1286L21.0282 21.3371L24.1354 23.0774L29.3314 14.0657C29.2598 13.9506 29.2414 13.8873 29.2014 13.8623C28.2796 13.3005 27.3561 12.7421 26.3425 12.1286ZM29.5098 27.6533C30.2416 27.6533 30.9001 27.6666 31.5585 27.6533C32.355 27.6387 33.1203 27.3414 33.7179 26.8147C34.3154 26.288 34.7063 25.566 34.8209 24.7777C35.0426 23.1474 34.084 21.5338 32.4771 21.1387C31.5402 20.907 30.53 20.972 29.5098 20.9053V27.6533ZM18.0893 5.64735C16.964 5.64735 15.8872 5.64735 14.8103 5.64735C14.626 5.65702 14.4424 5.67649 14.2602 5.7057C14.0418 6.97761 14.0418 6.97761 12.7432 6.97928H11.5763V8.55792H20.7448V6.97761H19.4445C18.2243 6.97428 18.2243 6.97428 18.0893 5.64735ZM17.2558 31.9125C19.0511 31.9125 20.7848 31.9125 22.5185 31.9125C22.5848 31.9114 22.6502 31.8968 22.7107 31.8696C22.7712 31.8424 22.8254 31.8031 22.8702 31.7541C23.2586 31.2057 23.6237 30.6389 24.0054 30.0671H17.2558V31.9125ZM24.7055 24.326L19.7046 21.4154L18.6694 23.1941L23.6853 26.028C24.0588 25.4145 24.3638 24.9011 24.7055 24.326ZM30.3733 10.3516L28.9597 9.58145C28.4796 10.4149 28.0462 11.1801 27.5894 11.9769L28.973 12.7721L30.3733 10.3516ZM29.4598 7.51772L28.8447 8.60126L31.2802 9.92819L31.8219 8.92799L29.4598 7.51772Z" fill="#252525"/>
<path d="M25.1961 23.3678C25.3555 23.1279 25.496 22.876 25.6162 22.6143C26.143 21.1141 27.1632 20.5689 28.7702 21.0957V27.4886C27.6483 27.9804 26.5697 28.4655 25.4779 28.9189C25.2398 28.9874 24.991 29.0106 24.7444 28.9873C22.2439 28.9873 19.7434 28.9873 17.2429 28.9873C16.2127 28.9873 16.1744 29.0306 16.1761 30.0841C16.1761 30.7509 16.2044 31.4177 16.1761 32.0845C16.1477 32.7513 16.4044 32.978 17.0529 32.968C18.8282 32.943 20.6019 32.968 22.4639 32.968C22.3556 33.5648 22.2589 34.0899 22.1539 34.665H15.3692C13.5355 34.665 13.2021 34.9851 13.1755 36.8471C13.1755 36.9788 13.1605 37.1105 13.1505 37.2839H3.55859V8.3549H10.4099C10.6483 9.62014 10.6483 9.62014 12.0352 9.62014H20.5369C21.7705 9.62014 21.7705 9.62014 21.8705 8.35156H27.9017L27.0098 11.2488C26.063 10.6954 25.7246 11.1338 25.3678 11.7656C23.8442 14.4728 22.2756 17.1566 20.7219 19.8471C20.5986 20.0588 20.4602 20.2622 20.2969 20.5139C19.51 19.8821 19.11 20.2889 18.7632 20.999C18.4364 21.6423 18.0776 22.2688 17.688 22.8761C17.3796 23.3762 17.5046 23.6796 17.9897 23.9546C19.8223 24.9981 21.6482 26.0539 23.4675 27.1219C23.9376 27.3986 24.2343 27.2752 24.4827 26.8268C24.8461 26.1717 25.1911 25.5016 25.6146 24.8865C26.058 24.2247 26.0696 23.7262 25.1961 23.3678Z" fill="white"/>
<path d="M36.2213 30.6586L33.4724 28.2665C34.9727 27.393 35.8879 26.0994 35.8895 24.2557C35.8895 21.9636 34.0058 19.9849 31.7004 19.9215C30.2885 19.8865 28.8748 19.9215 27.2695 19.9215C27.958 18.718 28.5748 17.6261 29.2099 16.5442C29.2955 16.4439 29.4134 16.3767 29.5433 16.3542C32.5789 15.6641 36.3463 17.2277 38.1467 19.9215C40.5004 23.4322 39.5503 28.5832 36.2213 30.6586Z" fill="white"/>
<path d="M23.3125 34.5548C23.4275 31.2208 26.4348 28.5936 29.9805 28.6737C33.3761 28.7487 36.315 31.4492 36.3017 34.5548H23.3125ZM29.8404 33.6596C30.2805 33.6514 30.7 33.4721 31.01 33.1597C31.32 32.8473 31.4961 32.4264 31.5008 31.9863C31.5056 31.5462 31.3387 31.1215 31.0356 30.8025C30.7324 30.4834 30.3169 30.295 29.8771 30.2773C29.6492 30.2735 29.4229 30.3154 29.2114 30.4004C28.9999 30.4854 28.8076 30.6118 28.6458 30.7723C28.4839 30.9328 28.3558 31.124 28.2689 31.3347C28.1821 31.5454 28.1383 31.7714 28.1401 31.9993C28.1409 32.2205 28.1858 32.4393 28.272 32.643C28.3583 32.8466 28.4842 33.0311 28.6425 33.1857C28.8007 33.3402 28.9881 33.4617 29.1938 33.5431C29.3995 33.6244 29.6193 33.6641 29.8404 33.6596Z" fill="#FCC300"/>
<path d="M26.7578 35.6584C30.5918 35.6584 34.4159 35.6701 38.2433 35.6484C38.9101 35.6484 39.1935 35.8351 39.1768 36.5469C39.1635 37.2254 38.8134 37.3104 38.2733 37.3071C35.9696 37.2971 33.6674 37.3071 31.3653 37.3071C25.9543 37.3071 20.5449 37.3071 15.1338 37.3154C14.5037 37.3154 14.152 37.2054 14.1603 36.4569C14.1603 35.7368 14.5254 35.6501 15.1055 35.6518C18.9896 35.6651 22.8737 35.6518 26.7578 35.6518V35.6584Z" fill="white"/>
<path d="M26.3495 12.1289C27.3631 12.7424 28.2866 13.2958 29.2084 13.8626C29.2484 13.8876 29.2668 13.9509 29.3384 14.066L24.1424 23.0777L21.0352 21.3374L26.3495 12.1289Z" fill="#FCC300"/>
<path d="M18.0872 5.64732C18.2172 6.98091 18.2172 6.98091 19.4475 6.98091H20.7544V8.56122H11.5859V6.98258H12.7528C14.0514 6.98258 14.0514 6.98258 14.2698 5.709C14.452 5.67979 14.6356 5.66032 14.8199 5.65065C15.8901 5.64398 16.967 5.64732 18.0872 5.64732Z" fill="#FCC300"/>
<path d="M17.2578 31.9126V30.0605H24.0075C23.6257 30.6323 23.2606 31.1991 22.8722 31.7475C22.8275 31.7965 22.7732 31.8358 22.7127 31.8631C22.6522 31.8903 22.5868 31.9049 22.5205 31.9059C20.7868 31.9159 19.0532 31.9126 17.2578 31.9126Z" fill="white"/>
<path d="M24.7053 24.3277C24.3636 24.9028 24.0585 25.4163 23.6918 26.0364L18.6758 23.2025L19.711 21.4238L24.7053 24.3277Z" fill="white"/>
<path d="M30.3776 10.3502L28.9774 12.7707L27.5938 11.9755C28.0505 11.1787 28.4839 10.4202 28.964 9.58008L30.3776 10.3502Z" fill="white"/>
<path d="M29.455 7.52344L31.8188 8.93871L31.277 9.93891L28.8398 8.61365L29.455 7.52344Z" fill="white"/>
<path d="M29.841 33.6588C29.6193 33.6632 29.399 33.6234 29.1928 33.5416C28.9867 33.4598 28.799 33.3377 28.6407 33.1825C28.4823 33.0272 28.3565 32.842 28.2707 32.6375C28.1848 32.433 28.1406 32.2135 28.1407 31.9918C28.1389 31.7639 28.1827 31.5379 28.2695 31.3272C28.3564 31.1164 28.4845 30.9252 28.6463 30.7648C28.8082 30.6043 29.0005 30.4778 29.212 30.3928C29.4235 30.3078 29.6498 30.266 29.8777 30.2698C30.3174 30.2875 30.733 30.4759 31.0361 30.7949C31.3393 31.114 31.5062 31.5386 31.5014 31.9787C31.4966 32.4188 31.3206 32.8397 31.0106 33.1522C30.7006 33.4646 30.2811 33.6439 29.841 33.6521V33.6588ZM28.8408 31.9301C28.8925 32.5485 29.2209 32.9303 29.8227 32.9453C29.9475 32.9577 30.0735 32.9437 30.1926 32.9042C30.3116 32.8646 30.421 32.8005 30.5137 32.7159C30.6063 32.6313 30.68 32.5281 30.7302 32.4131C30.7803 32.2981 30.8056 32.1739 30.8045 32.0484C30.8429 31.44 30.4978 31.0483 29.886 31.0066C29.2742 30.9649 28.9492 31.35 28.8425 31.9334L28.8408 31.9301Z" fill="#252525"/>
<path d="M28.8398 31.9305C28.9465 31.3504 29.2616 30.9653 29.885 31.007C30.5085 31.0487 30.8419 31.4404 30.8036 32.0489C30.8046 32.1743 30.7793 32.2986 30.7292 32.4135C30.6791 32.5285 30.6053 32.6317 30.5127 32.7163C30.4201 32.8009 30.3107 32.865 30.1916 32.9046C30.0726 32.9441 29.9465 32.9581 29.8217 32.9457C29.2199 32.9307 28.8915 32.5456 28.8398 31.9305Z" fill="white"/>
</svg>
