<svg width="43" height="43" viewBox="0 0 43 43" fill="none" xmlns="http://www.w3.org/2000/svg">
<path d="M40.9198 26.395C40.5173 25.7701 39.67 25.5822 39.0375 25.9733L38.8573 26.0845L38.8496 26.0883L28.5214 32.5214C27.4211 33.2038 26.0486 33.2191 24.9368 32.5635L22.073 30.869L17.277 30.9419H17.2693C17.0316 30.9419 16.8399 30.754 16.8361 30.5163C16.8322 30.2748 17.0239 30.0793 17.2616 30.0754L29.361 29.8876C30.0894 29.8761 30.6798 29.2742 30.6798 28.5496C30.6798 28.2275 30.5648 27.917 30.354 27.6716C30.1431 27.4263 29.8517 27.2691 29.5297 27.2231L15.7665 25.2679C15.2489 25.195 14.716 25.2487 14.2214 25.4251L2.79297 29.5387L5.08557 36.0178L9.60942 34.3884C9.6976 34.3578 9.79344 34.3539 9.88162 34.3808L23.9976 38.7014C24.7567 38.9353 25.5924 38.8011 26.2442 38.3449L40.5556 28.2697C40.9198 28.0129 41.1384 27.5911 41.1384 27.1426C41.1384 26.8781 41.0617 26.6174 40.9198 26.395Z" fill="#454545"/>
<path d="M31.5456 28.5552C31.5456 29.0689 31.3654 29.5482 31.0625 29.9277L37.948 25.6377C37.5914 25.3655 37.1007 25.2927 36.6675 25.4767L31.3462 27.6504C31.4765 27.9341 31.5456 28.2408 31.5456 28.5552Z" fill="#454545"/>
<path d="M25.3712 31.8227C26.2031 32.3135 27.2344 32.302 28.0548 31.7921L29.7954 30.7109C29.6535 30.7416 29.5117 30.7569 29.3621 30.7608L23.7227 30.8451L25.3712 31.8227Z" fill="#454545"/>
<path d="M20.8438 10.6681C20.9131 10.3033 20.7515 9.84629 21.3138 9.87306C21.4708 8.44002 22.0266 7.94141 23.4375 7.94141H29.7163C31.009 7.94141 31.6286 8.52035 31.7237 9.85367C32.2204 9.86106 32.1854 10.2369 32.1789 10.6681H33.6987C34.9222 10.6681 35.3765 11.1177 35.3765 12.3301C35.3765 15.2984 35.3765 18.267 35.3765 21.2359C35.3765 22.3559 34.8973 22.8416 33.7818 22.8416C28.9361 22.8416 24.0906 22.8416 19.2455 22.8416C18.1587 22.8416 17.6758 22.3485 17.6758 21.2617C17.6758 18.2614 17.6758 15.2618 17.6758 12.2627C17.6758 11.1501 18.1559 10.6745 19.2796 10.6718L20.8438 10.6681ZM20.8854 11.0928C20.3027 11.0928 19.7829 11.0928 19.264 11.0928C18.4283 11.0928 18.1236 11.4003 18.1236 12.2332C18.1236 15.2162 18.1236 18.1996 18.1236 21.1832C18.1236 22.1426 18.4006 22.4187 19.3563 22.4187H33.7052C33.8435 22.4241 33.9821 22.4198 34.1198 22.4057C34.6202 22.3328 34.925 22.0069 34.9259 21.4999C34.9314 18.3316 34.9314 15.1633 34.9259 11.9949C34.9259 11.5637 34.7117 11.1981 34.2795 11.1639C33.5889 11.1011 32.888 11.1473 32.1964 11.1473C32.1253 11.8924 32.1253 11.8924 31.383 11.8924H30.0496C29.3294 11.8924 29.3304 11.8924 29.2648 11.2064C29.2648 11.1815 29.2325 11.1584 29.214 11.1325H23.7838C23.7764 11.2895 23.7598 11.4095 23.7671 11.5323C23.7847 11.7936 23.6582 11.8934 23.4117 11.8924C22.689 11.8924 21.9663 11.8924 21.2436 11.8924C20.9999 11.8924 20.8641 11.8001 20.8844 11.5369C20.8937 11.4114 20.8854 11.2886 20.8854 11.0928ZM29.9093 9.89245C29.8918 9.53973 29.7191 9.4197 29.4301 9.4197C27.496 9.4197 25.5618 9.4197 23.6277 9.4197C23.3378 9.4197 23.166 9.53604 23.1374 9.92015C23.8198 9.71609 23.7838 10.1972 23.7912 10.6302H29.3073C29.1743 10.079 29.3765 9.8232 29.913 9.88876L29.9093 9.89245ZM21.8429 9.89892C22.1356 9.80658 22.5548 10.1676 22.7164 9.65146C22.8632 9.18055 23.1707 8.97464 23.6323 8.97279C25.5541 8.96725 27.476 8.96725 29.3978 8.97279C29.8788 8.97279 30.2158 9.17408 30.3423 9.67639C30.3663 9.73207 30.4029 9.78142 30.4492 9.82052C30.4955 9.85963 30.5503 9.88742 30.6092 9.90169C30.8151 9.92261 31.0223 9.926 31.2288 9.91184C31.2989 8.9691 30.816 8.40401 29.9721 8.40124C27.6668 8.39508 25.3609 8.39508 23.0543 8.40124C22.2187 8.40308 21.7164 9.01896 21.8429 9.89522V9.89892ZM21.3396 10.3707V11.4141H23.2953V10.3707H21.3396ZM31.7209 10.38H29.744V11.4197H31.7209V10.38Z" fill="#454545"/>
<path d="M20.8828 11.0945C20.8828 11.2902 20.8912 11.413 20.8828 11.534C20.8625 11.799 20.9983 11.8904 21.242 11.8895C21.9641 11.8895 22.6868 11.8895 23.4101 11.8895C23.6566 11.8895 23.7794 11.7907 23.7656 11.5294C23.7582 11.4093 23.7748 11.2865 23.7822 11.1296H29.2124C29.2309 11.1554 29.2614 11.1785 29.2632 11.2034C29.3288 11.8895 29.3278 11.8895 30.048 11.8895H31.3878C32.1265 11.8895 32.1265 11.8895 32.2013 11.1443C32.8929 11.1443 33.5937 11.0982 34.2844 11.1609C34.7119 11.1997 34.9307 11.5654 34.9307 11.992C34.9351 15.1609 34.9351 18.3292 34.9307 21.497C34.9307 22.0039 34.6251 22.328 34.1247 22.4028C33.9869 22.4168 33.8484 22.4211 33.7101 22.4157H19.3538C18.3953 22.4157 18.1211 22.1387 18.1211 21.1803C18.1211 18.1972 18.1211 15.2139 18.1211 12.2302C18.1211 11.3992 18.4258 11.0926 19.2614 11.0898C19.7804 11.0926 20.3002 11.0945 20.8828 11.0945ZM27.8255 18.1046C28.4663 18.1046 29.0471 18.0824 29.6261 18.112C30.0462 18.1341 30.217 17.9919 30.1958 17.5635C30.1709 17.0584 30.1709 16.5478 30.1958 16.0436C30.2161 15.6235 30.0647 15.4656 29.6418 15.4896C29.0508 15.5201 28.4571 15.497 27.8338 15.497C27.8338 14.822 27.8191 14.2237 27.8394 13.6272C27.8514 13.2708 27.724 13.1212 27.3629 13.1314C26.8089 13.1462 26.2549 13.1462 25.7009 13.1314C25.3463 13.1221 25.2041 13.2579 25.2171 13.6208C25.2383 14.2292 25.2226 14.8387 25.2226 15.497C24.5827 15.497 24.0019 15.5192 23.423 15.4896C23.0038 15.4684 22.8339 15.6078 22.8561 16.0372C22.8819 16.5422 22.8791 17.0529 22.8561 17.557C22.8376 17.9698 22.9752 18.1415 23.4101 18.1175C24.0001 18.0843 24.5938 18.1092 25.218 18.1092C25.218 18.7952 25.23 19.4083 25.2134 20.0205C25.2051 20.3382 25.3316 20.4693 25.6437 20.4647C26.2272 20.4573 26.812 20.4573 27.398 20.4647C27.7055 20.4647 27.8403 20.3465 27.832 20.0242C27.8135 19.4093 27.8255 18.7962 27.8255 18.1046Z" fill="white"/>
<path d="M21.8436 9.89718C21.7171 9.02092 22.2194 8.40227 23.0551 8.3995C25.3604 8.39027 27.6663 8.39027 29.9728 8.3995C30.8168 8.3995 31.2997 8.96736 31.2295 9.91011C31.0231 9.92427 30.8158 9.92087 30.6099 9.89995C30.551 9.88568 30.4962 9.85789 30.4499 9.81879C30.4036 9.77969 30.367 9.73034 30.3431 9.67465C30.2166 9.17235 29.8814 8.97198 29.3985 8.97106C27.4761 8.96737 25.5543 8.96737 23.6331 8.97106C23.1714 8.97106 22.8639 9.17881 22.7171 9.64972C22.5555 10.1659 22.1363 9.80392 21.8436 9.89718Z" fill="#DBE1E5"/>
<path d="M21.332 10.3711H23.2877V11.4145H21.332V10.3711Z" fill="white"/>
<path d="M31.7152 10.375V11.4147H29.7383V10.375H31.7152Z" fill="white"/>
<path d="M27.8248 18.1083C27.8248 18.7999 27.8128 19.413 27.8294 20.0261C27.8378 20.3484 27.7029 20.4703 27.3955 20.4666C26.8107 20.4598 26.2259 20.4598 25.6411 20.4666C25.329 20.4666 25.2025 20.3401 25.2108 20.0224C25.2274 19.4103 25.2154 18.7971 25.2154 18.1111C24.5912 18.1111 23.9975 18.0862 23.4075 18.1194C22.9708 18.1434 22.8332 17.9717 22.8535 17.5589C22.8756 17.0529 22.8784 16.5432 22.8535 16.0391C22.8313 15.6097 23.0012 15.4703 23.4204 15.4915C23.9994 15.5211 24.5802 15.4989 25.22 15.4989C25.22 14.8406 25.2357 14.2312 25.2145 13.6227C25.2016 13.2598 25.3438 13.1241 25.6983 13.1333C26.2524 13.1481 26.8064 13.1481 27.3604 13.1333C27.7214 13.1231 27.8488 13.2727 27.8368 13.6291C27.8165 14.2256 27.8313 14.824 27.8313 15.4989C28.4545 15.4989 29.0483 15.522 29.6392 15.4915C30.0667 15.4694 30.2182 15.6273 30.1932 16.0456C30.1683 16.5506 30.1683 17.0612 30.1932 17.5654C30.2145 17.9938 30.0436 18.136 29.6235 18.1139C29.0464 18.0862 28.4656 18.1083 27.8248 18.1083ZM29.6328 16.0068C29.0446 16.0068 28.4786 15.9809 27.9162 16.0151C27.4546 16.0428 27.2773 15.8923 27.3068 15.4186C27.3419 14.8452 27.3151 14.2681 27.3151 13.7002H25.7297V15.2413C25.7297 16.0068 25.7297 16.0068 24.9837 16.0068H23.4214V17.5986C24.0363 17.5986 24.6217 17.6171 25.1988 17.5922C25.5986 17.5756 25.7528 17.7159 25.7362 18.1222C25.7103 18.7168 25.7288 19.3124 25.7288 19.9227H27.3161C27.3161 19.3087 27.3345 18.7131 27.3096 18.1185C27.293 17.7205 27.437 17.5645 27.8378 17.5783C28.4305 17.5996 29.0243 17.5839 29.6337 17.5839L29.6328 16.0068Z" fill="#454545"/>
<path d="M29.6255 16.0018V17.5789C29.016 17.5789 28.4251 17.5946 27.8295 17.5734C27.4288 17.5595 27.2848 17.7156 27.3014 18.1136C27.3263 18.7082 27.3078 19.3038 27.3078 19.9178H25.7215C25.7215 19.3075 25.7031 18.7119 25.7289 18.1173C25.7455 17.711 25.5913 17.5706 25.1915 17.5872C24.6117 17.6122 24.029 17.5937 23.4141 17.5937V16.0018H24.9764C25.7215 16.0018 25.7215 16.0018 25.7224 15.2364V13.6953H27.3088C27.3088 14.2632 27.3355 14.8403 27.3005 15.4137C27.2709 15.8874 27.4482 16.0379 27.9099 16.0102C28.4722 15.9751 29.0382 16.0018 29.6255 16.0018Z" fill="#FCC300"/>
</svg>
