<svg width="46" height="46" viewBox="0 0 46 46" fill="none" xmlns="http://www.w3.org/2000/svg">
<path d="M12.4591 21.2637C12.6693 20.0294 12.8364 18.8171 13.0916 17.6249C13.2774 16.8836 13.506 16.154 13.7762 15.4402C13.9559 14.9256 14.1482 14.856 14.6352 15.0739C16.3204 15.8132 17.8802 16.8194 19.257 18.0553C19.3504 18.1395 19.4474 18.2164 19.575 18.3245C19.8014 17.8923 20.0117 17.4784 20.2309 17.0719C20.9752 15.7053 21.9003 14.4494 22.9802 13.3396C23.2839 13.0265 23.5014 13.0283 23.8068 13.3396C25.0847 14.6649 26.148 16.1886 26.9569 17.8538C27.0288 18.0003 27.1025 18.1468 27.1797 18.3007C27.841 17.7806 28.4484 17.2165 29.1366 16.7825C30.1339 16.1525 31.1833 15.6013 32.2238 15.0446C32.6119 14.8358 32.8042 14.9439 32.9731 15.3742C33.629 17.0061 34.0297 18.7326 34.1609 20.4909C34.1789 20.7455 34.2166 20.9964 34.2507 21.2894C34.6515 21.1649 35.0288 21.0422 35.4062 20.9231C36.912 20.4806 38.4683 20.2417 40.0351 20.2126C40.5491 20.1961 40.7054 20.3627 40.6928 20.892C40.5131 28.5707 35.8716 35.1286 28.6784 37.4049C21.9865 39.5219 16.0134 37.9543 11.0035 32.9329C8.42311 30.3507 6.91547 27.1478 6.31888 23.5163C6.17512 22.6372 6.13918 21.7381 6.08168 20.8462C6.04933 20.3719 6.23622 20.1979 6.70702 20.2107C8.54146 20.2408 10.3601 20.5615 12.0979 21.1612C12.2039 21.1996 12.3117 21.2326 12.4195 21.2656C12.4326 21.2692 12.4464 21.2685 12.4591 21.2637ZM23.3953 14.1839C17.1473 20.6539 17.593 31.3634 23.3953 37.165C29.2426 31.1638 29.5625 20.6667 23.3953 14.1839ZM22.3351 37.35C22.1968 37.1797 22.089 37.046 21.9757 36.9123C19.7601 34.147 18.416 30.999 18.1357 27.4353C18.0494 26.3365 17.7888 25.5087 16.8688 24.7927C14.3531 22.8295 11.5624 21.5861 8.42311 21.1887C7.94512 21.1282 7.46174 21.1172 6.98555 21.0824C6.98195 29.327 13.7547 36.9325 22.3351 37.35ZM39.7943 21.0513C38.9929 21.1484 38.2202 21.2051 37.4583 21.3388C34.2851 21.8835 31.3441 23.3821 29.0126 25.6424C28.8591 25.8152 28.7634 26.0332 28.7395 26.2651C28.6586 26.95 28.6622 27.6459 28.5598 28.3253C28.0936 31.528 26.7636 34.5358 24.7179 37.013C24.6352 37.1156 24.558 37.2236 24.4537 37.3628C33.3145 36.8665 39.8141 29.0487 39.7943 21.044V21.0513ZM18.0135 24.659C18.031 24.5989 18.0448 24.5377 18.0548 24.4759C18.1794 22.7557 18.5462 21.0627 19.1437 19.4489C19.2336 19.2108 19.124 19.0936 18.9802 18.9581C17.7224 17.7784 16.2939 16.8031 14.7448 16.0665C14.6673 16.034 14.5881 16.0059 14.5076 15.9822C14.4736 16.0319 14.443 16.0839 14.416 16.1379C13.7893 17.8246 13.4525 19.6088 13.4204 21.4121C13.4327 21.4918 13.4627 21.5676 13.5082 21.6336C13.5536 21.6997 13.6134 21.7542 13.6828 21.793C14.9817 22.4071 16.2034 23.1781 17.3216 24.0895L18.0135 24.659ZM28.7628 24.659C28.8455 24.5986 28.9084 24.5619 28.9623 24.5143C30.213 23.4043 31.6194 22.4907 33.1348 21.804C33.2249 21.7738 33.2997 21.7085 33.3427 21.6224C33.3858 21.5363 33.3938 21.4364 33.3648 21.3443C33.2031 20.1704 33.0755 18.9911 32.8671 17.8264C32.7539 17.1964 32.5077 16.5921 32.31 15.9511C30.6153 16.709 29.0634 17.7625 27.7242 19.0643C27.6832 19.1338 27.6572 19.2114 27.6479 19.2919C27.6386 19.3724 27.6463 19.454 27.6703 19.5313C27.9183 20.5056 28.222 21.4652 28.4394 22.4468C28.5993 23.1463 28.655 23.8844 28.7628 24.6517V24.659Z" fill="#454545" stroke="#454545" stroke-width="0.5"/>
<mask id="path-2-inside-1_9964_35257" fill="white">
<path d="M23.3486 3C31.753 3.06043 38.443 8.93163 40.2076 16.5352C40.211 16.5471 40.2152 16.5587 40.2202 16.57C40.337 17.0608 40.2651 17.2934 39.9722 17.3795C39.6793 17.4655 39.5212 17.2641 39.3936 16.7825C37.6092 10.0689 33.408 5.82022 26.77 4.24712C19.5822 2.544 11.929 6.38427 8.67288 13.1473C8.107 14.3008 7.67521 15.5177 7.38626 16.7733C7.27664 17.2604 7.08796 17.4546 6.81662 17.3813C6.51474 17.3026 6.43747 17.0627 6.57044 16.5444C8.20567 10.241 12.0583 6.01983 18.0817 3.86438C19.796 3.25089 21.5894 3.03296 23.3486 3Z"/>
</mask>
<path d="M23.3486 3L23.363 1.00005L23.3371 0.999865L23.3111 1.00035L23.3486 3ZM40.2076 16.5352L38.2594 16.9874L38.2708 17.0366L38.2847 17.0852L40.2076 16.5352ZM40.2202 16.57L42.1659 16.107L42.1237 15.9297L42.0502 15.763L40.2202 16.57ZM39.3936 16.7825L41.3269 16.2703L41.3265 16.2687L39.3936 16.7825ZM26.77 4.24712L27.2312 2.30103L27.2311 2.30101L26.77 4.24712ZM8.67288 13.1473L10.4685 14.0282L10.4717 14.0215L10.4749 14.0149L8.67288 13.1473ZM7.38626 16.7733L5.43718 16.3248L5.43505 16.3342L7.38626 16.7733ZM6.81662 17.3813L7.3379 15.4504L7.32967 15.4482L7.32143 15.4461L6.81662 17.3813ZM6.57044 16.5444L4.63452 16.0422L4.63319 16.0473L6.57044 16.5444ZM18.0817 3.86438L18.7556 5.74744L18.7556 5.74743L18.0817 3.86438ZM23.3342 4.99995C30.7655 5.05338 36.6929 10.2372 38.2594 16.9874L42.1559 16.0831C40.1932 7.6261 32.7404 1.06748 23.363 1.00005L23.3342 4.99995ZM38.2847 17.0852C38.3132 17.1847 38.3485 17.2823 38.3903 17.3771L42.0502 15.763C42.082 15.8352 42.1089 15.9095 42.1305 15.9853L38.2847 17.0852ZM38.2746 17.0331C38.2867 17.0843 38.2786 17.0668 38.275 17.0022C38.2716 16.9402 38.2681 16.767 38.3379 16.5396C38.415 16.2883 38.5672 16.0208 38.8116 15.8005C39.0421 15.5926 39.2727 15.5005 39.4084 15.4606L40.5361 19.2983C41.1891 19.1064 41.8859 18.6122 42.1618 17.7134C42.3658 17.0487 42.2419 16.4264 42.1659 16.107L38.2746 17.0331ZM39.4084 15.4606C39.5824 15.4095 39.887 15.3576 40.2551 15.4484C40.6377 15.5428 40.9163 15.7485 41.0908 15.9376C41.2467 16.1065 41.3134 16.2538 41.3287 16.2887C41.3468 16.3302 41.3436 16.3335 41.3269 16.2703L37.4603 17.2946C37.5334 17.5708 37.7018 18.1632 38.1511 18.6501C38.4176 18.939 38.7986 19.2091 39.2973 19.332C39.7814 19.4514 40.2156 19.3925 40.5361 19.2983L39.4084 15.4606ZM41.3265 16.2687C40.36 12.6323 38.7093 9.56023 36.3144 7.17117C33.916 4.77861 30.8615 3.16135 27.2312 2.30103L26.3088 6.19322C29.3165 6.906 31.6816 8.19961 33.4894 10.003C35.3007 11.81 36.6429 14.2191 37.4607 17.2962L41.3265 16.2687ZM27.2311 2.30101C19.0806 0.369788 10.5124 4.71614 6.87085 12.2797L10.4749 14.0149C13.3456 8.05239 20.0837 4.71822 26.3089 6.19324L27.2311 2.30101ZM6.87729 12.2665C6.24367 13.5581 5.76047 14.9201 5.4372 16.3248L9.33531 17.2219C9.58995 16.1154 9.97034 15.0436 10.4685 14.0282L6.87729 12.2665ZM5.43505 16.3342C5.40529 16.4665 5.42986 16.2085 5.70874 15.9135C5.87691 15.7356 6.1355 15.5486 6.48435 15.4546C6.82839 15.3619 7.13067 15.3945 7.3379 15.4504L6.29535 19.3122C6.63825 19.4048 7.06587 19.4406 7.52503 19.3168C7.98899 19.1918 8.35247 18.9396 8.61543 18.6614C9.08389 18.1659 9.25761 17.5673 9.33747 17.2124L5.43505 16.3342ZM7.32143 15.4461C7.46115 15.4825 7.70468 15.5712 7.94903 15.785C8.20894 16.0124 8.36778 16.2922 8.44591 16.5523C8.5162 16.7863 8.50962 16.9629 8.50551 17.0219C8.50114 17.0845 8.49315 17.0981 8.50769 17.0415L4.63319 16.0473C4.54799 16.3794 4.40982 17.0199 4.61501 17.703C4.73357 18.0977 4.96002 18.4847 5.31517 18.7954C5.65476 19.0925 6.02115 19.2407 6.31182 19.3166L7.32143 15.4461ZM8.50636 17.0466C9.9774 11.3761 13.3631 7.67712 18.7556 5.74744L17.4079 1.98131C10.7536 4.36255 6.43394 9.1059 4.63453 16.0422L8.50636 17.0466ZM18.7556 5.74743C20.1981 5.23122 21.7584 5.03015 23.3861 4.99965L23.3111 1.00035C21.4204 1.03578 19.394 1.27055 17.4078 1.98133L18.7556 5.74743Z" fill="#FCC300" mask="url(#path-2-inside-1_9964_35257)"/>
<path d="M23.4032 14.1855C29.5704 20.6684 29.2505 31.1655 23.4032 37.1667C17.6009 31.3743 17.1552 20.6556 23.4032 14.1855Z" fill="white"/>
<path d="M22.3333 37.3515C13.7529 36.934 6.98016 29.3286 6.97656 21.084C7.46174 21.1188 7.94512 21.1298 8.41413 21.1902C11.5588 21.5876 14.3441 22.8384 16.8598 24.7942C17.7799 25.5103 18.0404 26.3307 18.1267 27.4368C18.407 31.0005 19.7439 34.1486 21.9668 36.9139C22.0871 37.0512 22.195 37.1812 22.3333 37.3515Z" fill="white"/>
<path d="M39.7955 21.0469C39.8153 29.0515 33.3157 36.8768 24.4531 37.3584C24.5573 37.2192 24.6328 37.1112 24.7173 37.0086C26.7629 34.5313 28.093 31.5236 28.5592 28.3209C28.6634 27.6414 28.6598 26.9455 28.7389 26.2606C28.7628 26.0288 28.8585 25.8107 29.012 25.638C31.3435 23.3777 34.2845 21.8791 37.4577 21.3344C38.2214 21.2007 38.9941 21.1439 39.7955 21.0469Z" fill="white"/>
<path d="M18.0071 24.6592L17.3152 24.0897C16.197 23.1783 14.9753 22.4073 13.6764 21.7932C13.607 21.7544 13.5473 21.6998 13.5018 21.6338C13.4563 21.5678 13.4263 21.492 13.4141 21.4123C13.4461 19.609 13.7829 17.8248 14.4096 16.1381C14.4366 16.0841 14.4672 16.0321 14.5012 15.9824C14.5817 16.0061 14.6609 16.0342 14.7384 16.0667C16.2875 16.8033 17.716 17.7786 18.9738 18.9583C19.1176 19.0938 19.2272 19.211 19.1374 19.4491C18.5398 21.0629 18.173 22.7559 18.0484 24.4761C18.0384 24.5379 18.0246 24.5991 18.0071 24.6592Z" fill="#FCC300"/>
<path d="M28.7594 24.6488C28.6516 23.8815 28.5959 23.1435 28.4359 22.4293C28.2185 21.4477 27.9148 20.4881 27.6668 19.5138C27.6428 19.4365 27.6352 19.3549 27.6445 19.2744C27.6538 19.1939 27.6798 19.1163 27.7207 19.0468C29.0599 17.745 30.6118 16.6915 32.3066 15.9336C32.5006 16.5746 32.7504 17.1789 32.8636 17.8089C33.0721 18.9736 33.1997 20.1529 33.3614 21.3268C33.3903 21.4189 33.3824 21.5188 33.3393 21.6049C33.2962 21.691 33.2215 21.7563 33.1314 21.7865C31.6159 22.4732 30.2096 23.3868 28.9588 24.4968C28.9049 24.5518 28.842 24.5939 28.7594 24.6488Z" fill="#FCC300"/>
<path d="M19.8203 42.2324L27.02 42.2324" stroke="#454545" stroke-linecap="round"/>
<path d="M15.9062 40.2754L30.96 40.2754" stroke="#454545" stroke-linecap="round"/>
</svg>
