<svg width="43" height="43" viewBox="0 0 43 43" fill="none" xmlns="http://www.w3.org/2000/svg">
<path d="M9.02612 10.832C9.18252 10.0083 8.81758 8.97602 10.0876 9.0365C10.4421 5.79995 11.6975 4.67383 14.884 4.67383H29.0648C31.9843 4.67383 33.3836 5.98138 33.5984 8.9927C34.7204 9.00938 34.6411 9.85814 34.6265 10.832H38.0591C40.8223 10.832 41.8483 11.8476 41.8483 14.5858C41.8483 21.2896 41.8483 27.9942 41.8483 34.6995C41.8483 37.2291 40.766 38.326 38.2468 38.326C27.3026 38.326 16.3591 38.326 5.41628 38.326C2.96176 38.326 1.87109 37.2124 1.87109 34.7579C1.87109 27.9817 1.87109 21.2069 1.87109 14.4335C1.87109 11.9206 2.9555 10.8466 5.49344 10.8404L9.02612 10.832ZM9.11996 11.7913C7.80407 11.7913 6.62999 11.7913 5.45799 11.7913C3.5707 11.7913 2.88252 12.4858 2.88252 14.3668C2.88252 21.104 2.88252 27.842 2.88252 34.5806C2.88252 36.7473 3.50814 37.3709 5.66653 37.3709H38.0737C38.3861 37.3831 38.699 37.3734 39.0101 37.3417C40.1404 37.1769 40.8285 36.4408 40.8306 35.2959C40.8431 28.1402 40.8431 20.9845 40.8306 13.8288C40.8306 12.8549 40.3468 12.029 39.3708 11.9519C37.811 11.8101 36.2281 11.9144 34.6662 11.9144C34.5056 13.5973 34.5056 13.5973 32.8289 13.5973H29.8176C28.191 13.5973 28.1931 13.5973 28.045 12.0478C28.045 11.9915 27.972 11.9394 27.9303 11.881H15.666C15.6494 12.2355 15.6118 12.5066 15.6285 12.784C15.6681 13.3741 15.3824 13.5994 14.8256 13.5973C13.1935 13.5973 11.5613 13.5973 9.92909 13.5973C9.37855 13.5973 9.072 13.3887 9.11788 12.7944C9.13873 12.5108 9.11996 12.2334 9.11996 11.7913ZM29.5006 9.08029C29.461 8.28366 29.071 8.01256 28.4183 8.01256C24.0501 8.01256 19.6818 8.01256 15.3136 8.01256C14.6588 8.01256 14.2709 8.27532 14.2063 9.14285C15.7474 8.68197 15.666 9.76847 15.6827 10.7465H28.1409C27.8406 9.50154 28.2973 8.92388 29.509 9.07195L29.5006 9.08029ZM11.2825 9.09489C11.9436 8.88635 12.8904 9.70174 13.2553 8.536C13.5869 7.47244 14.2813 7.0074 15.324 7.00323C19.6645 6.99072 24.0049 6.99072 28.3453 7.00323C29.4318 7.00323 30.193 7.45784 30.4787 8.5923C30.5328 8.71807 30.6154 8.82952 30.72 8.91784C30.8246 9.00615 30.9483 9.06891 31.0814 9.10114C31.5463 9.14839 32.0144 9.15606 32.4807 9.12408C32.6392 6.99488 31.5485 5.71862 29.6424 5.71236C24.4359 5.69846 19.2279 5.69846 14.0186 5.71236C12.1313 5.71653 10.9968 7.1075 11.2825 9.08654V9.09489ZM10.146 10.1605V12.517H14.5629V10.1605H10.146ZM33.5922 10.1814H29.1273V12.5296H33.5922V10.1814Z" fill="#454545"/>
<path d="M9.13198 11.7956C9.13198 12.2377 9.15075 12.5151 9.13198 12.7882C9.0861 13.3868 9.39265 13.5932 9.9432 13.5911C11.574 13.5911 13.2062 13.5911 14.8397 13.5911C15.3965 13.5911 15.6739 13.368 15.6426 12.7778C15.6259 12.5067 15.6635 12.2294 15.6801 11.8748H27.9444C27.9861 11.9332 28.0549 11.9854 28.0591 12.0417C28.2072 13.5911 28.2051 13.5911 29.8317 13.5911H32.8576C34.526 13.5911 34.526 13.5911 34.6949 11.9082C36.2568 11.9082 37.8397 11.8039 39.3995 11.9457C40.3651 12.0333 40.8593 12.8591 40.8593 13.8226C40.8691 20.9797 40.8691 28.1354 40.8593 35.2898C40.8593 36.4346 40.1691 37.1666 39.0388 37.3355C38.7277 37.3672 38.4148 37.377 38.1024 37.3647H5.67855C3.5139 37.3647 2.89453 36.7391 2.89453 34.5745C2.89453 27.8372 2.89453 21.0993 2.89453 14.3606C2.89453 12.4838 3.58272 11.7914 5.47001 11.7852C6.64201 11.7914 7.81609 11.7956 9.13198 11.7956ZM24.8121 27.628C26.2594 27.628 27.5711 27.5779 28.8787 27.6447C29.8275 27.6947 30.2133 27.3736 30.1654 26.4059C30.1091 25.2652 30.1091 24.112 30.1654 22.9734C30.2112 22.0245 29.8692 21.6679 28.9141 21.7221C27.5795 21.7909 26.2386 21.7388 24.8309 21.7388C24.8309 20.2144 24.7975 18.863 24.8434 17.5159C24.8705 16.7109 24.5827 16.3731 23.7673 16.396C22.5161 16.4294 21.2649 16.4294 20.0136 16.396C19.2128 16.3751 18.8917 16.6817 18.9209 17.5013C18.9688 18.8755 18.9334 20.2519 18.9334 21.7388C17.4882 21.7388 16.1765 21.7888 14.8689 21.7221C13.9221 21.6741 13.5384 21.989 13.5885 22.9588C13.6469 24.0995 13.6406 25.2527 13.5885 26.3913C13.5468 27.3235 13.8575 27.7114 14.8397 27.6572C16.1723 27.5821 17.5132 27.6384 18.923 27.6384C18.923 29.1879 18.9501 30.5726 18.9125 31.9552C18.8938 32.6726 19.1795 32.9687 19.8843 32.9583C21.2023 32.9416 22.5231 32.9416 23.8466 32.9583C24.541 32.9583 24.8455 32.6914 24.8267 31.9635C24.785 30.5747 24.8121 29.1899 24.8121 27.628Z" fill="white"/>
<path d="M11.286 9.09348C11.0003 7.11443 12.1348 5.71721 14.022 5.71095C19.2286 5.6901 24.4366 5.6901 29.6459 5.71095C31.552 5.71095 32.6426 6.99347 32.4841 9.12267C32.0179 9.15465 31.5498 9.14698 31.0848 9.09974C30.9518 9.0675 30.8281 9.00475 30.7235 8.91643C30.6188 8.82811 30.5362 8.71666 30.4822 8.5909C30.1964 7.45644 29.4395 7.0039 28.3488 7.00182C24.007 6.99348 19.6665 6.99348 15.3275 7.00182C14.2848 7.00182 13.5904 7.47104 13.2588 8.53459C12.8938 9.70033 11.9471 8.88285 11.286 9.09348Z" fill="#454545"/>
<path d="M10.1445 10.1484H14.5614V12.5049H10.1445V10.1484Z" fill="white"/>
<path d="M33.5977 10.1719V12.52H29.1328V10.1719H33.5977Z" fill="white"/>
<path d="M24.8025 27.6259C24.8025 29.1879 24.7754 30.5726 24.8129 31.9573C24.8317 32.6851 24.5272 32.9604 23.8328 32.952C22.512 32.9368 21.1913 32.9368 19.8705 32.952C19.1656 32.952 18.8799 32.6663 18.8987 31.949C18.9362 30.5663 18.9091 29.1816 18.9091 27.6322C17.4994 27.6322 16.1585 27.5759 14.8259 27.6509C13.8395 27.7052 13.5288 27.3173 13.5747 26.3851C13.6247 25.2423 13.631 24.0912 13.5747 22.9525C13.5246 21.9828 13.9083 21.6679 14.8551 21.7159C16.1626 21.7826 17.4744 21.7326 18.9196 21.7326C18.9196 20.2457 18.955 18.8693 18.907 17.495C18.8778 16.6755 19.199 16.3689 19.9998 16.3898C21.251 16.4231 22.5023 16.4231 23.7535 16.3898C24.5689 16.3668 24.8567 16.7047 24.8296 17.5096C24.7837 18.8568 24.8171 20.2081 24.8171 21.7326C26.2247 21.7326 27.5656 21.7847 28.9003 21.7159C29.8658 21.6658 30.2078 22.0224 30.1515 22.9671C30.0952 24.1078 30.0952 25.2611 30.1515 26.3997C30.1995 27.3673 29.8137 27.6885 28.8648 27.6384C27.5615 27.5759 26.2498 27.6259 24.8025 27.6259ZM28.8857 22.8795C27.5573 22.8795 26.2789 22.8211 25.0089 22.8983C23.9662 22.9609 23.5658 22.6209 23.6326 21.5511C23.7118 20.2561 23.6513 18.9527 23.6513 17.6702H20.0707V21.1507C20.0707 22.8795 20.0707 22.8795 18.3857 22.8795H14.8572V26.4748C16.2461 26.4748 17.5682 26.5165 18.8716 26.4602C19.7746 26.4226 20.1228 26.7396 20.0853 27.6572C20.0269 29.0002 20.0686 30.3453 20.0686 31.7237H23.6534C23.6534 30.3369 23.6951 28.9919 23.6388 27.6489C23.6013 26.75 23.9266 26.3976 24.8317 26.4289C26.1705 26.4769 27.5114 26.4414 28.8878 26.4414L28.8857 22.8795Z" fill="#454545"/>
<path d="M28.884 22.8812V26.4431C27.5076 26.4431 26.173 26.4785 24.8279 26.4306C23.9228 26.3993 23.5975 26.7517 23.635 27.6505C23.6913 28.9935 23.6496 30.3386 23.6496 31.7254H20.0669C20.0669 30.347 20.0252 29.0019 20.0836 27.6589C20.1211 26.7413 19.7729 26.4243 18.8699 26.4619C17.5602 26.5182 16.2443 26.4765 14.8555 26.4765V22.8812H18.384C20.0669 22.8812 20.0669 22.8812 20.069 21.1524V17.6719H23.6517C23.6517 18.9544 23.7122 20.2578 23.6329 21.5528C23.5662 22.6226 23.9666 22.9625 25.0093 22.9C26.2793 22.8207 27.5577 22.8812 28.884 22.8812Z" fill="#FCC300"/>
</svg>
