<svg width="43" height="43" viewBox="0 0 43 43" fill="none" xmlns="http://www.w3.org/2000/svg">
<path d="M26.1915 26.3679C26.28 26.7654 26.2575 27.0664 26.383 27.1517C26.9914 27.567 27.5982 28.0386 28.2791 28.2784C29.9643 28.8804 31.7155 29.2989 33.3942 29.9185C35.5398 30.7104 36.9353 32.2621 37.5549 34.4865C37.893 35.6952 38.3758 36.8767 38.577 38.1064C38.9424 40.3147 37.592 41.8084 35.3579 41.8084C26.2939 41.8159 17.231 41.8159 8.16922 41.8084C5.51827 41.8084 4.14532 39.9767 4.8664 37.4143C5.18831 36.257 5.59714 35.1206 5.96895 33.9746C6.61277 31.9691 8.01309 30.6428 9.93008 29.9234C11.6282 29.2876 13.4116 28.8755 15.1225 28.2655C15.7776 28.0321 16.349 27.5461 16.9284 27.1292C17.0443 27.0471 17.017 26.7638 17.0894 26.4338C14.1761 27.7022 11.744 27.3223 10.0379 24.6633C8.72612 22.6176 9.10759 20.6732 11.1099 18.18L10.2536 16.6783C9.69669 15.7029 9.71922 14.7629 10.3453 13.8085C10.516 13.5445 10.5546 13.1646 10.5787 12.8427C10.6962 11.164 10.6656 9.46265 10.9232 7.80641C11.2354 5.79285 12.4249 4.30562 14.2276 3.29965C14.5129 3.10137 14.7174 2.80718 14.8038 2.47072C15.0791 1.50499 15.6778 0.94808 16.7015 0.944861C20.0279 0.929838 23.3543 0.929838 26.6808 0.944861C27.7044 0.944861 28.2823 1.47923 28.543 2.49326C28.609 2.74757 28.7362 3.0904 28.9374 3.19342C31.7766 4.64202 32.6474 7.18029 32.7762 10.1242C32.8035 10.739 32.7939 11.3571 32.7842 11.9736C32.7713 12.796 32.752 13.5702 33.2671 14.3332C33.7226 15.0044 33.5729 15.8268 33.1769 16.5544C33.1198 16.6756 33.052 16.7914 32.9741 16.9004C32.3303 17.6891 32.2611 18.3007 33.0417 19.1989C34.4984 20.8776 34.3568 23.4304 32.9645 25.2235C32.2871 26.0823 31.3478 26.6965 30.2894 26.9725C29.231 27.2485 28.1114 27.1713 27.1009 26.7525C26.8723 26.6705 26.6566 26.5723 26.1915 26.3679ZM12.0273 13.5574C11.2226 13.7457 10.7268 14.1626 10.5514 14.9158C10.3035 15.9798 12.0933 18.9977 13.1508 19.3148C13.1984 19.3383 13.2495 19.3541 13.3021 19.3614C13.8413 19.3389 14.0023 19.6834 14.1616 20.1276C14.8167 21.9464 15.8001 23.5527 17.3163 24.7953C19.8369 26.8572 23.1848 26.9215 25.7762 24.9563C27.4115 23.7121 28.4207 22.0333 29.0919 20.1276C29.2528 19.693 29.4315 19.4661 29.9482 19.3502C30.4782 19.2071 30.9476 18.8959 31.2857 18.4633C31.8056 17.7937 32.1919 17.0147 32.5895 16.255C33.2156 15.0623 32.7086 13.9662 31.3356 13.5847C31.2616 13.8938 31.1875 14.1996 31.1135 14.507C31.0394 14.8144 30.9799 15.1363 30.8785 15.4389C30.5437 16.4272 29.8773 16.8763 28.947 16.762C28.0167 16.6477 27.3938 15.946 27.3278 14.9512C27.3069 14.6293 27.3278 14.2945 27.3278 13.8777C25.3207 14.7404 23.3924 15.0237 21.3821 14.6422C19.4056 14.2672 17.7042 13.3111 16.0464 12.0154C16.0464 12.6077 16.0464 13.0343 16.0464 13.464C16.0464 13.9195 16.0464 14.375 16.0367 14.8305C16.0046 15.8784 15.38 16.6204 14.4385 16.7379C13.4454 16.8634 12.7516 16.3741 12.441 15.2893C12.2752 14.7291 12.1625 14.1561 12.0225 13.5574H12.0273ZM14.0747 29.3938L13.9508 29.1476C12.4104 29.7318 10.8459 30.2646 9.33454 30.9181C8.30764 31.3623 7.44009 32.1188 7.03126 33.1715C6.40675 34.7891 5.80961 36.4308 5.40883 38.1128C4.9839 39.8962 6.1122 41.1597 7.93744 41.171C10.5626 41.1838 13.1878 41.171 15.8146 41.171C15.9868 41.171 16.1591 41.1484 16.4166 41.1307C16.3023 40.9279 16.2476 40.8088 16.1768 40.7106C15.4074 39.5518 14.6042 38.4122 13.8703 37.2308C13.2828 36.2844 13.3778 35.6309 14.1729 34.8615C14.4336 34.6088 14.8167 34.48 15.1853 34.2708C14.593 33.7606 14.3274 33.5368 14.0586 33.3051C13.7898 33.0733 13.4904 32.8222 13.22 32.5566C12.4152 31.7872 12.4329 30.7764 13.2715 30.0376C13.5307 29.8171 13.8043 29.6095 14.0699 29.3938H14.0747ZM26.8868 41.1742C29.7421 41.1742 32.4237 41.1002 35.0955 41.1967C37.4584 41.282 38.4531 39.555 37.8688 37.5543C37.5018 36.2972 37.0721 35.0579 36.6375 33.8217C36.2745 32.7742 35.5713 31.8784 34.64 31.277C33.0047 30.1986 31.1344 29.7608 29.2641 29.2956C29.4455 29.5206 29.653 29.7232 29.8822 29.8992C30.9976 30.7845 31.0266 31.7647 29.9562 32.7192C29.4637 33.1602 28.9647 33.5964 28.44 34.0599C28.5849 34.2209 28.6847 34.34 28.7957 34.4527C30.1123 35.7918 30.1687 36.2007 29.1579 37.7796C28.4497 38.8773 27.7044 39.9461 26.882 41.1742H26.8868ZM21.6879 1.57903C20.0526 1.57903 18.4173 1.56776 16.782 1.57903C15.8404 1.58708 15.298 2.17134 15.4412 3.06143C15.6826 4.56637 15.9434 6.07131 16.246 7.5682C16.4568 8.59671 17.0121 9.0168 18.06 9.0168C20.528 9.02324 22.9959 9.02324 25.4639 9.0168C26.6582 9.0168 27.1572 8.58866 27.3423 7.38793C27.5569 5.98439 27.7511 4.57871 27.925 3.17088C28.0505 2.15203 27.5451 1.5919 26.5182 1.58546C24.9006 1.57259 23.291 1.57903 21.6831 1.58064L21.6879 1.57903ZM26.0546 27.781C24.7477 32.2878 23.4793 36.6336 22.1917 41.1179C23.4793 41.1179 24.606 41.142 25.7166 41.0985C25.9259 41.0905 26.1802 40.8603 26.3234 40.6672C26.9673 39.7819 27.6111 38.8886 28.2147 37.9712C29.2045 36.4566 29.7679 36.0815 27.9475 34.5573C27.5016 34.1839 27.5741 33.862 28.0054 33.5159C28.5688 33.0636 29.1209 32.592 29.644 32.0931C30.1671 31.5941 30.1993 31.0324 29.644 30.5785C28.4867 29.653 27.3133 28.7661 26.0498 27.7827L26.0546 27.781ZM21.1664 41.1114C19.845 36.6304 18.5589 32.2588 17.2375 27.781C15.9691 28.7886 14.8006 29.6787 13.6787 30.6219C13.1959 31.0291 13.183 31.5603 13.6594 32.0238C14.0232 32.3779 14.4207 32.6982 14.799 33.0379C16.0545 34.1646 16.0416 33.9006 14.8521 35.1126C14.1053 35.8723 14.0473 36.2602 14.6284 37.1503C15.4235 38.3575 16.2508 39.5437 17.0862 40.7235C17.2189 40.9167 17.4225 41.0497 17.6527 41.0937C18.7649 41.1307 19.8836 41.113 21.1616 41.113L21.1664 41.1114ZM25.6635 25.9011C22.9756 27.472 20.352 27.4366 17.7187 25.9606C17.5481 28.5359 18.9533 30.4465 21.1793 30.5189C24.4789 30.63 25.2386 29.397 25.6587 25.9027L25.6635 25.9011ZM18.8647 30.5688C19.8079 33.7879 20.7045 36.8461 21.601 39.9042L21.7619 39.8721C22.6359 36.838 23.5099 33.8024 24.4193 30.6493C22.5297 31.504 20.7785 31.5764 18.8664 30.572L18.8647 30.5688Z" fill="#252525"/>
<path d="M12.0188 13.5592C12.1588 14.1579 12.2715 14.7309 12.4324 15.2895C12.7431 16.3695 13.4368 16.8588 14.4299 16.7381C15.3715 16.6206 15.996 15.8786 16.0282 14.8307C16.0427 14.3752 16.0362 13.9197 16.0378 13.4642C16.0378 13.0361 16.0378 12.6096 16.0378 12.0156C17.6957 13.3113 19.397 14.269 21.3735 14.6424C23.3839 15.0239 25.3121 14.7406 27.3193 13.8779C27.3193 14.2948 27.3015 14.6231 27.3193 14.9515C27.3852 15.9462 28.021 16.6479 28.9385 16.7622C29.8559 16.8765 30.5319 16.4274 30.8699 15.4392C30.9713 15.1366 31.0309 14.8179 31.1049 14.5072C31.179 14.1966 31.253 13.894 31.3271 13.5849C32.7 13.9664 33.207 15.0625 32.5809 16.2552C32.1833 17.0133 31.797 17.7939 31.2772 18.4635C30.939 18.8961 30.4697 19.2073 29.9396 19.3504C29.4229 19.4663 29.2378 19.6932 29.0833 20.1278C28.4121 22.0335 27.4029 23.7123 25.7676 24.9565C23.1762 26.9266 19.8284 26.8622 17.3078 24.7955C15.7916 23.5529 14.8081 21.9466 14.1531 20.1278C13.9921 19.6868 13.8311 19.3391 13.2935 19.3617C13.2409 19.3543 13.1899 19.3385 13.1422 19.315C12.0848 18.9931 10.2949 15.98 10.5428 14.9161C10.7183 14.1644 11.2188 13.7475 12.0188 13.5592Z" fill="white"/>
<path d="M26.0461 27.7832C27.3096 28.7666 28.483 29.6535 29.6241 30.5806C30.1843 31.0345 30.1746 31.5753 29.6241 32.0952C29.0737 32.6151 28.5489 33.0609 27.9856 33.5181C27.5542 33.8641 27.4818 34.186 27.9277 34.5594C29.7481 36.0837 29.1847 36.4587 28.1948 37.9733C27.5945 38.8908 26.9539 39.7841 26.3036 40.6693C26.1604 40.8625 25.9061 41.0927 25.6968 41.1007C24.5782 41.1442 23.4563 41.12 22.1719 41.12C23.4772 36.6422 24.7391 32.2868 26.0461 27.7832Z" fill="#FCC300"/>
<path d="M21.1574 41.1162C19.8794 41.1162 18.7608 41.1339 17.6438 41.0985C17.4135 41.0545 17.2099 40.9215 17.0772 40.7283C16.2418 39.5485 15.4145 38.3623 14.6194 37.1551C14.0335 36.265 14.0963 35.8771 14.8383 35.1206C16.0278 33.9086 16.0406 34.1774 14.7852 33.0459C14.4069 32.7063 14.0094 32.386 13.6456 32.0319C13.1627 31.5683 13.1821 31.0372 13.6649 30.6299C14.7916 29.6867 15.9553 28.7966 17.2237 27.7891C18.5499 32.2701 19.836 36.6352 21.1574 41.1162Z" fill="#FCC300"/>
<path d="M25.6541 25.9023C25.234 29.3967 24.4743 30.6296 21.1698 30.5202C18.9438 30.4477 17.5387 28.5388 17.7093 25.9619C20.3393 27.4379 22.9661 27.4733 25.6541 25.9023Z" fill="white"/>
<path d="M18.8672 30.5742C20.7858 31.577 22.537 31.5062 24.4218 30.6579C23.5124 33.811 22.6384 36.8467 21.7644 39.8807L21.6034 39.9129C20.7005 36.8547 19.804 33.7966 18.8672 30.5742Z" fill="#FCC300"/>
<path d="M20.945 4.39876C20.945 4.09816 20.9528 3.82823 20.945 3.5607C20.9348 3.3088 21.0323 3.18676 21.2935 3.19578C21.5547 3.2048 21.8147 3.20059 22.0759 3.19578C22.304 3.19217 22.4034 3.29918 22.3985 3.52523C22.3919 3.80358 22.3985 4.08193 22.3985 4.39696C22.6905 4.39696 22.9577 4.40537 23.2237 4.39696C23.4897 4.38854 23.6173 4.48713 23.6041 4.76368C23.5927 5.00416 23.5927 5.24463 23.6041 5.48511C23.6179 5.76106 23.4916 5.86386 23.2255 5.85184C22.9595 5.83981 22.7067 5.85184 22.3973 5.85184C22.3973 6.13259 22.3865 6.39892 22.4003 6.66344C22.4154 6.9436 22.3095 7.07465 22.0182 7.05662C21.7985 7.04339 21.5776 7.05662 21.3561 7.05662C21.001 7.05662 20.9516 7.00852 20.9486 6.66284C20.9486 6.40493 20.9486 6.14702 20.9486 5.85424C20.6447 5.85424 20.3672 5.84763 20.0903 5.85424C19.8496 5.86205 19.7376 5.76045 19.7424 5.51817C19.7479 5.25786 19.7491 4.99754 19.7424 4.73663C19.7358 4.49014 19.8556 4.39575 20.0921 4.40237C20.3576 4.40477 20.6272 4.39876 20.945 4.39876Z" fill="#FCC300"/>
</svg>
