<svg width="43" height="43" viewBox="0 0 43 43" fill="none" xmlns="http://www.w3.org/2000/svg">
<g clip-path="url(#clip0_9964_35278)">
<path d="M28.5096 14.0804V21.3437C28.5096 27.3728 28.5096 33.4012 28.5096 39.429C28.5096 41.7274 27.7083 42.5315 25.3685 42.5335C20.3978 42.5335 15.4277 42.5335 10.4583 42.5335C8.3008 42.5335 7.43941 41.6533 7.44141 39.499C7.44141 34.8981 7.44141 30.2973 7.44141 25.7105C7.45343 21.2757 10.5525 18.2092 15.0017 18.1711C16.404 18.1591 17.8062 18.1872 19.1905 18.0171C21.3259 17.7531 22.9846 16.6169 24.1265 14.7965C24.477 14.2404 24.8477 14.0304 25.4907 14.0664C26.4543 14.1204 27.4158 14.0804 28.5096 14.0804ZM22.9125 27.4968C22.8224 25.0964 21.8969 23.5581 20.0419 22.696C18.1868 21.8338 16.3579 22.0959 14.8114 23.4381C13.2649 24.7803 12.758 26.5166 13.3129 28.503C13.8398 30.3933 15.7509 31.9396 17.65 31.9456C18.0366 31.9456 18.6516 31.5815 18.7578 31.2515C18.9581 30.6754 18.4553 30.3933 17.8743 30.3453C17.6087 30.3194 17.3463 30.2672 17.0911 30.1893C16.6307 30.0506 16.2072 29.8107 15.8518 29.4873C15.4963 29.1639 15.2179 28.7651 15.037 28.3202C14.856 27.8753 14.7771 27.3956 14.806 26.9163C14.835 26.437 14.971 25.9702 15.2042 25.5502C15.4373 25.1302 15.7617 24.7677 16.1535 24.4893C16.5452 24.2108 16.9945 24.0235 17.4682 23.941C17.942 23.8585 18.4282 23.883 18.8912 24.0127C19.3542 24.1424 19.7823 24.3739 20.144 24.6903C21.2779 25.6905 21.5463 27.0387 20.8752 28.593C20.6188 29.1791 20.6048 29.7352 21.2318 29.8912C21.5443 29.9693 22.1653 29.5892 22.3436 29.2531C22.6801 28.631 22.7963 27.8809 22.9125 27.4968ZM17.9945 40.0871C20.0298 40.0871 22.0658 40.0871 24.1024 40.0871C24.6714 40.0871 25.2543 40.0351 25.2663 39.3149C25.2804 38.5608 24.6994 38.4368 24.0784 38.4368C20.0065 38.4368 15.9332 38.4368 11.8586 38.4368C11.2796 38.4368 10.7147 38.5388 10.6927 39.2369C10.6666 40.0091 11.2736 40.0971 11.8846 40.0951L17.9945 40.0871ZM18.0406 36.8325C19.2706 36.8325 20.5006 36.8325 21.7326 36.8325C22.3155 36.8325 22.8584 36.7405 22.8644 36.0323C22.8704 35.3242 22.3596 35.1942 21.7586 35.1962C19.2639 35.2055 16.7699 35.2055 14.2765 35.1962C13.6755 35.1962 13.1467 35.3362 13.1346 35.9963C13.1226 36.6565 13.6435 36.8345 14.2485 36.8265C15.5085 36.8325 16.7725 36.8325 18.0406 36.8325Z" fill="#454545"/>
<path d="M27.9125 7.58003C26.9409 7.58003 25.9753 7.62404 25.0178 7.55203C24.7373 7.53002 24.4028 7.23397 24.2165 6.97392C22.4035 4.31545 19.8854 3.09123 16.7363 3.66333C13.5872 4.23543 11.608 6.21178 10.8488 9.32834C10.7186 9.86244 10.4982 10.0365 9.97536 10.0145C9.17406 9.98046 8.38478 10.0145 7.59751 10.0145C7.14677 5.93974 11.6701 1.01286 16.3237 0.412749C21.6603 -0.277375 27.2594 3.15724 27.9125 7.58003Z" fill="#454545"/>
<path d="M27.691 12.4296C24.8224 12.4296 21.9557 12.4296 19.0771 12.4296C17.8511 12.4296 17.1579 11.8715 17.1259 10.9113C17.0938 9.95112 17.9272 9.21899 19.069 9.21699C24.8384 9.20632 30.6084 9.20632 36.3791 9.21699C37.6352 9.21699 38.3263 9.8451 38.3023 10.8813C38.2802 11.8675 37.5991 12.4256 36.3851 12.4296C33.4911 12.4296 30.5931 12.4296 27.691 12.4296Z" fill="#FCC300"/>
<path d="M22.4878 7.58439C21.1737 7.58439 20.0138 7.57239 18.8539 7.58439C16.9348 7.60839 15.4804 9.01064 15.4925 10.805C15.5065 12.6293 16.9308 13.9835 18.8759 14.0055C20.0378 14.0175 21.1997 14.0055 22.3816 14.0055C21.7546 15.5818 19.3928 16.646 17.2112 16.376C14.6531 16.0599 12.6538 13.9755 12.3333 11.2951C12.0489 8.89462 13.6595 6.31016 15.9792 5.44601C18.2209 4.62586 20.9814 5.47001 22.4878 7.58439Z" fill="#FCC300"/>
</g>
<defs>
<clipPath id="clip0_9964_35278">
<rect width="33.756" height="43" fill="white" transform="translate(5.60938)"/>
</clipPath>
</defs>
</svg>
