<svg width="208" height="22" viewBox="0 0 208 22" fill="none" xmlns="http://www.w3.org/2000/svg">
<path d="M207.972 16.9999H204.188V16.3839H204.276C204.437 16.3839 204.569 16.3033 204.672 16.1419C204.789 15.9806 204.848 15.7826 204.848 15.5479V9.95994C204.848 9.29994 204.687 8.80127 204.364 8.46394C204.056 8.11194 203.616 7.93594 203.044 7.93594C202.223 7.93594 201.497 8.37594 200.866 9.25594C200.235 10.1359 199.92 10.7959 199.92 11.2359V15.4159C199.92 15.6506 199.927 15.8193 199.942 15.9219C199.971 16.0246 200.059 16.1273 200.206 16.2299C200.353 16.3326 200.58 16.3839 200.888 16.3839H201.284V16.9999H196.84V16.3839H197.192C197.588 16.3839 197.837 16.3179 197.94 16.1859C198.057 16.0539 198.116 15.8413 198.116 15.5479V8.94794C198.116 8.66927 198.021 8.47128 197.83 8.35394C197.654 8.22194 197.324 8.15594 196.84 8.15594V7.53994C197.133 7.53994 197.573 7.43727 198.16 7.23194C198.761 7.01194 199.216 6.80661 199.524 6.61594L199.92 6.52794V9.34394C200.257 8.41994 200.778 7.70861 201.482 7.20994C202.186 6.69661 203.044 6.43994 204.056 6.43994C204.584 6.43994 205.031 6.55727 205.398 6.79194C205.765 7.02661 206.029 7.32728 206.19 7.69394C206.469 8.32461 206.608 8.94794 206.608 9.56394V15.5039C206.608 15.7093 206.623 15.8633 206.652 15.9659C206.725 16.2446 207.033 16.3839 207.576 16.3839H207.972V16.9999Z" fill="#18311D"/>
<path d="M195.131 16.9999H191.963V15.2399C191.23 16.0319 190.621 16.5746 190.137 16.8679C189.653 17.1613 188.993 17.3079 188.157 17.3079C187.336 17.3079 186.69 17.1173 186.221 16.7359C185.766 16.3399 185.539 15.7899 185.539 15.0859C185.539 14.3819 185.84 13.6999 186.441 13.0399C187.057 12.3653 187.768 11.8593 188.575 11.5219C189.396 11.1699 190.115 10.9059 190.731 10.7299C191.347 10.5393 191.758 10.4439 191.963 10.4439V9.95994C191.963 8.58127 191.391 7.89194 190.247 7.89194C189.455 7.89194 188.714 8.06061 188.025 8.39794C187.35 8.73527 186.844 9.16794 186.507 9.69594L186.067 9.29994C187.05 7.39327 188.751 6.43994 191.171 6.43994C191.787 6.43994 192.293 6.60861 192.689 6.94594C193.1 7.26861 193.371 7.64994 193.503 8.08994C193.65 8.52994 193.723 9.02127 193.723 9.56394V15.5039C193.723 15.6946 193.738 15.8413 193.767 15.9439C193.796 16.0466 193.884 16.1493 194.031 16.2519C194.192 16.3399 194.427 16.3839 194.735 16.3839H195.131V16.9999ZM191.963 14.0079V11.3239C190.819 11.5439 189.756 11.9839 188.773 12.6439C187.79 13.3039 187.299 14.0226 187.299 14.7999C187.299 15.1079 187.446 15.3793 187.739 15.6139C188.047 15.8339 188.421 15.9439 188.861 15.9439C189.316 15.9439 189.851 15.7459 190.467 15.3499C191.083 14.9393 191.582 14.4919 191.963 14.0079Z" fill="#18311D"/>
<path d="M183.952 16.9998H180.124V16.3838H180.256C180.403 16.3838 180.528 16.3105 180.63 16.1638C180.733 16.0025 180.784 15.7972 180.784 15.5478V9.95984C180.784 8.61051 180.198 7.93584 179.024 7.93584C178.188 7.93584 177.448 8.37584 176.802 9.25584C176.172 10.1358 175.856 10.7958 175.856 11.2358V15.4158C175.856 15.6358 175.871 15.8045 175.9 15.9218C175.974 16.2298 176.282 16.3838 176.824 16.3838H177.264V16.9998H172.82V16.3838H173.128C173.524 16.3838 173.781 16.3178 173.898 16.1858C174.03 16.0392 174.096 15.8265 174.096 15.5478V2.47984C174.096 2.20117 174.001 2.00317 173.81 1.88584C173.62 1.75384 173.29 1.68784 172.82 1.68784V1.07184C173.128 1.07184 173.583 0.991173 174.184 0.82984C174.786 0.668506 175.211 0.499839 175.46 0.32384L175.856 0.23584V9.34384C176.619 7.40784 177.998 6.43984 179.992 6.43984C180.52 6.43984 180.968 6.55717 181.334 6.79184C181.716 7.02651 181.987 7.32717 182.148 7.69384C182.442 8.30984 182.588 8.93317 182.588 9.56384V15.5038C182.588 15.7092 182.603 15.8632 182.632 15.9658C182.691 16.2445 182.984 16.3838 183.512 16.3838H183.952V16.9998Z" fill="#18311D"/>
<path d="M171.678 15.6362L171.854 16.1642C170.754 16.9269 169.551 17.3082 168.246 17.3082C167.777 17.3082 167.373 17.1396 167.036 16.8022C166.699 16.4649 166.53 16.0176 166.53 15.4602V7.67223H165.254V6.74823H165.738C166.222 6.74823 166.669 6.4549 167.08 5.86823C167.505 5.28157 167.718 4.7389 167.718 4.24023H168.29V6.74823H171.282V7.67223H169.126C168.569 7.67223 168.29 7.93624 168.29 8.46424V14.7562C168.29 15.7242 168.642 16.2082 169.346 16.2082C170.138 16.2082 170.915 16.0176 171.678 15.6362Z" fill="#18311D"/>
<path d="M163.869 16.9999H160.701V15.2399C159.968 16.0319 159.359 16.5746 158.875 16.8679C158.391 17.1613 157.731 17.3079 156.895 17.3079C156.074 17.3079 155.429 17.1173 154.959 16.7359C154.505 16.3399 154.277 15.7899 154.277 15.0859C154.277 14.3819 154.578 13.6999 155.179 13.0399C155.795 12.3653 156.507 11.8593 157.313 11.5219C158.135 11.1699 158.853 10.9059 159.469 10.7299C160.085 10.5393 160.496 10.4439 160.701 10.4439V9.95994C160.701 8.58127 160.129 7.89194 158.985 7.89194C158.193 7.89194 157.453 8.06061 156.763 8.39794C156.089 8.73527 155.583 9.16794 155.245 9.69594L154.805 9.29994C155.788 7.39327 157.489 6.43994 159.909 6.43994C160.525 6.43994 161.031 6.60861 161.427 6.94594C161.838 7.26861 162.109 7.64994 162.241 8.08994C162.388 8.52994 162.461 9.02127 162.461 9.56394V15.5039C162.461 15.6946 162.476 15.8413 162.505 15.9439C162.535 16.0466 162.623 16.1493 162.769 16.2519C162.931 16.3399 163.165 16.3839 163.473 16.3839H163.869V16.9999ZM160.701 14.0079V11.3239C159.557 11.5439 158.494 11.9839 157.511 12.6439C156.529 13.3039 156.037 14.0226 156.037 14.7999C156.037 15.1079 156.184 15.3793 156.477 15.6139C156.785 15.8339 157.159 15.9439 157.599 15.9439C158.054 15.9439 158.589 15.7459 159.205 15.3499C159.821 14.9393 160.32 14.4919 160.701 14.0079Z" fill="#18311D"/>
<path d="M152.714 16.9999H148.93V16.3839H149.018C149.179 16.3839 149.311 16.3033 149.414 16.1419C149.531 15.9806 149.59 15.7826 149.59 15.5479V9.95994C149.59 9.29994 149.429 8.80127 149.106 8.46394C148.798 8.11194 148.358 7.93594 147.786 7.93594C146.965 7.93594 146.239 8.37594 145.608 9.25594C144.977 10.1359 144.662 10.7959 144.662 11.2359V15.4159C144.662 15.6506 144.669 15.8193 144.684 15.9219C144.713 16.0246 144.801 16.1273 144.948 16.2299C145.095 16.3326 145.322 16.3839 145.63 16.3839H146.026V16.9999H141.582V16.3839H141.934C142.33 16.3839 142.579 16.3179 142.682 16.1859C142.799 16.0539 142.858 15.8413 142.858 15.5479V8.94794C142.858 8.66927 142.763 8.47128 142.572 8.35394C142.396 8.22194 142.066 8.15594 141.582 8.15594V7.53994C141.875 7.53994 142.315 7.43727 142.902 7.23194C143.503 7.01194 143.958 6.80661 144.266 6.61594L144.662 6.52794V9.34394C144.999 8.41994 145.52 7.70861 146.224 7.20994C146.928 6.69661 147.786 6.43994 148.798 6.43994C149.326 6.43994 149.773 6.55727 150.14 6.79194C150.507 7.02661 150.771 7.32728 150.932 7.69394C151.211 8.32461 151.35 8.94794 151.35 9.56394V15.5039C151.35 15.7093 151.365 15.8633 151.394 15.9659C151.467 16.2446 151.775 16.3839 152.318 16.3839H152.714V16.9999Z" fill="#18311D"/>
<path d="M139.909 16.9998H136.081V16.3838H136.213C136.36 16.3838 136.485 16.3105 136.587 16.1638C136.69 16.0025 136.741 15.7972 136.741 15.5478V9.95984C136.741 8.61051 136.155 7.93584 134.981 7.93584C134.145 7.93584 133.405 8.37584 132.759 9.25584C132.129 10.1358 131.813 10.7958 131.813 11.2358V15.4158C131.813 15.6358 131.828 15.8045 131.857 15.9218C131.931 16.2298 132.239 16.3838 132.781 16.3838H133.221V16.9998H128.777V16.3838H129.085C129.481 16.3838 129.738 16.3178 129.855 16.1858C129.987 16.0392 130.053 15.8265 130.053 15.5478V2.47984C130.053 2.20117 129.958 2.00317 129.767 1.88584C129.577 1.75384 129.247 1.68784 128.777 1.68784V1.07184C129.085 1.07184 129.54 0.991173 130.141 0.82984C130.743 0.668506 131.168 0.499839 131.417 0.32384L131.813 0.23584V9.34384C132.576 7.40784 133.955 6.43984 135.949 6.43984C136.477 6.43984 136.925 6.55717 137.291 6.79184C137.673 7.02651 137.944 7.32717 138.105 7.69384C138.399 8.30984 138.545 8.93317 138.545 9.56384V15.5038C138.545 15.7092 138.56 15.8632 138.589 15.9658C138.648 16.2445 138.941 16.3838 139.469 16.3838H139.909V16.9998Z" fill="#18311D"/>
<path d="M121.423 17.3079C120.132 17.3079 119.054 16.8239 118.189 15.8559C117.323 14.8879 116.891 13.7586 116.891 12.4679C116.891 10.8253 117.507 9.40994 118.739 8.22194C119.985 7.03394 121.298 6.43994 122.677 6.43994C124.055 6.43994 125.163 6.93127 125.999 7.91394C126.849 8.88194 127.275 10.0039 127.275 11.2799C127.275 12.8786 126.681 14.2866 125.493 15.5039C124.319 16.7066 122.963 17.3079 121.423 17.3079ZM118.431 11.2799C118.431 12.6439 118.841 13.7806 119.663 14.6899C120.499 15.5846 121.43 16.0319 122.457 16.0319C123.498 16.0319 124.312 15.6433 124.899 14.8659C125.485 14.0886 125.779 13.2893 125.779 12.4679C125.779 11.2213 125.39 10.1359 124.613 9.21194C123.85 8.27327 122.919 7.80394 121.819 7.80394C120.719 7.80394 119.875 8.17794 119.289 8.92594C118.717 9.65927 118.431 10.4439 118.431 11.2799Z" fill="#18311D"/>
<path d="M109.933 21.7961L109.449 20.9601C110.065 20.5494 110.615 20.0434 111.099 19.4421C111.583 18.8408 111.825 18.2908 111.825 17.7921V3.2281C111.825 3.0081 111.811 2.83943 111.781 2.7221C111.752 2.60477 111.657 2.5021 111.495 2.4141C111.334 2.31143 111.092 2.2601 110.769 2.2601H110.065V1.6001H115.653V2.2601H114.817C114.495 2.2601 114.253 2.31143 114.091 2.4141C113.93 2.5021 113.835 2.60477 113.805 2.7221C113.776 2.83943 113.761 3.0081 113.761 3.2281V17.1321C113.761 18.6428 113.351 19.7281 112.529 20.3881C112.251 20.6081 112.001 20.7694 111.781 20.8721C111.561 20.9894 111.253 21.1361 110.857 21.3121C110.461 21.5028 110.153 21.6641 109.933 21.7961Z" fill="#18311D"/>
<path d="M103.771 8.90399L104.343 9.07999C104.065 9.73999 103.698 10.334 103.243 10.862C102.422 11.874 101.557 12.38 100.647 12.38C100.501 12.38 100.383 12.3653 100.295 12.336C100.266 13.2307 100.068 14.0153 99.7015 14.69C99.3348 15.3647 98.8581 15.8853 98.2715 16.252C97.1128 16.9853 95.7268 17.352 94.1135 17.352C92.5001 17.352 91.2168 16.978 90.2635 16.23C89.3248 15.482 88.8555 14.492 88.8555 13.26C88.8555 12.0133 89.2881 10.9867 90.1535 10.18C91.0188 9.35866 91.9941 8.85999 93.0795 8.68399C92.0675 8.63999 91.2755 8.33933 90.7035 7.78199C90.1461 7.20999 89.8675 6.51333 89.8675 5.69199C89.8675 4.34266 90.4101 3.27199 91.4955 2.47999C92.5955 1.68799 93.9008 1.29199 95.4115 1.29199C96.9221 1.29199 98.0955 1.57066 98.9315 2.12799L98.6675 4.67999L97.9635 4.63599C97.9635 3.28666 96.7755 2.61199 94.3995 2.61199C92.4048 2.61199 91.4075 3.41866 91.4075 5.03199C91.4075 5.80933 91.7888 6.45466 92.5515 6.96799C93.3288 7.48133 94.4141 7.75999 95.8075 7.80399L95.7415 8.55199C95.5801 8.61066 95.3235 8.69866 94.9715 8.81599C94.6195 8.91866 94.3481 9.00666 94.1575 9.07999C93.9668 9.13866 93.7175 9.23399 93.4095 9.36599C93.1015 9.48333 92.8595 9.60066 92.6835 9.71799C92.5221 9.83533 92.3315 9.99666 92.1115 10.202C91.9061 10.3927 91.7448 10.598 91.6275 10.818C91.3635 11.3607 91.2315 11.962 91.2315 12.622C91.2315 13.546 91.5835 14.3453 92.2875 15.02C92.9915 15.6947 93.9668 16.032 95.2135 16.032C96.4601 16.032 97.4795 15.746 98.2715 15.174C99.0635 14.602 99.4595 13.7 99.4595 12.468C99.4595 12.0573 99.0341 11.852 98.1835 11.852C97.6261 11.852 97.1641 11.9987 96.7975 12.292C96.4308 12.5853 96.0421 13.0693 95.6315 13.744L95.0155 13.568C96.1155 11.368 97.3768 10.268 98.7995 10.268C99.2248 10.268 99.7308 10.3487 100.317 10.51C100.919 10.6713 101.307 10.752 101.483 10.752C101.982 10.752 102.4 10.6053 102.737 10.312C103.075 10.0187 103.419 9.54933 103.771 8.90399Z" fill="#18311D"/>
<path d="M81.8225 16.9999H78.6545V15.2399C77.9211 16.0319 77.3125 16.5746 76.8285 16.8679C76.3445 17.1613 75.6845 17.3079 74.8485 17.3079C74.0271 17.3079 73.3818 17.1173 72.9125 16.7359C72.4578 16.3399 72.2305 15.7899 72.2305 15.0859C72.2305 14.3819 72.5311 13.6999 73.1325 13.0399C73.7485 12.3653 74.4598 11.8593 75.2665 11.5219C76.0878 11.1699 76.8065 10.9059 77.4225 10.7299C78.0385 10.5393 78.4491 10.4439 78.6545 10.4439V9.95994C78.6545 8.58127 78.0825 7.89194 76.9385 7.89194C76.1465 7.89194 75.4058 8.06061 74.7165 8.39794C74.0418 8.73527 73.5358 9.16794 73.1985 9.69594L72.7585 9.29994C73.7411 7.39327 75.4425 6.43994 77.8625 6.43994C78.4785 6.43994 78.9845 6.60861 79.3805 6.94594C79.7911 7.26861 80.0625 7.64994 80.1945 8.08994C80.3411 8.52994 80.4145 9.02127 80.4145 9.56394V15.5039C80.4145 15.6946 80.4291 15.8413 80.4585 15.9439C80.4878 16.0466 80.5758 16.1493 80.7225 16.2519C80.8838 16.3399 81.1185 16.3839 81.4265 16.3839H81.8225V16.9999ZM78.6545 14.0079V11.3239C77.5105 11.5439 76.4471 11.9839 75.4645 12.6439C74.4818 13.3039 73.9905 14.0226 73.9905 14.7999C73.9905 15.1079 74.1371 15.3793 74.4305 15.6139C74.7385 15.8339 75.1125 15.9439 75.5525 15.9439C76.0071 15.9439 76.5425 15.7459 77.1585 15.3499C77.7745 14.9393 78.2731 14.4919 78.6545 14.0079Z" fill="#18311D"/>
<path d="M70.473 16.9998H67.305V14.4478C66.997 15.2838 66.4984 15.9732 65.809 16.5158C65.1197 17.0438 64.2617 17.3078 63.235 17.3078C62.223 17.3078 61.4237 16.9778 60.837 16.3178C60.2504 15.6578 59.957 14.7705 59.957 13.6558C59.957 11.5878 60.4924 9.87184 61.563 8.50784C62.6484 7.12917 63.9757 6.43984 65.545 6.43984C65.897 6.43984 66.4837 6.58651 67.305 6.87984V2.47984C67.305 2.20117 67.2097 2.00317 67.019 1.88584C66.8284 1.75384 66.4984 1.68784 66.029 1.68784V1.07184C66.337 1.07184 66.7917 0.991173 67.393 0.82984C67.9944 0.668506 68.4197 0.499839 68.669 0.32384L69.065 0.23584V15.5038C69.065 15.7825 69.1164 15.9878 69.219 16.1198C69.3364 16.2372 69.6077 16.2958 70.033 16.2958H70.473V16.9998ZM67.305 12.6438V8.72784C67.2464 8.63984 67.1584 8.52251 67.041 8.37584C66.9237 8.22917 66.6744 8.03851 66.293 7.80384C65.9264 7.56917 65.545 7.45184 65.149 7.45184C64.0784 7.45184 63.1837 7.95784 62.465 8.96984C61.761 9.98184 61.409 11.2652 61.409 12.8198C61.409 13.6852 61.6657 14.4038 62.179 14.9758C62.707 15.5332 63.3744 15.8118 64.181 15.8118C65.0024 15.8118 65.7284 15.3718 66.359 14.4918C66.9897 13.5972 67.305 12.9812 67.305 12.6438Z" fill="#18311D"/>
<path d="M58.55 16.9999H54.766V16.3839H54.854C55.0153 16.3839 55.1473 16.3033 55.25 16.1419C55.3673 15.9806 55.426 15.7826 55.426 15.5479V9.95994C55.426 9.29994 55.2646 8.80127 54.942 8.46394C54.634 8.11194 54.194 7.93594 53.622 7.93594C52.8006 7.93594 52.0746 8.37594 51.444 9.25594C50.8133 10.1359 50.498 10.7959 50.498 11.2359V15.4159C50.498 15.6506 50.5053 15.8193 50.52 15.9219C50.5493 16.0246 50.6373 16.1273 50.784 16.2299C50.9306 16.3326 51.158 16.3839 51.466 16.3839H51.862V16.9999H47.418V16.3839H47.77C48.166 16.3839 48.4153 16.3179 48.518 16.1859C48.6353 16.0539 48.694 15.8413 48.694 15.5479V8.94794C48.694 8.66927 48.5986 8.47128 48.408 8.35394C48.232 8.22194 47.902 8.15594 47.418 8.15594V7.53994C47.7113 7.53994 48.1513 7.43727 48.738 7.23194C49.3393 7.01194 49.794 6.80661 50.102 6.61594L50.498 6.52794V9.34394C50.8353 8.41994 51.356 7.70861 52.06 7.20994C52.764 6.69661 53.622 6.43994 54.634 6.43994C55.162 6.43994 55.6093 6.55727 55.976 6.79194C56.3426 7.02661 56.6066 7.32728 56.768 7.69394C57.0466 8.32461 57.186 8.94794 57.186 9.56394V15.5039C57.186 15.7093 57.2006 15.8633 57.23 15.9659C57.3033 16.2446 57.6113 16.3839 58.154 16.3839H58.55V16.9999Z" fill="#18311D"/>
<path d="M45.7053 16.9999H42.5373V15.2399C41.8039 16.0319 41.1953 16.5746 40.7113 16.8679C40.2273 17.1613 39.5673 17.3079 38.7313 17.3079C37.9099 17.3079 37.2646 17.1173 36.7953 16.7359C36.3406 16.3399 36.1133 15.7899 36.1133 15.0859C36.1133 14.3819 36.4139 13.6999 37.0153 13.0399C37.6313 12.3653 38.3426 11.8593 39.1493 11.5219C39.9706 11.1699 40.6893 10.9059 41.3053 10.7299C41.9213 10.5393 42.3319 10.4439 42.5373 10.4439V9.95994C42.5373 8.58127 41.9653 7.89194 40.8213 7.89194C40.0293 7.89194 39.2886 8.06061 38.5993 8.39794C37.9246 8.73527 37.4186 9.16794 37.0813 9.69594L36.6413 9.29994C37.6239 7.39327 39.3253 6.43994 41.7453 6.43994C42.3613 6.43994 42.8673 6.60861 43.2633 6.94594C43.6739 7.26861 43.9453 7.64994 44.0773 8.08994C44.2239 8.52994 44.2973 9.02127 44.2973 9.56394V15.5039C44.2973 15.6946 44.3119 15.8413 44.3413 15.9439C44.3706 16.0466 44.4586 16.1493 44.6053 16.2519C44.7666 16.3399 45.0013 16.3839 45.3093 16.3839H45.7053V16.9999ZM42.5373 14.0079V11.3239C41.3933 11.5439 40.3299 11.9839 39.3473 12.6439C38.3646 13.3039 37.8733 14.0226 37.8733 14.7999C37.8733 15.1079 38.0199 15.3793 38.3133 15.6139C38.6213 15.8339 38.9953 15.9439 39.4353 15.9439C39.8899 15.9439 40.4253 15.7459 41.0413 15.3499C41.6573 14.9393 42.1559 14.4919 42.5373 14.0079Z" fill="#18311D"/>
<path d="M34.4826 16.9999H30.6546V16.3839H30.7426C30.9039 16.3839 31.0359 16.3033 31.1386 16.1419C31.2559 15.9806 31.3146 15.7826 31.3146 15.5479V9.95994C31.3146 9.37327 31.1679 8.88927 30.8746 8.50794C30.5959 8.12661 30.2293 7.93594 29.7746 7.93594C29.3346 7.93594 28.9239 8.03861 28.5426 8.24394C28.1759 8.44928 27.8753 8.69861 27.6406 8.99194C27.4206 9.28527 27.2226 9.59327 27.0466 9.91594C26.7533 10.4879 26.6066 10.9133 26.6066 11.1919V15.5039C26.6066 16.0906 26.9293 16.3839 27.5746 16.3839H27.9706V16.9999H24.1426V16.3839H24.2746C24.4066 16.3839 24.5239 16.3033 24.6266 16.1419C24.7439 15.9806 24.8026 15.7826 24.8026 15.5479V9.95994C24.8026 9.37327 24.6633 8.88927 24.3846 8.50794C24.1059 8.12661 23.7246 7.93594 23.2406 7.93594C22.7713 7.93594 22.3239 8.08994 21.8986 8.39794C21.4733 8.70594 21.1359 9.06528 20.8866 9.47594C20.3879 10.3119 20.1386 10.8986 20.1386 11.2359V15.4159C20.1386 15.6506 20.1459 15.8193 20.1606 15.9219C20.1899 16.0246 20.2779 16.1273 20.4246 16.2299C20.5713 16.3326 20.7986 16.3839 21.1066 16.3839H21.5026V16.9999H17.0586V16.3839H17.4106C17.8066 16.3839 18.0559 16.3179 18.1586 16.1859C18.2759 16.0539 18.3346 15.8413 18.3346 15.5479V8.94794C18.3346 8.66927 18.2393 8.47128 18.0486 8.35394C17.8726 8.22194 17.5426 8.15594 17.0586 8.15594V7.53994C17.3519 7.53994 17.7919 7.43727 18.3786 7.23194C18.9799 7.01194 19.4346 6.80661 19.7426 6.61594L20.1386 6.52794V9.34394C20.5639 8.34661 21.0699 7.61328 21.6566 7.14394C22.2579 6.67461 23.0719 6.43994 24.0986 6.43994C24.5679 6.43994 24.9786 6.54261 25.3306 6.74794C25.6826 6.93861 25.9466 7.19528 26.1226 7.51794C26.4159 8.08994 26.5773 8.69861 26.6066 9.34394C26.9439 8.36128 27.4206 7.63527 28.0366 7.16594C28.6526 6.68194 29.4813 6.43994 30.5226 6.43994C31.0506 6.43994 31.4979 6.55727 31.8646 6.79194C32.2313 7.02661 32.4953 7.32728 32.6566 7.69394C32.9353 8.32461 33.0746 8.94794 33.0746 9.56394V15.5039C33.0746 15.7093 33.0893 15.8633 33.1186 15.9659C33.1919 16.2446 33.4999 16.3839 34.0426 16.3839H34.4826V16.9999Z" fill="#18311D"/>
<path d="M15.8632 17.0001H10.2312V16.3841H10.9352C11.5806 16.3841 11.9032 16.1788 11.9032 15.7681C11.9032 15.7094 11.8299 15.4601 11.6832 15.0201L10.1872 11.1041H4.64322L3.19122 14.8441C3.19122 14.8734 3.13989 15.0568 3.03722 15.3941C2.93455 15.7168 2.88322 15.9441 2.88322 16.0761C2.88322 16.1934 2.96389 16.2741 3.12522 16.3181C3.28655 16.3621 3.63122 16.3841 4.15922 16.3841H4.51122V17.0001H0.199219V16.3841H0.507219C0.991219 16.3841 1.34322 16.3034 1.56322 16.1421C1.78322 15.9661 1.97389 15.6801 2.13522 15.2841L6.97522 2.6561C7.04855 2.64144 7.18055 2.53877 7.37122 2.3481C7.56189 2.14277 7.73789 1.93744 7.89922 1.7321C8.06055 1.5121 8.14122 1.38744 8.14122 1.3581C8.14122 1.32877 8.13389 1.30677 8.11922 1.2921L8.42722 1.2041L13.8392 15.3721C14.0006 15.7094 14.1619 15.9661 14.3232 16.1421C14.4992 16.3034 14.7486 16.3841 15.0712 16.3841H15.8632V17.0001ZM9.79122 10.1801L7.41522 3.8881L4.99522 10.1801H9.79122Z" fill="#18311D"/>
</svg>
