<svg width="17" height="17" viewBox="0 0 17 17" fill="none" xmlns="http://www.w3.org/2000/svg">
<path d="M15.5627 10.1153C15.567 10.3426 15.7503 10.5259 15.9776 10.5302C16.2174 10.5347 16.4129 10.3391 16.4084 10.0993L16.3048 4.59673C16.2643 2.44657 14.531 0.713242 12.3808 0.672754L6.87822 0.569136C6.63844 0.564621 6.44288 0.760177 6.4474 0.999961C6.45168 1.22731 6.63495 1.41058 6.8623 1.41486L8.87902 1.45283C11.0987 1.49463 12.1815 4.18014 10.6117 5.74993L0.988784 15.3729C0.818708 15.543 0.818708 15.8187 0.988783 15.9888C1.15886 16.1589 1.43461 16.1589 1.60468 15.9888L11.2276 6.36583C12.7974 4.79604 15.4829 5.87891 15.5247 8.09853L15.5627 10.1153Z" fill="#FBFBFB"/>
</svg>
