<svg width="32" height="32" viewBox="0 0 32 32" fill="none" xmlns="http://www.w3.org/2000/svg">
<path d="M17.0629 19.0362C17.0629 19.0362 23.7784 21.9496 28.5245 31.241C28.7707 31.724 28.181 32.2069 27.6944 31.9077C25.0265 30.2699 19.227 26.9523 11.1661 23.6871C5.29218 21.3039 2.21209 20.1071 0.649144 19.5191C-0.100841 19.2357 -0.232517 18.3065 0.420141 17.8656C2.09186 16.7317 5.75019 15.0414 13.2042 14.2907C13.2042 14.2907 11.0688 11.1936 6.4601 9.19356C6.09942 9.03608 6.18529 8.54788 6.58032 8.51639C9.35698 8.30116 15.5916 8.39565 19.9026 12.7789C22.5476 15.6293 23.5208 18.6162 23.8758 20.2225C23.9731 20.6792 23.4464 21.0309 23.0056 20.8052C21.7575 20.1595 19.5476 19.2094 17.0687 19.0362H17.0629Z" fill="#055346"/>
<path d="M26.0923 12.2646C26.0752 11.7869 25.9034 11.3354 25.5599 10.9155C23.6592 8.56901 20.9455 6.506 17.8997 5.56636C17.6307 5.48237 17.2242 5.39313 17.0181 5.65035C16.7719 5.96006 16.5372 6.26978 16.3082 6.58474C16.2738 6.63198 16.3254 6.69498 16.3883 6.67398C16.6918 6.56374 16.8521 6.67398 17.1269 6.76322C18.4952 7.22517 19.7031 7.92334 20.7508 8.85773C20.7566 8.86298 20.7566 8.87348 20.7508 8.87872C20.7508 8.88397 20.7337 8.88922 20.7279 8.87872C19.497 8.28554 18.2089 7.85509 16.9265 7.37215C16.7147 7.29341 15.8502 6.8997 16.188 6.56374C16.3654 6.39051 16.4971 6.20678 16.5887 6.01256C16.6002 5.98631 16.5944 5.96006 16.5773 5.93906C15.3807 4.63196 15.1288 3.0309 15.8845 1.46658C16.2624 0.679169 17.3959 0.159479 18.2662 0.0334938C18.5753 -0.0137508 19.0047 -0.00850137 19.56 0.0334938C20.7337 0.133232 21.6382 0.448196 22.6859 0.700167C22.8119 0.731663 22.9493 0.736913 23.1153 0.726414C24.3634 0.626675 25.7832 1.20411 26.6935 1.90753C27.5522 2.56895 28.1018 3.57159 28.9949 4.22776C30.8041 5.55586 32.0922 7.63462 31.9949 9.80262C31.9548 10.7528 31.0159 11.3459 30.0884 11.4614C29.4358 11.5402 28.514 11.3249 27.8442 11.1727C27.5236 11.0992 27.2373 10.9522 26.9797 10.7318C26.9568 10.7108 26.9396 10.716 26.9225 10.737C26.5446 11.3197 27.306 11.8079 27.7812 12.0231C28.6457 12.4116 29.951 12.2593 30.7354 11.8236C31.0216 11.6662 31.3193 11.3879 31.6285 10.989C31.6457 10.968 31.68 10.9837 31.6743 11.0047C31.6457 11.2515 31.3651 11.5769 31.1876 11.7606C29.9797 12.9838 27.9587 12.5481 26.4931 12.1596C26.3442 12.1176 26.1553 12.1281 26.0809 12.2593M27.2545 6.0808C27.4492 5.84982 27.6667 5.31439 27.6782 4.95743C27.6954 4.40624 27.6839 3.85505 27.4377 3.34586C26.911 2.25924 26.0236 1.56107 24.7641 1.2566C24.2832 1.14112 23.8538 1.10437 23.476 1.15162C23.0122 1.20936 22.0619 1.49808 21.9302 1.98627C21.8672 2.23299 22.0733 2.61095 22.1535 2.87867C22.1649 2.91016 22.2165 2.91016 22.2222 2.87867C22.3081 2.32223 22.5943 2.06501 23.0752 1.76579C23.9111 1.2461 24.9301 1.45083 25.7374 1.90228C26.4645 2.31173 27.203 3.46135 27.3404 4.22251C27.432 4.7422 26.9511 5.22515 26.5332 5.49811C25.4969 6.18579 24.5466 6.8892 23.4187 7.00994C23.2928 7.02044 23.2183 7.07293 23.1954 7.15692C23.1897 7.18317 23.2012 7.20942 23.2298 7.21992C24.7355 7.86034 26.2984 7.19892 27.2488 6.07555M18.9474 0.421949C18.9474 0.421949 18.9703 0.379954 18.9474 0.379954C18.3864 0.269717 17.4532 0.663421 16.9837 1.04138C16.2395 1.63981 16.1078 2.28548 16.5143 3.09389C16.5257 3.12014 16.5544 3.13064 16.5887 3.12539C16.6173 3.11489 16.6345 3.08864 16.6288 3.06239C16.354 1.61881 17.6936 0.852399 18.9532 0.427198M20.3959 1.07812C20.3959 1.07812 20.4131 1.05188 20.3959 1.04663C20.2871 0.994133 20.1726 0.93639 20.0409 0.962637C19.6459 1.03088 18.7413 1.20936 18.5696 1.58207C18.2662 2.24349 18.3062 3.25662 18.9818 3.73957C19.0047 3.75532 19.0219 3.75007 19.0276 3.72382C19.1593 3.23038 19.3196 2.74743 19.5085 2.27499C19.6001 2.04401 19.7661 1.89703 19.9379 1.7133C19.9722 1.67655 19.9608 1.66606 19.915 1.67655C19.2222 1.80779 18.9589 2.25924 18.644 2.75268C18.6039 2.81567 18.5009 2.79993 18.478 2.73168C18.4436 2.60045 18.5925 2.35373 18.6612 2.22774C18.9818 1.64506 19.686 1.27235 20.3902 1.08862M28.1133 9.83936C28.8289 9.88136 29.1667 9.42466 29.6648 9.0572C30.0026 8.81048 30.4548 8.52702 30.6724 8.24355C31.0445 7.7501 30.9815 7.08868 30.6896 6.56899C30.1858 5.67134 29.4587 5.13591 28.4911 4.62147C28.474 4.61097 28.4625 4.62147 28.4625 4.63721C28.4625 4.7842 28.4911 4.89443 28.5598 4.95743C28.8404 5.21465 29.3556 5.51386 29.6476 5.78158C30.0026 6.1018 30.2774 6.464 30.4835 6.86296C30.8384 7.56638 30.4491 8.37478 29.6133 8.56901C28.1305 8.91022 26.4244 8.52177 24.9416 8.17531C24.9359 8.17531 24.9244 8.17531 24.9244 8.1858C24.9244 8.19105 24.9244 8.20155 24.9301 8.20155C25.2393 8.35379 25.5141 8.49027 25.7603 8.6215C26.4473 8.98896 27.3175 9.78687 28.119 9.83411M21.7813 2.79468C21.7527 2.68444 21.7012 2.5637 21.6325 2.43772C21.6039 2.39047 21.581 2.39047 21.5638 2.44297C21.1516 3.96004 22.1878 4.7632 23.2756 5.73959C23.2928 5.75533 23.3042 5.75533 23.3099 5.72909C23.3099 5.71334 23.3099 5.70284 23.2928 5.68709C22.5542 5.03092 22.0275 3.75532 21.7813 2.78943M20.8768 3.70807C20.8024 3.56109 20.7566 3.56634 20.7394 3.72907C20.6363 4.55322 21.1573 4.97842 21.7241 5.55061C21.7356 5.56111 21.747 5.56111 21.7584 5.55061C21.7699 5.54536 21.7756 5.53486 21.7699 5.52436L20.8825 3.70807H20.8768Z" fill="#EF7A54"/>
<path d="M27.1739 5.88659C27.2082 5.86034 27.2082 5.83409 27.1853 5.80785C27.1739 5.79735 27.1567 5.7921 27.1395 5.79735C27.0422 5.82884 27.0079 5.89184 27.0308 5.99157C27.0365 6.02307 27.088 6.02832 27.1052 6.00207L27.1395 5.93383C27.1395 5.93383 27.1624 5.90234 27.1796 5.88659H27.1739Z" fill="#EF7A54"/>
<path d="M15.449 7.78164C15.5693 7.65565 15.7181 7.63465 15.8899 7.71339C16.554 8.02311 17.2124 8.41681 17.8536 8.86301C19.6112 10.0914 21.2485 11.4405 22.7771 12.9103C23.3954 13.5035 23.9622 14.1334 24.4775 14.8001C24.4947 14.8211 24.5176 14.8316 24.5462 14.8263C24.9813 14.7581 24.6263 14.0442 24.4889 13.8342C23.5157 12.3749 21.7524 11.01 20.2524 9.97588C18.9242 9.06249 17.8708 8.31707 16.6227 7.56116C16.2105 7.31444 15.4834 6.89449 14.9796 7.18845C14.6418 7.38268 15.0884 7.83413 15.3231 7.96011C15.346 7.97061 15.3689 7.97061 15.3861 7.94962C15.4147 7.91812 15.4261 7.88137 15.4319 7.83938C15.4319 7.81313 15.4433 7.79213 15.4605 7.77114L15.449 7.78164Z" fill="#EF7A54"/>
</svg>
