<svg width="40" height="40" viewBox="0 0 40 40" fill="none" xmlns="http://www.w3.org/2000/svg">
<path fill-rule="evenodd" clip-rule="evenodd" d="M19.9996 22.4916C17.4846 22.4916 15.438 20.4466 15.438 17.9316C15.438 15.4166 17.4846 13.37 19.9996 13.37C22.5146 13.37 24.5596 15.4166 24.5596 17.9316C24.5596 20.4466 22.5146 22.4916 19.9996 22.4916ZM29.3563 7.7533C26.8046 5.12163 23.4813 3.67163 19.9996 3.67163C16.5146 3.67163 13.1913 5.12163 10.638 7.75496C8.04629 10.4283 6.62296 14.02 6.73463 17.61C7.04963 27.7833 19.033 35.705 19.5446 36.0366L19.993 36.3283L20.4463 36.0416C20.9563 35.7183 32.948 27.9883 33.2646 17.6083C33.3746 14.02 31.9496 10.4266 29.3563 7.7533Z" fill="#EF7A54"/>
</svg>
