<svg width="256" height="256" viewBox="0 0 256 256" fill="none" xmlns="http://www.w3.org/2000/svg">
<path d="M135.771 152.188C135.771 152.188 184.846 175.399 219.53 249.42C221.329 253.268 217.019 257.115 213.463 254.731C193.967 241.683 151.585 215.253 92.6779 189.241C49.7525 170.255 27.2439 160.72 15.8222 156.036C10.3414 153.778 9.37918 146.375 14.1487 142.863C26.3653 133.829 53.0995 120.363 107.572 114.383C107.572 114.383 91.9667 89.7092 58.2874 73.7757C55.6516 72.5211 56.2792 68.6318 59.166 68.3809C79.4572 66.6663 125.018 67.4191 156.522 102.339C175.851 125.047 182.964 148.843 185.557 161.64C186.269 165.278 182.42 168.08 179.198 166.282C170.078 161.138 153.928 153.569 135.813 152.188H135.771Z" fill="#055346"/>
<path d="M201.749 98.241C201.623 94.4354 200.368 90.8389 197.858 87.4933C183.968 68.7997 164.137 52.3644 141.879 44.8786C139.913 44.2094 136.942 43.4985 135.436 45.5477C133.637 48.0151 131.922 50.4825 130.248 52.9917C129.997 53.368 130.374 53.8699 130.834 53.7026C133.051 52.8244 134.223 53.7026 136.231 54.4135C146.23 58.0937 155.058 63.6558 162.714 71.0998C162.756 71.1416 162.756 71.2252 162.714 71.2671C162.714 71.3089 162.589 71.3507 162.547 71.2671C153.552 66.5414 144.138 63.1121 134.767 59.2647C133.219 58.6374 126.901 55.5009 129.37 52.8244C130.667 51.4443 131.629 49.9806 132.298 48.4333C132.382 48.2242 132.34 48.0151 132.215 47.8478C123.471 37.4346 121.63 24.6794 127.152 12.2171C129.914 5.94403 138.198 1.80384 144.557 0.800159C146.816 0.423778 149.954 0.465598 154.012 0.800159C162.589 1.59474 169.199 4.10395 176.856 6.11131C177.776 6.36223 178.78 6.40405 179.993 6.32041C189.114 5.52583 199.49 10.126 206.142 15.7299C212.417 20.9993 216.434 28.9869 222.961 34.2144C236.181 44.7949 245.595 61.3557 244.883 78.6274C244.591 86.1968 237.729 90.9225 230.952 91.8426C226.182 92.4699 219.446 90.7552 214.551 89.5424C212.208 88.957 210.116 87.786 208.234 86.0296C208.066 85.8623 207.941 85.9041 207.815 86.0714C205.054 90.7134 210.618 94.6027 214.091 96.3173C220.408 99.412 229.947 98.1992 235.679 94.7281C237.771 93.4735 239.947 91.2571 242.206 88.0787C242.331 87.9115 242.582 88.0369 242.541 88.2042C242.331 90.1697 240.281 92.7626 238.984 94.2263C230.157 103.97 215.388 100.499 204.678 97.4046C203.59 97.0701 202.209 97.1537 201.665 98.1992M210.242 48.9769C211.664 47.1368 213.254 42.8712 213.338 40.0274C213.463 35.6363 213.38 31.2452 211.581 27.1887C207.732 18.5319 201.247 12.9698 192.043 10.5442C188.528 9.6242 185.39 9.33146 182.629 9.70784C179.24 10.1679 172.295 12.468 171.333 16.3572C170.873 18.3228 172.379 21.3338 172.965 23.4667C173.048 23.7176 173.425 23.7176 173.467 23.4667C174.094 19.0337 176.186 16.9845 179.7 14.6008C185.809 10.4606 193.256 12.0916 199.155 15.6881C204.468 18.9501 209.865 28.1087 210.869 34.1726C211.539 38.3128 208.025 42.1603 204.97 44.3349C197.398 49.8133 190.453 55.4172 182.211 56.3791C181.29 56.4627 180.746 56.8809 180.579 57.5501C180.537 57.7592 180.621 57.9683 180.83 58.0519C191.833 63.154 203.255 57.8846 210.2 48.9351M149.536 3.89485C149.536 3.89485 149.703 3.56029 149.536 3.56029C145.435 2.68206 138.616 5.81857 135.185 8.82962C129.746 13.5971 128.784 18.741 131.755 25.1813C131.838 25.3904 132.047 25.474 132.298 25.4322C132.508 25.3486 132.633 25.1395 132.591 24.9304C130.583 13.4298 140.373 7.3241 149.577 3.93667M160.12 9.12236C160.12 9.12236 160.246 8.91326 160.12 8.87144C159.326 8.45324 158.489 7.99322 157.527 8.20232C154.64 8.74598 148.029 10.1679 146.774 13.1371C144.557 18.4064 144.85 26.4777 149.787 30.3252C149.954 30.4506 150.079 30.4088 150.121 30.1997C151.084 26.2686 152.255 22.4212 153.636 18.6573C154.305 16.8173 155.518 15.6463 156.773 14.1826C157.024 13.8899 156.941 13.8062 156.606 13.8899C151.544 14.9354 149.619 18.5319 147.318 22.463C147.025 22.9648 146.272 22.8394 146.105 22.2957C145.854 21.2502 146.942 19.2846 147.444 18.281C149.787 13.6389 154.933 10.6697 160.079 9.206M216.518 78.9201C221.747 79.2547 224.216 75.6163 227.856 72.6889C230.324 70.7234 233.629 68.4651 235.219 66.2068C237.938 62.2757 237.478 57.0064 235.345 52.8662C231.663 45.715 226.349 41.4493 219.279 37.3509C219.153 37.2673 219.07 37.3509 219.07 37.4764C219.07 38.6474 219.279 39.5256 219.781 40.0274C221.831 42.0766 225.596 44.4604 227.73 46.5932C230.324 49.1442 232.332 52.0298 233.838 55.2081C236.432 60.812 233.587 67.2523 227.479 68.7997C216.643 71.518 204.175 68.4233 193.34 65.6632C193.298 65.6632 193.214 65.6632 193.214 65.7468C193.214 65.7886 193.214 65.8723 193.256 65.8723C195.515 67.085 197.523 68.1724 199.322 69.2179C204.343 72.1453 210.702 78.5019 216.559 78.8783M170.245 22.7975C170.036 21.9193 169.659 20.9575 169.157 19.9538C168.948 19.5774 168.781 19.5774 168.655 19.9956C165.643 32.0816 173.216 38.4801 181.165 46.2586C181.29 46.3841 181.374 46.3841 181.416 46.175C181.416 46.0495 181.416 45.9659 181.29 45.8404C175.893 40.6129 172.044 30.4506 170.245 22.7557M163.635 30.0742C163.091 28.9033 162.756 28.9451 162.631 30.2415C161.878 36.8073 165.685 40.1947 169.827 44.7531C169.91 44.8367 169.994 44.8367 170.078 44.7531C170.161 44.7113 170.203 44.6276 170.161 44.544L163.677 30.0742H163.635Z" fill="#EF7A54"/>
<path d="M209.655 47.4296C209.906 47.2205 209.906 47.0114 209.739 46.8023C209.655 46.7187 209.53 46.6769 209.404 46.7187C208.693 46.9696 208.442 47.4714 208.609 48.266C208.651 48.5169 209.028 48.5588 209.153 48.3497L209.404 47.806C209.404 47.806 209.572 47.5551 209.697 47.4296H209.655Z" fill="#EF7A54"/>
<path d="M123.973 62.5266C124.852 61.5229 125.939 61.3556 127.195 61.9829C132.048 64.4503 136.859 67.5868 141.545 71.1415C154.389 80.9274 166.355 91.6752 177.525 103.385C182.044 108.111 186.186 113.129 189.951 118.44C190.076 118.607 190.244 118.691 190.453 118.649C193.633 118.106 191.039 112.418 190.035 110.745C182.922 99.1192 170.036 88.246 159.075 80.0074C149.368 72.7307 141.67 66.7922 132.55 60.7701C129.537 58.8046 124.224 55.459 120.542 57.8009C118.074 59.3483 121.337 62.9448 123.053 63.9485C123.22 64.0321 123.387 64.0321 123.513 63.8648C123.722 63.6139 123.806 63.3212 123.848 62.9866C123.848 62.7775 123.931 62.6102 124.057 62.4429L123.973 62.5266Z" fill="#EF7A54"/>
</svg>
