<svg width="355" height="71" viewBox="0 0 355 71" fill="none" xmlns="http://www.w3.org/2000/svg">
<path d="M297.215 20.7578C301.174 23.2936 303.447 27.654 304.034 33.8389H290.814C290.628 32.138 290.149 30.7928 289.376 29.8032C287.922 28.0096 285.448 27.1128 281.954 27.1128C279.078 27.1128 277.022 27.5612 275.785 28.458C274.579 29.3548 273.975 30.4062 273.975 31.6123C273.975 33.1276 274.625 34.2254 275.924 34.9058C277.223 35.617 281.815 36.8385 289.701 38.5703C294.958 39.8073 298.901 41.6782 301.529 44.1831C304.127 46.7189 305.426 49.8887 305.426 53.6924C305.426 58.7021 303.555 62.7996 299.813 65.9849C296.102 69.1392 290.35 70.7163 282.557 70.7163C274.609 70.7163 268.734 69.0464 264.93 65.7065C261.157 62.3358 259.271 58.0527 259.271 52.8574H272.677C272.955 55.2077 273.558 56.8776 274.486 57.8672C276.125 59.6299 279.155 60.5112 283.578 60.5112C286.175 60.5112 288.232 60.1247 289.747 59.3516C291.293 58.5785 292.066 57.4188 292.066 55.8726C292.066 54.3882 291.448 53.2594 290.211 52.4863C288.974 51.7132 284.382 50.3835 276.434 48.4971C270.713 47.0745 266.677 45.2964 264.327 43.1626C261.977 41.0597 260.802 38.0291 260.802 34.0708C260.802 29.4012 262.626 25.3965 266.275 22.0566C269.955 18.6859 275.12 17.0005 281.768 17.0005C288.077 17.0005 293.226 18.2529 297.215 20.7578Z" fill="white"/>
<path d="M249.318 24.8398C253.586 30.1898 255.72 36.5138 255.72 43.812C255.72 51.2339 253.586 57.5889 249.318 62.877C245.051 68.1341 238.572 70.7627 229.882 70.7627C221.192 70.7627 214.714 68.1341 210.446 62.877C206.179 57.5889 204.045 51.2339 204.045 43.812C204.045 36.5138 206.179 30.1898 210.446 24.8398C214.714 19.4899 221.192 16.8149 229.882 16.8149C238.572 16.8149 245.051 19.4899 249.318 24.8398ZM229.836 27.9941C225.97 27.9941 222.986 29.3703 220.883 32.1226C218.811 34.8439 217.775 38.7404 217.775 43.812C217.775 48.8836 218.811 52.7956 220.883 55.5479C222.986 58.3001 225.97 59.6763 229.836 59.6763C233.701 59.6763 236.67 58.3001 238.742 55.5479C240.814 52.7956 241.85 48.8836 241.85 43.812C241.85 38.7404 240.814 34.8439 238.742 32.1226C236.67 29.3703 233.701 27.9941 229.836 27.9941Z" fill="white"/>
<path d="M153.875 32.3545C152.761 29.9115 150.581 28.6899 147.334 28.6899C143.561 28.6899 141.026 29.9115 139.727 32.3545C139.015 33.7461 138.66 35.818 138.66 38.5703V69H125.254V18.5312H138.103V25.9067C139.742 23.2782 141.288 21.4072 142.742 20.2939C145.309 18.3148 148.633 17.3252 152.715 17.3252C156.581 17.3252 159.704 18.1756 162.085 19.8765C164.002 21.4536 165.456 23.4792 166.446 25.9531C168.177 22.9844 170.327 20.8042 172.893 19.4126C175.615 18.021 178.645 17.3252 181.985 17.3252C184.212 17.3252 186.407 17.7581 188.572 18.624C190.737 19.4899 192.7 21.0052 194.463 23.1699C195.886 24.9326 196.844 27.0973 197.339 29.6641C197.648 31.3649 197.803 33.8543 197.803 37.1323L197.71 69H184.165V36.8076C184.165 34.8903 183.856 33.3132 183.238 32.0762C182.062 29.7259 179.898 28.5508 176.743 28.5508C173.094 28.5508 170.574 30.0661 169.182 33.0967C168.471 34.7048 168.115 36.6375 168.115 38.895V69H154.802V38.895C154.802 35.8953 154.493 33.7152 153.875 32.3545Z" fill="white"/>
<path d="M118.734 54.1562C118.394 57.1559 116.832 60.202 114.049 63.2944C109.72 68.2114 103.658 70.6699 95.8653 70.6699C89.433 70.6699 83.7584 68.598 78.8414 64.4541C73.9244 60.3102 71.4659 53.5687 71.4659 44.2295C71.4659 35.4779 73.677 28.7673 78.0992 24.0977C82.5523 19.4281 88.3198 17.0933 95.4015 17.0933C99.6072 17.0933 103.395 17.8818 106.766 19.459C110.137 21.0361 112.92 23.5256 115.116 26.9272C117.095 29.9269 118.378 33.4059 118.966 37.3643C119.306 39.6836 119.445 43.0234 119.383 47.3838H84.7789C84.9645 52.4554 86.5571 56.0117 89.5567 58.0527C91.3813 59.3206 93.5769 59.9546 96.1437 59.9546C98.865 59.9546 101.076 59.1815 102.777 57.6353C103.705 56.8003 104.524 55.6406 105.235 54.1562H118.734ZM105.653 38.6631C105.436 35.1686 104.37 32.5246 102.452 30.731C100.566 28.9064 98.2156 27.9941 95.4015 27.9941C92.3399 27.9941 89.9588 28.9528 88.2579 30.8701C86.588 32.7874 85.5366 35.3851 85.1036 38.6631H105.653Z" fill="white"/>
<path d="M13.3174 69H0.00439453V0.625977H20.7856L33.2173 54.3882L45.5562 0.625977H66.1055V69H52.7925V22.7524C52.7925 21.4227 52.8079 19.5672 52.8389 17.186C52.8698 14.7739 52.8853 12.9185 52.8853 11.6196L39.9434 69H26.0737L13.2246 11.6196C13.2246 12.9185 13.2401 14.7739 13.271 17.186C13.3019 19.5672 13.3174 21.4227 13.3174 22.7524V69Z" fill="white"/>
<path d="M332.5 0L338.577 16.423L355 22.5L338.577 28.577L332.5 45L326.423 28.577L310 22.5L326.423 16.423L332.5 0Z" fill="#7F2BFF"/>
</svg>
