<svg width="45" height="48" viewBox="0 0 45 48" fill="none" xmlns="http://www.w3.org/2000/svg">
<path d="M43.746 0L0.825397 0C0.363126 0 0 0.377093 0 0.857143L0 6.85714L25.5873 6.85714C25.8019 6.85714 26.0165 6.94284 26.165 7.11422L29.2356 10.2857L44.5714 10.2857V0.857143C44.5714 0.377093 44.2083 0 43.746 0ZM32.1905 6.85714C31.7282 6.85714 31.3651 6.47995 31.3651 6C31.3651 5.51995 31.7282 5.14286 32.1905 5.14286C32.6527 5.14286 33.0159 5.51995 33.0159 6C33.0159 6.47995 32.6527 6.85714 32.1905 6.85714ZM35.4921 6.85714C35.0298 6.85714 34.6667 6.47995 34.6667 6C34.6667 5.51995 35.0298 5.14286 35.4921 5.14286C35.9543 5.14286 36.3175 5.51995 36.3175 6C36.3175 6.47995 35.9543 6.85714 35.4921 6.85714ZM38.7937 6.85714C38.3314 6.85714 37.9683 6.47995 37.9683 6C37.9683 5.51995 38.3314 5.14286 38.7937 5.14286C39.2559 5.14286 39.619 5.51995 39.619 6C39.619 6.47995 39.2559 6.85714 38.7937 6.85714Z" fill="#171D2F"/>
<path d="M28.3112 11.1157L25.2406 8L0 8L0 39.1579C0 39.6294 0.363126 40 0.825397 40H10.4496L10.2184 39.9326C9.26093 39.68 8.5511 38.8715 8.40258 37.8779C8.2044 36.4968 8.2044 35.082 8.40258 33.6842C8.5511 32.7073 9.26093 31.899 10.1688 31.6631L10.7302 31.4948C10.8623 31.141 10.9942 30.821 11.1429 30.4842L10.8788 30.0126C10.4 29.1705 10.433 28.1095 11.0273 27.2337C11.8527 26.1221 12.8102 25.1453 13.9492 24.2694C14.3784 23.9663 14.8737 23.8148 15.3854 23.8148C15.8146 23.8148 16.2439 23.9326 16.5739 24.1179L17.1022 24.4211C17.4159 24.2694 17.7295 24.1347 18.0597 24.0169L18.2412 23.3431C18.5384 22.4505 19.3143 21.7768 20.2387 21.6252C20.9155 21.5242 21.5924 21.4737 22.2857 21.4737C22.979 21.4737 23.6559 21.5242 24.3492 21.6252C25.2902 21.7768 26.0825 22.4842 26.3302 23.4105L26.4952 24C26.8254 24.1347 27.1556 24.2694 27.4692 24.4211L27.9479 24.1515C28.3276 23.9326 28.7568 23.8148 29.186 23.8148C29.6978 23.8148 30.193 23.9663 30.6718 24.3031C31.7613 25.1453 32.7187 26.1221 33.5772 27.2842C34.1384 28.1095 34.1714 29.1705 33.7257 29.9621L33.4286 30.501C33.5772 30.821 33.7092 31.1579 33.8413 31.4948L34.4026 31.6631C35.327 31.9158 36.0203 32.7242 36.1688 33.7011C36.367 35.082 36.367 36.4968 36.1688 37.8947C36.0203 38.8547 35.327 39.6631 34.419 39.9158L34.1384 40H43.746C44.2083 40 44.5714 39.6294 44.5714 39.1579L44.5714 11.3684L28.8889 11.3684C28.6743 11.3684 28.4597 11.2842 28.3112 11.1157Z" fill="#171D2F"/>
<path d="M34.1531 37.2574C34.3292 36.0508 34.3292 34.8107 34.1531 33.6039C34.1052 33.2855 33.8813 33.0174 33.5934 32.9336L32.2179 32.5147C31.9939 31.6934 31.69 30.9058 31.2741 30.1348L31.9619 28.8276C32.1219 28.5428 32.0899 28.1908 31.914 27.9226C31.2102 26.9506 30.3784 26.0791 29.4507 25.3417C29.1948 25.1574 28.8589 25.1239 28.587 25.2915L27.3394 26.0121C26.6037 25.5764 25.8519 25.258 25.0682 25.0233L24.6683 23.5821C24.5884 23.2804 24.3325 23.0457 24.0286 22.9954C22.877 22.8111 21.6934 22.8111 20.5417 22.9954C20.2378 23.0457 19.9819 23.2804 19.886 23.5821L19.4861 25.0233C18.7184 25.258 17.9666 25.5764 17.2309 26.0121L15.9833 25.2915C15.7114 25.1239 15.3755 25.1574 15.1196 25.3417C14.1919 26.0791 13.3601 26.9506 12.6564 27.9226C12.4804 28.1908 12.4484 28.5428 12.6084 28.8276L13.2962 30.1348C12.8803 30.889 12.5764 31.6934 12.3525 32.5147L10.993 32.9336C10.689 33.0174 10.4651 33.2855 10.4172 33.6039C10.2412 34.8107 10.2412 36.0508 10.4172 37.2574C10.4651 37.5758 10.689 37.844 10.993 37.9278L12.3525 38.3468C12.5764 39.168 12.8803 39.9724 13.2962 40.7266L12.6084 42.0338C12.4484 42.3187 12.4804 42.6707 12.6564 42.9388C13.3601 43.9108 14.1919 44.7822 15.1196 45.5196C15.3755 45.7041 15.7114 45.7375 15.9833 45.5699L17.2309 44.8493C17.9666 45.2851 18.7184 45.6035 19.4861 45.838L19.886 47.2794C19.9819 47.5811 20.2378 47.8157 20.5417 47.8659C21.1176 47.9497 21.7094 48 22.2852 48C22.8609 48 23.4527 47.9497 24.0286 47.8659C24.3325 47.8157 24.5884 47.5811 24.6683 47.2794L25.0682 45.838C25.8519 45.6035 26.6037 45.2851 27.3394 44.8493L28.587 45.5699C28.8589 45.7375 29.1948 45.7041 29.4507 45.5196C30.3784 44.7822 31.2102 43.9108 31.914 42.9388C32.0899 42.6707 32.1219 42.3187 31.9619 42.0338L31.2741 40.7266C31.69 39.9557 31.9939 39.168 32.2179 38.3468L33.5934 37.9278C33.8813 37.844 34.1052 37.5758 34.1531 37.2574ZM22.2852 40.1735C19.79 40.1735 17.7586 38.0451 17.7586 35.4307C17.7586 32.8163 19.79 30.6879 22.2852 30.6879C24.7803 30.6879 26.8117 32.8163 26.8117 35.4307C26.8117 38.0451 24.7803 40.1735 22.2852 40.1735Z" fill="#171D2F"/>
<path d="M22.2849 32C20.708 32 19.4277 33.5363 19.4277 35.4286C19.4277 37.3209 20.708 38.8571 22.2849 38.8571C23.8618 38.8571 25.142 37.3209 25.142 35.4286C25.142 33.5363 23.8618 32 22.2849 32Z" fill="#171D2F"/>
</svg>
