<svg width="218" height="116" viewBox="0 0 218 116" fill="none" xmlns="http://www.w3.org/2000/svg">
<g clip-path="url(#clip0_4986_2993)">
<path d="M42.6433 105.727H43.524V110.926C43.524 111.39 43.4387 111.784 43.2683 112.109C43.0978 112.433 42.8575 112.679 42.5474 112.847C42.2373 113.015 41.8715 113.099 41.4501 113.099C41.0524 113.099 40.6984 113.027 40.3883 112.883C40.0782 112.736 39.8343 112.528 39.6568 112.258C39.4792 111.988 39.3904 111.667 39.3904 111.295H40.2569C40.2569 111.501 40.3078 111.681 40.4096 111.835C40.5138 111.987 40.6558 112.105 40.8358 112.19C41.0157 112.276 41.2205 112.318 41.4501 112.318C41.7034 112.318 41.9189 112.265 42.0964 112.158C42.274 112.052 42.4089 111.896 42.5012 111.69C42.5959 111.481 42.6433 111.227 42.6433 110.926V105.727ZM46.7804 113.128C46.4347 113.128 46.121 113.063 45.8393 112.933C45.5576 112.8 45.3339 112.609 45.1681 112.361C45.0024 112.11 44.9196 111.807 44.9196 111.452C44.9196 111.139 44.9811 110.886 45.1042 110.692C45.2273 110.495 45.3919 110.341 45.5978 110.23C45.8038 110.119 46.0311 110.036 46.2797 109.982C46.5306 109.925 46.7827 109.88 47.036 109.847C47.3675 109.804 47.6362 109.772 47.8422 109.751C48.0505 109.727 48.202 109.688 48.2967 109.634C48.3938 109.579 48.4423 109.484 48.4423 109.349V109.321C48.4423 108.971 48.3464 108.698 48.1547 108.504C47.9653 108.31 47.6776 108.213 47.2917 108.213C46.8916 108.213 46.5779 108.301 46.3507 108.476C46.1234 108.651 45.9636 108.838 45.8713 109.037L45.0758 108.753C45.2179 108.421 45.4073 108.163 45.644 107.979C45.8831 107.792 46.1435 107.661 46.4252 107.588C46.7093 107.512 46.9887 107.474 47.2633 107.474C47.4385 107.474 47.6397 107.496 47.867 107.538C48.0967 107.579 48.318 107.663 48.5311 107.79C48.7465 107.918 48.9252 108.111 49.0673 108.369C49.2093 108.627 49.2804 108.973 49.2804 109.406V113H48.4423V112.261H48.3997C48.3429 112.38 48.2482 112.506 48.1156 112.641C47.983 112.776 47.8066 112.891 47.5865 112.986C47.3663 113.08 47.0976 113.128 46.7804 113.128ZM46.9082 112.375C47.2396 112.375 47.519 112.31 47.7463 112.18C47.9759 112.049 48.1487 111.881 48.2647 111.675C48.3831 111.469 48.4423 111.253 48.4423 111.026V110.259C48.4068 110.301 48.3287 110.34 48.2079 110.376C48.0895 110.409 47.9522 110.438 47.796 110.464C47.6421 110.488 47.4918 110.509 47.345 110.528C47.2006 110.545 47.0834 110.559 46.9934 110.571C46.7756 110.599 46.572 110.646 46.3826 110.71C46.1956 110.771 46.0441 110.865 45.9281 110.99C45.8145 111.113 45.7576 111.281 45.7576 111.494C45.7576 111.786 45.8654 112.006 46.0808 112.155C46.2986 112.302 46.5744 112.375 46.9082 112.375ZM51.6481 109.719V113H50.81V107.545H51.6197V108.398H51.6907C51.8185 108.121 52.0127 107.898 52.2731 107.73C52.5335 107.56 52.8697 107.474 53.2816 107.474C53.6509 107.474 53.9741 107.55 54.2511 107.702C54.5281 107.851 54.7435 108.078 54.8974 108.384C55.0513 108.687 55.1282 109.07 55.1282 109.534V113H54.2901V109.591C54.2901 109.162 54.1789 108.829 53.9563 108.589C53.7338 108.348 53.4284 108.227 53.0401 108.227C52.7726 108.227 52.5335 108.285 52.3228 108.401C52.1145 108.517 51.9499 108.687 51.8292 108.909C51.7085 109.132 51.6481 109.402 51.6481 109.719ZM59.4579 113V112.361L61.8585 109.733C62.1402 109.425 62.3722 109.158 62.5545 108.93C62.7368 108.701 62.8717 108.485 62.9593 108.284C63.0493 108.08 63.0943 107.867 63.0943 107.645C63.0943 107.389 63.0327 107.168 62.9096 106.981C62.7889 106.794 62.6232 106.649 62.4125 106.548C62.2018 106.446 61.965 106.395 61.7022 106.395C61.4229 106.395 61.179 106.453 60.9707 106.569C60.7647 106.683 60.6049 106.842 60.4913 107.048C60.38 107.254 60.3244 107.496 60.3244 107.773H59.4863C59.4863 107.347 59.5846 106.973 59.7811 106.651C59.9776 106.329 60.2451 106.078 60.5836 105.898C60.9245 105.718 61.3069 105.628 61.7306 105.628C62.1568 105.628 62.5344 105.718 62.8635 105.898C63.1925 106.078 63.4506 106.32 63.6376 106.626C63.8246 106.931 63.9181 107.271 63.9181 107.645C63.9181 107.912 63.8696 108.174 63.7725 108.43C63.6779 108.683 63.5121 108.966 63.2754 109.278C63.041 109.589 62.7155 109.967 62.2988 110.415L60.6653 112.162V112.219H64.046V113H59.4579ZM67.9274 113.099C67.6291 113.095 67.3308 113.038 67.0325 112.929C66.7342 112.82 66.4619 112.637 66.2157 112.379C65.9695 112.118 65.7718 111.767 65.6227 111.324C65.4735 110.879 65.399 110.32 65.399 109.648C65.399 109.004 65.4593 108.433 65.5801 107.936C65.7008 107.437 65.876 107.016 66.1056 106.675C66.3353 106.332 66.6123 106.072 66.9366 105.894C67.2633 105.717 67.6315 105.628 68.041 105.628C68.4482 105.628 68.8104 105.71 69.1277 105.873C69.4473 106.034 69.7077 106.259 69.9089 106.548C70.1101 106.836 70.2404 107.169 70.2995 107.545H69.4331C69.3526 107.219 69.1963 106.948 68.9643 106.732C68.7323 106.517 68.4245 106.409 68.041 106.409C67.4776 106.409 67.0337 106.654 66.7093 107.144C66.3874 107.634 66.2252 108.322 66.2228 109.207H66.2797C66.4122 109.006 66.5697 108.835 66.752 108.692C66.9366 108.548 67.1402 108.437 67.3627 108.359C67.5853 108.281 67.8208 108.241 68.0694 108.241C68.4861 108.241 68.8672 108.346 69.2129 108.554C69.5585 108.76 69.8355 109.045 70.0439 109.41C70.2522 109.772 70.3564 110.188 70.3564 110.656C70.3564 111.106 70.2557 111.518 70.0545 111.892C69.8533 112.264 69.5704 112.56 69.2058 112.78C68.8436 112.998 68.4174 113.104 67.9274 113.099ZM67.9274 112.318C68.2257 112.318 68.4932 112.244 68.7299 112.094C68.969 111.945 69.1573 111.745 69.2946 111.494C69.4342 111.243 69.5041 110.964 69.5041 110.656C69.5041 110.356 69.4366 110.082 69.3017 109.836C69.1691 109.587 68.9856 109.39 68.7512 109.243C68.5192 109.096 68.2541 109.023 67.9558 109.023C67.7309 109.023 67.5214 109.068 67.3272 109.158C67.1331 109.245 66.9627 109.366 66.8159 109.52C66.6715 109.674 66.5578 109.85 66.475 110.049C66.3921 110.246 66.3507 110.453 66.3507 110.67C66.3507 110.959 66.4181 111.229 66.5531 111.48C66.6904 111.731 66.8774 111.933 67.1142 112.087C67.3533 112.241 67.6243 112.318 67.9274 112.318Z" fill="#828AA3"/>
<path d="M123.721 105.727H124.602V110.926C124.602 111.39 124.517 111.784 124.346 112.109C124.176 112.433 123.936 112.679 123.626 112.847C123.315 113.015 122.95 113.099 122.528 113.099C122.131 113.099 121.777 113.027 121.466 112.883C121.156 112.736 120.912 112.528 120.735 112.258C120.557 111.988 120.469 111.667 120.469 111.295H121.335C121.335 111.501 121.386 111.681 121.488 111.835C121.592 111.987 121.734 112.105 121.914 112.19C122.094 112.276 122.299 112.318 122.528 112.318C122.782 112.318 122.997 112.265 123.175 112.158C123.352 112.052 123.487 111.896 123.579 111.69C123.674 111.481 123.721 111.227 123.721 110.926V105.727ZM127.858 113.128C127.513 113.128 127.199 113.063 126.917 112.933C126.636 112.8 126.412 112.609 126.246 112.361C126.081 112.11 125.998 111.807 125.998 111.452C125.998 111.139 126.059 110.886 126.182 110.692C126.305 110.495 126.47 110.341 126.676 110.23C126.882 110.119 127.109 110.036 127.358 109.982C127.609 109.925 127.861 109.88 128.114 109.847C128.446 109.804 128.714 109.772 128.92 109.751C129.129 109.727 129.28 109.688 129.375 109.634C129.472 109.579 129.52 109.484 129.52 109.349V109.321C129.52 108.971 129.425 108.698 129.233 108.504C129.043 108.31 128.756 108.213 128.37 108.213C127.97 108.213 127.656 108.301 127.429 108.476C127.202 108.651 127.042 108.838 126.949 109.037L126.154 108.753C126.296 108.421 126.485 108.163 126.722 107.979C126.961 107.792 127.222 107.661 127.503 107.588C127.787 107.512 128.067 107.474 128.341 107.474C128.517 107.474 128.718 107.496 128.945 107.538C129.175 107.579 129.396 107.663 129.609 107.79C129.825 107.918 130.003 108.111 130.145 108.369C130.287 108.627 130.358 108.973 130.358 109.406V113H129.52V112.261H129.478C129.421 112.38 129.326 112.506 129.194 112.641C129.061 112.776 128.885 112.891 128.665 112.986C128.444 113.08 128.176 113.128 127.858 113.128ZM127.986 112.375C128.318 112.375 128.597 112.31 128.824 112.18C129.054 112.049 129.227 111.881 129.343 111.675C129.461 111.469 129.52 111.253 129.52 111.026V110.259C129.485 110.301 129.407 110.34 129.286 110.376C129.168 110.409 129.03 110.438 128.874 110.464C128.72 110.488 128.57 110.509 128.423 110.528C128.279 110.545 128.162 110.559 128.072 110.571C127.854 110.599 127.65 110.646 127.461 110.71C127.274 110.771 127.122 110.865 127.006 110.99C126.893 111.113 126.836 111.281 126.836 111.494C126.836 111.786 126.943 112.006 127.159 112.155C127.377 112.302 127.653 112.375 127.986 112.375ZM132.726 109.719V113H131.888V107.545H132.698V108.398H132.769C132.897 108.121 133.091 107.898 133.351 107.73C133.612 107.56 133.948 107.474 134.36 107.474C134.729 107.474 135.052 107.55 135.329 107.702C135.606 107.851 135.822 108.078 135.975 108.384C136.129 108.687 136.206 109.07 136.206 109.534V113H135.368V109.591C135.368 109.162 135.257 108.829 135.034 108.589C134.812 108.348 134.507 108.227 134.118 108.227C133.851 108.227 133.612 108.285 133.401 108.401C133.193 108.517 133.028 108.687 132.907 108.909C132.787 109.132 132.726 109.402 132.726 109.719ZM140.536 113V112.361L142.937 109.733C143.218 109.425 143.45 109.158 143.633 108.93C143.815 108.701 143.95 108.485 144.037 108.284C144.127 108.08 144.172 107.867 144.172 107.645C144.172 107.389 144.111 107.168 143.988 106.981C143.867 106.794 143.701 106.649 143.491 106.548C143.28 106.446 143.043 106.395 142.78 106.395C142.501 106.395 142.257 106.453 142.049 106.569C141.843 106.683 141.683 106.842 141.569 107.048C141.458 107.254 141.403 107.496 141.403 107.773H140.564C140.564 107.347 140.663 106.973 140.859 106.651C141.056 106.329 141.323 106.078 141.662 105.898C142.003 105.718 142.385 105.628 142.809 105.628C143.235 105.628 143.613 105.718 143.942 105.898C144.271 106.078 144.529 106.32 144.716 106.626C144.903 106.931 144.996 107.271 144.996 107.645C144.996 107.912 144.948 108.174 144.851 108.43C144.756 108.683 144.59 108.966 144.354 109.278C144.119 109.589 143.794 109.967 143.377 110.415L141.743 112.162V112.219H145.124V113H140.536ZM148.92 113.099C148.433 113.099 148.002 113.013 147.628 112.84C147.256 112.665 146.966 112.425 146.758 112.119C146.549 111.812 146.446 111.461 146.449 111.068C146.446 110.76 146.507 110.476 146.63 110.216C146.753 109.953 146.921 109.734 147.134 109.559C147.349 109.381 147.59 109.269 147.855 109.222V109.179C147.507 109.089 147.23 108.894 147.024 108.593C146.818 108.29 146.716 107.946 146.719 107.56C146.716 107.19 146.81 106.86 146.999 106.569C147.189 106.278 147.449 106.048 147.78 105.88C148.114 105.712 148.494 105.628 148.92 105.628C149.342 105.628 149.718 105.712 150.05 105.88C150.381 106.048 150.641 106.278 150.831 106.569C151.023 106.86 151.12 107.19 151.122 107.56C151.12 107.946 151.014 108.29 150.806 108.593C150.6 108.894 150.327 109.089 149.986 109.179V109.222C150.248 109.269 150.485 109.381 150.696 109.559C150.907 109.734 151.075 109.953 151.2 110.216C151.326 110.476 151.39 110.76 151.392 111.068C151.39 111.461 151.283 111.812 151.072 112.119C150.864 112.425 150.574 112.665 150.202 112.84C149.833 113.013 149.406 113.099 148.92 113.099ZM148.92 112.318C149.249 112.318 149.533 112.265 149.773 112.158C150.012 112.052 150.196 111.902 150.327 111.707C150.457 111.513 150.523 111.286 150.525 111.026C150.523 110.751 150.452 110.508 150.312 110.298C150.173 110.087 149.982 109.921 149.741 109.8C149.501 109.68 149.228 109.619 148.92 109.619C148.61 109.619 148.333 109.68 148.089 109.8C147.848 109.921 147.657 110.087 147.518 110.298C147.38 110.508 147.313 110.751 147.315 111.026C147.313 111.286 147.376 111.513 147.503 111.707C147.634 111.902 147.819 112.052 148.061 112.158C148.302 112.265 148.589 112.318 148.92 112.318ZM148.92 108.866C149.181 108.866 149.412 108.814 149.613 108.71C149.816 108.606 149.976 108.46 150.092 108.273C150.208 108.086 150.267 107.867 150.27 107.616C150.267 107.37 150.209 107.156 150.096 106.974C149.982 106.789 149.825 106.647 149.623 106.548C149.422 106.446 149.188 106.395 148.92 106.395C148.648 106.395 148.41 106.446 148.206 106.548C148.003 106.647 147.845 106.789 147.734 106.974C147.623 107.156 147.568 107.37 147.571 107.616C147.568 107.867 147.624 108.086 147.738 108.273C147.854 108.46 148.014 108.606 148.217 108.71C148.421 108.814 148.655 108.866 148.92 108.866Z" fill="#828AA3"/>
<path d="M188.321 105.727H189.202V110.926C189.202 111.39 189.116 111.784 188.946 112.109C188.776 112.433 188.535 112.679 188.225 112.847C187.915 113.015 187.549 113.099 187.128 113.099C186.73 113.099 186.376 113.027 186.066 112.883C185.756 112.736 185.512 112.528 185.335 112.258C185.157 111.988 185.068 111.667 185.068 111.295H185.935C185.935 111.501 185.986 111.681 186.087 111.835C186.192 111.987 186.334 112.105 186.513 112.19C186.693 112.276 186.898 112.318 187.128 112.318C187.381 112.318 187.597 112.265 187.774 112.158C187.952 112.052 188.087 111.896 188.179 111.69C188.274 111.481 188.321 111.227 188.321 110.926V105.727ZM192.458 113.128C192.112 113.128 191.799 113.063 191.517 112.933C191.235 112.8 191.012 112.609 190.846 112.361C190.68 112.11 190.597 111.807 190.597 111.452C190.597 111.139 190.659 110.886 190.782 110.692C190.905 110.495 191.07 110.341 191.276 110.23C191.482 110.119 191.709 110.036 191.957 109.982C192.208 109.925 192.46 109.88 192.714 109.847C193.045 109.804 193.314 109.772 193.52 109.751C193.728 109.727 193.88 109.688 193.974 109.634C194.071 109.579 194.12 109.484 194.12 109.349V109.321C194.12 108.971 194.024 108.698 193.832 108.504C193.643 108.31 193.355 108.213 192.969 108.213C192.569 108.213 192.256 108.301 192.028 108.476C191.801 108.651 191.641 108.838 191.549 109.037L190.754 108.753C190.896 108.421 191.085 108.163 191.322 107.979C191.561 107.792 191.821 107.661 192.103 107.588C192.387 107.512 192.666 107.474 192.941 107.474C193.116 107.474 193.317 107.496 193.545 107.538C193.774 107.579 193.996 107.663 194.209 107.79C194.424 107.918 194.603 108.111 194.745 108.369C194.887 108.627 194.958 108.973 194.958 109.406V113H194.12V112.261H194.077C194.021 112.38 193.926 112.506 193.793 112.641C193.661 112.776 193.484 112.891 193.264 112.986C193.044 113.08 192.775 113.128 192.458 113.128ZM192.586 112.375C192.917 112.375 193.197 112.31 193.424 112.18C193.654 112.049 193.826 111.881 193.942 111.675C194.061 111.469 194.12 111.253 194.12 111.026V110.259C194.085 110.301 194.006 110.34 193.886 110.376C193.767 110.409 193.63 110.438 193.474 110.464C193.32 110.488 193.17 110.509 193.023 110.528C192.878 110.545 192.761 110.559 192.671 110.571C192.453 110.599 192.25 110.646 192.06 110.71C191.873 110.771 191.722 110.865 191.606 110.99C191.492 111.113 191.435 111.281 191.435 111.494C191.435 111.786 191.543 112.006 191.759 112.155C191.976 112.302 192.252 112.375 192.586 112.375ZM197.326 109.719V113H196.488V107.545H197.297V108.398H197.368C197.496 108.121 197.69 107.898 197.951 107.73C198.211 107.56 198.547 107.474 198.959 107.474C199.329 107.474 199.652 107.55 199.929 107.702C200.206 107.851 200.421 108.078 200.575 108.384C200.729 108.687 200.806 109.07 200.806 109.534V113H199.968V109.591C199.968 109.162 199.857 108.829 199.634 108.589C199.412 108.348 199.106 108.227 198.718 108.227C198.45 108.227 198.211 108.285 198.001 108.401C197.792 108.517 197.628 108.687 197.507 108.909C197.386 109.132 197.326 109.402 197.326 109.719ZM207.593 113.099C207.124 113.099 206.706 113.019 206.339 112.858C205.975 112.697 205.685 112.473 205.469 112.187C205.256 111.898 205.14 111.563 205.121 111.182H206.016C206.035 111.416 206.116 111.619 206.258 111.789C206.4 111.957 206.586 112.087 206.815 112.18C207.045 112.272 207.299 112.318 207.579 112.318C207.891 112.318 208.168 112.264 208.41 112.155C208.651 112.046 208.841 111.894 208.978 111.7C209.115 111.506 209.184 111.281 209.184 111.026C209.184 110.758 209.118 110.522 208.985 110.319C208.853 110.113 208.658 109.952 208.403 109.836C208.147 109.72 207.835 109.662 207.465 109.662H206.883V108.881H207.465C207.754 108.881 208.007 108.829 208.225 108.724C208.445 108.62 208.617 108.473 208.74 108.284C208.866 108.095 208.928 107.872 208.928 107.616C208.928 107.37 208.874 107.156 208.765 106.974C208.656 106.791 208.502 106.649 208.303 106.548C208.107 106.446 207.875 106.395 207.607 106.395C207.356 106.395 207.12 106.441 206.897 106.533C206.677 106.623 206.497 106.755 206.357 106.928C206.218 107.098 206.142 107.304 206.13 107.545H205.278C205.292 107.164 205.407 106.83 205.622 106.544C205.838 106.255 206.119 106.03 206.467 105.869C206.818 105.708 207.202 105.628 207.621 105.628C208.071 105.628 208.457 105.719 208.779 105.901C209.101 106.081 209.348 106.319 209.521 106.615C209.694 106.911 209.781 107.231 209.781 107.574C209.781 107.983 209.673 108.333 209.457 108.621C209.244 108.91 208.954 109.11 208.587 109.222V109.278C209.047 109.354 209.405 109.549 209.663 109.864C209.921 110.177 210.05 110.564 210.05 111.026C210.05 111.421 209.943 111.776 209.727 112.091C209.514 112.403 209.223 112.65 208.854 112.83C208.484 113.009 208.064 113.099 207.593 113.099ZM213.875 113.099C213.34 113.099 212.884 112.954 212.508 112.663C212.131 112.369 211.844 111.944 211.645 111.388C211.446 110.829 211.347 110.154 211.347 109.364C211.347 108.578 211.446 107.906 211.645 107.35C211.846 106.791 212.135 106.365 212.511 106.072C212.89 105.776 213.345 105.628 213.875 105.628C214.405 105.628 214.859 105.776 215.235 106.072C215.614 106.365 215.903 106.791 216.102 107.35C216.303 107.906 216.403 108.578 216.403 109.364C216.403 110.154 216.304 110.829 216.105 111.388C215.906 111.944 215.619 112.369 215.242 112.663C214.866 112.954 214.41 113.099 213.875 113.099ZM213.875 112.318C214.405 112.318 214.817 112.062 215.111 111.551C215.404 111.04 215.551 110.311 215.551 109.364C215.551 108.734 215.484 108.198 215.349 107.755C215.216 107.312 215.024 106.975 214.773 106.743C214.525 106.511 214.225 106.395 213.875 106.395C213.349 106.395 212.939 106.654 212.643 107.173C212.347 107.689 212.199 108.419 212.199 109.364C212.199 109.993 212.265 110.528 212.398 110.969C212.53 111.409 212.721 111.744 212.969 111.974C213.22 112.203 213.522 112.318 213.875 112.318Z" fill="#828AA3"/>
<rect x="178" y="103" width="40" height="13.2769" fill="url(#paint0_linear_4986_2993)"/>
<path d="M4.15359 9.09943C3.68484 9.09943 3.26699 9.01894 2.90004 8.85795C2.53545 8.69697 2.24544 8.47325 2.03001 8.18679C1.81694 7.89796 1.70094 7.56297 1.682 7.18182H2.57688C2.59582 7.41619 2.67631 7.61861 2.81836 7.78906C2.9604 7.95715 3.14625 8.08736 3.37589 8.17969C3.60553 8.27202 3.86003 8.31818 4.13938 8.31818C4.45188 8.31818 4.72887 8.26373 4.97035 8.15483C5.21183 8.04593 5.40122 7.89441 5.53853 7.70028C5.67584 7.50616 5.7445 7.28125 5.7445 7.02557C5.7445 6.75805 5.67821 6.52249 5.54563 6.31889C5.41306 6.11293 5.21893 5.95194 4.96325 5.83594C4.70756 5.71993 4.39506 5.66193 4.02575 5.66193H3.44336V4.88068H4.02575C4.31457 4.88068 4.56789 4.8286 4.78569 4.72443C5.00586 4.62026 5.1775 4.47348 5.3006 4.28409C5.42608 4.0947 5.48881 3.87216 5.48881 3.61648C5.48881 3.37026 5.43436 3.15601 5.32546 2.97372C5.21656 2.79143 5.06268 2.64938 4.86381 2.54759C4.66732 2.44579 4.43531 2.39489 4.16779 2.39489C3.91684 2.39489 3.6801 2.44105 3.45756 2.53338C3.23739 2.62334 3.05747 2.75473 2.91779 2.92756C2.77811 3.09801 2.70236 3.30398 2.69052 3.54545H1.83825C1.85245 3.1643 1.96727 2.83049 2.18271 2.54403C2.39814 2.25521 2.67987 2.0303 3.02788 1.86932C3.37826 1.70833 3.76296 1.62784 4.182 1.62784C4.63181 1.62784 5.0177 1.71899 5.33967 1.90128C5.66164 2.0812 5.90903 2.31913 6.08185 2.61506C6.25468 2.91098 6.34109 3.23059 6.34109 3.57386C6.34109 3.98343 6.23337 4.33262 6.01793 4.62145C5.80487 4.91027 5.51486 5.11032 5.1479 5.22159V5.27841C5.60719 5.35417 5.96585 5.54948 6.2239 5.86435C6.48195 6.17685 6.61097 6.56392 6.61097 7.02557C6.61097 7.42093 6.50326 7.77604 6.28782 8.09091C6.07475 8.40341 5.78356 8.64962 5.41424 8.82955C5.04492 9.00947 4.6247 9.09943 4.15359 9.09943ZM10.4355 9.09943C9.90051 9.09943 9.44478 8.95384 9.06836 8.66264C8.69194 8.36908 8.4043 7.94413 8.20543 7.38778C8.00657 6.82907 7.90714 6.15436 7.90714 5.36364C7.90714 4.57765 8.00657 3.90649 8.20543 3.35014C8.40666 2.79143 8.69549 2.36529 9.07191 2.07173C9.4507 1.7758 9.90524 1.62784 10.4355 1.62784C10.9658 1.62784 11.4192 1.7758 11.7956 2.07173C12.1744 2.36529 12.4632 2.79143 12.6621 3.35014C12.8633 3.90649 12.964 4.57765 12.964 5.36364C12.964 6.15436 12.8645 6.82907 12.6657 7.38778C12.4668 7.94413 12.1792 8.36908 11.8027 8.66264C11.4263 8.95384 10.9706 9.09943 10.4355 9.09943ZM10.4355 8.31818C10.9658 8.31818 11.3778 8.0625 11.6713 7.55114C11.9649 7.03977 12.1117 6.31061 12.1117 5.36364C12.1117 4.7339 12.0442 4.19768 11.9093 3.75497C11.7767 3.31226 11.5849 2.97491 11.334 2.7429C11.0854 2.51089 10.7859 2.39489 10.4355 2.39489C9.90998 2.39489 9.49923 2.65412 9.2033 3.17259C8.90737 3.68868 8.75941 4.41903 8.75941 5.36364C8.75941 5.99337 8.8257 6.52841 8.95827 6.96875C9.09085 7.40909 9.28143 7.74408 9.53001 7.97372C9.78095 8.20336 10.0828 8.31818 10.4355 8.31818ZM15.1088 7.01136L15.0946 5.97443H15.2651L17.6515 3.54545H18.6884L16.1458 6.11648H16.0748L15.1088 7.01136ZM14.3276 9V1.72727H15.1657V9H14.3276ZM17.7935 9L15.6628 6.30114L16.2594 5.71875L18.8588 9H17.7935Z" fill="#828AA3"/>
<path d="M2.0087 54V53.3608L4.40927 50.733C4.69099 50.4252 4.923 50.1577 5.10529 49.9304C5.28758 49.7008 5.42253 49.4853 5.51012 49.2841C5.60008 49.0805 5.64506 48.8674 5.64506 48.6449C5.64506 48.3892 5.58351 48.1679 5.4604 47.9808C5.33967 47.7938 5.17395 47.6494 4.96325 47.5476C4.75255 47.4458 4.5158 47.3949 4.25302 47.3949C3.97366 47.3949 3.72982 47.4529 3.52148 47.5689C3.31552 47.6825 3.15572 47.8423 3.04208 48.0483C2.93081 48.2543 2.87518 48.4957 2.87518 48.7727H2.03711C2.03711 48.3466 2.13536 47.9725 2.33185 47.6506C2.52835 47.3286 2.79587 47.0777 3.13441 46.8977C3.47532 46.7178 3.85766 46.6278 4.28143 46.6278C4.70756 46.6278 5.08517 46.7178 5.41424 46.8977C5.74331 47.0777 6.00136 47.3203 6.18839 47.6257C6.37541 47.9311 6.46893 48.2708 6.46893 48.6449C6.46893 48.9124 6.4204 49.174 6.32333 49.4297C6.22863 49.683 6.06291 49.9659 5.82617 50.2784C5.5918 50.5885 5.26628 50.9673 4.84961 51.4148L3.21609 53.1619V53.2188H6.59677V54H2.0087ZM10.4355 54.0994C9.90051 54.0994 9.44478 53.9538 9.06836 53.6626C8.69194 53.3691 8.4043 52.9441 8.20543 52.3878C8.00657 51.8291 7.90714 51.1544 7.90714 50.3636C7.90714 49.5777 8.00657 48.9065 8.20543 48.3501C8.40666 47.7914 8.69549 47.3653 9.07191 47.0717C9.4507 46.7758 9.90524 46.6278 10.4355 46.6278C10.9658 46.6278 11.4192 46.7758 11.7956 47.0717C12.1744 47.3653 12.4632 47.7914 12.6621 48.3501C12.8633 48.9065 12.964 49.5777 12.964 50.3636C12.964 51.1544 12.8645 51.8291 12.6657 52.3878C12.4668 52.9441 12.1792 53.3691 11.8027 53.6626C11.4263 53.9538 10.9706 54.0994 10.4355 54.0994ZM10.4355 53.3182C10.9658 53.3182 11.3778 53.0625 11.6713 52.5511C11.9649 52.0398 12.1117 51.3106 12.1117 50.3636C12.1117 49.7339 12.0442 49.1977 11.9093 48.755C11.7767 48.3123 11.5849 47.9749 11.334 47.7429C11.0854 47.5109 10.7859 47.3949 10.4355 47.3949C9.90998 47.3949 9.49923 47.6541 9.2033 48.1726C8.90737 48.6887 8.75941 49.419 8.75941 50.3636C8.75941 50.9934 8.8257 51.5284 8.95827 51.9688C9.09085 52.4091 9.28143 52.7441 9.53001 52.9737C9.78095 53.2034 10.0828 53.3182 10.4355 53.3182ZM15.1088 52.0114L15.0946 50.9744H15.2651L17.6515 48.5455H18.6884L16.1458 51.1165H16.0748L15.1088 52.0114ZM14.3276 54V46.7273H15.1657V54H14.3276ZM17.7935 54L15.6628 51.3011L16.2594 50.7188L18.8588 54H17.7935Z" fill="#828AA3"/>
<path d="M15.875 98.0994C15.34 98.0994 14.8842 97.9538 14.5078 97.6626C14.1314 97.3691 13.8438 96.9441 13.6449 96.3878C13.446 95.8291 13.3466 95.1544 13.3466 94.3636C13.3466 93.5777 13.446 92.9065 13.6449 92.3501C13.8461 91.7914 14.1349 91.3653 14.5114 91.0717C14.8902 90.7758 15.3447 90.6278 15.875 90.6278C16.4053 90.6278 16.8587 90.7758 17.2351 91.0717C17.6139 91.3653 17.9027 91.7914 18.1016 92.3501C18.3028 92.9065 18.4034 93.5777 18.4034 94.3636C18.4034 95.1544 18.304 95.8291 18.1051 96.3878C17.9062 96.9441 17.6186 97.3691 17.2422 97.6626C16.8658 97.9538 16.41 98.0994 15.875 98.0994ZM15.875 97.3182C16.4053 97.3182 16.8172 97.0625 17.1108 96.5511C17.4044 96.0398 17.5511 95.3106 17.5511 94.3636C17.5511 93.7339 17.4837 93.1977 17.3487 92.755C17.2161 92.3123 17.0244 91.9749 16.7734 91.7429C16.5249 91.5109 16.2254 91.3949 15.875 91.3949C15.3494 91.3949 14.9387 91.6541 14.6428 92.1726C14.3468 92.6887 14.1989 93.419 14.1989 94.3636C14.1989 94.9934 14.2652 95.5284 14.3977 95.9688C14.5303 96.4091 14.7209 96.7441 14.9695 96.9737C15.2204 97.2034 15.5223 97.3182 15.875 97.3182Z" fill="#828AA3"/>
<line opacity="0.5" x1="25" y1="94.5" x2="201.889" y2="94.5" stroke="#E6E9F1"/>
<line opacity="0.5" x1="54.5" y1="95" x2="54.5" y2="6.08984" stroke="#E6E9F1"/>
<line opacity="0.5" x1="95.5" y1="95" x2="95.5" y2="6.08984" stroke="#E6E9F1"/>
<line opacity="0.5" x1="136.5" y1="95" x2="136.5" y2="6.08984" stroke="#E6E9F1"/>
<line opacity="0.5" x1="177.5" y1="95" x2="177.5" y2="6.08984" stroke="#E6E9F1"/>
<line opacity="0.5" x1="25" y1="51.5" x2="201.889" y2="51.5" stroke="#E6E9F1"/>
<rect opacity="0.06" x="137" y="6" width="39.9844" height="87.9087" fill="url(#paint1_linear_4986_2993)"/>
<line opacity="0.5" x1="25" y1="5.5" x2="201.889" y2="5.50002" stroke="#E6E9F1"/>
<path d="M27 59.3706L33.0811 64.0829C33.3274 64.2738 33.6864 64.1953 33.8306 63.9191L37.6887 56.5278C37.7028 56.5007 37.7194 56.475 37.7383 56.4509L42.2532 50.6864C42.3135 50.6094 42.3499 50.5165 42.3579 50.4191L42.9798 42.8724C42.9833 42.8308 42.9919 42.7897 43.0056 42.7502L46.6483 32.2103C46.6571 32.1847 46.6639 32.1585 46.6685 32.1318L49.4741 15.8392C49.565 15.3114 50.3098 15.2766 50.4496 15.7936L53.0556 25.4359L54.4899 33.8303C54.4946 33.8581 54.497 33.8863 54.497 33.9145V47.1613C54.497 47.2063 54.5031 47.2512 54.5151 47.2946L57.5729 58.3481C57.6856 58.7556 58.2218 58.8479 58.4643 58.5016L63.993 50.6069C64.0109 50.5813 64.0312 50.5575 64.0535 50.5357L71.5379 43.2401C71.7653 43.0183 72.1393 43.0622 72.3093 43.3306L76.4135 49.8109C76.4415 49.8551 76.4624 49.9034 76.4754 49.954L78.5844 58.1682L82.2989 74.3033C82.3992 74.7389 82.9769 74.8341 83.2116 74.4538L86.8691 68.5287C87.0403 68.2514 87.4266 68.2093 87.6535 68.4432L94.21 75.2024C94.373 75.3704 94.6308 75.4029 94.8303 75.2804L101.245 71.3451C101.299 71.3116 101.347 71.2681 101.385 71.2168L106.256 64.6514C106.35 64.5242 106.499 64.4493 106.657 64.4493H111.566C111.683 64.4493 111.796 64.49 111.885 64.5645L116.004 67.9823L119.537 71.0113C119.726 71.1737 120.006 71.1716 120.193 71.0066L123.288 68.2744C123.477 68.1075 123.761 68.1075 123.95 68.2744L126.779 70.7724C127.054 71.0151 127.488 70.8891 127.59 70.5369L129.304 64.6299C129.338 64.5135 129.413 64.4133 129.515 64.348L137.066 59.5209C137.212 59.4275 137.396 59.4164 137.552 59.4917L144.042 62.6194C144.097 62.6455 144.155 62.6617 144.215 62.667L151.322 63.297C151.614 63.3229 151.866 63.0925 151.866 62.7989V54.3017C151.866 54.2694 151.869 54.2372 151.875 54.2055L153.414 46.3549C153.42 46.3237 153.429 46.2932 153.441 46.2637L156.425 38.8801C156.441 38.8424 156.451 38.8031 156.457 38.7629L157.557 31.0052C157.629 30.4961 158.331 30.4145 158.518 30.8935L163.486 43.6059C163.499 43.6416 163.509 43.6787 163.515 43.7166L165.491 57.4376C165.564 57.9498 166.272 58.0262 166.454 57.5416L170.197 47.5449C170.218 47.4884 170.249 47.4362 170.289 47.3908L174.198 42.9266C174.24 42.8784 174.273 42.8224 174.294 42.7619L176.377 36.7905C176.386 36.764 176.397 36.7384 176.411 36.7139L181.619 27.2606C181.644 27.2161 181.661 27.1682 181.671 27.1184L184.082 15.1999C184.188 14.676 184.932 14.6614 185.058 15.1808L186.694 21.9C186.7 21.927 186.709 21.9533 186.72 21.9787L189.714 28.9656C189.757 29.0654 189.831 29.1485 189.925 29.2025L193.572 31.2935C193.816 31.4332 194.127 31.3449 194.26 31.098L197.776 24.6115C197.816 24.5383 197.837 24.4564 197.837 24.3732V19.9117C197.837 19.8427 197.851 19.7744 197.879 19.7111L199.754 15.4289" stroke="url(#paint2_linear_4986_2993)" stroke-width="1.5" stroke-linecap="round" stroke-linejoin="round"/>
</g>
<defs>
<linearGradient id="paint0_linear_4986_2993" x1="218" y1="109.638" x2="178" y2="109.638" gradientUnits="userSpaceOnUse">
<stop stop-color="white"/>
<stop offset="1" stop-color="white" stop-opacity="0"/>
</linearGradient>
<linearGradient id="paint1_linear_4986_2993" x1="156.992" y1="6" x2="156.992" y2="93.9087" gradientUnits="userSpaceOnUse">
<stop stop-color="#3D7FFF"/>
<stop offset="1" stop-color="#4B5DFF"/>
<stop offset="1" stop-color="#4B5DFF"/>
</linearGradient>
<linearGradient id="paint2_linear_4986_2993" x1="113.377" y1="13" x2="113.377" y2="75.4899" gradientUnits="userSpaceOnUse">
<stop stop-color="#3D7FFF"/>
<stop offset="1" stop-color="#4B5DFF"/>
<stop offset="1" stop-color="#4B5DFF"/>
</linearGradient>
<clipPath id="clip0_4986_2993">
<rect width="218" height="116" fill="white"/>
</clipPath>
</defs>
</svg>
