<svg width="208" height="122" viewBox="0 0 208 122" fill="none" xmlns="http://www.w3.org/2000/svg">
<g clip-path="url(#clip0_4986_3040)">
<path d="M22.154 112.863H23.0347V118.062C23.0347 118.526 22.9495 118.92 22.779 119.244C22.6086 119.569 22.3683 119.815 22.0581 119.983C21.748 120.151 21.3823 120.235 20.9608 120.235C20.5631 120.235 20.2092 120.163 19.8991 120.019C19.5889 119.872 19.3451 119.663 19.1675 119.394C18.99 119.124 18.9012 118.803 18.9012 118.431H19.7677C19.7677 118.637 19.8186 118.817 19.9204 118.971C20.0245 119.122 20.1666 119.241 20.3465 119.326C20.5264 119.411 20.7312 119.454 20.9608 119.454C21.2142 119.454 21.4296 119.401 21.6072 119.294C21.7847 119.188 21.9197 119.031 22.012 118.825C22.1067 118.617 22.154 118.363 22.154 118.062V112.863ZM26.2911 120.264C25.9455 120.264 25.6318 120.198 25.3501 120.068C25.0683 119.936 24.8446 119.745 24.6789 119.497C24.5132 119.246 24.4303 118.943 24.4303 118.587C24.4303 118.275 24.4919 118.022 24.615 117.828C24.7381 117.631 24.9026 117.477 25.1086 117.366C25.3145 117.255 25.5418 117.172 25.7904 117.117C26.0413 117.06 26.2935 117.015 26.5468 116.982C26.8782 116.94 27.1469 116.908 27.3529 116.886C27.5612 116.863 27.7127 116.824 27.8074 116.769C27.9045 116.715 27.953 116.62 27.953 116.485V116.457C27.953 116.106 27.8572 115.834 27.6654 115.64C27.476 115.446 27.1884 115.349 26.8025 115.349C26.4024 115.349 26.0887 115.436 25.8614 115.612C25.6341 115.787 25.4743 115.974 25.382 116.173L24.5866 115.889C24.7286 115.557 24.918 115.299 25.1547 115.114C25.3939 114.927 25.6543 114.797 25.936 114.724C26.2201 114.648 26.4994 114.61 26.7741 114.61C26.9492 114.61 27.1505 114.631 27.3778 114.674C27.6074 114.714 27.8287 114.798 28.0418 114.926C28.2573 115.054 28.436 115.247 28.578 115.505C28.7201 115.763 28.7911 116.109 28.7911 116.542V120.136H27.953V119.397H27.9104C27.8536 119.515 27.7589 119.642 27.6263 119.777C27.4938 119.912 27.3174 120.027 27.0972 120.122C26.877 120.216 26.6083 120.264 26.2911 120.264ZM26.4189 119.511C26.7504 119.511 27.0297 119.446 27.257 119.315C27.4867 119.185 27.6595 119.017 27.7755 118.811C27.8939 118.605 27.953 118.389 27.953 118.161V117.394C27.9175 117.437 27.8394 117.476 27.7187 117.511C27.6003 117.545 27.463 117.574 27.3067 117.6C27.1528 117.624 27.0025 117.645 26.8557 117.664C26.7113 117.681 26.5941 117.695 26.5042 117.707C26.2864 117.735 26.0828 117.781 25.8934 117.845C25.7064 117.907 25.5548 118 25.4388 118.126C25.3252 118.249 25.2684 118.417 25.2684 118.63C25.2684 118.921 25.3761 119.141 25.5915 119.291C25.8093 119.437 26.0851 119.511 26.4189 119.511ZM31.1588 116.854V120.136H30.3208V114.681H31.1304V115.533H31.2014C31.3293 115.256 31.5234 115.034 31.7838 114.866C32.0442 114.695 32.3804 114.61 32.7923 114.61C33.1617 114.61 33.4848 114.686 33.7618 114.837C34.0388 114.987 34.2542 115.214 34.4081 115.519C34.562 115.822 34.6389 116.206 34.6389 116.67V120.136H33.8009V116.727C33.8009 116.298 33.6896 115.964 33.4671 115.725C33.2445 115.484 32.9391 115.363 32.5509 115.363C32.2834 115.363 32.0442 115.421 31.8335 115.537C31.6252 115.653 31.4607 115.822 31.3399 116.045C31.2192 116.267 31.1588 116.537 31.1588 116.854ZM38.9687 120.136V119.497L41.3692 116.869C41.651 116.561 41.883 116.293 42.0653 116.066C42.2475 115.836 42.3825 115.621 42.4701 115.42C42.56 115.216 42.605 115.003 42.605 114.781C42.605 114.525 42.5435 114.304 42.4204 114.117C42.2996 113.93 42.1339 113.785 41.9232 113.683C41.7125 113.582 41.4758 113.531 41.213 113.531C40.9336 113.531 40.6898 113.589 40.4814 113.705C40.2755 113.818 40.1157 113.978 40.002 114.184C39.8908 114.39 39.8351 114.631 39.8351 114.908H38.9971C38.9971 114.482 39.0953 114.108 39.2918 113.786C39.4883 113.464 39.7558 113.213 40.0944 113.033C40.4353 112.854 40.8176 112.764 41.2414 112.764C41.6675 112.764 42.0451 112.854 42.3742 113.033C42.7033 113.213 42.9613 113.456 43.1483 113.761C43.3354 114.067 43.4289 114.407 43.4289 114.781C43.4289 115.048 43.3804 115.31 43.2833 115.565C43.1886 115.819 43.0229 116.102 42.7861 116.414C42.5518 116.724 42.2262 117.103 41.8096 117.551L40.176 119.298V119.354H43.5567V120.136H38.9687ZM47.4381 120.235C47.1398 120.23 46.8415 120.174 46.5432 120.065C46.2449 119.956 45.9727 119.772 45.7265 119.514C45.4803 119.254 45.2826 118.902 45.1334 118.46C44.9843 118.015 44.9097 117.456 44.9097 116.783C44.9097 116.14 44.9701 115.569 45.0908 115.072C45.2116 114.572 45.3867 114.152 45.6164 113.811C45.846 113.468 46.123 113.207 46.4474 113.03C46.7741 112.852 47.1422 112.764 47.5518 112.764C47.959 112.764 48.3212 112.845 48.6384 113.009C48.958 113.17 49.2184 113.395 49.4197 113.683C49.6209 113.972 49.7511 114.305 49.8103 114.681H48.9438C48.8633 114.354 48.7071 114.083 48.4751 113.868C48.243 113.653 47.9353 113.545 47.5518 113.545C46.9883 113.545 46.5444 113.79 46.2201 114.28C45.8981 114.77 45.7359 115.458 45.7336 116.343H45.7904C45.923 116.142 46.0804 115.97 46.2627 115.828C46.4474 115.684 46.651 115.573 46.8735 115.494C47.096 115.416 47.3316 115.377 47.5802 115.377C47.9968 115.377 48.378 115.481 48.7236 115.69C49.0693 115.896 49.3463 116.181 49.5546 116.546C49.7629 116.908 49.8671 117.323 49.8671 117.792C49.8671 118.242 49.7665 118.654 49.5653 119.028C49.364 119.399 49.0811 119.695 48.7165 119.916C48.3543 120.133 47.9282 120.24 47.4381 120.235ZM47.4381 119.454C47.7364 119.454 48.0039 119.379 48.2407 119.23C48.4798 119.081 48.668 118.881 48.8053 118.63C48.945 118.379 49.0148 118.1 49.0148 117.792C49.0148 117.491 48.9474 117.218 48.8124 116.972C48.6798 116.723 48.4964 116.525 48.262 116.379C48.03 116.232 47.7648 116.158 47.4665 116.158C47.2416 116.158 47.0321 116.203 46.838 116.293C46.6439 116.381 46.4734 116.502 46.3266 116.656C46.1822 116.81 46.0686 116.986 45.9857 117.185C45.9028 117.381 45.8614 117.588 45.8614 117.806C45.8614 118.095 45.9289 118.365 46.0638 118.616C46.2011 118.867 46.3882 119.069 46.6249 119.223C46.864 119.377 47.1351 119.454 47.4381 119.454Z" fill="#828AA3"/>
<path d="M90.6931 112.863H91.5738V118.062C91.5738 118.526 91.4885 118.92 91.3181 119.244C91.1476 119.569 90.9073 119.815 90.5972 119.983C90.2871 120.151 89.9213 120.235 89.4999 120.235C89.1022 120.235 88.7483 120.163 88.4381 120.019C88.128 119.872 87.8841 119.663 87.7066 119.394C87.529 119.124 87.4403 118.803 87.4403 118.431H88.3067C88.3067 118.637 88.3576 118.817 88.4594 118.971C88.5636 119.122 88.7056 119.241 88.8856 119.326C89.0655 119.411 89.2703 119.454 89.4999 119.454C89.7532 119.454 89.9687 119.401 90.1462 119.294C90.3238 119.188 90.4587 119.031 90.551 118.825C90.6457 118.617 90.6931 118.363 90.6931 118.062V112.863ZM94.8302 120.264C94.4845 120.264 94.1708 120.198 93.8891 120.068C93.6074 119.936 93.3837 119.745 93.218 119.497C93.0522 119.246 92.9694 118.943 92.9694 118.587C92.9694 118.275 93.0309 118.022 93.154 117.828C93.2771 117.631 93.4417 117.477 93.6476 117.366C93.8536 117.255 94.0809 117.172 94.3295 117.117C94.5804 117.06 94.8325 117.015 95.0858 116.982C95.4173 116.94 95.686 116.908 95.892 116.886C96.1003 116.863 96.2518 116.824 96.3465 116.769C96.4436 116.715 96.4921 116.62 96.4921 116.485V116.457C96.4921 116.106 96.3962 115.834 96.2045 115.64C96.0151 115.446 95.7274 115.349 95.3415 115.349C94.9414 115.349 94.6278 115.436 94.4005 115.612C94.1732 115.787 94.0134 115.974 93.9211 116.173L93.1256 115.889C93.2677 115.557 93.4571 115.299 93.6938 115.114C93.9329 114.927 94.1933 114.797 94.4751 114.724C94.7591 114.648 95.0385 114.61 95.3131 114.61C95.4883 114.61 95.6895 114.631 95.9168 114.674C96.1465 114.714 96.3678 114.798 96.5809 114.926C96.7963 115.054 96.9751 115.247 97.1171 115.505C97.2591 115.763 97.3302 116.109 97.3302 116.542V120.136H96.4921V119.397H96.4495C96.3927 119.515 96.298 119.642 96.1654 119.777C96.0328 119.912 95.8564 120.027 95.6363 120.122C95.4161 120.216 95.1474 120.264 94.8302 120.264ZM94.958 119.511C95.2894 119.511 95.5688 119.446 95.7961 119.315C96.0257 119.185 96.1985 119.017 96.3145 118.811C96.4329 118.605 96.4921 118.389 96.4921 118.161V117.394C96.4566 117.437 96.3785 117.476 96.2577 117.511C96.1394 117.545 96.002 117.574 95.8458 117.6C95.6919 117.624 95.5416 117.645 95.3948 117.664C95.2504 117.681 95.1332 117.695 95.0432 117.707C94.8254 117.735 94.6218 117.781 94.4324 117.845C94.2454 117.907 94.0939 118 93.9779 118.126C93.8643 118.249 93.8074 118.417 93.8074 118.63C93.8074 118.921 93.9152 119.141 94.1306 119.291C94.3484 119.437 94.6242 119.511 94.958 119.511ZM99.6979 116.854V120.136H98.8598V114.681H99.6695V115.533H99.7405C99.8683 115.256 100.062 115.034 100.323 114.866C100.583 114.695 100.919 114.61 101.331 114.61C101.701 114.61 102.024 114.686 102.301 114.837C102.578 114.987 102.793 115.214 102.947 115.519C103.101 115.822 103.178 116.206 103.178 116.67V120.136H102.34V116.727C102.34 116.298 102.229 115.964 102.006 115.725C101.784 115.484 101.478 115.363 101.09 115.363C100.822 115.363 100.583 115.421 100.373 115.537C100.164 115.653 99.9997 115.822 99.879 116.045C99.7583 116.267 99.6979 116.537 99.6979 116.854ZM107.508 120.136V119.497L109.908 116.869C110.19 116.561 110.422 116.293 110.604 116.066C110.787 115.836 110.922 115.621 111.009 115.42C111.099 115.216 111.144 115.003 111.144 114.781C111.144 114.525 111.083 114.304 110.959 114.117C110.839 113.93 110.673 113.785 110.462 113.683C110.252 113.582 110.015 113.531 109.752 113.531C109.473 113.531 109.229 113.589 109.021 113.705C108.815 113.818 108.655 113.978 108.541 114.184C108.43 114.39 108.374 114.631 108.374 114.908H107.536C107.536 114.482 107.634 114.108 107.831 113.786C108.027 113.464 108.295 113.213 108.633 113.033C108.974 112.854 109.357 112.764 109.78 112.764C110.207 112.764 110.584 112.854 110.913 113.033C111.242 113.213 111.5 113.456 111.687 113.761C111.874 114.067 111.968 114.407 111.968 114.781C111.968 115.048 111.919 115.31 111.822 115.565C111.728 115.819 111.562 116.102 111.325 116.414C111.091 116.724 110.765 117.103 110.349 117.551L108.715 119.298V119.354H112.096V120.136H107.508ZM115.892 120.235C115.404 120.235 114.973 120.149 114.599 119.976C114.228 119.801 113.938 119.56 113.729 119.255C113.521 118.947 113.418 118.597 113.42 118.204C113.418 117.896 113.478 117.612 113.601 117.352C113.725 117.089 113.893 116.87 114.106 116.695C114.321 116.517 114.561 116.405 114.827 116.357V116.315C114.479 116.225 114.202 116.029 113.996 115.729C113.79 115.426 113.688 115.081 113.69 114.695C113.688 114.326 113.781 113.996 113.971 113.705C114.16 113.413 114.421 113.184 114.752 113.016C115.086 112.848 115.466 112.764 115.892 112.764C116.313 112.764 116.69 112.848 117.021 113.016C117.353 113.184 117.613 113.413 117.802 113.705C117.994 113.996 118.091 114.326 118.094 114.695C118.091 115.081 117.986 115.426 117.778 115.729C117.572 116.029 117.298 116.225 116.957 116.315V116.357C117.22 116.405 117.457 116.517 117.668 116.695C117.878 116.87 118.046 117.089 118.172 117.352C118.297 117.612 118.361 117.896 118.364 118.204C118.361 118.597 118.255 118.947 118.044 119.255C117.836 119.56 117.546 119.801 117.174 119.976C116.805 120.149 116.377 120.235 115.892 120.235ZM115.892 119.454C116.221 119.454 116.505 119.401 116.744 119.294C116.983 119.188 117.168 119.037 117.298 118.843C117.428 118.649 117.495 118.422 117.497 118.161C117.495 117.887 117.424 117.644 117.284 117.433C117.144 117.223 116.954 117.057 116.712 116.936C116.473 116.815 116.2 116.755 115.892 116.755C115.582 116.755 115.305 116.815 115.061 116.936C114.82 117.057 114.629 117.223 114.489 117.433C114.352 117.644 114.284 117.887 114.287 118.161C114.284 118.422 114.347 118.649 114.475 118.843C114.605 119.037 114.791 119.188 115.033 119.294C115.274 119.401 115.561 119.454 115.892 119.454ZM115.892 116.002C116.152 116.002 116.383 115.95 116.584 115.846C116.788 115.742 116.948 115.596 117.064 115.409C117.18 115.222 117.239 115.003 117.241 114.752C117.239 114.506 117.181 114.292 117.067 114.109C116.954 113.925 116.796 113.783 116.595 113.683C116.394 113.582 116.159 113.531 115.892 113.531C115.62 113.531 115.382 113.582 115.178 113.683C114.975 113.783 114.817 113.925 114.706 114.109C114.595 114.292 114.54 114.506 114.543 114.752C114.54 115.003 114.596 115.222 114.709 115.409C114.825 115.596 114.985 115.742 115.189 115.846C115.392 115.95 115.627 116.002 115.892 116.002Z" fill="#828AA3"/>
<path d="M158.993 112.863H159.874V118.062C159.874 118.526 159.788 118.92 159.618 119.244C159.447 119.569 159.207 119.815 158.897 119.983C158.587 120.151 158.221 120.235 157.8 120.235C157.402 120.235 157.048 120.163 156.738 120.019C156.428 119.872 156.184 119.663 156.006 119.394C155.829 119.124 155.74 118.803 155.74 118.431H156.607C156.607 118.637 156.657 118.817 156.759 118.971C156.863 119.122 157.005 119.241 157.185 119.326C157.365 119.411 157.57 119.454 157.8 119.454C158.053 119.454 158.268 119.401 158.446 119.294C158.624 119.188 158.759 119.031 158.851 118.825C158.946 118.617 158.993 118.363 158.993 118.062V112.863ZM163.13 120.264C162.784 120.264 162.471 120.198 162.189 120.068C161.907 119.936 161.683 119.745 161.518 119.497C161.352 119.246 161.269 118.943 161.269 118.587C161.269 118.275 161.331 118.022 161.454 117.828C161.577 117.631 161.741 117.477 161.947 117.366C162.153 117.255 162.381 117.172 162.629 117.117C162.88 117.06 163.132 117.015 163.386 116.982C163.717 116.94 163.986 116.908 164.192 116.886C164.4 116.863 164.552 116.824 164.646 116.769C164.743 116.715 164.792 116.62 164.792 116.485V116.457C164.792 116.106 164.696 115.834 164.504 115.64C164.315 115.446 164.027 115.349 163.641 115.349C163.241 115.349 162.928 115.436 162.7 115.612C162.473 115.787 162.313 115.974 162.221 116.173L161.425 115.889C161.567 115.557 161.757 115.299 161.994 115.114C162.233 114.927 162.493 114.797 162.775 114.724C163.059 114.648 163.338 114.61 163.613 114.61C163.788 114.61 163.989 114.631 164.217 114.674C164.446 114.714 164.668 114.798 164.881 114.926C165.096 115.054 165.275 115.247 165.417 115.505C165.559 115.763 165.63 116.109 165.63 116.542V120.136H164.792V119.397H164.749C164.692 119.515 164.598 119.642 164.465 119.777C164.333 119.912 164.156 120.027 163.936 120.122C163.716 120.216 163.447 120.264 163.13 120.264ZM163.258 119.511C163.589 119.511 163.869 119.446 164.096 119.315C164.326 119.185 164.498 119.017 164.614 118.811C164.733 118.605 164.792 118.389 164.792 118.161V117.394C164.756 117.437 164.678 117.476 164.558 117.511C164.439 117.545 164.302 117.574 164.146 117.6C163.992 117.624 163.841 117.645 163.695 117.664C163.55 117.681 163.433 117.695 163.343 117.707C163.125 117.735 162.922 117.781 162.732 117.845C162.545 117.907 162.394 118 162.278 118.126C162.164 118.249 162.107 118.417 162.107 118.63C162.107 118.921 162.215 119.141 162.43 119.291C162.648 119.437 162.924 119.511 163.258 119.511ZM167.998 116.854V120.136H167.16V114.681H167.969V115.533H168.04C168.168 115.256 168.362 115.034 168.623 114.866C168.883 114.695 169.219 114.61 169.631 114.61C170.001 114.61 170.324 114.686 170.601 114.837C170.878 114.987 171.093 115.214 171.247 115.519C171.401 115.822 171.478 116.206 171.478 116.67V120.136H170.64V116.727C170.64 116.298 170.528 115.964 170.306 115.725C170.083 115.484 169.778 115.363 169.39 115.363C169.122 115.363 168.883 115.421 168.672 115.537C168.464 115.653 168.3 115.822 168.179 116.045C168.058 116.267 167.998 116.537 167.998 116.854ZM178.265 120.235C177.796 120.235 177.378 120.155 177.011 119.994C176.647 119.833 176.357 119.609 176.141 119.323C175.928 119.034 175.812 118.699 175.793 118.318H176.688C176.707 118.552 176.788 118.754 176.93 118.925C177.072 119.093 177.258 119.223 177.487 119.315C177.717 119.408 177.971 119.454 178.251 119.454C178.563 119.454 178.84 119.399 179.082 119.291C179.323 119.182 179.513 119.03 179.65 118.836C179.787 118.642 179.856 118.417 179.856 118.161C179.856 117.894 179.79 117.658 179.657 117.455C179.524 117.249 179.33 117.088 179.075 116.972C178.819 116.856 178.506 116.798 178.137 116.798H177.555V116.016H178.137C178.426 116.016 178.679 115.964 178.897 115.86C179.117 115.756 179.289 115.609 179.412 115.42C179.537 115.23 179.6 115.008 179.6 114.752C179.6 114.506 179.546 114.292 179.437 114.109C179.328 113.927 179.174 113.785 178.975 113.683C178.779 113.582 178.547 113.531 178.279 113.531C178.028 113.531 177.791 113.577 177.569 113.669C177.349 113.759 177.169 113.89 177.029 114.063C176.889 114.234 176.814 114.44 176.802 114.681H175.95C175.964 114.3 176.079 113.966 176.294 113.68C176.509 113.391 176.791 113.166 177.139 113.005C177.49 112.844 177.874 112.764 178.293 112.764C178.743 112.764 179.129 112.855 179.451 113.037C179.773 113.217 180.02 113.455 180.193 113.751C180.366 114.047 180.452 114.366 180.452 114.71C180.452 115.119 180.345 115.468 180.129 115.757C179.916 116.046 179.626 116.246 179.259 116.357V116.414C179.719 116.49 180.077 116.685 180.335 117C180.593 117.313 180.722 117.7 180.722 118.161C180.722 118.557 180.615 118.912 180.399 119.227C180.186 119.539 179.895 119.785 179.526 119.965C179.156 120.145 178.736 120.235 178.265 120.235ZM184.547 120.235C184.012 120.235 183.556 120.09 183.18 119.798C182.803 119.505 182.516 119.08 182.317 118.524C182.118 117.965 182.018 117.29 182.018 116.499C182.018 115.713 182.118 115.042 182.317 114.486C182.518 113.927 182.807 113.501 183.183 113.207C183.562 112.912 184.017 112.764 184.547 112.764C185.077 112.764 185.531 112.912 185.907 113.207C186.286 113.501 186.575 113.927 186.773 114.486C186.975 115.042 187.075 115.713 187.075 116.499C187.075 117.29 186.976 117.965 186.777 118.524C186.578 119.08 186.29 119.505 185.914 119.798C185.538 120.09 185.082 120.235 184.547 120.235ZM184.547 119.454C185.077 119.454 185.489 119.198 185.783 118.687C186.076 118.176 186.223 117.446 186.223 116.499C186.223 115.87 186.156 115.333 186.021 114.891C185.888 114.448 185.696 114.111 185.445 113.879C185.197 113.647 184.897 113.531 184.547 113.531C184.021 113.531 183.611 113.79 183.315 114.308C183.019 114.824 182.871 115.555 182.871 116.499C182.871 117.129 182.937 117.664 183.07 118.104C183.202 118.545 183.393 118.88 183.641 119.109C183.892 119.339 184.194 119.454 184.547 119.454Z" fill="#828AA3"/>
<line opacity="0.5" x1="-4.37114e-08" y1="100.201" x2="208" y2="100.201" stroke="#E6E9F1"/>
<line opacity="0.5" x1="-4.37114e-08" y1="75.0269" x2="208" y2="75.0268" stroke="#E6E9F1"/>
<line opacity="0.5" x1="-4.37114e-08" y1="49.8525" x2="208" y2="49.8525" stroke="#E6E9F1"/>
<line opacity="0.5" x1="-4.37114e-08" y1="-0.496094" x2="208" y2="-0.496112" stroke="#E6E9F1"/>
<line opacity="0.5" x1="-4.37114e-08" y1="24.6782" x2="208" y2="24.6782" stroke="#E6E9F1"/>
<rect x="6" y="64.1357" width="24" height="37" rx="4" fill="#C7D6FF"/>
<rect x="40" y="32.1357" width="24" height="69" rx="4" fill="url(#paint0_linear_4986_3040)"/>
<rect x="74" y="40.1357" width="24" height="61" rx="4" fill="#C7D6FF"/>
<rect x="108" y="5.13574" width="24" height="96" rx="4" fill="url(#paint1_linear_4986_3040)"/>
<rect x="142" y="61.1357" width="24" height="40" rx="4" fill="#C7D6FF"/>
<rect x="176" y="30.1357" width="24" height="71" rx="4" fill="url(#paint2_linear_4986_3040)"/>
</g>
<defs>
<linearGradient id="paint0_linear_4986_3040" x1="52" y1="32.1357" x2="52" y2="101.136" gradientUnits="userSpaceOnUse">
<stop stop-color="#3D7FFF"/>
<stop offset="1" stop-color="#4B5DFF"/>
<stop offset="1" stop-color="#4B5DFF"/>
</linearGradient>
<linearGradient id="paint1_linear_4986_3040" x1="120" y1="5.13574" x2="120" y2="101.136" gradientUnits="userSpaceOnUse">
<stop stop-color="#3D7FFF"/>
<stop offset="1" stop-color="#4B5DFF"/>
<stop offset="1" stop-color="#4B5DFF"/>
</linearGradient>
<linearGradient id="paint2_linear_4986_3040" x1="188" y1="30.1357" x2="188" y2="101.136" gradientUnits="userSpaceOnUse">
<stop stop-color="#3D7FFF"/>
<stop offset="1" stop-color="#4B5DFF"/>
<stop offset="1" stop-color="#4B5DFF"/>
</linearGradient>
<clipPath id="clip0_4986_3040">
<rect width="208" height="122" fill="white"/>
</clipPath>
</defs>
</svg>
