<svg width="12" height="12" viewBox="0 0 12 12" fill="none" xmlns="http://www.w3.org/2000/svg">
<g clip-path="url(#clip0_5050_4226)">
<path d="M11 3.09033V8.91107C11 9.24259 10.8683 9.56053 10.6339 9.79495C10.3995 10.0294 10.0815 10.1611 9.75 10.1611H2.25C1.91848 10.1611 1.60054 10.0294 1.36612 9.79495C1.1317 9.56053 1 9.24259 1 8.91107V3.09033" stroke="#1F2D54" stroke-width="1.5" stroke-linecap="round" stroke-linejoin="round"/>
<path d="M11 3.09033C11 2.75881 10.8683 2.44087 10.6339 2.20645C10.3995 1.97203 10.0815 1.84033 9.75 1.84033H2.25C1.91848 1.84033 1.60054 1.97203 1.36612 2.20645C1.1317 2.44087 1 2.75881 1 3.09033L5.3375 5.79867C5.53616 5.92283 5.76572 5.98867 6 5.98867C6.23428 5.98867 6.46384 5.92283 6.6625 5.79867L11 3.09033Z" stroke="#1F2D54" stroke-width="1.5" stroke-linecap="round" stroke-linejoin="round"/>
</g>
<defs>
<clipPath id="clip0_5050_4226">
<rect width="12" height="12" fill="white"/>
</clipPath>
</defs>
</svg>
