<svg width="12" height="12" viewBox="0 0 12 12" fill="none" xmlns="http://www.w3.org/2000/svg">
<g clip-path="url(#clip0_5050_4229)">
<g clip-path="url(#clip1_5050_4229)">
<path d="M1.54238 1.44227L6.94145 2.97689C7.30727 3.09705 7.6268 3.32776 7.85596 3.6372C8.08512 3.94663 8.21262 4.31955 8.22088 4.70452V9.89232C8.23627 10.0561 8.21154 10.2212 8.14883 10.3733C8.08611 10.5253 7.9873 10.6599 7.86093 10.7652C7.73456 10.8705 7.58444 10.9435 7.42355 10.9778C7.26265 11.012 7.09583 11.0066 6.9375 10.962L2.47135 9.7477C2.10546 9.63386 1.78465 9.40782 1.55432 9.10158C1.324 8.79533 1.19583 8.42441 1.18797 8.0413V2.38852C1.17986 2.02997 1.31388 1.68277 1.56077 1.42264C1.80767 1.16252 2.14742 1.01059 2.5059 1H9.33149C9.72423 1 10.1009 1.15601 10.3786 1.43372C10.6563 1.71143 10.8123 2.08808 10.8123 2.48082V6.90008C10.8106 7.09972 10.7695 7.29706 10.6913 7.48078C10.6132 7.66449 10.4995 7.83099 10.3569 7.97071C10.2143 8.11043 10.0455 8.22063 9.86024 8.295C9.67496 8.36937 9.47683 8.40645 9.2772 8.4041H8.22088" stroke="#1F2D54" stroke-width="1.125" stroke-linecap="round" stroke-linejoin="round"/>
<path d="M6.18461 6.5531C6.22122 6.5531 6.25701 6.56396 6.28745 6.5843C6.31789 6.60464 6.34162 6.63354 6.35563 6.66737C6.36964 6.70119 6.3733 6.73841 6.36616 6.77431C6.35902 6.81022 6.34139 6.8432 6.3155 6.86909C6.28961 6.89498 6.25663 6.91261 6.22073 6.91975C6.18482 6.92689 6.1476 6.92323 6.11378 6.90922C6.07996 6.89521 6.05105 6.87148 6.03071 6.84104C6.01037 6.8106 5.99951 6.77481 5.99951 6.7382C5.99951 6.68911 6.01901 6.64203 6.05373 6.60732C6.08844 6.5726 6.13552 6.5531 6.18461 6.5531" stroke="#1F2D54" stroke-width="1.125" stroke-linecap="round" stroke-linejoin="round"/>
</g>
</g>
<defs>
<clipPath id="clip0_5050_4229">
<rect width="12" height="12" fill="white"/>
</clipPath>
<clipPath id="clip1_5050_4229">
<rect width="12" height="12" fill="white"/>
</clipPath>
</defs>
</svg>
