<svg width="18" height="18" viewBox="0 0 18 18" fill="none" xmlns="http://www.w3.org/2000/svg">
<g clip-path="url(#clip0_4989_2871)">
<path d="M0.5625 9C0.5625 11.2378 1.45145 13.3839 3.03379 14.9662C4.61612 16.5486 6.76224 17.4375 9 17.4375C11.2378 17.4375 13.3839 16.5486 14.9662 14.9662C16.5486 13.3839 17.4375 11.2378 17.4375 9C17.4375 6.76224 16.5486 4.61612 14.9662 3.03379C13.3839 1.45145 11.2378 0.5625 9 0.5625C6.76224 0.5625 4.61612 1.45145 3.03379 3.03379C1.45145 4.61612 0.5625 6.76224 0.5625 9V9Z" fill="white"/>
<path fill-rule="evenodd" clip-rule="evenodd" d="M2.63604 2.63604C4.32387 0.948212 6.61305 0 9 0C11.3869 0 13.6761 0.948212 15.364 2.63604C17.0518 4.32387 18 6.61305 18 9C18 11.3869 17.0518 13.6761 15.364 15.364C13.6761 17.0518 11.3869 18 9 18C6.61305 18 4.32387 17.0518 2.63604 15.364C0.948212 13.6761 0 11.3869 0 9C0 6.61305 0.948212 4.32387 2.63604 2.63604ZM9 1.125C6.91142 1.125 4.90838 1.95469 3.43153 3.43153C1.95469 4.90838 1.125 6.91142 1.125 9C1.125 11.0886 1.95469 13.0916 3.43153 14.5685C4.90838 16.0453 6.91142 16.875 9 16.875C11.0886 16.875 13.0916 16.0453 14.5685 14.5685C16.0453 13.0916 16.875 11.0886 16.875 9C16.875 6.91142 16.0453 4.90838 14.5685 3.43153C13.0916 1.95469 11.0886 1.125 9 1.125Z" fill="#AAB1C6"/>
<path d="M4.84229 9.59409L7.21816 11.97L13.1579 6.03027" stroke="#454E66" stroke-width="1.2" stroke-linecap="round" stroke-linejoin="round"/>
</g>
<defs>
<clipPath id="clip0_4989_2871">
<rect width="18" height="18" fill="white"/>
</clipPath>
</defs>
</svg>
