<svg width="12" height="12" viewBox="0 0 12 12" fill="none" xmlns="http://www.w3.org/2000/svg">
<g clip-path="url(#clip0_5062_2873)">
<g clip-path="url(#clip1_5062_2873)">
<path d="M6 11C8.76142 11 11 8.76142 11 6C11 3.23858 8.76142 1 6 1C3.23858 1 1 3.23858 1 6C1 8.76142 3.23858 11 6 11Z" stroke="#828AA3" stroke-width="0.966436" stroke-linecap="round" stroke-linejoin="round"/>
<path d="M6 8.5V6" stroke="#828AA3" stroke-width="0.966436" stroke-linecap="round" stroke-linejoin="round"/>
<path d="M6.00013 3.66504C5.94449 3.66504 5.89011 3.68154 5.84385 3.71245C5.79759 3.74336 5.76154 3.78729 5.74024 3.83869C5.71895 3.89009 5.71338 3.94665 5.72424 4.00121C5.73509 4.05578 5.76188 4.1059 5.80122 4.14524C5.84056 4.18458 5.89068 4.21137 5.94525 4.22223C5.99982 4.23308 6.05638 4.22751 6.10778 4.20622C6.15918 4.18493 6.20311 4.14887 6.23402 4.10262C6.26493 4.05636 6.28142 4.00197 6.28142 3.94634C6.28152 3.90937 6.27432 3.87274 6.26021 3.83857C6.24611 3.8044 6.2254 3.77335 6.19926 3.74721C6.17311 3.72107 6.14207 3.70035 6.10789 3.68625C6.07372 3.67215 6.0371 3.66494 6.00013 3.66504Z" fill="#828AA3" stroke="#828AA3" stroke-width="0.966436" stroke-linecap="round" stroke-linejoin="round"/>
</g>
</g>
<defs>
<clipPath id="clip0_5062_2873">
<rect width="12" height="12" fill="white"/>
</clipPath>
<clipPath id="clip1_5062_2873">
<rect width="12" height="12" fill="white"/>
</clipPath>
</defs>
</svg>
