<svg width="12" height="12" viewBox="0 0 12 12" fill="none" xmlns="http://www.w3.org/2000/svg">
<g clip-path="url(#clip0_5056_2826)">
<path d="M11 3.09027V8.91101C11 9.24253 10.8683 9.56047 10.6339 9.79489C10.3995 10.0293 10.0815 10.161 9.75 10.161H2.25C1.91848 10.161 1.60054 10.0293 1.36612 9.79489C1.1317 9.56047 1 9.24253 1 8.91101V3.09027" stroke="#828AA3" stroke-width="1.5" stroke-linecap="round" stroke-linejoin="round"/>
<path d="M11 3.09027C11 2.75875 10.8683 2.44081 10.6339 2.20639C10.3995 1.97197 10.0815 1.84027 9.75 1.84027H2.25C1.91848 1.84027 1.60054 1.97197 1.36612 2.20639C1.1317 2.44081 1 2.75875 1 3.09027L5.3375 5.7986C5.53616 5.92277 5.76572 5.98861 6 5.98861C6.23428 5.98861 6.46384 5.92277 6.6625 5.7986L11 3.09027Z" stroke="#828AA3" stroke-width="1.5" stroke-linecap="round" stroke-linejoin="round"/>
</g>
<defs>
<clipPath id="clip0_5056_2826">
<rect width="12" height="12" fill="white"/>
</clipPath>
</defs>
</svg>
