<svg width="20" height="20" viewBox="0 0 20 20" fill="none" xmlns="http://www.w3.org/2000/svg">
<g clip-path="url(#clip0_4976_2812)">
<path d="M10 19.375C15.1777 19.375 19.375 15.1777 19.375 10C19.375 4.82233 15.1777 0.625 10 0.625C4.82233 0.625 0.625 4.82233 0.625 10C0.625 15.1777 4.82233 19.375 10 19.375Z" fill="#F7F8FC"/>
<path fill-rule="evenodd" clip-rule="evenodd" d="M10 1.25C5.16751 1.25 1.25 5.16751 1.25 10C1.25 14.8325 5.16751 18.75 10 18.75C14.8325 18.75 18.75 14.8325 18.75 10C18.75 5.16751 14.8325 1.25 10 1.25ZM0 10C0 4.47715 4.47715 0 10 0C15.5228 0 20 4.47715 20 10C20 15.5228 15.5228 20 10 20C4.47715 20 0 15.5228 0 10Z" fill="#FF9E2C"/>
<path d="M9.99976 5.92603V9.81809" stroke="#FF9E2C" stroke-width="1.2" stroke-linecap="round" stroke-linejoin="round"/>
<path d="M9.9999 14.074C10.5303 14.074 10.9602 13.6441 10.9602 13.1137C10.9602 12.5833 10.5303 12.1533 9.9999 12.1533C9.46951 12.1533 9.03955 12.5833 9.03955 13.1137C9.03955 13.6441 9.46951 14.074 9.9999 14.074Z" fill="#FF9E2C"/>
</g>
<defs>
<clipPath id="clip0_4976_2812">
<rect width="20" height="20" fill="white"/>
</clipPath>
</defs>
</svg>
